<?xml version="1.0" encoding="iso-8859-1"?>
<!-- Generator: Adobe Illustrator 19.2.0, SVG Export Plug-In . SVG Version: 6.00 Build 0)  -->
<svg version="1.1" id="Layer_1" xmlns="http://www.w3.org/2000/svg" xmlns:xlink="http://www.w3.org/1999/xlink" x="0px" y="0px"
	 viewBox="0 0 296.562 338.8" style="enable-background:new 0 0 296.562 338.8;" xml:space="preserve">
<g>
	<g>
		<g>
			<linearGradient id="SVGID_1_" gradientUnits="userSpaceOnUse" x1="256.3719" y1="145.0517" x2="296.5619" y2="145.0517">
				<stop  offset="0" style="stop-color:#090000"/>
				<stop  offset="0.1876" style="stop-color:#413C39"/>
				<stop  offset="0.335" style="stop-color:#4B4543"/>
				<stop  offset="0.5395" style="stop-color:#605857"/>
				<stop  offset="0.7914" style="stop-color:#261811"/>
			</linearGradient>
			<polygon style="fill:url(#SVGID_1_);" points="286.693,144.338 296.562,189.498 256.372,189.498 256.372,100.606 
				296.562,100.606 			"/>
			<g>
				<linearGradient id="SVGID_2_" gradientUnits="userSpaceOnUse" x1="256.3719" y1="104.663" x2="295.299" y2="104.663">
					<stop  offset="0" style="stop-color:#CCA54E"/>
					<stop  offset="0.0859" style="stop-color:#D2B978"/>
					<stop  offset="0.1656" style="stop-color:#7F4B1D"/>
					<stop  offset="0.2883" style="stop-color:#B77220"/>
					<stop  offset="0.4724" style="stop-color:#D2B978"/>
					<stop  offset="0.6029" style="stop-color:#CFB064"/>
					<stop  offset="0.7239" style="stop-color:#CCA54E"/>
					<stop  offset="1" style="stop-color:#C58E5A"/>
				</linearGradient>
				<polygon style="fill:url(#SVGID_2_);" points="256.372,103.65 256.372,105.676 294.457,105.676 295.299,103.65 				"/>
				<linearGradient id="SVGID_3_" gradientUnits="userSpaceOnUse" x1="256.3719" y1="185.4418" x2="295.3706" y2="185.4418">
					<stop  offset="0" style="stop-color:#CCA54E"/>
					<stop  offset="0.0859" style="stop-color:#D2B978"/>
					<stop  offset="0.1656" style="stop-color:#7F4B1D"/>
					<stop  offset="0.2883" style="stop-color:#B77220"/>
					<stop  offset="0.4724" style="stop-color:#D2B978"/>
					<stop  offset="0.6029" style="stop-color:#CFB064"/>
					<stop  offset="0.7239" style="stop-color:#CCA54E"/>
					<stop  offset="1" style="stop-color:#C58E5A"/>
				</linearGradient>
				<polygon style="fill:url(#SVGID_3_);" points="256.372,186.455 295.371,186.455 294.575,184.429 256.372,184.429 				"/>
			</g>
		</g>
		<g>
			
				<linearGradient id="SVGID_4_" gradientUnits="userSpaceOnUse" x1="3176.1733" y1="145.0517" x2="3216.3647" y2="145.0517" gradientTransform="matrix(-1 0 0 1 3216.3647 0)">
				<stop  offset="0" style="stop-color:#090000"/>
				<stop  offset="0.1876" style="stop-color:#413C39"/>
				<stop  offset="0.335" style="stop-color:#4B4543"/>
				<stop  offset="0.5395" style="stop-color:#605857"/>
				<stop  offset="0.7914" style="stop-color:#261811"/>
			</linearGradient>
			<polygon style="fill:url(#SVGID_4_);" points="9.87,144.338 0,189.498 40.191,189.498 40.191,100.606 0,100.606 			"/>
			<g>
				
					<linearGradient id="SVGID_5_" gradientUnits="userSpaceOnUse" x1="3176.1733" y1="104.663" x2="3215.1006" y2="104.663" gradientTransform="matrix(-1 0 0 1 3216.3647 0)">
					<stop  offset="0" style="stop-color:#CCA54E"/>
					<stop  offset="0.0859" style="stop-color:#D2B978"/>
					<stop  offset="0.1656" style="stop-color:#7F4B1D"/>
					<stop  offset="0.2883" style="stop-color:#B77220"/>
					<stop  offset="0.4724" style="stop-color:#D2B978"/>
					<stop  offset="0.6029" style="stop-color:#CFB064"/>
					<stop  offset="0.7239" style="stop-color:#CCA54E"/>
					<stop  offset="1" style="stop-color:#C58E5A"/>
				</linearGradient>
				<polygon style="fill:url(#SVGID_5_);" points="40.191,103.65 40.191,105.676 2.106,105.676 1.264,103.65 				"/>
				
					<linearGradient id="SVGID_6_" gradientUnits="userSpaceOnUse" x1="3176.1733" y1="185.4418" x2="3215.1736" y2="185.4418" gradientTransform="matrix(-1 0 0 1 3216.3647 0)">
					<stop  offset="0" style="stop-color:#CCA54E"/>
					<stop  offset="0.0859" style="stop-color:#D2B978"/>
					<stop  offset="0.1656" style="stop-color:#7F4B1D"/>
					<stop  offset="0.2883" style="stop-color:#B77220"/>
					<stop  offset="0.4724" style="stop-color:#D2B978"/>
					<stop  offset="0.6029" style="stop-color:#CFB064"/>
					<stop  offset="0.7239" style="stop-color:#CCA54E"/>
					<stop  offset="1" style="stop-color:#C58E5A"/>
				</linearGradient>
				<polygon style="fill:url(#SVGID_6_);" points="40.191,186.455 1.191,186.455 1.986,184.429 40.191,184.429 				"/>
			</g>
		</g>
	</g>
	<linearGradient id="SVGID_7_" gradientUnits="userSpaceOnUse" x1="148.2809" y1="338.8001" x2="148.2809" y2="0">
		<stop  offset="0" style="stop-color:#793700"/>
		<stop  offset="0.0402" style="stop-color:#813E00"/>
		<stop  offset="0.1025" style="stop-color:#975100"/>
		<stop  offset="0.1791" style="stop-color:#BA7000"/>
		<stop  offset="0.2662" style="stop-color:#EB9B00"/>
		<stop  offset="0.2788" style="stop-color:#F3A200"/>
		<stop  offset="0.503" style="stop-color:#FFF78E"/>
		<stop  offset="0.7576" style="stop-color:#F3A200"/>
		<stop  offset="1" style="stop-color:#793700"/>
	</linearGradient>
	<path style="fill:url(#SVGID_7_);" d="M248.143,33.139v-11.83c-2.465,0.226-4.925,0.391-7.365,0.391
		c-17.439,0-34.137-5.948-49.027-11.233c-0.043-0.047-0.44-0.176-0.513-0.199C175.728,4.768,162.054,0,148.264,0
		c-13.682,0-27.329,4.685-42.772,10.218c-0.117,0.041-0.609,0.201-0.658,0.248c-14.894,5.285-31.588,11.233-49.012,11.233
		c-2.44,0-4.916-0.165-7.427-0.391v11.83H34.842v127.418v17.69v127.415H48.42v11.83c2.465-0.226,4.923-0.391,7.365-0.391
		c17.439,0,34.139,5.948,49.028,11.233c0.041,0.047,0.44,0.176,0.513,0.201c15.51,5.497,29.182,10.265,42.973,10.265
		c13.682,0,27.331-4.685,42.772-10.218c0.117-0.041,0.609-0.201,0.658-0.248c14.894-5.285,31.59-11.233,49.01-11.233
		c2.44,0,4.916,0.165,7.428,0.391v-11.83h13.553V178.247v-17.69V33.139H248.143z"/>
	<path style="fill:#FFFFFF;" d="M148.299,332.965c-12.724,0-26.025-4.616-40.087-9.598l-0.023-0.026l-1.569-0.558
		c-15.21-5.398-32.447-11.517-50.834-11.517c-0.499,0-1.008,0.006-1.53,0.019v-11.459H40.676V38.973H54.23V27.514
		c0.543,0.013,1.071,0.02,1.592,0.02c18.361,0,35.59-6.114,50.791-11.508l1.371-0.487l0.026-0.025
		c15.886-5.683,28.111-9.678,40.252-9.678c12.744,0,26.059,4.627,40.137,9.616l0.023,0.025l1.526,0.541
		c15.207,5.398,32.444,11.517,50.829,11.517c0.499,0,1.008-0.006,1.531-0.019v11.459h13.577v260.854h-13.553v11.46
		c-0.543-0.013-1.073-0.02-1.594-0.02c-18.36,0-35.591,6.115-50.793,11.51l-1.369,0.486l-0.026,0.025
		C172.668,328.97,160.443,332.965,148.299,332.965L148.299,332.965z"/>
	<path style="fill:#090000;" d="M148.299,330.632c-12.158,0-25.081-4.427-38.736-9.261l-0.023-0.026l-2.141-0.76
		c-15.167-5.384-32.33-11.475-50.811-11.648v-11.444H43.01V41.307h13.554V29.864c18.481-0.16,35.654-6.254,50.83-11.639l1.854-0.658
		l0.028-0.027c15.432-5.513,27.342-9.371,38.988-9.371c12.183,0,25.126,4.442,38.804,9.286l0.022,0.024l2.079,0.738
		c15.165,5.383,32.326,11.474,50.806,11.647v11.444h13.577v256.186h-13.553v11.443c-18.479,0.16-35.656,6.255-50.833,11.64
		l-1.85,0.657l-0.028,0.027C171.856,326.774,159.948,330.632,148.299,330.632L148.299,330.632z"/>
	<linearGradient id="SVGID_8_" gradientUnits="userSpaceOnUse" x1="23.6179" y1="136.2052" x2="272.9453" y2="136.2052">
		<stop  offset="0" style="stop-color:#090000"/>
		<stop  offset="0.1876" style="stop-color:#45403C"/>
		<stop  offset="0.335" style="stop-color:#4F4946"/>
		<stop  offset="0.5395" style="stop-color:#645C5B"/>
		<stop  offset="0.7914" style="stop-color:#2A1B13"/>
	</linearGradient>
	<rect x="23.618" y="90.425" style="fill:url(#SVGID_8_);" width="249.327" height="91.561"/>
	<g>
		<linearGradient id="SVGID_9_" gradientUnits="userSpaceOnUse" x1="23.6179" y1="95.5894" x2="272.9453" y2="95.5894">
			<stop  offset="0" style="stop-color:#DBB154"/>
			<stop  offset="0.0859" style="stop-color:#F8E28F"/>
			<stop  offset="0.3313" style="stop-color:#B58A21"/>
			<stop  offset="0.4172" style="stop-color:#C89629"/>
			<stop  offset="0.6074" style="stop-color:#F8E28F"/>
			<stop  offset="0.6786" style="stop-color:#EED27B"/>
			<stop  offset="0.7914" style="stop-color:#DBB154"/>
			<stop  offset="1" style="stop-color:#D49961"/>
		</linearGradient>
		<rect x="23.618" y="94.563" style="fill:url(#SVGID_9_);" width="249.327" height="2.054"/>
		<linearGradient id="SVGID_10_" gradientUnits="userSpaceOnUse" x1="23.6179" y1="176.8208" x2="272.9453" y2="176.8208">
			<stop  offset="0" style="stop-color:#DBB154"/>
			<stop  offset="0.0859" style="stop-color:#F8E28F"/>
			<stop  offset="0.3313" style="stop-color:#B58A21"/>
			<stop  offset="0.4172" style="stop-color:#C89629"/>
			<stop  offset="0.6074" style="stop-color:#F8E28F"/>
			<stop  offset="0.6786" style="stop-color:#EED27B"/>
			<stop  offset="0.7914" style="stop-color:#DBB154"/>
			<stop  offset="1" style="stop-color:#D49961"/>
		</linearGradient>
		<rect x="23.618" y="175.794" style="fill:url(#SVGID_10_);" width="249.327" height="2.054"/>
	</g>
	<g>
		<g>
			<linearGradient id="SVGID_11_" gradientUnits="userSpaceOnUse" x1="149.2996" y1="167.3266" x2="149.2996" y2="107.7299">
				<stop  offset="0" style="stop-color:#793700"/>
				<stop  offset="0.0402" style="stop-color:#813E00"/>
				<stop  offset="0.1025" style="stop-color:#975100"/>
				<stop  offset="0.1791" style="stop-color:#BA7000"/>
				<stop  offset="0.2662" style="stop-color:#EB9B00"/>
				<stop  offset="0.2788" style="stop-color:#F3A200"/>
				<stop  offset="0.503" style="stop-color:#FFF78E"/>
				<stop  offset="0.7576" style="stop-color:#F3A200"/>
				<stop  offset="1" style="stop-color:#793700"/>
			</linearGradient>
			<path style="fill:url(#SVGID_11_);" d="M56.953,118.065c-2.641,0-4.3,1.434-4.3,5.205v5.658h-7.846v-5.13
				c0-8.449,4.225-13.277,12.372-13.277s12.372,4.828,12.372,13.277c0,7.016-2.565,12.674-10.26,20.896
				c-4.904,5.281-6.261,7.771-6.261,10.562c0,0.378,0,0.755,0.075,1.132h15.691v7.544h-23.99v-6.487
				c0-5.885,2.112-10.336,8.298-16.823c6.337-6.714,8.147-10.863,8.147-16.521C61.253,119.347,59.594,118.065,56.953,118.065z"/>
			<linearGradient id="SVGID_12_" gradientUnits="userSpaceOnUse" x1="149.2996" y1="167.3266" x2="149.2996" y2="107.7299">
				<stop  offset="0" style="stop-color:#793700"/>
				<stop  offset="0.0402" style="stop-color:#813E00"/>
				<stop  offset="0.1025" style="stop-color:#975100"/>
				<stop  offset="0.1791" style="stop-color:#BA7000"/>
				<stop  offset="0.2662" style="stop-color:#EB9B00"/>
				<stop  offset="0.2788" style="stop-color:#F3A200"/>
				<stop  offset="0.503" style="stop-color:#FFF78E"/>
				<stop  offset="0.7576" style="stop-color:#F3A200"/>
				<stop  offset="1" style="stop-color:#793700"/>
			</linearGradient>
			<path style="fill:url(#SVGID_12_);" d="M74.157,124.251c0-8.902,4.073-13.73,12.674-13.73c8.147,0,12.372,4.828,12.372,13.277
				v1.357h-7.846v-1.886c0-3.771-1.66-5.205-4.3-5.205c-2.942,0-4.602,1.434-4.602,6.487v9.581h0.151
				c1.433-3.018,3.847-4.602,7.544-4.602c6.11,0,9.203,4.3,9.203,12.07v9.656c0,8.449-4.451,13.277-12.598,13.277
				s-12.598-4.828-12.598-13.277V124.251z M82.454,142.281v9.506c0,3.771,1.66,5.13,4.3,5.13s4.3-1.358,4.3-5.13v-9.506
				c0-3.771-1.66-5.205-4.3-5.205S82.454,138.509,82.454,142.281z"/>
			<linearGradient id="SVGID_13_" gradientUnits="userSpaceOnUse" x1="149.2996" y1="167.3266" x2="149.2996" y2="107.7299">
				<stop  offset="0" style="stop-color:#793700"/>
				<stop  offset="0.0402" style="stop-color:#813E00"/>
				<stop  offset="0.1025" style="stop-color:#975100"/>
				<stop  offset="0.1791" style="stop-color:#BA7000"/>
				<stop  offset="0.2662" style="stop-color:#EB9B00"/>
				<stop  offset="0.2788" style="stop-color:#F3A200"/>
				<stop  offset="0.503" style="stop-color:#FFF78E"/>
				<stop  offset="0.7576" style="stop-color:#F3A200"/>
				<stop  offset="1" style="stop-color:#793700"/>
			</linearGradient>
			<path style="fill:url(#SVGID_13_);" d="M103.882,123.798c0-8.449,4.451-13.277,12.598-13.277s12.598,4.828,12.598,13.277v27.46
				c0,8.449-4.451,13.277-12.598,13.277s-12.598-4.828-12.598-13.277V123.798z M112.18,151.787c0,3.771,1.66,5.205,4.3,5.205
				s4.3-1.434,4.3-5.205V123.27c0-3.771-1.66-5.205-4.3-5.205s-4.3,1.434-4.3,5.205V151.787z"/>
			<linearGradient id="SVGID_14_" gradientUnits="userSpaceOnUse" x1="149.2996" y1="167.3266" x2="149.2996" y2="107.7299">
				<stop  offset="0" style="stop-color:#793700"/>
				<stop  offset="0.0402" style="stop-color:#813E00"/>
				<stop  offset="0.1025" style="stop-color:#975100"/>
				<stop  offset="0.1791" style="stop-color:#BA7000"/>
				<stop  offset="0.2662" style="stop-color:#EB9B00"/>
				<stop  offset="0.2788" style="stop-color:#F3A200"/>
				<stop  offset="0.503" style="stop-color:#FFF78E"/>
				<stop  offset="0.7576" style="stop-color:#F3A200"/>
				<stop  offset="1" style="stop-color:#793700"/>
			</linearGradient>
			<path style="fill:url(#SVGID_14_);" d="M142.962,111.653v-3.923h6.791v3.923c5.884,1.207,8.901,5.733,8.901,12.899v1.66h-7.846
				v-2.188c0-3.772-1.509-5.205-4.149-5.205c-2.64,0-4.149,1.433-4.149,5.205c0,3.771,1.509,6.412,7.091,10.863
				c6.79,5.432,9.128,9.58,9.128,15.615c0,7.167-3.093,11.77-8.977,12.977v3.847h-6.791v-3.847
				c-5.959-1.207-8.977-5.81-8.977-12.977v-3.621h7.846v4.149c0,3.772,1.66,5.13,4.3,5.13c2.64,0,4.3-1.357,4.3-5.13
				c0-3.771-1.509-6.487-7.092-10.863c-6.79-5.356-9.128-9.581-9.128-15.616C134.211,117.461,137.154,112.935,142.962,111.653z"/>
			<linearGradient id="SVGID_15_" gradientUnits="userSpaceOnUse" x1="149.2996" y1="167.3266" x2="149.2996" y2="107.7299">
				<stop  offset="0" style="stop-color:#793700"/>
				<stop  offset="0.0402" style="stop-color:#813E00"/>
				<stop  offset="0.1025" style="stop-color:#975100"/>
				<stop  offset="0.1791" style="stop-color:#BA7000"/>
				<stop  offset="0.2662" style="stop-color:#EB9B00"/>
				<stop  offset="0.2788" style="stop-color:#F3A200"/>
				<stop  offset="0.503" style="stop-color:#FFF78E"/>
				<stop  offset="0.7576" style="stop-color:#F3A200"/>
				<stop  offset="1" style="stop-color:#793700"/>
			</linearGradient>
			<path style="fill:url(#SVGID_15_);" d="M175.33,123.798c0-8.449,4.451-13.277,12.599-13.277s12.599,4.828,12.599,13.277v27.46
				c0,8.449-4.451,13.277-12.599,13.277s-12.599-4.828-12.599-13.277V123.798z M183.629,151.787c0,3.771,1.659,5.205,4.3,5.205
				s4.3-1.434,4.3-5.205V123.27c0-3.771-1.659-5.205-4.3-5.205s-4.3,1.434-4.3,5.205V151.787z"/>
			<linearGradient id="SVGID_16_" gradientUnits="userSpaceOnUse" x1="149.2996" y1="167.3266" x2="149.2996" y2="107.7299">
				<stop  offset="0" style="stop-color:#793700"/>
				<stop  offset="0.0402" style="stop-color:#813E00"/>
				<stop  offset="0.1025" style="stop-color:#975100"/>
				<stop  offset="0.1791" style="stop-color:#BA7000"/>
				<stop  offset="0.2662" style="stop-color:#EB9B00"/>
				<stop  offset="0.2788" style="stop-color:#F3A200"/>
				<stop  offset="0.503" style="stop-color:#FFF78E"/>
				<stop  offset="0.7576" style="stop-color:#F3A200"/>
				<stop  offset="1" style="stop-color:#793700"/>
			</linearGradient>
			<path style="fill:url(#SVGID_16_);" d="M214.183,134.586h10.713v7.544h-10.713v21.802h-8.298v-52.808h21.953v7.544h-13.655
				V134.586z"/>
			<linearGradient id="SVGID_17_" gradientUnits="userSpaceOnUse" x1="149.2996" y1="167.3266" x2="149.2996" y2="107.7299">
				<stop  offset="0" style="stop-color:#793700"/>
				<stop  offset="0.0402" style="stop-color:#813E00"/>
				<stop  offset="0.1025" style="stop-color:#975100"/>
				<stop  offset="0.1791" style="stop-color:#BA7000"/>
				<stop  offset="0.2662" style="stop-color:#EB9B00"/>
				<stop  offset="0.2788" style="stop-color:#F3A200"/>
				<stop  offset="0.503" style="stop-color:#FFF78E"/>
				<stop  offset="0.7576" style="stop-color:#F3A200"/>
				<stop  offset="1" style="stop-color:#793700"/>
			</linearGradient>
			<path style="fill:url(#SVGID_17_);" d="M240.137,134.586h10.712v7.544h-10.712v21.802h-8.299v-52.808h21.953v7.544h-13.654
				V134.586z"/>
		</g>
	</g>
	<g>
		<g>
			<path style="fill:#FFFFFF;" d="M138.91,58.941l0.513,6.27h-0.513c-0.518-1.563-1.187-2.739-2.007-3.53
				c-1.182-1.143-2.7-1.714-4.556-1.714c-2.529,0-4.453,1.001-5.771,3.003c-1.104,1.689-1.655,3.701-1.655,6.035
				c0,1.895,0.366,3.623,1.099,5.186s1.692,2.708,2.878,3.436s2.405,1.091,3.655,1.091c0.732,0,1.44-0.093,2.124-0.278
				s1.343-0.459,1.978-0.82v-5.742c0-0.996-0.076-1.648-0.227-1.955c-0.151-0.309-0.386-0.543-0.703-0.703
				c-0.317-0.162-0.876-0.242-1.677-0.242v-0.557h7.69v0.557h-0.366c-0.762,0-1.284,0.254-1.567,0.762
				c-0.195,0.361-0.293,1.074-0.293,2.139v6.079c-1.123,0.605-2.231,1.05-3.325,1.333s-2.31,0.425-3.647,0.425
				c-3.838,0-6.753-1.23-8.745-3.691c-1.494-1.846-2.241-3.975-2.241-6.387c0-1.748,0.42-3.423,1.26-5.024
				c0.996-1.904,2.363-3.369,4.102-4.395c1.455-0.85,3.174-1.274,5.156-1.274c0.723,0,1.379,0.059,1.97,0.176
				s1.428,0.376,2.512,0.776c0.547,0.205,0.913,0.308,1.099,0.308s0.344-0.085,0.476-0.257c0.132-0.17,0.212-0.505,0.242-1.003
				H138.91z"/>
			<path style="fill:#FFFFFF;" d="M148.432,60.479v7.852h4.366c1.133,0,1.89-0.171,2.271-0.513c0.508-0.449,0.791-1.24,0.85-2.373
				h0.542v6.914h-0.542c-0.137-0.967-0.273-1.587-0.41-1.86c-0.176-0.342-0.464-0.61-0.864-0.806s-1.016-0.293-1.846-0.293h-4.366
				v6.548c0,0.879,0.039,1.414,0.117,1.604c0.078,0.191,0.215,0.343,0.41,0.455c0.196,0.112,0.567,0.168,1.114,0.168h3.369
				c1.123,0,1.938-0.078,2.446-0.234s0.996-0.464,1.465-0.923c0.605-0.605,1.226-1.519,1.86-2.739h0.586l-1.714,4.98h-15.308v-0.542
				h0.703c0.469,0,0.913-0.112,1.333-0.337c0.312-0.156,0.525-0.391,0.637-0.703s0.168-0.952,0.168-1.919V62.852
				c0-1.26-0.127-2.036-0.381-2.329c-0.352-0.391-0.938-0.586-1.758-0.586h-0.703v-0.542h15.308l0.22,4.351h-0.571
				c-0.205-1.045-0.433-1.763-0.682-2.153s-0.617-0.688-1.105-0.894c-0.391-0.146-1.079-0.22-2.065-0.22H148.432z"/>
			<path style="fill:#FFFFFF;" d="M177.846,59.395l0.22,4.658h-0.557c-0.107-0.82-0.254-1.406-0.439-1.758
				c-0.303-0.566-0.706-0.983-1.209-1.252s-1.164-0.403-1.984-0.403h-2.798v15.176c0,1.221,0.132,1.982,0.396,2.285
				c0.371,0.41,0.942,0.615,1.714,0.615h0.688v0.542h-8.423v-0.542h0.703c0.84,0,1.436-0.254,1.787-0.762
				c0.215-0.312,0.322-1.025,0.322-2.139V60.64h-2.388c-0.928,0-1.587,0.068-1.978,0.205c-0.508,0.186-0.942,0.542-1.304,1.069
				s-0.576,1.24-0.645,2.139h-0.557l0.234-4.658H177.846z"/>
		</g>
		<g>
			<path style="fill:#FFFFFF;" d="M138.91,58.941l0.513,6.27h-0.513c-0.518-1.563-1.187-2.739-2.007-3.53
				c-1.182-1.143-2.7-1.714-4.556-1.714c-2.529,0-4.453,1.001-5.771,3.003c-1.104,1.689-1.655,3.701-1.655,6.035
				c0,1.895,0.366,3.623,1.099,5.186s1.692,2.708,2.878,3.436s2.405,1.091,3.655,1.091c0.732,0,1.44-0.093,2.124-0.278
				s1.343-0.459,1.978-0.82v-5.742c0-0.996-0.076-1.648-0.227-1.955c-0.151-0.309-0.386-0.543-0.703-0.703
				c-0.317-0.162-0.876-0.242-1.677-0.242v-0.557h7.69v0.557h-0.366c-0.762,0-1.284,0.254-1.567,0.762
				c-0.195,0.361-0.293,1.074-0.293,2.139v6.079c-1.123,0.605-2.231,1.05-3.325,1.333s-2.31,0.425-3.647,0.425
				c-3.838,0-6.753-1.23-8.745-3.691c-1.494-1.846-2.241-3.975-2.241-6.387c0-1.748,0.42-3.423,1.26-5.024
				c0.996-1.904,2.363-3.369,4.102-4.395c1.455-0.85,3.174-1.274,5.156-1.274c0.723,0,1.379,0.059,1.97,0.176
				s1.428,0.376,2.512,0.776c0.547,0.205,0.913,0.308,1.099,0.308s0.344-0.085,0.476-0.257c0.132-0.17,0.212-0.505,0.242-1.003
				H138.91z"/>
			<path style="fill:#FFFFFF;" d="M148.432,60.479v7.852h4.366c1.133,0,1.89-0.171,2.271-0.513c0.508-0.449,0.791-1.24,0.85-2.373
				h0.542v6.914h-0.542c-0.137-0.967-0.273-1.587-0.41-1.86c-0.176-0.342-0.464-0.61-0.864-0.806s-1.016-0.293-1.846-0.293h-4.366
				v6.548c0,0.879,0.039,1.414,0.117,1.604c0.078,0.191,0.215,0.343,0.41,0.455c0.196,0.112,0.567,0.168,1.114,0.168h3.369
				c1.123,0,1.938-0.078,2.446-0.234s0.996-0.464,1.465-0.923c0.605-0.605,1.226-1.519,1.86-2.739h0.586l-1.714,4.98h-15.308v-0.542
				h0.703c0.469,0,0.913-0.112,1.333-0.337c0.312-0.156,0.525-0.391,0.637-0.703s0.168-0.952,0.168-1.919V62.852
				c0-1.26-0.127-2.036-0.381-2.329c-0.352-0.391-0.938-0.586-1.758-0.586h-0.703v-0.542h15.308l0.22,4.351h-0.571
				c-0.205-1.045-0.433-1.763-0.682-2.153s-0.617-0.688-1.105-0.894c-0.391-0.146-1.079-0.22-2.065-0.22H148.432z"/>
			<path style="fill:#FFFFFF;" d="M177.846,59.395l0.22,4.658h-0.557c-0.107-0.82-0.254-1.406-0.439-1.758
				c-0.303-0.566-0.706-0.983-1.209-1.252s-1.164-0.403-1.984-0.403h-2.798v15.176c0,1.221,0.132,1.982,0.396,2.285
				c0.371,0.41,0.942,0.615,1.714,0.615h0.688v0.542h-8.423v-0.542h0.703c0.84,0,1.436-0.254,1.787-0.762
				c0.215-0.312,0.322-1.025,0.322-2.139V60.64h-2.388c-0.928,0-1.587,0.068-1.978,0.205c-0.508,0.186-0.942,0.542-1.304,1.069
				s-0.576,1.24-0.645,2.139h-0.557l0.234-4.658H177.846z"/>
		</g>
	</g>
	<g>
		<g>
			<path style="fill:#FFFFFF;" d="M72.324,202.261c2.148,0,4.01,0.816,5.584,2.448c1.575,1.632,2.362,3.668,2.362,6.109
				c0,2.515-0.793,4.603-2.38,6.263s-3.508,2.49-5.762,2.49c-2.279,0-4.193-0.811-5.744-2.43c-1.55-1.619-2.325-3.715-2.325-6.287
				c0-2.628,0.895-4.772,2.686-6.433C68.299,202.982,70.158,202.261,72.324,202.261z M72.092,203.153
				c-1.481,0-2.669,0.55-3.564,1.647c-1.115,1.367-1.672,3.369-1.672,6.006c0,2.702,0.578,4.781,1.733,6.238
				c0.887,1.106,2.059,1.66,3.516,1.66c1.554,0,2.838-0.606,3.851-1.818c1.014-1.213,1.52-3.125,1.52-5.738
				c0-2.832-0.558-4.943-1.672-6.335C74.907,203.706,73.67,203.153,72.092,203.153z"/>
			<path style="fill:#FFFFFF;" d="M80.905,202.64h4.492l10.12,12.414v-9.545c0-1.018-0.114-1.652-0.342-1.904
				c-0.301-0.342-0.777-0.514-1.428-0.514h-0.574v-0.451h5.762v0.451h-0.586c-0.7,0-1.196,0.212-1.489,0.635
				c-0.179,0.261-0.269,0.855-0.269,1.783v13.952h-0.439l-10.913-13.33v10.192c0,1.018,0.11,1.652,0.33,1.904
				c0.309,0.342,0.785,0.514,1.428,0.514h0.586v0.451h-5.762v-0.451h0.574c0.708,0,1.208-0.212,1.501-0.635
				c0.179-0.261,0.269-0.855,0.269-1.783v-11.511c-0.48-0.562-0.844-0.932-1.093-1.11c-0.248-0.18-0.612-0.347-1.092-0.501
				c-0.236-0.073-0.594-0.11-1.074-0.11V202.64z"/>
			<path style="fill:#FFFFFF;" d="M110.666,211.441v4.822c0,1.042,0.114,1.688,0.342,1.941c0.309,0.357,0.777,0.537,1.404,0.537
				h0.635v0.451h-7.092v-0.451h0.623c0.7,0,1.2-0.229,1.501-0.684c0.163-0.253,0.244-0.851,0.244-1.795V205.57
				c0-1.042-0.11-1.688-0.33-1.941c-0.317-0.357-0.79-0.537-1.416-0.537h-0.623v-0.451h6.067c1.481,0,2.649,0.152,3.503,0.458
				c0.854,0.305,1.575,0.819,2.161,1.544s0.879,1.583,0.879,2.576c0,1.351-0.446,2.449-1.336,3.295
				c-0.892,0.847-2.151,1.27-3.778,1.27c-0.399,0-0.83-0.028-1.294-0.085S111.195,211.555,110.666,211.441z M110.666,210.746
				c0.431,0.081,0.813,0.143,1.147,0.184c0.333,0.04,0.618,0.061,0.854,0.061c0.846,0,1.577-0.327,2.191-0.982
				c0.614-0.655,0.921-1.504,0.921-2.545c0-0.717-0.146-1.382-0.439-1.996s-0.708-1.074-1.245-1.38
				c-0.537-0.305-1.147-0.458-1.831-0.458c-0.415,0-0.948,0.078-1.599,0.232V210.746z"/>
			<path style="fill:#FFFFFF;" d="M131.369,203.091v-0.451h5.859v0.451h-0.623c-0.651,0-1.152,0.273-1.501,0.818
				c-0.171,0.252-0.256,0.838-0.256,1.758v6.714c0,1.66-0.165,2.948-0.494,3.863c-0.33,0.916-0.977,1.701-1.941,2.356
				c-0.964,0.654-2.276,0.982-3.937,0.982c-1.807,0-3.178-0.313-4.114-0.939c-0.936-0.627-1.599-1.47-1.99-2.527
				c-0.261-0.725-0.391-2.083-0.391-4.077v-6.47c0-1.018-0.141-1.685-0.421-2.002c-0.281-0.317-0.735-0.477-1.361-0.477h-0.623
				v-0.451h7.153v0.451h-0.635c-0.684,0-1.172,0.216-1.465,0.647c-0.204,0.293-0.305,0.903-0.305,1.831v7.215
				c0,0.643,0.059,1.379,0.177,2.209c0.118,0.83,0.332,1.477,0.641,1.941c0.309,0.463,0.755,0.846,1.336,1.146
				c0.582,0.302,1.296,0.452,2.143,0.452c1.082,0,2.051-0.236,2.905-0.708s1.438-1.076,1.752-1.812
				c0.313-0.736,0.47-1.984,0.47-3.742v-6.701c0-1.033-0.114-1.681-0.342-1.941c-0.317-0.357-0.79-0.537-1.416-0.537H131.369z"/>
			<path style="fill:#FFFFFF;" d="M154.391,219.193h-4.419l-5.603-7.739c-0.415,0.017-0.753,0.024-1.013,0.024
				c-0.106,0-0.22-0.002-0.342-0.006s-0.249-0.011-0.378-0.019v4.81c0,1.042,0.114,1.688,0.342,1.941
				c0.309,0.357,0.773,0.537,1.392,0.537h0.647v0.451h-7.092v-0.451h0.623c0.7,0,1.2-0.229,1.501-0.684
				c0.171-0.253,0.256-0.851,0.256-1.795V205.57c0-1.042-0.114-1.688-0.342-1.941c-0.317-0.357-0.79-0.537-1.416-0.537h-0.623
				v-0.451h6.03c1.758,0,3.054,0.128,3.888,0.385c0.834,0.256,1.542,0.729,2.124,1.416s0.873,1.508,0.873,2.459
				c0,1.018-0.332,1.9-0.995,2.649s-1.691,1.277-3.083,1.587l3.418,4.748c0.781,1.091,1.452,1.815,2.014,2.174
				c0.562,0.357,1.294,0.586,2.197,0.684V219.193z M142.636,210.685c0.154,0,0.289,0.002,0.403,0.006
				c0.114,0.004,0.208,0.006,0.281,0.006c1.579,0,2.769-0.342,3.571-1.025c0.801-0.684,1.202-1.555,1.202-2.612
				c0-1.033-0.323-1.874-0.971-2.521c-0.646-0.647-1.503-0.971-2.569-0.971c-0.472,0-1.111,0.077-1.917,0.232V210.685z"/>
			<path style="fill:#FFFFFF;" d="M169.223,202.261l0.378,5.628h-0.378c-0.505-1.685-1.226-2.897-2.161-3.638
				s-2.059-1.111-3.369-1.111c-1.099,0-2.092,0.279-2.979,0.837s-1.585,1.446-2.094,2.667c-0.508,1.221-0.763,2.738-0.763,4.553
				c0,1.498,0.24,2.796,0.721,3.895c0.479,1.099,1.202,1.941,2.166,2.527c0.965,0.586,2.065,0.879,3.303,0.879
				c1.074,0,2.021-0.23,2.844-0.69c0.822-0.459,1.726-1.373,2.71-2.74l0.379,0.244c-0.83,1.473-1.799,2.552-2.905,3.235
				c-1.107,0.684-2.422,1.025-3.943,1.025c-2.742,0-4.866-1.018-6.372-3.053c-1.123-1.514-1.685-3.295-1.685-5.346
				c0-1.652,0.37-3.17,1.111-4.554c0.74-1.384,1.76-2.455,3.058-3.217c1.298-0.761,2.716-1.142,4.254-1.142
				c1.196,0,2.376,0.293,3.54,0.879c0.342,0.18,0.586,0.27,0.732,0.27c0.22,0,0.411-0.078,0.574-0.232
				c0.211-0.22,0.361-0.525,0.451-0.916H169.223z"/>
			<path style="fill:#FFFFFF;" d="M175.986,210.318h7.69v-4.736c0-0.846-0.054-1.403-0.159-1.672
				c-0.081-0.203-0.252-0.379-0.513-0.525c-0.35-0.195-0.72-0.293-1.11-0.293h-0.586v-0.451h7.08v0.451h-0.586
				c-0.391,0-0.762,0.094-1.111,0.281c-0.261,0.13-0.438,0.328-0.531,0.592c-0.093,0.265-0.14,0.804-0.14,1.617v10.682
				c0,0.838,0.053,1.392,0.158,1.66c0.081,0.203,0.248,0.379,0.501,0.525c0.357,0.195,0.732,0.293,1.123,0.293h0.586v0.451h-7.08
				v-0.451h0.586c0.675,0,1.167-0.2,1.477-0.599c0.203-0.261,0.306-0.887,0.306-1.88v-5.041h-7.69v5.041
				c0,0.838,0.053,1.392,0.158,1.66c0.081,0.203,0.252,0.379,0.513,0.525c0.35,0.195,0.721,0.293,1.111,0.293h0.598v0.451h-7.092
				v-0.451h0.586c0.684,0,1.18-0.2,1.489-0.599c0.195-0.261,0.293-0.887,0.293-1.88v-10.682c0-0.846-0.054-1.403-0.159-1.672
				c-0.081-0.203-0.248-0.379-0.5-0.525c-0.358-0.195-0.732-0.293-1.123-0.293h-0.586v-0.451h7.092v0.451h-0.598
				c-0.391,0-0.762,0.094-1.111,0.281c-0.252,0.13-0.427,0.328-0.524,0.592c-0.098,0.265-0.146,0.804-0.146,1.617V210.318z"/>
			<path style="fill:#FFFFFF;" d="M200.339,213.651h-6.408l-1.123,2.612c-0.277,0.643-0.415,1.123-0.415,1.44
				c0,0.252,0.12,0.475,0.36,0.665c0.239,0.191,0.758,0.315,1.556,0.373v0.451h-5.212v-0.451c0.691-0.123,1.139-0.281,1.343-0.477
				c0.415-0.391,0.874-1.184,1.379-2.381l5.823-13.623h0.427l5.762,13.77c0.464,1.107,0.886,1.825,1.264,2.155
				c0.379,0.329,0.905,0.515,1.581,0.556v0.451h-6.531v-0.451c0.659-0.033,1.105-0.143,1.337-0.33
				c0.232-0.188,0.348-0.415,0.348-0.684c0-0.358-0.163-0.924-0.488-1.697L200.339,213.651z M199.997,212.747l-2.808-6.689
				l-2.881,6.689H199.997z"/>
			<path style="fill:#FFFFFF;" d="M218.418,202.261v5.726h-0.452c-0.146-1.099-0.409-1.974-0.787-2.624
				c-0.379-0.651-0.918-1.168-1.617-1.551c-0.7-0.383-1.425-0.574-2.173-0.574c-0.847,0-1.547,0.259-2.1,0.775
				c-0.554,0.518-0.83,1.105-0.83,1.764c0,0.505,0.175,0.965,0.524,1.38c0.505,0.61,1.705,1.424,3.602,2.441
				c1.546,0.83,2.602,1.467,3.167,1.91c0.566,0.444,1.001,0.967,1.307,1.569c0.305,0.602,0.458,1.232,0.458,1.892
				c0,1.253-0.486,2.334-1.459,3.241s-2.224,1.361-3.754,1.361c-0.48,0-0.932-0.037-1.354-0.11
				c-0.253-0.041-0.775-0.189-1.569-0.445c-0.793-0.257-1.296-0.385-1.507-0.385c-0.204,0-0.364,0.062-0.482,0.183
				c-0.118,0.123-0.206,0.375-0.263,0.758h-0.451v-5.677h0.451c0.212,1.188,0.496,2.077,0.854,2.667
				c0.358,0.591,0.905,1.08,1.642,1.471c0.737,0.391,1.545,0.586,2.424,0.586c1.017,0,1.82-0.268,2.41-0.805
				c0.591-0.537,0.886-1.172,0.886-1.904c0-0.407-0.112-0.818-0.336-1.233s-0.572-0.802-1.044-1.159
				c-0.317-0.244-1.184-0.764-2.6-1.557c-1.416-0.794-2.424-1.427-3.021-1.898c-0.599-0.472-1.052-0.993-1.361-1.562
				s-0.464-1.196-0.464-1.88c0-1.188,0.456-2.211,1.367-3.07c0.911-0.858,2.071-1.288,3.479-1.288c0.879,0,1.811,0.216,2.795,0.647
				c0.456,0.203,0.777,0.306,0.965,0.306c0.211,0,0.384-0.063,0.519-0.189c0.134-0.126,0.242-0.381,0.323-0.764H218.418z"/>
			<path style="fill:#FFFFFF;" d="M226.084,203.543v6.543h3.638c0.943,0,1.574-0.143,1.892-0.427
				c0.423-0.375,0.659-1.034,0.708-1.979h0.452v5.762h-0.452c-0.114-0.805-0.228-1.322-0.342-1.55
				c-0.146-0.285-0.387-0.509-0.72-0.671c-0.334-0.163-0.847-0.244-1.538-0.244h-3.638v5.456c0,0.732,0.032,1.178,0.098,1.337
				c0.064,0.158,0.179,0.285,0.342,0.378c0.162,0.094,0.472,0.141,0.928,0.141h2.808c0.936,0,1.615-0.065,2.038-0.195
				s0.83-0.387,1.221-0.769c0.505-0.505,1.021-1.266,1.551-2.283h0.488l-1.429,4.15h-12.756v-0.451h0.586
				c0.391,0,0.761-0.094,1.11-0.281c0.261-0.13,0.438-0.325,0.531-0.586s0.141-0.793,0.141-1.6v-10.754
				c0-1.05-0.106-1.697-0.317-1.941c-0.293-0.325-0.781-0.488-1.465-0.488h-0.586v-0.451h12.756l0.184,3.625h-0.477
				c-0.171-0.87-0.359-1.469-0.567-1.794c-0.207-0.325-0.515-0.573-0.922-0.745c-0.325-0.121-0.899-0.183-1.721-0.183H226.084z"/>
			<path style="fill:#FFFFFF;" d="M118.039,243.651h-6.409l-1.123,2.612c-0.277,0.643-0.415,1.123-0.415,1.44
				c0,0.252,0.12,0.475,0.36,0.665c0.24,0.191,0.758,0.315,1.556,0.373v0.451h-5.212v-0.451c0.691-0.123,1.139-0.281,1.343-0.477
				c0.415-0.391,0.875-1.184,1.379-2.381l5.823-13.623h0.427l5.762,13.77c0.464,1.107,0.885,1.825,1.263,2.155
				c0.379,0.329,0.905,0.515,1.581,0.556v0.451h-6.531v-0.451c0.659-0.033,1.105-0.143,1.336-0.33
				c0.232-0.188,0.348-0.415,0.348-0.684c0-0.358-0.163-0.924-0.488-1.697L118.039,243.651z M117.697,242.747l-2.808-6.689
				l-2.881,6.689H117.697z"/>
			<path style="fill:#FFFFFF;" d="M136.203,240.746c1.147,0.244,2.006,0.635,2.576,1.172c0.789,0.749,1.184,1.664,1.184,2.746
				c0,0.822-0.261,1.61-0.781,2.362c-0.521,0.753-1.235,1.303-2.143,1.648c-0.907,0.346-2.293,0.519-4.156,0.519h-7.812v-0.451
				h0.623c0.691,0,1.188-0.221,1.489-0.66c0.187-0.284,0.281-0.891,0.281-1.818V235.57c0-1.025-0.118-1.672-0.354-1.941
				c-0.317-0.357-0.79-0.537-1.416-0.537h-0.623v-0.451h7.153c1.334,0,2.405,0.098,3.21,0.293c1.221,0.293,2.152,0.812,2.795,1.557
				c0.643,0.744,0.964,1.601,0.964,2.569c0,0.83-0.252,1.573-0.757,2.228C137.932,239.942,137.187,240.428,136.203,240.746z
				 M129.806,240.086c0.301,0.057,0.645,0.1,1.031,0.128c0.387,0.029,0.812,0.043,1.276,0.043c1.188,0,2.082-0.128,2.679-0.385
				c0.599-0.256,1.056-0.648,1.374-1.178s0.476-1.106,0.476-1.733c0-0.969-0.395-1.794-1.184-2.478
				c-0.79-0.684-1.941-1.025-3.455-1.025c-0.814,0-1.546,0.089-2.197,0.268V240.086z M129.806,247.997
				c0.944,0.22,1.875,0.329,2.795,0.329c1.473,0,2.596-0.331,3.369-0.994c0.773-0.663,1.16-1.483,1.16-2.46
				c0-0.643-0.175-1.262-0.525-1.855c-0.35-0.594-0.92-1.062-1.709-1.403c-0.79-0.342-1.766-0.514-2.93-0.514
				c-0.505,0-0.936,0.009-1.294,0.025c-0.358,0.016-0.647,0.044-0.867,0.085V247.997z"/>
			<path style="fill:#FFFFFF;" d="M150.473,232.261c2.148,0,4.01,0.816,5.584,2.448c1.575,1.632,2.362,3.668,2.362,6.109
				c0,2.515-0.793,4.603-2.38,6.263s-3.508,2.49-5.762,2.49c-2.279,0-4.193-0.811-5.744-2.43c-1.55-1.619-2.325-3.715-2.325-6.287
				c0-2.628,0.895-4.772,2.686-6.433C146.449,232.982,148.308,232.261,150.473,232.261z M150.241,233.153
				c-1.481,0-2.669,0.55-3.564,1.647c-1.115,1.367-1.672,3.369-1.672,6.006c0,2.702,0.578,4.781,1.733,6.238
				c0.887,1.106,2.059,1.66,3.516,1.66c1.554,0,2.838-0.606,3.851-1.818c1.014-1.213,1.521-3.125,1.521-5.738
				c0-2.832-0.558-4.943-1.673-6.335C153.056,233.706,151.82,233.153,150.241,233.153z"/>
			<path style="fill:#FFFFFF;" d="M177.134,232.64v0.451c-0.586,0.106-1.03,0.293-1.331,0.562c-0.432,0.398-0.813,1.009-1.147,1.83
				l-5.773,14.088h-0.452l-6.201-14.271c-0.317-0.732-0.541-1.18-0.671-1.343c-0.204-0.252-0.454-0.449-0.751-0.592
				s-0.698-0.234-1.202-0.275v-0.451h6.763v0.451c-0.766,0.074-1.262,0.204-1.489,0.391c-0.229,0.188-0.342,0.428-0.342,0.721
				c0,0.407,0.187,1.042,0.562,1.904l4.211,9.705l3.906-9.583c0.383-0.944,0.574-1.599,0.574-1.966c0-0.235-0.118-0.461-0.354-0.677
				s-0.635-0.368-1.196-0.458c-0.041-0.008-0.109-0.021-0.207-0.037v-0.451H177.134z"/>
			<path style="fill:#FFFFFF;" d="M182.663,233.543v6.543h3.638c0.944,0,1.575-0.143,1.893-0.427
				c0.423-0.375,0.659-1.034,0.708-1.979h0.451v5.762h-0.451c-0.114-0.805-0.229-1.322-0.342-1.55
				c-0.146-0.285-0.387-0.509-0.721-0.671c-0.334-0.163-0.847-0.244-1.538-0.244h-3.638v5.456c0,0.732,0.032,1.178,0.098,1.337
				c0.065,0.158,0.179,0.285,0.342,0.378c0.163,0.094,0.472,0.141,0.928,0.141h2.808c0.936,0,1.615-0.065,2.039-0.195
				c0.423-0.13,0.83-0.387,1.221-0.769c0.504-0.505,1.021-1.266,1.55-2.283h0.488l-1.428,4.15h-12.757v-0.451h0.586
				c0.391,0,0.761-0.094,1.111-0.281c0.26-0.13,0.438-0.325,0.53-0.586c0.094-0.261,0.141-0.793,0.141-1.6v-10.754
				c0-1.05-0.105-1.697-0.317-1.941c-0.293-0.325-0.781-0.488-1.465-0.488h-0.586v-0.451h12.757l0.183,3.625h-0.476
				c-0.171-0.87-0.36-1.469-0.568-1.794c-0.207-0.325-0.515-0.573-0.921-0.745c-0.326-0.121-0.899-0.183-1.722-0.183H182.663z"/>
			<path style="fill:#FFFFFF;" d="M101.764,290.669h0.859c0.143,1.784,0.703,3.151,1.68,4.102s2.435,1.517,4.375,1.699v-11.406
				c-2.93-1.81-4.883-3.411-5.859-4.805c-0.69-0.989-1.035-2.194-1.035-3.613c0-1.602,0.596-3.001,1.787-4.199
				s2.894-1.921,5.107-2.168v-1.797h1.25v1.797c1.067,0.065,1.966,0.188,2.695,0.371c0.377,0.091,1.627,0.54,3.75,1.348v5.84h-0.762
				c-0.169-2.07-0.707-3.584-1.611-4.541c-0.905-0.957-2.263-1.526-4.072-1.709v9.922c3.281,2.292,5.387,3.981,6.318,5.068
				c0.931,1.087,1.396,2.438,1.396,4.053c0,1.797-0.681,3.379-2.041,4.746c-1.361,1.367-3.252,2.155-5.674,2.363v2.5h-1.25v-2.5
				c-1.224-0.052-2.363-0.192-3.418-0.42s-2.22-0.603-3.496-1.123V290.669z M108.678,280.689v-9.082
				c-1.302,0.156-2.269,0.569-2.9,1.24c-0.632,0.671-0.947,1.514-0.947,2.529c0,0.95,0.286,1.839,0.859,2.666
				C106.263,278.87,107.259,279.751,108.678,280.689z M109.928,296.47c0.977-0.169,1.725-0.41,2.246-0.723
				c0.729-0.456,1.305-1.052,1.729-1.787c0.423-0.735,0.635-1.521,0.635-2.354c0-0.859-0.257-1.673-0.771-2.441
				c-0.515-0.769-1.794-1.855-3.838-3.262V296.47z"/>
			<path style="fill:#FFFFFF;" d="M124.343,273.306l6.445-3.145h0.645v22.363c0,1.484,0.062,2.409,0.186,2.773
				c0.124,0.364,0.381,0.645,0.771,0.84s1.185,0.306,2.383,0.332v0.723h-9.961v-0.723c1.25-0.026,2.057-0.134,2.422-0.322
				c0.364-0.188,0.618-0.442,0.762-0.762c0.143-0.319,0.215-1.272,0.215-2.861v-14.297c0-1.927-0.065-3.164-0.195-3.711
				c-0.091-0.417-0.257-0.723-0.498-0.918c-0.241-0.195-0.531-0.293-0.869-0.293c-0.482,0-1.152,0.202-2.012,0.605L124.343,273.306z
				"/>
			<path style="fill:#FFFFFF;" d="M141.1,284.107c0-3.021,0.456-5.622,1.367-7.803c0.911-2.181,2.122-3.806,3.633-4.873
				c1.172-0.847,2.383-1.27,3.633-1.27c2.031,0,3.854,1.035,5.469,3.105c2.019,2.565,3.027,6.042,3.027,10.43
				c0,3.073-0.442,5.684-1.328,7.832s-2.015,3.708-3.389,4.678s-2.698,1.455-3.975,1.455c-2.526,0-4.629-1.491-6.309-4.473
				C141.81,290.676,141.1,287.649,141.1,284.107z M144.928,284.595c0,3.646,0.449,6.621,1.348,8.926
				c0.742,1.94,1.849,2.91,3.32,2.91c0.703,0,1.433-0.315,2.188-0.947s1.328-1.689,1.719-3.174c0.599-2.239,0.898-5.397,0.898-9.473
				c0-3.021-0.312-5.54-0.938-7.559c-0.469-1.497-1.074-2.559-1.816-3.184c-0.534-0.43-1.179-0.645-1.934-0.645
				c-0.886,0-1.673,0.397-2.363,1.191c-0.938,1.081-1.576,2.78-1.914,5.098C145.097,280.057,144.928,282.342,144.928,284.595z"/>
			<path style="fill:#FFFFFF;" d="M161.1,284.107c0-3.021,0.456-5.622,1.367-7.803s2.122-3.806,3.633-4.873
				c1.172-0.847,2.383-1.27,3.633-1.27c2.031,0,3.854,1.035,5.469,3.105c2.019,2.565,3.027,6.042,3.027,10.43
				c0,3.073-0.442,5.684-1.328,7.832s-2.015,3.708-3.389,4.678s-2.698,1.455-3.975,1.455c-2.526,0-4.629-1.491-6.309-4.473
				C161.81,290.676,161.1,287.649,161.1,284.107z M164.928,284.595c0,3.646,0.449,6.621,1.348,8.926
				c0.742,1.94,1.849,2.91,3.32,2.91c0.703,0,1.433-0.315,2.188-0.947s1.328-1.689,1.719-3.174c0.599-2.239,0.898-5.397,0.898-9.473
				c0-3.021-0.312-5.54-0.938-7.559c-0.469-1.497-1.074-2.559-1.816-3.184c-0.534-0.43-1.179-0.645-1.934-0.645
				c-0.886,0-1.673,0.397-2.363,1.191c-0.938,1.081-1.575,2.78-1.914,5.098S164.928,282.342,164.928,284.595z"/>
			<path style="fill:#FFFFFF;" d="M181.1,284.107c0-3.021,0.456-5.622,1.367-7.803s2.122-3.806,3.633-4.873
				c1.172-0.847,2.383-1.27,3.633-1.27c2.031,0,3.854,1.035,5.469,3.105c2.019,2.565,3.027,6.042,3.027,10.43
				c0,3.073-0.442,5.684-1.328,7.832s-2.015,3.708-3.389,4.678s-2.698,1.455-3.975,1.455c-2.526,0-4.629-1.491-6.309-4.473
				C181.81,290.676,181.1,287.649,181.1,284.107z M184.928,284.595c0,3.646,0.449,6.621,1.348,8.926
				c0.742,1.94,1.849,2.91,3.32,2.91c0.703,0,1.433-0.315,2.188-0.947s1.328-1.689,1.719-3.174c0.599-2.239,0.898-5.397,0.898-9.473
				c0-3.021-0.312-5.54-0.938-7.559c-0.469-1.497-1.074-2.559-1.816-3.184c-0.534-0.43-1.179-0.645-1.934-0.645
				c-0.886,0-1.673,0.397-2.363,1.191c-0.938,1.081-1.575,2.78-1.914,5.098S184.928,282.342,184.928,284.595z"/>
		</g>
		<g>
			<path style="fill:#FFFFFF;" d="M72.324,202.261c2.148,0,4.01,0.816,5.584,2.448c1.575,1.632,2.362,3.668,2.362,6.109
				c0,2.515-0.793,4.603-2.38,6.263s-3.508,2.49-5.762,2.49c-2.279,0-4.193-0.811-5.744-2.43c-1.55-1.619-2.325-3.715-2.325-6.287
				c0-2.628,0.895-4.772,2.686-6.433C68.299,202.982,70.158,202.261,72.324,202.261z M72.092,203.153
				c-1.481,0-2.669,0.55-3.564,1.647c-1.115,1.367-1.672,3.369-1.672,6.006c0,2.702,0.578,4.781,1.733,6.238
				c0.887,1.106,2.059,1.66,3.516,1.66c1.554,0,2.838-0.606,3.851-1.818c1.014-1.213,1.52-3.125,1.52-5.738
				c0-2.832-0.558-4.943-1.672-6.335C74.907,203.706,73.67,203.153,72.092,203.153z"/>
			<path style="fill:#FFFFFF;" d="M80.905,202.64h4.492l10.12,12.414v-9.545c0-1.018-0.114-1.652-0.342-1.904
				c-0.301-0.342-0.777-0.514-1.428-0.514h-0.574v-0.451h5.762v0.451h-0.586c-0.7,0-1.196,0.212-1.489,0.635
				c-0.179,0.261-0.269,0.855-0.269,1.783v13.952h-0.439l-10.913-13.33v10.192c0,1.018,0.11,1.652,0.33,1.904
				c0.309,0.342,0.785,0.514,1.428,0.514h0.586v0.451h-5.762v-0.451h0.574c0.708,0,1.208-0.212,1.501-0.635
				c0.179-0.261,0.269-0.855,0.269-1.783v-11.511c-0.48-0.562-0.844-0.932-1.093-1.11c-0.248-0.18-0.612-0.347-1.092-0.501
				c-0.236-0.073-0.594-0.11-1.074-0.11V202.64z"/>
			<path style="fill:#FFFFFF;" d="M110.666,211.441v4.822c0,1.042,0.114,1.688,0.342,1.941c0.309,0.357,0.777,0.537,1.404,0.537
				h0.635v0.451h-7.092v-0.451h0.623c0.7,0,1.2-0.229,1.501-0.684c0.163-0.253,0.244-0.851,0.244-1.795V205.57
				c0-1.042-0.11-1.688-0.33-1.941c-0.317-0.357-0.79-0.537-1.416-0.537h-0.623v-0.451h6.067c1.481,0,2.649,0.152,3.503,0.458
				c0.854,0.305,1.575,0.819,2.161,1.544s0.879,1.583,0.879,2.576c0,1.351-0.446,2.449-1.336,3.295
				c-0.892,0.847-2.151,1.27-3.778,1.27c-0.399,0-0.83-0.028-1.294-0.085S111.195,211.555,110.666,211.441z M110.666,210.746
				c0.431,0.081,0.813,0.143,1.147,0.184c0.333,0.04,0.618,0.061,0.854,0.061c0.846,0,1.577-0.327,2.191-0.982
				c0.614-0.655,0.921-1.504,0.921-2.545c0-0.717-0.146-1.382-0.439-1.996s-0.708-1.074-1.245-1.38
				c-0.537-0.305-1.147-0.458-1.831-0.458c-0.415,0-0.948,0.078-1.599,0.232V210.746z"/>
			<path style="fill:#FFFFFF;" d="M131.369,203.091v-0.451h5.859v0.451h-0.623c-0.651,0-1.152,0.273-1.501,0.818
				c-0.171,0.252-0.256,0.838-0.256,1.758v6.714c0,1.66-0.165,2.948-0.494,3.863c-0.33,0.916-0.977,1.701-1.941,2.356
				c-0.964,0.654-2.276,0.982-3.937,0.982c-1.807,0-3.178-0.313-4.114-0.939c-0.936-0.627-1.599-1.47-1.99-2.527
				c-0.261-0.725-0.391-2.083-0.391-4.077v-6.47c0-1.018-0.141-1.685-0.421-2.002c-0.281-0.317-0.735-0.477-1.361-0.477h-0.623
				v-0.451h7.153v0.451h-0.635c-0.684,0-1.172,0.216-1.465,0.647c-0.204,0.293-0.305,0.903-0.305,1.831v7.215
				c0,0.643,0.059,1.379,0.177,2.209c0.118,0.83,0.332,1.477,0.641,1.941c0.309,0.463,0.755,0.846,1.336,1.146
				c0.582,0.302,1.296,0.452,2.143,0.452c1.082,0,2.051-0.236,2.905-0.708s1.438-1.076,1.752-1.812
				c0.313-0.736,0.47-1.984,0.47-3.742v-6.701c0-1.033-0.114-1.681-0.342-1.941c-0.317-0.357-0.79-0.537-1.416-0.537H131.369z"/>
			<path style="fill:#FFFFFF;" d="M154.391,219.193h-4.419l-5.603-7.739c-0.415,0.017-0.753,0.024-1.013,0.024
				c-0.106,0-0.22-0.002-0.342-0.006s-0.249-0.011-0.378-0.019v4.81c0,1.042,0.114,1.688,0.342,1.941
				c0.309,0.357,0.773,0.537,1.392,0.537h0.647v0.451h-7.092v-0.451h0.623c0.7,0,1.2-0.229,1.501-0.684
				c0.171-0.253,0.256-0.851,0.256-1.795V205.57c0-1.042-0.114-1.688-0.342-1.941c-0.317-0.357-0.79-0.537-1.416-0.537h-0.623
				v-0.451h6.03c1.758,0,3.054,0.128,3.888,0.385c0.834,0.256,1.542,0.729,2.124,1.416s0.873,1.508,0.873,2.459
				c0,1.018-0.332,1.9-0.995,2.649s-1.691,1.277-3.083,1.587l3.418,4.748c0.781,1.091,1.452,1.815,2.014,2.174
				c0.562,0.357,1.294,0.586,2.197,0.684V219.193z M142.636,210.685c0.154,0,0.289,0.002,0.403,0.006
				c0.114,0.004,0.208,0.006,0.281,0.006c1.579,0,2.769-0.342,3.571-1.025c0.801-0.684,1.202-1.555,1.202-2.612
				c0-1.033-0.323-1.874-0.971-2.521c-0.646-0.647-1.503-0.971-2.569-0.971c-0.472,0-1.111,0.077-1.917,0.232V210.685z"/>
			<path style="fill:#FFFFFF;" d="M169.223,202.261l0.378,5.628h-0.378c-0.505-1.685-1.226-2.897-2.161-3.638
				s-2.059-1.111-3.369-1.111c-1.099,0-2.092,0.279-2.979,0.837s-1.585,1.446-2.094,2.667c-0.508,1.221-0.763,2.738-0.763,4.553
				c0,1.498,0.24,2.796,0.721,3.895c0.479,1.099,1.202,1.941,2.166,2.527c0.965,0.586,2.065,0.879,3.303,0.879
				c1.074,0,2.021-0.23,2.844-0.69c0.822-0.459,1.726-1.373,2.71-2.74l0.379,0.244c-0.83,1.473-1.799,2.552-2.905,3.235
				c-1.107,0.684-2.422,1.025-3.943,1.025c-2.742,0-4.866-1.018-6.372-3.053c-1.123-1.514-1.685-3.295-1.685-5.346
				c0-1.652,0.37-3.17,1.111-4.554c0.74-1.384,1.76-2.455,3.058-3.217c1.298-0.761,2.716-1.142,4.254-1.142
				c1.196,0,2.376,0.293,3.54,0.879c0.342,0.18,0.586,0.27,0.732,0.27c0.22,0,0.411-0.078,0.574-0.232
				c0.211-0.22,0.361-0.525,0.451-0.916H169.223z"/>
			<path style="fill:#FFFFFF;" d="M175.986,210.318h7.69v-4.736c0-0.846-0.054-1.403-0.159-1.672
				c-0.081-0.203-0.252-0.379-0.513-0.525c-0.35-0.195-0.72-0.293-1.11-0.293h-0.586v-0.451h7.08v0.451h-0.586
				c-0.391,0-0.762,0.094-1.111,0.281c-0.261,0.13-0.438,0.328-0.531,0.592c-0.093,0.265-0.14,0.804-0.14,1.617v10.682
				c0,0.838,0.053,1.392,0.158,1.66c0.081,0.203,0.248,0.379,0.501,0.525c0.357,0.195,0.732,0.293,1.123,0.293h0.586v0.451h-7.08
				v-0.451h0.586c0.675,0,1.167-0.2,1.477-0.599c0.203-0.261,0.306-0.887,0.306-1.88v-5.041h-7.69v5.041
				c0,0.838,0.053,1.392,0.158,1.66c0.081,0.203,0.252,0.379,0.513,0.525c0.35,0.195,0.721,0.293,1.111,0.293h0.598v0.451h-7.092
				v-0.451h0.586c0.684,0,1.18-0.2,1.489-0.599c0.195-0.261,0.293-0.887,0.293-1.88v-10.682c0-0.846-0.054-1.403-0.159-1.672
				c-0.081-0.203-0.248-0.379-0.5-0.525c-0.358-0.195-0.732-0.293-1.123-0.293h-0.586v-0.451h7.092v0.451h-0.598
				c-0.391,0-0.762,0.094-1.111,0.281c-0.252,0.13-0.427,0.328-0.524,0.592c-0.098,0.265-0.146,0.804-0.146,1.617V210.318z"/>
			<path style="fill:#FFFFFF;" d="M200.339,213.651h-6.408l-1.123,2.612c-0.277,0.643-0.415,1.123-0.415,1.44
				c0,0.252,0.12,0.475,0.36,0.665c0.239,0.191,0.758,0.315,1.556,0.373v0.451h-5.212v-0.451c0.691-0.123,1.139-0.281,1.343-0.477
				c0.415-0.391,0.874-1.184,1.379-2.381l5.823-13.623h0.427l5.762,13.77c0.464,1.107,0.886,1.825,1.264,2.155
				c0.379,0.329,0.905,0.515,1.581,0.556v0.451h-6.531v-0.451c0.659-0.033,1.105-0.143,1.337-0.33
				c0.232-0.188,0.348-0.415,0.348-0.684c0-0.358-0.163-0.924-0.488-1.697L200.339,213.651z M199.997,212.747l-2.808-6.689
				l-2.881,6.689H199.997z"/>
			<path style="fill:#FFFFFF;" d="M218.418,202.261v5.726h-0.452c-0.146-1.099-0.409-1.974-0.787-2.624
				c-0.379-0.651-0.918-1.168-1.617-1.551c-0.7-0.383-1.425-0.574-2.173-0.574c-0.847,0-1.547,0.259-2.1,0.775
				c-0.554,0.518-0.83,1.105-0.83,1.764c0,0.505,0.175,0.965,0.524,1.38c0.505,0.61,1.705,1.424,3.602,2.441
				c1.546,0.83,2.602,1.467,3.167,1.91c0.566,0.444,1.001,0.967,1.307,1.569c0.305,0.602,0.458,1.232,0.458,1.892
				c0,1.253-0.486,2.334-1.459,3.241s-2.224,1.361-3.754,1.361c-0.48,0-0.932-0.037-1.354-0.11
				c-0.253-0.041-0.775-0.189-1.569-0.445c-0.793-0.257-1.296-0.385-1.507-0.385c-0.204,0-0.364,0.062-0.482,0.183
				c-0.118,0.123-0.206,0.375-0.263,0.758h-0.451v-5.677h0.451c0.212,1.188,0.496,2.077,0.854,2.667
				c0.358,0.591,0.905,1.08,1.642,1.471c0.737,0.391,1.545,0.586,2.424,0.586c1.017,0,1.82-0.268,2.41-0.805
				c0.591-0.537,0.886-1.172,0.886-1.904c0-0.407-0.112-0.818-0.336-1.233s-0.572-0.802-1.044-1.159
				c-0.317-0.244-1.184-0.764-2.6-1.557c-1.416-0.794-2.424-1.427-3.021-1.898c-0.599-0.472-1.052-0.993-1.361-1.562
				s-0.464-1.196-0.464-1.88c0-1.188,0.456-2.211,1.367-3.07c0.911-0.858,2.071-1.288,3.479-1.288c0.879,0,1.811,0.216,2.795,0.647
				c0.456,0.203,0.777,0.306,0.965,0.306c0.211,0,0.384-0.063,0.519-0.189c0.134-0.126,0.242-0.381,0.323-0.764H218.418z"/>
			<path style="fill:#FFFFFF;" d="M226.084,203.543v6.543h3.638c0.943,0,1.574-0.143,1.892-0.427
				c0.423-0.375,0.659-1.034,0.708-1.979h0.452v5.762h-0.452c-0.114-0.805-0.228-1.322-0.342-1.55
				c-0.146-0.285-0.387-0.509-0.72-0.671c-0.334-0.163-0.847-0.244-1.538-0.244h-3.638v5.456c0,0.732,0.032,1.178,0.098,1.337
				c0.064,0.158,0.179,0.285,0.342,0.378c0.162,0.094,0.472,0.141,0.928,0.141h2.808c0.936,0,1.615-0.065,2.038-0.195
				s0.83-0.387,1.221-0.769c0.505-0.505,1.021-1.266,1.551-2.283h0.488l-1.429,4.15h-12.756v-0.451h0.586
				c0.391,0,0.761-0.094,1.11-0.281c0.261-0.13,0.438-0.325,0.531-0.586s0.141-0.793,0.141-1.6v-10.754
				c0-1.05-0.106-1.697-0.317-1.941c-0.293-0.325-0.781-0.488-1.465-0.488h-0.586v-0.451h12.756l0.184,3.625h-0.477
				c-0.171-0.87-0.359-1.469-0.567-1.794c-0.207-0.325-0.515-0.573-0.922-0.745c-0.325-0.121-0.899-0.183-1.721-0.183H226.084z"/>
			<path style="fill:#FFFFFF;" d="M118.039,243.651h-6.409l-1.123,2.612c-0.277,0.643-0.415,1.123-0.415,1.44
				c0,0.252,0.12,0.475,0.36,0.665c0.24,0.191,0.758,0.315,1.556,0.373v0.451h-5.212v-0.451c0.691-0.123,1.139-0.281,1.343-0.477
				c0.415-0.391,0.875-1.184,1.379-2.381l5.823-13.623h0.427l5.762,13.77c0.464,1.107,0.885,1.825,1.263,2.155
				c0.379,0.329,0.905,0.515,1.581,0.556v0.451h-6.531v-0.451c0.659-0.033,1.105-0.143,1.336-0.33
				c0.232-0.188,0.348-0.415,0.348-0.684c0-0.358-0.163-0.924-0.488-1.697L118.039,243.651z M117.697,242.747l-2.808-6.689
				l-2.881,6.689H117.697z"/>
			<path style="fill:#FFFFFF;" d="M136.203,240.746c1.147,0.244,2.006,0.635,2.576,1.172c0.789,0.749,1.184,1.664,1.184,2.746
				c0,0.822-0.261,1.61-0.781,2.362c-0.521,0.753-1.235,1.303-2.143,1.648c-0.907,0.346-2.293,0.519-4.156,0.519h-7.812v-0.451
				h0.623c0.691,0,1.188-0.221,1.489-0.66c0.187-0.284,0.281-0.891,0.281-1.818V235.57c0-1.025-0.118-1.672-0.354-1.941
				c-0.317-0.357-0.79-0.537-1.416-0.537h-0.623v-0.451h7.153c1.334,0,2.405,0.098,3.21,0.293c1.221,0.293,2.152,0.812,2.795,1.557
				c0.643,0.744,0.964,1.601,0.964,2.569c0,0.83-0.252,1.573-0.757,2.228C137.932,239.942,137.187,240.428,136.203,240.746z
				 M129.806,240.086c0.301,0.057,0.645,0.1,1.031,0.128c0.387,0.029,0.812,0.043,1.276,0.043c1.188,0,2.082-0.128,2.679-0.385
				c0.599-0.256,1.056-0.648,1.374-1.178s0.476-1.106,0.476-1.733c0-0.969-0.395-1.794-1.184-2.478
				c-0.79-0.684-1.941-1.025-3.455-1.025c-0.814,0-1.546,0.089-2.197,0.268V240.086z M129.806,247.997
				c0.944,0.22,1.875,0.329,2.795,0.329c1.473,0,2.596-0.331,3.369-0.994c0.773-0.663,1.16-1.483,1.16-2.46
				c0-0.643-0.175-1.262-0.525-1.855c-0.35-0.594-0.92-1.062-1.709-1.403c-0.79-0.342-1.766-0.514-2.93-0.514
				c-0.505,0-0.936,0.009-1.294,0.025c-0.358,0.016-0.647,0.044-0.867,0.085V247.997z"/>
			<path style="fill:#FFFFFF;" d="M150.473,232.261c2.148,0,4.01,0.816,5.584,2.448c1.575,1.632,2.362,3.668,2.362,6.109
				c0,2.515-0.793,4.603-2.38,6.263s-3.508,2.49-5.762,2.49c-2.279,0-4.193-0.811-5.744-2.43c-1.55-1.619-2.325-3.715-2.325-6.287
				c0-2.628,0.895-4.772,2.686-6.433C146.449,232.982,148.308,232.261,150.473,232.261z M150.241,233.153
				c-1.481,0-2.669,0.55-3.564,1.647c-1.115,1.367-1.672,3.369-1.672,6.006c0,2.702,0.578,4.781,1.733,6.238
				c0.887,1.106,2.059,1.66,3.516,1.66c1.554,0,2.838-0.606,3.851-1.818c1.014-1.213,1.521-3.125,1.521-5.738
				c0-2.832-0.558-4.943-1.673-6.335C153.056,233.706,151.82,233.153,150.241,233.153z"/>
			<path style="fill:#FFFFFF;" d="M177.134,232.64v0.451c-0.586,0.106-1.03,0.293-1.331,0.562c-0.432,0.398-0.813,1.009-1.147,1.83
				l-5.773,14.088h-0.452l-6.201-14.271c-0.317-0.732-0.541-1.18-0.671-1.343c-0.204-0.252-0.454-0.449-0.751-0.592
				s-0.698-0.234-1.202-0.275v-0.451h6.763v0.451c-0.766,0.074-1.262,0.204-1.489,0.391c-0.229,0.188-0.342,0.428-0.342,0.721
				c0,0.407,0.187,1.042,0.562,1.904l4.211,9.705l3.906-9.583c0.383-0.944,0.574-1.599,0.574-1.966c0-0.235-0.118-0.461-0.354-0.677
				s-0.635-0.368-1.196-0.458c-0.041-0.008-0.109-0.021-0.207-0.037v-0.451H177.134z"/>
			<path style="fill:#FFFFFF;" d="M182.663,233.543v6.543h3.638c0.944,0,1.575-0.143,1.893-0.427
				c0.423-0.375,0.659-1.034,0.708-1.979h0.451v5.762h-0.451c-0.114-0.805-0.229-1.322-0.342-1.55
				c-0.146-0.285-0.387-0.509-0.721-0.671c-0.334-0.163-0.847-0.244-1.538-0.244h-3.638v5.456c0,0.732,0.032,1.178,0.098,1.337
				c0.065,0.158,0.179,0.285,0.342,0.378c0.163,0.094,0.472,0.141,0.928,0.141h2.808c0.936,0,1.615-0.065,2.039-0.195
				c0.423-0.13,0.83-0.387,1.221-0.769c0.504-0.505,1.021-1.266,1.55-2.283h0.488l-1.428,4.15h-12.757v-0.451h0.586
				c0.391,0,0.761-0.094,1.111-0.281c0.26-0.13,0.438-0.325,0.53-0.586c0.094-0.261,0.141-0.793,0.141-1.6v-10.754
				c0-1.05-0.105-1.697-0.317-1.941c-0.293-0.325-0.781-0.488-1.465-0.488h-0.586v-0.451h12.757l0.183,3.625h-0.476
				c-0.171-0.87-0.36-1.469-0.568-1.794c-0.207-0.325-0.515-0.573-0.921-0.745c-0.326-0.121-0.899-0.183-1.722-0.183H182.663z"/>
			<path style="fill:#FFFFFF;" d="M101.764,290.669h0.859c0.143,1.784,0.703,3.151,1.68,4.102s2.435,1.517,4.375,1.699v-11.406
				c-2.93-1.81-4.883-3.411-5.859-4.805c-0.69-0.989-1.035-2.194-1.035-3.613c0-1.602,0.596-3.001,1.787-4.199
				s2.894-1.921,5.107-2.168v-1.797h1.25v1.797c1.067,0.065,1.966,0.188,2.695,0.371c0.377,0.091,1.627,0.54,3.75,1.348v5.84h-0.762
				c-0.169-2.07-0.707-3.584-1.611-4.541c-0.905-0.957-2.263-1.526-4.072-1.709v9.922c3.281,2.292,5.387,3.981,6.318,5.068
				c0.931,1.087,1.396,2.438,1.396,4.053c0,1.797-0.681,3.379-2.041,4.746c-1.361,1.367-3.252,2.155-5.674,2.363v2.5h-1.25v-2.5
				c-1.224-0.052-2.363-0.192-3.418-0.42s-2.22-0.603-3.496-1.123V290.669z M108.678,280.689v-9.082
				c-1.302,0.156-2.269,0.569-2.9,1.24c-0.632,0.671-0.947,1.514-0.947,2.529c0,0.95,0.286,1.839,0.859,2.666
				C106.263,278.87,107.259,279.751,108.678,280.689z M109.928,296.47c0.977-0.169,1.725-0.41,2.246-0.723
				c0.729-0.456,1.305-1.052,1.729-1.787c0.423-0.735,0.635-1.521,0.635-2.354c0-0.859-0.257-1.673-0.771-2.441
				c-0.515-0.769-1.794-1.855-3.838-3.262V296.47z"/>
			<path style="fill:#FFFFFF;" d="M124.343,273.306l6.445-3.145h0.645v22.363c0,1.484,0.062,2.409,0.186,2.773
				c0.124,0.364,0.381,0.645,0.771,0.84s1.185,0.306,2.383,0.332v0.723h-9.961v-0.723c1.25-0.026,2.057-0.134,2.422-0.322
				c0.364-0.188,0.618-0.442,0.762-0.762c0.143-0.319,0.215-1.272,0.215-2.861v-14.297c0-1.927-0.065-3.164-0.195-3.711
				c-0.091-0.417-0.257-0.723-0.498-0.918c-0.241-0.195-0.531-0.293-0.869-0.293c-0.482,0-1.152,0.202-2.012,0.605L124.343,273.306z
				"/>
			<path style="fill:#FFFFFF;" d="M141.1,284.107c0-3.021,0.456-5.622,1.367-7.803c0.911-2.181,2.122-3.806,3.633-4.873
				c1.172-0.847,2.383-1.27,3.633-1.27c2.031,0,3.854,1.035,5.469,3.105c2.019,2.565,3.027,6.042,3.027,10.43
				c0,3.073-0.442,5.684-1.328,7.832s-2.015,3.708-3.389,4.678s-2.698,1.455-3.975,1.455c-2.526,0-4.629-1.491-6.309-4.473
				C141.81,290.676,141.1,287.649,141.1,284.107z M144.928,284.595c0,3.646,0.449,6.621,1.348,8.926
				c0.742,1.94,1.849,2.91,3.32,2.91c0.703,0,1.433-0.315,2.188-0.947s1.328-1.689,1.719-3.174c0.599-2.239,0.898-5.397,0.898-9.473
				c0-3.021-0.312-5.54-0.938-7.559c-0.469-1.497-1.074-2.559-1.816-3.184c-0.534-0.43-1.179-0.645-1.934-0.645
				c-0.886,0-1.673,0.397-2.363,1.191c-0.938,1.081-1.576,2.78-1.914,5.098C145.097,280.057,144.928,282.342,144.928,284.595z"/>
			<path style="fill:#FFFFFF;" d="M161.1,284.107c0-3.021,0.456-5.622,1.367-7.803s2.122-3.806,3.633-4.873
				c1.172-0.847,2.383-1.27,3.633-1.27c2.031,0,3.854,1.035,5.469,3.105c2.019,2.565,3.027,6.042,3.027,10.43
				c0,3.073-0.442,5.684-1.328,7.832s-2.015,3.708-3.389,4.678s-2.698,1.455-3.975,1.455c-2.526,0-4.629-1.491-6.309-4.473
				C161.81,290.676,161.1,287.649,161.1,284.107z M164.928,284.595c0,3.646,0.449,6.621,1.348,8.926
				c0.742,1.94,1.849,2.91,3.32,2.91c0.703,0,1.433-0.315,2.188-0.947s1.328-1.689,1.719-3.174c0.599-2.239,0.898-5.397,0.898-9.473
				c0-3.021-0.312-5.54-0.938-7.559c-0.469-1.497-1.074-2.559-1.816-3.184c-0.534-0.43-1.179-0.645-1.934-0.645
				c-0.886,0-1.673,0.397-2.363,1.191c-0.938,1.081-1.575,2.78-1.914,5.098S164.928,282.342,164.928,284.595z"/>
			<path style="fill:#FFFFFF;" d="M181.1,284.107c0-3.021,0.456-5.622,1.367-7.803s2.122-3.806,3.633-4.873
				c1.172-0.847,2.383-1.27,3.633-1.27c2.031,0,3.854,1.035,5.469,3.105c2.019,2.565,3.027,6.042,3.027,10.43
				c0,3.073-0.442,5.684-1.328,7.832s-2.015,3.708-3.389,4.678s-2.698,1.455-3.975,1.455c-2.526,0-4.629-1.491-6.309-4.473
				C181.81,290.676,181.1,287.649,181.1,284.107z M184.928,284.595c0,3.646,0.449,6.621,1.348,8.926
				c0.742,1.94,1.849,2.91,3.32,2.91c0.703,0,1.433-0.315,2.188-0.947s1.328-1.689,1.719-3.174c0.599-2.239,0.898-5.397,0.898-9.473
				c0-3.021-0.312-5.54-0.938-7.559c-0.469-1.497-1.074-2.559-1.816-3.184c-0.534-0.43-1.179-0.645-1.934-0.645
				c-0.886,0-1.673,0.397-2.363,1.191c-0.938,1.081-1.575,2.78-1.914,5.098S184.928,282.342,184.928,284.595z"/>
		</g>
	</g>
</g>
</svg>
