<svg style="position: absolute; width: 0; height: 0;" width="0" height="0" version="1.1" xmlns="http://www.w3.org/2000/svg" xmlns:xlink="http://www.w3.org/1999/xlink">
<defs>
<symbol id="contact" viewBox="0 0 48 32">
<path class="path1" d="M43.774 32h-39.849c-2.164 0-3.925-1.761-3.925-3.925v-24.151c0-2.164 1.761-3.925 3.925-3.925h39.849c2.164 0 3.925 1.761 3.925 3.925v24.151c0 2.164-1.761 3.925-3.925 3.925zM3.925 1.811c-1.165 0-2.113 0.948-2.113 2.113v24.151c0 1.165 0.948 2.113 2.113 2.113h39.849c1.165 0 2.113-0.948 2.113-2.113v-24.151c0-1.165-0.948-2.113-2.113-2.113h-39.849z"></path>
<path class="path2" d="M23.849 20.887l-22.809-18.677 1.147-1.401 21.661 17.737 21.662-17.737 1.147 1.401z"></path>
<path class="path3" d="M27.438 16.395l1.147-1.401 18.070 14.795-1.147 1.401-18.070-14.795z"></path>
<path class="path4" d="M1.040 29.79l17.583-14.395 1.147 1.402-17.583 14.395-1.147-1.402z"></path>
</symbol>
<symbol id="chat" viewBox="0 0 32 32">
<path class="path1" d="M27.371 32c-0.119 0-0.239-0.022-0.351-0.068-2.535-1.022-4.724-2.34-6.516-3.923-1.46 0.38-2.972 0.573-4.502 0.573-8.824 0-16.002-6.41-16.002-14.29s7.178-14.292 16.002-14.292c8.822 0 16 6.412 16 14.292 0 3.77-1.608 7.292-4.54 9.974l0.844 6.675c0.042 0.331-0.096 0.66-0.358 0.864-0.167 0.129-0.372 0.195-0.576 0.195zM20.752 26.022c0.235 0 0.467 0.088 0.644 0.254 1.346 1.259 2.967 2.349 4.833 3.25l-0.697-5.516c-0.040-0.314 0.081-0.627 0.322-0.833 2.752-2.356 4.267-5.511 4.267-8.884 0-6.844-6.333-12.41-14.118-12.41s-14.119 5.566-14.119 12.41c0 6.842 6.334 12.408 14.119 12.408 1.531 0 3.040-0.215 4.485-0.64 0.086-0.026 0.177-0.038 0.265-0.038zM16.096 21.859l-0.22-0.004c-0.52-0.017-0.928-0.449-0.914-0.969 0.017-0.52 0.482-0.934 0.969-0.914l0.165 0.004c0.52 0 0.941 0.421 0.941 0.941s-0.421 0.941-0.941 0.941zM15.886 17.664c-0.52 0-0.941-0.421-0.941-0.941 0-2.252 1.232-3.198 2.131-3.89 0.803-0.618 1.156-0.926 1.141-1.776-0.026-1.428-1.634-1.803-2.506-1.803-0.007 0-0.017 0-0.026 0-0.943 0.009-2.537 0.423-2.537 1.921 0 0.52-0.421 0.941-0.941 0.941s-0.941-0.421-0.941-0.941c0-2.471 2.215-3.783 4.403-3.802 0.017-0.002 0.033-0.002 0.050-0.002 2.153 0 4.336 1.248 4.38 3.652 0.033 1.833-1.026 2.647-1.877 3.301-0.811 0.623-1.395 1.072-1.395 2.397-0 0.52-0.421 0.941-0.941 0.941z"></path>
</symbol>
<symbol id="phone" viewBox="0 0 31 32">
<path class="path1" d="M24.692 15.131c-0.050 0-0.099-0.004-0.151-0.011-0.513-0.083-0.862-0.564-0.781-1.079 0.141-0.884 0.081-1.776-0.178-2.649-0.292-0.995-0.849-1.934-1.568-2.647-0.746-0.739-1.623-1.208-2.533-1.351-0.548-0.086-1.088-0.052-1.614 0.103-0.496 0.145-1.022-0.136-1.169-0.636-0.147-0.498 0.136-1.022 0.636-1.169 0.794-0.235 1.614-0.289 2.441-0.158 1.301 0.208 2.535 0.857 3.564 1.875 0.954 0.948 1.662 2.14 2.048 3.448 0.34 1.145 0.419 2.316 0.234 3.482-0.075 0.463-0.474 0.792-0.928 0.792z"></path>
<path class="path2" d="M29.662 17.557c-0.097 0-0.195-0.015-0.292-0.046-0.494-0.162-0.765-0.695-0.603-1.188 0.737-2.25 0.735-4.647-0.005-6.932-0.533-1.638-1.432-3.154-2.603-4.384-1.191-1.252-2.634-2.18-4.173-2.684-1.84-0.601-3.72-0.601-5.594 0.007-0.502 0.162-1.026-0.112-1.186-0.605-0.16-0.494 0.11-1.026 0.605-1.186 2.235-0.72 4.572-0.72 6.759-0.007 1.835 0.601 3.546 1.7 4.952 3.176 1.362 1.432 2.41 3.196 3.029 5.101 0.864 2.667 0.866 5.467 0.005 8.097-0.13 0.397-0.5 0.649-0.895 0.649z"></path>
<path class="path3" d="M16.051 23.702c-2.153 0-4.708-1.458-6.627-3.961-2.573-3.36-3.033-7.334-1.070-9.244 0.371-0.362 0.971-0.355 1.331 0.018 0.362 0.371 0.355 0.969-0.018 1.331-1.079 1.050-0.908 3.93 1.252 6.75 2.16 2.818 4.895 3.732 6.191 2.963 0.445-0.267 1.026-0.119 1.289 0.329 0.267 0.447 0.118 1.024-0.329 1.289-0.598 0.357-1.285 0.526-2.019 0.526z"></path>
<path class="path4" d="M19.251 32c-3.5 0-8.601-3.616-13.228-9.656-5.652-7.377-7.638-14.82-4.618-17.31 1.664-1.371 1.945-1.531 2.336-1.566 0.487-0.037 0.974 0.334 1.022 0.853 0.040 0.445-0.237 0.847-0.647 0.98-0.118 0.074-0.472 0.327-1.513 1.186-1.844 1.52-0.279 7.937 4.912 14.715 5.226 6.82 11.005 9.996 12.917 8.582 1.169-0.866 1.513-1.151 1.594-1.235 0.267-0.449 0.811-0.548 1.255-0.281 0.447 0.265 0.561 0.89 0.294 1.336-0.153 0.257-0.355 0.458-2.024 1.695-0.644 0.475-1.422 0.702-2.301 0.702z"></path>
<path class="path5" d="M24.001 29.43c-0.081 0-0.162-0.005-0.241-0.017-0.478-0.062-0.899-0.307-1.189-0.687l-4.994-6.518c-0.292-0.379-0.419-0.851-0.355-1.327 0.062-0.478 0.307-0.901 0.687-1.191l2.261-1.733c0.785-0.597 1.919-0.45 2.52 0.333l4.993 6.518c0.603 0.787 0.454 1.916-0.331 2.518l-2.265 1.733c-0.314 0.242-0.695 0.371-1.086 0.371zM24.065 27.583v0zM21.197 19.434l-2.143 1.75 4.972 6.349 2.18-1.7-5.009-6.399z"></path>
<path class="path6" d="M10.575 11.912c-0.54 0-1.074-0.241-1.427-0.7 0 0 0 0 0-0.002l-4.994-6.518c-0.601-0.787-0.452-1.916 0.331-2.518l2.267-1.735c0.377-0.289 0.844-0.419 1.327-0.353 0.474 0.062 0.897 0.307 1.189 0.686l4.994 6.52c0.603 0.788 0.452 1.917-0.334 2.52l-2.263 1.732c-0.325 0.251-0.71 0.37-1.090 0.37zM10.639 10.063l0.002 0.002c0 0 0-0.002-0.002-0.002zM7.775 1.916l-2.145 1.752 4.958 6.329 2.196-1.68-5.009-6.401z"></path>
</symbol>
<symbol id="cart" viewBox="0 0 32 32">
<path class="path1" d="M25.258 32h-18.376c-2.072 0-3.742-1.645-3.885-3.827l-0.746-11.38h-0.23c-1.115 0-2.022-0.906-2.022-2.020v-2.452c0-1.116 0.907-2.022 2.022-2.022h4.772l5.571-9.821c0.255-0.452 0.831-0.616 1.283-0.353 0.452 0.255 0.611 0.831 0.355 1.283l-5.045 8.891h14.224l-5.045-8.891c-0.256-0.452-0.097-1.028 0.355-1.283 0.451-0.263 1.026-0.099 1.283 0.353l5.571 9.821h4.772c1.115 0 2.022 0.906 2.022 2.022v2.452c0 1.114-0.907 2.020-2.022 2.020h-0.23l-0.745 11.38c-0.142 2.182-1.813 3.827-3.885 3.827zM4.138 16.794l0.738 11.258c0.077 1.178 0.939 2.066 2.006 2.066h18.376c1.067 0 1.929-0.888 2.006-2.066l0.738-11.258h-23.865zM29.014 14.911h1.104c0.075 0 0.14-0.064 0.14-0.138v-2.452c0-0.076-0.064-0.14-0.14-0.14h-5.302c-0.011 0-0.024 0-0.035 0h-17.422c-0.011 0-0.024 0-0.035 0h-5.302c-0.076 0-0.14 0.064-0.14 0.14v2.452c0 0.074 0.065 0.138 0.14 0.138h1.104c0.005 0 0.011 0 0.017 0h25.855c0.006 0 0.011 0 0.017 0zM23.988 28.765c-0.028 0-0.058-0.002-0.086-0.004-0.517-0.048-0.899-0.506-0.852-1.024l0.815-8.911c0.048-0.515 0.513-0.879 1.023-0.851 0.517 0.048 0.899 0.506 0.852 1.024l-0.815 8.911c-0.045 0.487-0.455 0.855-0.937 0.855zM8.152 28.765c-0.482 0-0.892-0.368-0.937-0.855l-0.815-8.911c-0.047-0.518 0.334-0.976 0.852-1.024 0.51-0.024 0.976 0.336 1.023 0.851l0.815 8.911c0.047 0.518-0.334 0.976-0.852 1.024-0.028 0.002-0.058 0.004-0.086 0.004zM12.111 28.765c-0.5 0-0.916-0.393-0.939-0.899l-0.408-8.911c-0.024-0.518 0.378-0.959 0.897-0.981 0.508-0.090 0.959 0.377 0.983 0.897l0.408 8.911c0.024 0.518-0.378 0.959-0.897 0.981-0.015 0.002-0.029 0.002-0.044 0.002zM20.029 28.765c-0.015 0-0.029 0-0.044-0.002-0.518-0.022-0.921-0.463-0.897-0.981l0.407-8.911c0.023-0.52 0.463-0.981 0.983-0.897 0.519 0.022 0.921 0.463 0.897 0.981l-0.407 8.911c-0.023 0.505-0.439 0.899-0.939 0.899zM16.070 28.765c-0.519 0-0.941-0.421-0.941-0.941v-8.911c0-0.52 0.422-0.941 0.941-0.941v0c0.52 0 0.941 0.421 0.941 0.941v8.911c0 0.52-0.421 0.941-0.941 0.941z"></path>
</symbol>
<symbol id="menu" viewBox="0 0 43 32">
<path class="path1" d="M42.667 6.4h-42.667v-6.4h42.667v6.4zM42.667 12.8h-42.667v6.4h42.667v-6.4zM42.667 25.6h-42.667v6.4h42.667v-6.4z"></path>
</symbol>
<symbol id="pintarest" viewBox="0 0 32 32">
<path class="path1" d="M32 16c0 8.853-7.147 16-16 16s-16-7.147-16-16 7.147-16 16-16 16 7.147 16 16zM24.64 10.987c-0.64-4.48-5.013-6.72-9.813-6.187-3.733 0.427-7.467 3.413-7.68 7.787-0.107 2.667 0.64 4.587 3.2 5.227 1.067-1.92-0.32-2.347-0.533-3.733-0.96-5.76 6.613-9.6 10.56-5.653 2.773 2.774 0.96 11.307-3.413 10.347-4.16-0.853 2.027-7.573-1.28-8.96-2.773-1.067-4.16 3.307-2.88 5.44-0.747 3.733-2.347 7.253-1.707 11.947 2.133-1.6 2.88-4.587 3.413-7.68 1.067 0.64 1.707 1.387 2.987 1.493 5.013 0.427 7.787-5.013 7.147-10.027z"></path>
</symbol>
<symbol id="facebook" viewBox="0 0 32 32">
<path class="path1" d="M16 0c-8.853 0-16 7.147-16 16s7.147 16 16 16 16-7.147 16-16-7.253-16-16-16zM20.267 15.68h-2.667c0 4.267 0 9.6 0 9.6h-4.053c0 0 0-5.227 0-9.6h-1.92v-3.413h1.92v-2.24c0-1.6 0.747-4.053 4.053-4.053h2.987v3.307c0 0-1.813 0-2.133 0s-0.853 0.213-0.853 0.96v2.027h3.093l-0.427 3.413z"></path>
</symbol>
<symbol id="download" viewBox="0 0 35 32">
<path class="path1" d="M3.103 25.27v-22.167h3.927v10.958h14.061v-10.958h1.25l2.928 2.852v4.588h3.103v-5.898l-4.77-4.645h-23.603v28.374h17.569l-2.849-3.103h-11.617zM28.515 21.421v-8.151h-6.755v8.151h-6.333l9.711 10.579 9.711-10.579h-6.334zM14.884 3.103h3.103v7.854h-3.103v-7.854z"></path>
</symbol>
<symbol id="login" viewBox="0 0 29 32">
<path class="path1" d="M13.951 4.883c-0.997-0.998-2.425-1.425-3.998-1.21-1.486 0.204-2.953 0.965-4.128 2.142-2.497 2.497-2.916 6.144-0.932 8.126 0.842 0.842 1.986 1.252 3.214 1.252 1.66 0 3.476-0.748 4.912-2.185 1.177-1.177 1.936-2.644 2.14-4.128 0.217-1.583-0.212-3.003-1.208-3.997zM13.295 8.623c-0.149 1.081-0.719 2.166-1.607 3.054-1.73 1.732-4.233 2.161-5.463 0.932-1.228-1.228-0.802-3.729 0.932-5.463 0.888-0.888 1.971-1.458 3.052-1.607 0.18-0.024 0.355-0.037 0.524-0.037 0.763 0 1.421 0.244 1.887 0.712 0.57 0.57 0.809 1.425 0.675 2.409z"></path>
<path class="path2" d="M28.375 23.703l-10.941-10.941c2.057-3.666 1.88-7.974-0.756-10.608-3.306-3.306-9.253-2.744-13.256 1.258-1.912 1.912-3.109 4.323-3.369 6.789-0.268 2.541 0.482 4.838 2.113 6.467 1.449 1.449 3.404 2.155 5.48 2.155 1.699 0 3.478-0.475 5.127-1.401l5.236 5.236-2.805 2.805c-0.368 0.368-0.368 0.964 0 1.331 0.886 0.886 1.598 1.638 2.317 2.398 0.745 0.785 1.495 1.578 2.449 2.532 0.184 0.184 0.425 0.276 0.666 0.276s0.482-0.092 0.666-0.276l2.958-2.958c0.343 0.183 0.725 0.275 1.112 0.275 0.64 0 1.291-0.252 1.789-0.75l1.142-1.142c0.969-0.969 1.002-2.514 0.074-3.446zM3.498 15.336c-1.221-1.221-1.778-2.973-1.572-4.937 0.215-2.039 1.219-4.047 2.828-5.656 1.887-1.887 4.27-2.872 6.442-2.872 1.589 0 3.065 0.528 4.152 1.614 1.221 1.221 1.778 2.975 1.572 4.939-0.215 2.039-1.219 4.047-2.828 5.656-3.268 3.27-8.023 3.829-10.594 1.256zM20.639 29.724c-0.438-0.447-0.834-0.86-1.217-1.263l0.818-0.817c0.368-0.368 0.368-0.964 0-1.331s-0.964-0.368-1.331 0l-0.783 0.782c-0.297-0.311-0.602-0.628-0.929-0.962l2.143-2.143 3.517 3.517-2.218 2.218zM26.97 25.818l-1.142 1.142c-0.23 0.228-0.594 0.261-0.781 0.074l-10.682-10.682c0.364-0.289 0.719-0.6 1.058-0.939s0.652-0.693 0.941-1.058l10.678 10.678c0.193 0.195 0.16 0.554-0.072 0.785z"></path>
</symbol>
<symbol id="instagram" viewBox="0 0 32 32">
<path class="path1" d="M16 0c-8.853 0-16 7.147-16 16s7.147 16 16 16 16-7.147 16-16c0-8.853-7.253-16-16-16zM26.261 22.466c0 2.121-1.719 3.84-3.84 3.84h-12.8c-2.121 0-3.84-1.719-3.84-3.84v-12.8c0-2.121 1.719-3.84 3.84-3.84h12.8c2.121 0 3.84 1.719 3.84 3.84v12.8zM22.4 7.426h-12.907c-1.28 0-2.432 0.894-2.432 2.067v3.373h3.392c1.067-1.92 3.2-3.2 5.547-3.2s4.373 1.28 5.547 3.2h3.114v-3.373c0-1.28-0.981-2.067-2.261-2.067zM23.701 10.648c0 0.341-0.277 0.618-0.618 0.618h-1.324c-0.341 0-0.618-0.277-0.618-0.618v-1.324c0-0.341 0.277-0.618 0.618-0.618h1.324c0.341 0 0.618 0.277 0.618 0.618v1.324zM16 11.147c-2.651 0-4.8 2.149-4.8 4.8s2.149 4.8 4.8 4.8 4.8-2.149 4.8-4.8-2.149-4.8-4.8-4.8zM16 18.987c-1.707 0-2.987-1.387-2.987-2.987 0-0.533 0.213-1.067 0.427-1.6 0 0.107-0.107 0.32-0.107 0.427 0 0.853 0.64 1.493 1.493 1.493s1.493-0.64 1.493-1.493c0-0.853-0.64-1.493-1.493-1.493-0.107 0-0.32 0-0.427 0.107 0.427-0.32 0.96-0.427 1.6-0.427 1.707 0 2.987 1.387 2.987 2.987s-1.387 2.987-2.987 2.987z"></path>
</symbol>
<symbol id="mail" viewBox="0 0 32 32">
<path class="path1" d="M16 0c-8.836 0-16 7.164-16 16s7.164 16 16 16c8.836 0 16-7.164 16-16s-7.164-16-16-16zM24.494 9.346l-8.6 7.676-8.6-7.676h17.201zM6.421 9.985l6.68 5.961-6.68 5.962v-11.923zM7.293 23.106l6.748-6.162 1.427 1.203c0.122 0.108 0.274 0.128 0.426 0.128s0.305-0.072 0.426-0.18l1.427-1.142 6.748 6.153h-17.201zM25.621 22.098l-6.893-6.152 6.893-6.152v12.303z"></path>
</symbol>
<symbol id="signup" viewBox="0 0 23 32">
<path class="path1" d="M14.757 0.063h-10.982c-2.101 0-3.755 1.393-3.755 3.494v24.381c0 2.101 1.655 4.126 3.755 4.126h15.238c2.101 0 3.864-2.025 3.864-4.126v-20.125l-8.12-7.75zM20.222 7.682h-4.963v-5.334l4.963 5.334zM19.013 30.539h-15.238c-1.26 0-2.231-1.341-2.231-2.602v-24.381c0-1.26 0.971-1.97 2.231-1.97h9.959v6.541c0 0.421 0.286 1.078 0.707 1.078h6.912v18.732c0 1.261-1.080 2.602-2.34 2.602zM9.438 8.382h-6.095c-0.421 0-0.762-0.341-0.762-0.762s0.341-0.762 0.762-0.762h6.095c0.421 0 0.762 0.341 0.762 0.762s-0.341 0.762-0.762 0.762zM19.374 12.953h-16.062c-0.421 0-0.762-0.341-0.762-0.762s0.341-0.762 0.762-0.762h16.062c0.421 0 0.762 0.341 0.762 0.762s-0.341 0.762-0.762 0.762zM19.374 17.525h-16.062c-0.421 0-0.762-0.341-0.762-0.762s0.341-0.762 0.762-0.762h16.062c0.421 0 0.762 0.341 0.762 0.762s-0.341 0.762-0.762 0.762zM19.374 22.096h-16.062c-0.421 0-0.762-0.341-0.762-0.762s0.341-0.762 0.762-0.762h16.062c0.421 0 0.762 0.341 0.762 0.762s-0.341 0.762-0.762 0.762zM12.455 26.668h-9.143c-0.421 0-0.762-0.341-0.762-0.762s0.341-0.762 0.762-0.762h9.143c0.421 0 0.762 0.341 0.762 0.762s-0.341 0.762-0.762 0.762z"></path>
</symbol>
</defs>
<defs>
<symbol id="twitter" viewBox="0 0 20 20">
<path class="path1" d="M10 0.4c-5.302 0-9.6 4.298-9.6 9.6s4.298 9.6 9.6 9.6 9.6-4.298 9.6-9.6-4.298-9.6-9.6-9.6zM13.905 8.264c0.004 0.082 0.005 0.164 0.005 0.244 0 2.5-1.901 5.381-5.379 5.381-1.068 0-2.062-0.312-2.898-0.85 0.147 0.018 0.298 0.025 0.451 0.025 0.886 0 1.701-0.301 2.348-0.809-0.827-0.016-1.525-0.562-1.766-1.312 0.115 0.021 0.233 0.033 0.355 0.033 0.172 0 0.34-0.023 0.498-0.066-0.865-0.174-1.517-0.938-1.517-1.854v-0.023c0.255 0.141 0.547 0.227 0.857 0.237-0.508-0.34-0.841-0.918-0.841-1.575 0-0.346 0.093-0.672 0.256-0.951 0.933 1.144 2.325 1.896 3.897 1.977-0.033-0.139-0.049-0.283-0.049-0.432 0-1.043 0.846-1.891 1.891-1.891 0.543 0 1.035 0.23 1.38 0.598 0.431-0.086 0.835-0.242 1.2-0.459-0.141 0.441-0.44 0.812-0.831 1.047 0.383-0.047 0.747-0.148 1.086-0.299-0.253 0.379-0.574 0.713-0.943 0.979z"></path>
</symbol>
<symbol id="cog" viewBox="0 0 16 16">
<path class="path1" d="M14.59 9.535c-0.839-1.454-0.335-3.317 1.127-4.164l-1.572-2.723c-0.449 0.263-0.972 0.414-1.529 0.414-1.68 0-3.042-1.371-3.042-3.062h-3.145c0.004 0.522-0.126 1.051-0.406 1.535-0.839 1.454-2.706 1.948-4.17 1.106l-1.572 2.723c0.453 0.257 0.845 0.634 1.123 1.117 0.838 1.452 0.336 3.311-1.12 4.16l1.572 2.723c0.448-0.261 0.967-0.41 1.522-0.41 1.675 0 3.033 1.362 3.042 3.046h3.145c-0.001-0.517 0.129-1.040 0.406-1.519 0.838-1.452 2.7-1.947 4.163-1.11l1.572-2.723c-0.45-0.257-0.839-0.633-1.116-1.113zM8 11.24c-1.789 0-3.24-1.45-3.24-3.24s1.45-3.24 3.24-3.24c1.789 0 3.24 1.45 3.24 3.24s-1.45 3.24-3.24 3.24z"></path>
</symbol>
<symbol id="enter" viewBox="0 0 16 16">
<path class="path1" d="M6 8h-5v-2h5v-2l3 3-3 3zM16 0v13l-6 3v-3h-6v-4h1v3h5v-9l4-2h-9v4h-1v-5z"></path>
</symbol>
</defs>
</svg>
