<svg style="position: absolute; width: 0; height: 0;" width="0" height="0" version="1.1" xmlns="http://www.w3.org/2000/svg" xmlns:xlink="http://www.w3.org/1999/xlink">
<defs>
<symbol id="envelope" viewBox="0 0 50 32">
<path fill="#FFF" class="path1 fill-color1" d="M49.883 29.408c0 1.426-1.166 2.592-2.593 2.592h-44.699c-1.426 0-2.591-1.165-2.591-2.592v-26.816c0-1.427 1.166-2.592 2.591-2.592h44.699c1.426 0 2.593 1.165 2.593 2.592v26.816z"></path>
<path fill="#000" class="path2 fill-color2" d="M46.873 26.924l-12.562-10.924 12.562-10.924c0.61-0.529 0.673-1.457 0.142-2.068-0.531-0.612-1.455-0.675-2.068-0.144l-19.393 16.871c-0.312 0.269-0.898 0.269-1.21 0l-19.406-16.871c-0.611-0.531-1.537-0.469-2.070 0.141-0.531 0.612-0.466 1.541 0.144 2.069l12.566 10.925-12.566 10.924c-0.61 0.529-0.675 1.457-0.144 2.070 0.533 0.61 1.46 0.673 2.070 0.142l12.876-11.193 4.606 4.004c0.709 0.617 1.618 0.924 2.53 0.924s1.82-0.307 2.53-0.929l4.602-4.002 12.867 11.195c0.612 0.531 1.537 0.468 2.068-0.144 0.531-0.61 0.468-1.539-0.142-2.068z"></path>
</symbol>
<symbol id="contact" viewBox="0 0 48 32">
<path class="path1" d="M43.774 32h-39.849c-2.164 0-3.925-1.761-3.925-3.925v-24.151c0-2.164 1.761-3.925 3.925-3.925h39.849c2.164 0 3.925 1.761 3.925 3.925v24.151c0 2.164-1.761 3.925-3.925 3.925zM3.925 1.811c-1.165 0-2.113 0.948-2.113 2.113v24.151c0 1.165 0.948 2.113 2.113 2.113h39.849c1.165 0 2.113-0.948 2.113-2.113v-24.151c0-1.165-0.948-2.113-2.113-2.113h-39.849z"></path>
<path class="path2" d="M23.849 20.887l-22.809-18.677 1.147-1.401 21.661 17.737 21.662-17.737 1.147 1.401z"></path>
<path class="path3" d="M27.438 16.395l1.147-1.401 18.070 14.795-1.147 1.401-18.070-14.795z"></path>
<path class="path4" d="M1.040 29.79l17.583-14.395 1.147 1.402-17.583 14.395-1.147-1.402z"></path>
</symbol>
<symbol id="chat" viewBox="0 0 38 32">
<path class="path1" d="M22.927 18.351c-0.732-1.862-2.076-3.241-3.737-4.305-4.063-2.602-9.342-2.864-13.622-0.802-0.78 0.375-1.526 0.828-2.228 1.358-0.215 0.164-0.422 0.334-0.617 0.511-2.971 2.67-3.63 6.735-1.385 10.089 0.254 0.38 0.487 0.778 0.684 1.19 0.574 1.199 0.432 2.436 0.113 3.666-0.164 0.629-0.371 1.246-0.579 1.941 0.176-0.070 0.291-0.114 0.403-0.162 1.65-0.704 3.304-1.398 4.945-2.117 0.348-0.154 0.661-0.184 1.030-0.085 2.741 0.735 5.48 0.741 8.198-0.116 1.67-0.526 3.196-1.283 4.464-2.41 0.519-0.461 0.995-0.984 1.421-1.579 0.172-0.24 0.328-0.482 0.469-0.726 1.173-2.018 1.332-4.186 0.44-6.453zM5.898 22.958c-0.932 0-1.688-0.756-1.688-1.688s0.756-1.688 1.688-1.688c0.932 0 1.688 0.756 1.688 1.688s-0.756 1.688-1.688 1.688zM11.129 22.958c-0.932 0-1.688-0.756-1.688-1.688s0.756-1.688 1.688-1.688c0.932 0 1.688 0.756 1.688 1.688s-0.756 1.688-1.688 1.688zM16.308 22.958c-0.932 0-1.688-0.756-1.688-1.688s0.756-1.688 1.688-1.688c0.932 0 1.687 0.756 1.687 1.688s-0.756 1.688-1.687 1.688zM34.635 20.92c-0.751 1.27-0.729 2.673-0.63 4.071 0.1 1.428 0.538 2.779 1.068 4.101 0.046 0.115 0.094 0.226 0.138 0.341 0.009 0.021 0.004 0.047 0.012 0.148-0.603-0.253-1.166-0.484-1.725-0.723-2.205-0.942-4.407-1.891-6.618-2.821-0.195-0.082-0.45-0.086-0.66-0.045-1.224 0.234-2.444 0.494-3.666 0.741-0.141 0.028-0.288 0.030-0.429 0.043-0.003-0.011-0.005-0.020-0.008-0.027-0.012-0.031-0.021-0.052-0.014-0.061 0.485-0.719 0.963-1.443 1.466-2.147 0.087-0.121 0.274-0.207 0.43-0.236 0.049-0.011 0.099-0.020 0.148-0.030 1.041-0.208 2.086-0.407 3.134-0.586 0.15-0.026 0.334 0.043 0.477 0.117 1.379 0.719 2.752 1.448 4.127 2.173 0.117 0.062 0.239 0.116 0.43 0.207-0.034-0.182-0.057-0.304-0.078-0.427-0.192-1.157-0.435-2.307-0.561-3.47-0.113-1.043 0.198-2.003 0.833-2.861 0.876-1.185 1.638-2.444 2.079-3.86 0.898-2.884 0.398-5.539-1.429-7.932-1.426-1.868-3.309-3.138-5.457-4.040-2.557-1.073-5.211-1.694-7.993-1.653-2.151 0.031-4.178 0.62-6.117 1.52-2.1 0.975-3.978 2.266-5.497 4.028-1.097 1.27-1.898 2.685-2.117 4.371-0.012 0.093-0.022 0.188-0.031 0.285-0.016 0.17-0.175 0.385-0.329 0.476-0.863 0.512-1.743 0.992-2.708 1.532 0.005-0.098 0.009-0.192 0.013-0.286 0.017-0.412 0.026-0.793 0.062-1.17 0.368-3.85 2.406-6.699 5.412-8.952 2.585-1.937 5.533-3.021 8.699-3.489 3.81-0.564 7.548-0.225 11.138 1.236 2.987 1.215 5.569 2.999 7.343 5.752 2.539 3.942 2.553 7.95 0.129 11.964-0.348 0.576-0.729 1.132-1.072 1.71z"></path>
</symbol>
<symbol id="phone" viewBox="0 0 31 32">
<path class="path1" d="M0.071 9.574c0.114 1.505 1.367 8.235 7.71 14.528 6.294 6.344 13.151 7.725 14.656 7.838 4.627 0.49 7.712-2.072 8.883-6.063 0.312-1.064-0.206-2.209-1.197-2.707l-5.125-2.578c-0.89-0.448-1.968-0.274-2.673 0.43l-3.070 3.070c0 0-2.573-0.192-7.509-5.128-5.055-5.055-5.128-7.509-5.128-7.509l3.112-3.112c0.684-0.684 0.87-1.722 0.465-2.601l-2.013-4.372c-0.49-1.065-1.72-1.638-2.825-1.244-3.762 1.342-5.77 4.884-5.287 9.449z"></path>
</symbol>
<symbol id="cart" viewBox="0 0 27 32">
<path class="path1 fill-color1" d="M6.072 9.468c0-4.104 3.233-7.432 7.221-7.432s7.222 3.328 7.222 7.432v0.127h1.978v-0.622c0-4.955-3.904-8.972-8.718-8.972h-0.963c-4.815 0-8.719 4.018-8.719 8.972v0.622h1.979v-0.127z"></path>
<path class="path2 fill-color1" d="M25.445 10.337c0-0.41-0.401-0.742-0.897-0.742h-22.737c-0.495 0-0.896 0.332-0.896 0.742 0 0-1.023 16.586-0.907 20.732 0.018 0.593 0.781 0.931 0.781 0.931h24.908c0.556 0 1.007-0.358 1.007-0.8l-1.26-20.863zM4.971 29.836h-2.813c0 0 0.322-18.365 1.366-17.28l0.977 8.127 0.993 8.269c0 0 0.402 0.884-0.522 0.884zM5.974 13.851c-0.585 0-1.059-0.474-1.059-1.058 0-0.585 0.474-1.059 1.059-1.059s1.058 0.473 1.058 1.059c0 0.584-0.474 1.058-1.058 1.058zM21.435 13.569c-0.585 0-1.059-0.474-1.059-1.058 0-0.585 0.474-1.059 1.059-1.059s1.058 0.473 1.058 1.059c0 0.584-0.474 1.058-1.058 1.058z"></path>
<path class="path3 fill-color2" d="M22.493 12.511c0 0.585-0.474 1.059-1.059 1.059s-1.059-0.474-1.059-1.059c0-0.585 0.474-1.059 1.059-1.059s1.059 0.474 1.059 1.059z"></path>
<path class="path4 fill-color2" d="M7.032 12.793c0 0.585-0.474 1.059-1.059 1.059s-1.059-0.474-1.059-1.059c0-0.585 0.474-1.059 1.059-1.059s1.059 0.474 1.059 1.059z"></path>
</symbol>
<symbol id="menu" viewBox="0 0 43 32">
<path class="path1" d="M42.667 6.4h-42.667v-6.4h42.667v6.4zM42.667 12.8h-42.667v6.4h42.667v-6.4zM42.667 25.6h-42.667v6.4h42.667v-6.4z"></path>
</symbol>
<symbol id="pintarest" viewBox="0 0 32 32">
<path class="path1" d="M32 16c0 8.853-7.147 16-16 16s-16-7.147-16-16 7.147-16 16-16 16 7.147 16 16zM24.64 10.987c-0.64-4.48-5.013-6.72-9.813-6.187-3.733 0.427-7.467 3.413-7.68 7.787-0.107 2.667 0.64 4.587 3.2 5.227 1.067-1.92-0.32-2.347-0.533-3.733-0.96-5.76 6.613-9.6 10.56-5.653 2.773 2.774 0.96 11.307-3.413 10.347-4.16-0.853 2.027-7.573-1.28-8.96-2.773-1.067-4.16 3.307-2.88 5.44-0.747 3.733-2.347 7.253-1.707 11.947 2.133-1.6 2.88-4.587 3.413-7.68 1.067 0.64 1.707 1.387 2.987 1.493 5.013 0.427 7.787-5.013 7.147-10.027z"></path>
</symbol>
<symbol id="facebook" viewBox="0 0 32 32">
<path class="path1" d="M16 0c-8.853 0-16 7.147-16 16s7.147 16 16 16 16-7.147 16-16-7.253-16-16-16zM20.244 15.68h-2.652c0 4.243 0 9.547 0 9.547h-4.031c0 0 0-5.198 0-9.547h-1.909v-3.395h1.909v-2.228c0-1.591 0.742-4.031 4.031-4.031h2.97v3.289c0 0-1.803 0-2.122 0s-0.849 0.212-0.849 0.955v2.015h3.076l-0.424 3.395z"></path>
</symbol>
<symbol id="download" viewBox="0 0 35 32">
<path class="path1" d="M3.103 25.27v-22.167h3.927v10.958h14.061v-10.958h1.25l2.928 2.852v4.588h3.103v-5.898l-4.77-4.645h-23.603v28.374h17.569l-2.849-3.103h-11.617zM28.515 21.421v-8.151h-6.755v8.151h-6.333l9.711 10.579 9.711-10.579h-6.334zM14.884 3.103h3.103v7.854h-3.103v-7.854z"></path>
</symbol>
<symbol id="login" viewBox="0 0 32 32">
<path class="path1" d="M30.742 9.772c-0.806-1.905-1.96-3.616-3.428-5.086s-3.18-2.623-5.086-3.428c-1.973-0.835-4.069-1.258-6.228-1.258s-4.255 0.423-6.228 1.258c-1.905 0.806-3.616 1.96-5.086 3.428s-2.623 3.18-3.428 5.086c-0.835 1.973-1.258 4.069-1.258 6.228s0.423 4.255 1.258 6.228c0.806 1.905 1.96 3.616 3.428 5.086s3.18 2.623 5.086 3.428c1.973 0.835 4.069 1.258 6.228 1.258s4.255-0.423 6.228-1.258c1.905-0.806 3.616-1.96 5.086-3.428s2.623-3.18 3.428-5.086c0.835-1.973 1.258-4.069 1.258-6.228s-0.423-4.255-1.258-6.228zM24.84 27.194c0.071-0.533 0.076-1.125 0.014-1.782-0.39-4.104-2.765-7.586-6.191-8.706 1.589-0.966 2.719-2.864 2.854-5.041 0.091-1.576-0.38-2.999-1.321-4.027-0.933-1.028-2.336-1.661-3.918-1.661s-2.986 0.633-3.918 1.661c-0.941 1.028-1.412 2.45-1.321 4.027 0.135 2.177 1.265 4.076 2.854 5.041-3.426 1.119-5.801 4.601-6.191 8.706-0.082 0.861-0.047 1.61 0.098 2.261-3.668-2.585-6.070-6.854-6.070-11.673 0-7.869 6.402-14.27 14.27-14.27s14.27 6.402 14.27 14.27c0 4.533-2.125 8.579-5.43 11.194z"></path>
</symbol>
<symbol id="instagram" viewBox="0 0 32 32">
<path class="path1" d="M16 0c-8.853 0-16 7.147-16 16s7.147 16 16 16 16-7.147 16-16c0-8.853-7.253-16-16-16zM26.261 22.466c0 2.121-1.719 3.84-3.84 3.84h-12.8c-2.121 0-3.84-1.719-3.84-3.84v-12.8c0-2.121 1.719-3.84 3.84-3.84h12.8c2.121 0 3.84 1.719 3.84 3.84v12.8zM22.4 7.426h-12.907c-1.28 0-2.432 0.894-2.432 2.067v3.373h3.392c1.067-1.92 3.2-3.2 5.547-3.2s4.373 1.28 5.547 3.2h3.114v-3.373c0-1.28-0.981-2.067-2.261-2.067zM23.701 10.648c0 0.341-0.277 0.618-0.618 0.618h-1.324c-0.341 0-0.618-0.277-0.618-0.618v-1.324c0-0.341 0.277-0.618 0.618-0.618h1.324c0.341 0 0.618 0.277 0.618 0.618v1.324zM16 11.147c-2.651 0-4.8 2.149-4.8 4.8s2.149 4.8 4.8 4.8 4.8-2.149 4.8-4.8-2.149-4.8-4.8-4.8zM16 18.987c-1.707 0-2.987-1.387-2.987-2.987 0-0.533 0.213-1.067 0.427-1.6 0 0.107-0.107 0.32-0.107 0.427 0 0.853 0.64 1.493 1.493 1.493s1.493-0.64 1.493-1.493c0-0.853-0.64-1.493-1.493-1.493-0.107 0-0.32 0-0.427 0.107 0.427-0.32 0.96-0.427 1.6-0.427 1.707 0 2.987 1.387 2.987 2.987s-1.387 2.987-2.987 2.987z"></path>
</symbol>
<symbol id="mail" viewBox="0 0 32 32">
<path class="path1" d="M16 0c-8.836 0-16 7.164-16 16s7.164 16 16 16c8.836 0 16-7.164 16-16s-7.164-16-16-16zM24.494 9.278l-8.6 7.676-8.6-7.676h17.201zM6.279 9.985l6.68 5.961-6.68 5.962v-11.923zM7.293 23.038l6.748-6.128 1.427 1.22c0.122 0.108 0.274 0.136 0.426 0.136s0.305-0.067 0.426-0.176l1.427-1.174 6.748 6.121h-17.201zM25.479 22.098l-6.893-6.152 6.893-6.152v12.303z"></path>
</symbol>
<symbol id="signup" viewBox="0 0 31 32">
<path class="path1" d="M23.273 23.273h-5.818v5.818h-14.545v-26.182h18.182l2.909-2.909h-24v32h18.909l7.273-7.273v-10.909l-2.909 2.909v6.546zM30.122 3.807l-1.928-1.928c-0.278-0.278-0.641-0.42-1.006-0.424s-0.731 0.127-1.016 0.395c-0.005 0.005-0.012 0.006-0.017 0.011l-1.387 1.386 3.987 3.987 1.386-1.387c0.006-0.006 0.007-0.014 0.013-0.020 0.265-0.283 0.396-0.646 0.393-1.008-0.003-0.366-0.144-0.731-0.424-1.010zM12.729 23.271l0.328-0.328-4-4-0.328 0.328v4h4zM10.216 17.786l3.999 3.998 13.383-13.394-3.988-3.988-13.394 13.383z"></path>
</symbol>
<symbol id="twitter" viewBox="0 0 32 32">
<path class="path1" d="M16 0c-8.837 0-16 7.163-16 16s7.163 16 16 16 16-7.163 16-16-7.163-16-16-16zM24.228 12.225c0.009 0.175 0.011 0.35 0.011 0.521 0 5.34-4.060 11.493-11.489 11.493-2.281 0-4.404-0.666-6.19-1.815 0.314 0.038 0.636 0.053 0.963 0.053 1.892 0 3.633-0.643 5.015-1.728-1.766-0.034-3.257-1.2-3.772-2.802 0.246 0.045 0.498 0.070 0.758 0.070 0.367 0 0.726-0.049 1.064-0.141-1.848-0.372-3.24-2.004-3.24-3.96v-0.049c0.545 0.301 1.168 0.485 1.83 0.506-1.085-0.726-1.796-1.961-1.796-3.364 0-0.739 0.199-1.435 0.547-2.031 1.993 2.444 4.966 4.050 8.324 4.223-0.070-0.297-0.105-0.604-0.105-0.923 0-2.228 1.807-4.039 4.039-4.039 1.16 0 2.211 0.491 2.948 1.277 0.921-0.184 1.783-0.517 2.563-0.98-0.301 0.942-0.94 1.734-1.775 2.236 0.818-0.1 1.596-0.316 2.32-0.639-0.541 0.811-1.227 1.524-2.015 2.092z"></path>
</symbol>
<symbol id="cog" viewBox="0 0 31 32">
<path class="path1" d="M28.618 19.070c-1.678-2.908-0.67-6.634 2.254-8.328l-3.144-5.446c-0.898 0.526-1.944 0.828-3.058 0.828-3.36 0-6.084-2.742-6.084-6.124h-6.29c0.008 1.044-0.252 2.102-0.812 3.070-1.678 2.908-5.412 3.896-8.34 2.212l-3.144 5.446c0.906 0.514 1.69 1.268 2.246 2.234 1.676 2.904 0.672 6.622-2.24 8.32l3.144 5.446c0.896-0.522 1.934-0.82 3.044-0.82 3.35 0 6.066 2.724 6.084 6.092h6.29c-0.002-1.034 0.258-2.080 0.812-3.038 1.676-2.904 5.4-3.894 8.326-2.22l3.144-5.446c-0.9-0.514-1.678-1.266-2.232-2.226zM15.438 22.48c-3.578 0-6.48-2.9-6.48-6.48s2.9-6.48 6.48-6.48c3.578 0 6.48 2.9 6.48 6.48s-2.9 6.48-6.48 6.48z"></path>
</symbol>
<symbol id="enter" viewBox="0 0 16 16">
<path class="path1" d="M6 8h-5v-2h5v-2l3 3-3 3zM16 0v13l-6 3v-3h-6v-4h1v3h5v-9l4-2h-9v4h-1v-5z"></path>
</symbol>
</defs>
</svg>
