<svg style="position: absolute; width: 0; height: 0;" width="0" height="0" version="1.1" xmlns="http://www.w3.org/2000/svg" xmlns:xlink="http://www.w3.org/1999/xlink">
<defs>
<symbol id="envelope" viewBox="0 0 50 32">
<path fill="#FFF" class="path1 fill-color1" d="M49.883 29.408c0 1.426-1.166 2.592-2.593 2.592h-44.699c-1.426 0-2.591-1.165-2.591-2.592v-26.816c0-1.427 1.166-2.592 2.591-2.592h44.699c1.426 0 2.593 1.165 2.593 2.592v26.816z"></path>
<path fill="#000" class="path2 fill-color2" d="M46.873 26.924l-12.562-10.924 12.562-10.924c0.61-0.529 0.673-1.457 0.142-2.068-0.531-0.612-1.455-0.675-2.068-0.144l-19.393 16.871c-0.312 0.269-0.898 0.269-1.21 0l-19.406-16.871c-0.611-0.531-1.537-0.469-2.070 0.141-0.531 0.612-0.466 1.541 0.144 2.069l12.566 10.925-12.566 10.924c-0.61 0.529-0.675 1.457-0.144 2.070 0.533 0.61 1.46 0.673 2.070 0.142l12.876-11.193 4.606 4.004c0.709 0.617 1.618 0.924 2.53 0.924s1.82-0.307 2.53-0.929l4.602-4.002 12.867 11.195c0.612 0.531 1.537 0.468 2.068-0.144 0.531-0.61 0.468-1.539-0.142-2.068z"></path>
</symbol>
<symbol id="contact" viewBox="0 0 48 32">
<path class="path1" d="M43.774 32h-39.849c-2.164 0-3.925-1.761-3.925-3.925v-24.151c0-2.164 1.761-3.925 3.925-3.925h39.849c2.164 0 3.925 1.761 3.925 3.925v24.151c0 2.164-1.761 3.925-3.925 3.925zM3.925 1.811c-1.165 0-2.113 0.948-2.113 2.113v24.151c0 1.165 0.948 2.113 2.113 2.113h39.849c1.165 0 2.113-0.948 2.113-2.113v-24.151c0-1.165-0.948-2.113-2.113-2.113h-39.849z"></path>
<path class="path2" d="M23.849 20.887l-22.809-18.677 1.147-1.401 21.661 17.737 21.662-17.737 1.147 1.401z"></path>
<path class="path3" d="M27.438 16.395l1.147-1.401 18.070 14.795-1.147 1.401-18.070-14.795z"></path>
<path class="path4" d="M1.040 29.79l17.583-14.395 1.147 1.402-17.583 14.395-1.147-1.402z"></path>
</symbol>
<symbol id="chat" viewBox="0 0 38 32">
<path class="path1" d="M22.927 18.351c-0.732-1.862-2.076-3.241-3.737-4.305-4.063-2.602-9.342-2.864-13.622-0.802-0.78 0.375-1.526 0.828-2.228 1.358-0.215 0.164-0.422 0.334-0.617 0.511-2.971 2.67-3.63 6.735-1.385 10.089 0.254 0.38 0.487 0.778 0.684 1.19 0.574 1.199 0.432 2.436 0.113 3.666-0.164 0.629-0.371 1.246-0.579 1.941 0.176-0.070 0.291-0.114 0.403-0.162 1.65-0.704 3.304-1.398 4.945-2.117 0.348-0.154 0.661-0.184 1.030-0.085 2.741 0.735 5.48 0.741 8.198-0.116 1.67-0.526 3.196-1.283 4.464-2.41 0.519-0.461 0.995-0.984 1.421-1.579 0.172-0.24 0.328-0.482 0.469-0.726 1.173-2.018 1.332-4.186 0.44-6.453zM5.898 22.958c-0.932 0-1.688-0.756-1.688-1.688s0.756-1.688 1.688-1.688c0.932 0 1.688 0.756 1.688 1.688s-0.756 1.688-1.688 1.688zM11.129 22.958c-0.932 0-1.688-0.756-1.688-1.688s0.756-1.688 1.688-1.688c0.932 0 1.688 0.756 1.688 1.688s-0.756 1.688-1.688 1.688zM16.308 22.958c-0.932 0-1.688-0.756-1.688-1.688s0.756-1.688 1.688-1.688c0.932 0 1.687 0.756 1.687 1.688s-0.756 1.688-1.687 1.688zM34.635 20.92c-0.751 1.27-0.729 2.673-0.63 4.071 0.1 1.428 0.538 2.779 1.068 4.101 0.046 0.115 0.094 0.226 0.138 0.341 0.009 0.021 0.004 0.047 0.012 0.148-0.603-0.253-1.166-0.484-1.725-0.723-2.205-0.942-4.407-1.891-6.618-2.821-0.195-0.082-0.45-0.086-0.66-0.045-1.224 0.234-2.444 0.494-3.666 0.741-0.141 0.028-0.288 0.030-0.429 0.043-0.003-0.011-0.005-0.020-0.008-0.027-0.012-0.031-0.021-0.052-0.014-0.061 0.485-0.719 0.963-1.443 1.466-2.147 0.087-0.121 0.274-0.207 0.43-0.236 0.049-0.011 0.099-0.020 0.148-0.030 1.041-0.208 2.086-0.407 3.134-0.586 0.15-0.026 0.334 0.043 0.477 0.117 1.379 0.719 2.752 1.448 4.127 2.173 0.117 0.062 0.239 0.116 0.43 0.207-0.034-0.182-0.057-0.304-0.078-0.427-0.192-1.157-0.435-2.307-0.561-3.47-0.113-1.043 0.198-2.003 0.833-2.861 0.876-1.185 1.638-2.444 2.079-3.86 0.898-2.884 0.398-5.539-1.429-7.932-1.426-1.868-3.309-3.138-5.457-4.040-2.557-1.073-5.211-1.694-7.993-1.653-2.151 0.031-4.178 0.62-6.117 1.52-2.1 0.975-3.978 2.266-5.497 4.028-1.097 1.27-1.898 2.685-2.117 4.371-0.012 0.093-0.022 0.188-0.031 0.285-0.016 0.17-0.175 0.385-0.329 0.476-0.863 0.512-1.743 0.992-2.708 1.532 0.005-0.098 0.009-0.192 0.013-0.286 0.017-0.412 0.026-0.793 0.062-1.17 0.368-3.85 2.406-6.699 5.412-8.952 2.585-1.937 5.533-3.021 8.699-3.489 3.81-0.564 7.548-0.225 11.138 1.236 2.987 1.215 5.569 2.999 7.343 5.752 2.539 3.942 2.553 7.95 0.129 11.964-0.348 0.576-0.729 1.132-1.072 1.71z"></path>
</symbol>
<symbol id="phone" viewBox="0 0 31 32">
<path class="path1" d="M0.071 9.574c0.114 1.505 1.367 8.235 7.71 14.528 6.294 6.344 13.151 7.725 14.656 7.838 4.627 0.49 7.712-2.072 8.883-6.063 0.312-1.064-0.206-2.209-1.197-2.707l-5.125-2.578c-0.89-0.448-1.968-0.274-2.673 0.43l-3.070 3.070c0 0-2.573-0.192-7.509-5.128-5.055-5.055-5.128-7.509-5.128-7.509l3.112-3.112c0.684-0.684 0.87-1.722 0.465-2.601l-2.013-4.372c-0.49-1.065-1.72-1.638-2.825-1.244-3.762 1.342-5.77 4.884-5.287 9.449z"></path>
</symbol>
<symbol id="cart" viewBox="0 0 27 32">
<path class="path1 fill-color1" d="M6.072 9.468c0-4.104 3.233-7.432 7.221-7.432s7.222 3.328 7.222 7.432v0.127h1.978v-0.622c0-4.955-3.904-8.972-8.718-8.972h-0.963c-4.815 0-8.719 4.018-8.719 8.972v0.622h1.979v-0.127z"></path>
<path class="path2 fill-color1" d="M25.445 10.337c0-0.41-0.401-0.742-0.897-0.742h-22.737c-0.495 0-0.896 0.332-0.896 0.742 0 0-1.023 16.586-0.907 20.732 0.018 0.593 0.781 0.931 0.781 0.931h24.908c0.556 0 1.007-0.358 1.007-0.8l-1.26-20.863zM4.971 29.836h-2.813c0 0 0.322-18.365 1.366-17.28l0.977 8.127 0.993 8.269c0 0 0.402 0.884-0.522 0.884zM5.974 13.851c-0.585 0-1.059-0.474-1.059-1.058 0-0.585 0.474-1.059 1.059-1.059s1.058 0.473 1.058 1.059c0 0.584-0.474 1.058-1.058 1.058zM21.435 13.569c-0.585 0-1.059-0.474-1.059-1.058 0-0.585 0.474-1.059 1.059-1.059s1.058 0.473 1.058 1.059c0 0.584-0.474 1.058-1.058 1.058z"></path>
<path class="path3 fill-color2" d="M22.493 12.511c0 0.585-0.474 1.059-1.059 1.059s-1.059-0.474-1.059-1.059c0-0.585 0.474-1.059 1.059-1.059s1.059 0.474 1.059 1.059z"></path>
<path class="path4 fill-color2" d="M7.032 12.793c0 0.585-0.474 1.059-1.059 1.059s-1.059-0.474-1.059-1.059c0-0.585 0.474-1.059 1.059-1.059s1.059 0.474 1.059 1.059z"></path>
</symbol>
<symbol id="menu" viewBox="0 0 43 32">
<path class="path1" d="M42.667 6.4h-42.667v-6.4h42.667v6.4zM42.667 12.8h-42.667v6.4h42.667v-6.4zM42.667 25.6h-42.667v6.4h42.667v-6.4z"></path>
</symbol>
<symbol id="pinterest" viewBox="0 0 32 32">
<path class="path1" d="M32 16c0 8.853-7.147 16-16 16s-16-7.147-16-16 7.147-16 16-16 16 7.147 16 16zM24.64 10.987c-0.64-4.48-5.013-6.72-9.813-6.187-3.733 0.427-7.467 3.413-7.68 7.787-0.107 2.667 0.64 4.587 3.2 5.227 1.067-1.92-0.32-2.347-0.533-3.733-0.96-5.76 6.613-9.6 10.56-5.653 2.773 2.774 0.96 11.307-3.413 10.347-4.16-0.853 2.027-7.573-1.28-8.96-2.773-1.067-4.16 3.307-2.88 5.44-0.747 3.733-2.347 7.253-1.707 11.947 2.133-1.6 2.88-4.587 3.413-7.68 1.067 0.64 1.707 1.387 2.987 1.493 5.013 0.427 7.787-5.013 7.147-10.027z"></path>
</symbol>
<symbol id="facebook" viewBox="0 0 32 32">
<path class="path1" d="M16 0c-8.853 0-16 7.147-16 16s7.147 16 16 16 16-7.147 16-16-7.253-16-16-16zM20.244 15.68h-2.652c0 4.243 0 9.547 0 9.547h-4.031c0 0 0-5.198 0-9.547h-1.909v-3.395h1.909v-2.228c0-1.591 0.742-4.031 4.031-4.031h2.97v3.289c0 0-1.803 0-2.122 0s-0.849 0.212-0.849 0.955v2.015h3.076l-0.424 3.395z"></path>
</symbol>
<symbol id="download" viewBox="0 0 35 32">
<path class="path1" d="M3.103 25.27v-22.167h3.927v10.958h14.061v-10.958h1.25l2.928 2.852v4.588h3.103v-5.898l-4.77-4.645h-23.603v28.374h17.569l-2.849-3.103h-11.617zM28.515 21.421v-8.151h-6.755v8.151h-6.333l9.711 10.579 9.711-10.579h-6.334zM14.884 3.103h3.103v7.854h-3.103v-7.854z"></path>
</symbol>
<symbol id="login" viewBox="0 0 32 32">
<path class="path1" d="M30.742 9.772c-0.806-1.905-1.96-3.616-3.428-5.086s-3.18-2.623-5.086-3.428c-1.973-0.835-4.069-1.258-6.228-1.258s-4.255 0.423-6.228 1.258c-1.905 0.806-3.616 1.96-5.086 3.428s-2.623 3.18-3.428 5.086c-0.835 1.973-1.258 4.069-1.258 6.228s0.423 4.255 1.258 6.228c0.806 1.905 1.96 3.616 3.428 5.086s3.18 2.623 5.086 3.428c1.973 0.835 4.069 1.258 6.228 1.258s4.255-0.423 6.228-1.258c1.905-0.806 3.616-1.96 5.086-3.428s2.623-3.18 3.428-5.086c0.835-1.973 1.258-4.069 1.258-6.228s-0.423-4.255-1.258-6.228zM24.84 27.194c0.071-0.533 0.076-1.125 0.014-1.782-0.39-4.104-2.765-7.586-6.191-8.706 1.589-0.966 2.719-2.864 2.854-5.041 0.091-1.576-0.38-2.999-1.321-4.027-0.933-1.028-2.336-1.661-3.918-1.661s-2.986 0.633-3.918 1.661c-0.941 1.028-1.412 2.45-1.321 4.027 0.135 2.177 1.265 4.076 2.854 5.041-3.426 1.119-5.801 4.601-6.191 8.706-0.082 0.861-0.047 1.61 0.098 2.261-3.668-2.585-6.070-6.854-6.070-11.673 0-7.869 6.402-14.27 14.27-14.27s14.27 6.402 14.27 14.27c0 4.533-2.125 8.579-5.43 11.194z"></path>
</symbol>
<symbol id="instagram" viewBox="0 0 32 32">
<path class="path1" d="M16 0c-8.853 0-16 7.147-16 16s7.147 16 16 16 16-7.147 16-16c0-8.853-7.253-16-16-16zM26.261 22.466c0 2.121-1.719 3.84-3.84 3.84h-12.8c-2.121 0-3.84-1.719-3.84-3.84v-12.8c0-2.121 1.719-3.84 3.84-3.84h12.8c2.121 0 3.84 1.719 3.84 3.84v12.8zM22.4 7.426h-12.907c-1.28 0-2.432 0.894-2.432 2.067v3.373h3.392c1.067-1.92 3.2-3.2 5.547-3.2s4.373 1.28 5.547 3.2h3.114v-3.373c0-1.28-0.981-2.067-2.261-2.067zM23.701 10.648c0 0.341-0.277 0.618-0.618 0.618h-1.324c-0.341 0-0.618-0.277-0.618-0.618v-1.324c0-0.341 0.277-0.618 0.618-0.618h1.324c0.341 0 0.618 0.277 0.618 0.618v1.324zM16 11.147c-2.651 0-4.8 2.149-4.8 4.8s2.149 4.8 4.8 4.8 4.8-2.149 4.8-4.8-2.149-4.8-4.8-4.8zM16 18.987c-1.707 0-2.987-1.387-2.987-2.987 0-0.533 0.213-1.067 0.427-1.6 0 0.107-0.107 0.32-0.107 0.427 0 0.853 0.64 1.493 1.493 1.493s1.493-0.64 1.493-1.493c0-0.853-0.64-1.493-1.493-1.493-0.107 0-0.32 0-0.427 0.107 0.427-0.32 0.96-0.427 1.6-0.427 1.707 0 2.987 1.387 2.987 2.987s-1.387 2.987-2.987 2.987z"></path>
</symbol>
<symbol id="mail" viewBox="0 0 32 32">
<path class="path1" d="M16 0c-8.836 0-16 7.164-16 16s7.164 16 16 16c8.836 0 16-7.164 16-16s-7.164-16-16-16zM24.494 9.278l-8.6 7.676-8.6-7.676h17.201zM6.279 9.985l6.68 5.961-6.68 5.962v-11.923zM7.293 23.038l6.748-6.128 1.427 1.22c0.122 0.108 0.274 0.136 0.426 0.136s0.305-0.067 0.426-0.176l1.427-1.174 6.748 6.121h-17.201zM25.479 22.098l-6.893-6.152 6.893-6.152v12.303z"></path>
</symbol>
<symbol id="signup" viewBox="0 0 31 32">
<path class="path1" d="M23.273 23.273h-5.818v5.818h-14.545v-26.182h18.182l2.909-2.909h-24v32h18.909l7.273-7.273v-10.909l-2.909 2.909v6.546zM30.122 3.807l-1.928-1.928c-0.278-0.278-0.641-0.42-1.006-0.424s-0.731 0.127-1.016 0.395c-0.005 0.005-0.012 0.006-0.017 0.011l-1.387 1.386 3.987 3.987 1.386-1.387c0.006-0.006 0.007-0.014 0.013-0.020 0.265-0.283 0.396-0.646 0.393-1.008-0.003-0.366-0.144-0.731-0.424-1.010zM12.729 23.271l0.328-0.328-4-4-0.328 0.328v4h4zM10.216 17.786l3.999 3.998 13.383-13.394-3.988-3.988-13.394 13.383z"></path>
</symbol>
<symbol id="twitter" viewBox="0 0 32 32">
<path class="path1" d="M16 0c-8.837 0-16 7.163-16 16s7.163 16 16 16 16-7.163 16-16-7.163-16-16-16zM24.228 12.225c0.009 0.175 0.011 0.35 0.011 0.521 0 5.34-4.060 11.493-11.489 11.493-2.281 0-4.404-0.666-6.19-1.815 0.314 0.038 0.636 0.053 0.963 0.053 1.892 0 3.633-0.643 5.015-1.728-1.766-0.034-3.257-1.2-3.772-2.802 0.246 0.045 0.498 0.070 0.758 0.070 0.367 0 0.726-0.049 1.064-0.141-1.848-0.372-3.24-2.004-3.24-3.96v-0.049c0.545 0.301 1.168 0.485 1.83 0.506-1.085-0.726-1.796-1.961-1.796-3.364 0-0.739 0.199-1.435 0.547-2.031 1.993 2.444 4.966 4.050 8.324 4.223-0.070-0.297-0.105-0.604-0.105-0.923 0-2.228 1.807-4.039 4.039-4.039 1.16 0 2.211 0.491 2.948 1.277 0.921-0.184 1.783-0.517 2.563-0.98-0.301 0.942-0.94 1.734-1.775 2.236 0.818-0.1 1.596-0.316 2.32-0.639-0.541 0.811-1.227 1.524-2.015 2.092z"></path>
</symbol>
<symbol id="cog" viewBox="0 0 31 32">
<path class="path1" d="M28.618 19.070c-1.678-2.908-0.67-6.634 2.254-8.328l-3.144-5.446c-0.898 0.526-1.944 0.828-3.058 0.828-3.36 0-6.084-2.742-6.084-6.124h-6.29c0.008 1.044-0.252 2.102-0.812 3.070-1.678 2.908-5.412 3.896-8.34 2.212l-3.144 5.446c0.906 0.514 1.69 1.268 2.246 2.234 1.676 2.904 0.672 6.622-2.24 8.32l3.144 5.446c0.896-0.522 1.934-0.82 3.044-0.82 3.35 0 6.066 2.724 6.084 6.092h6.29c-0.002-1.034 0.258-2.080 0.812-3.038 1.676-2.904 5.4-3.894 8.326-2.22l3.144-5.446c-0.9-0.514-1.678-1.266-2.232-2.226zM15.438 22.48c-3.578 0-6.48-2.9-6.48-6.48s2.9-6.48 6.48-6.48c3.578 0 6.48 2.9 6.48 6.48s-2.9 6.48-6.48 6.48z"></path>
</symbol>
<symbol id="enter" viewBox="0 0 16 16">
<path class="path1" d="M6 8h-5v-2h5v-2l3 3-3 3zM16 0v13l-6 3v-3h-6v-4h1v3h5v-9l4-2h-9v4h-1v-5z"></path>
</symbol>
<symbol id="gooleplus" viewBox="0 0 32 32">
<path class="path1" d="M24.608 14.72v-4.672h-5.056v-2.72h5.056v-5.056h2.72v5.056h4.672v2.72h-4.672v4.672h-2.72zM16.768 23.744c0 3.008-2.912 6.016-8.192 6.016-4.672-0.032-8.576-1.92-8.576-4.928 0-3.072 3.584-6.016 8.192-6.016 0.512 0 0.96-0.032 1.44-0.032-0.64-0.608-1.152-1.376-1.152-2.336 0-0.544 0.192-1.12 0.416-1.6-0.256 0.032-0.512-0.032-0.768-0.032-3.808 0-6.368-2.816-6.368-6.176 0-3.296 3.52-6.336 7.264-6.336 2.080 0 8.352 0 8.352 0l-1.856 1.76h-2.656c1.76 0.448 2.688 2.752 2.688 4.832 0 1.76-0.992 3.296-2.368 4.384-1.344 1.056-1.6 1.504-1.6 2.4 0 0.768 1.44 2.048 2.208 2.592 2.24 1.6 2.976 3.040 2.976 5.472zM12.608 9.12c-0.384-2.816-2.432-5.088-4.576-5.152s-3.584 2.112-3.232 4.928c0.384 2.816 2.4 5.152 4.576 5.216 2.144 0.064 3.584-2.176 3.232-4.992zM14.592 24.064c0-0.288-0.032-0.576-0.096-0.864-0.352-1.376-1.6-2.048-3.328-3.264-0.64-0.192-1.344-0.32-2.080-0.32-3.2-0.032-6.080 1.952-6.080 4.352 0 2.432 2.304 4.48 5.504 4.48 4.512-0.032 6.080-1.952 6.080-4.384z"></path>
</symbol>
<symbol id="youtube" viewBox="0 0 32 32">
<path class="path1" d="M32 17.216c0 2.592-0.32 5.184-0.32 5.184s-0.32 2.208-1.28 3.168c-1.216 1.28-2.592 1.28-3.2 1.344-4.48 0.32-11.2 0.32-11.2 0.32s-8.32-0.064-10.88-0.32c-0.704-0.128-2.304-0.096-3.52-1.376-0.96-0.96-1.28-3.168-1.28-3.168s-0.32-2.592-0.32-5.184v-2.432c0-2.56 0.32-5.152 0.32-5.152s0.32-2.208 1.28-3.168c1.216-1.28 2.592-1.28 3.2-1.344 4.48-0.32 11.2-0.32 11.2-0.32v0c0 0 6.72 0 11.2 0.32 0.64 0.064 1.984 0.096 3.2 1.344 0.96 0.96 1.28 3.168 1.28 3.168s0.32 2.592 0.32 5.184v2.432zM12.704 20.16l8.64-4.48-8.64-4.512v8.992z"></path>
</symbol>
<symbol id="waze" viewBox="0 0 36 32">
<path fill="#3d3e3d" class="path1 fill-color2" d="M35.495 14.525c0 0.064-0.032 0.128-0.032 0.192-0.032 1.218-0.257 2.405-0.577 3.591-0.513 1.731-1.379 3.238-2.533 4.617-1.315 1.571-2.886 2.822-4.681 3.784-0.128 0.064-0.289 0.16-0.417 0.224 0.417 1.154 0.321 2.277-0.353 3.335-0.545 0.898-1.379 1.443-2.405 1.667-1.988 0.449-4.329-0.962-4.489-3.463-1.764 0-3.559 0-5.355 0-0.032 0.224-0.064 0.481-0.128 0.737-0.192 0.802-0.609 1.475-1.251 1.988-0.545 0.449-1.186 0.737-1.892 0.802-0.898 0.096-1.699-0.096-2.469-0.577-0.93-0.609-1.507-1.475-1.667-2.565-0.096-0.545-0.064-1.090 0.096-1.603 0.032-0.096 0.032-0.128-0.096-0.192-1.25-0.449-2.437-1.026-3.559-1.796-0.77-0.577-1.539-1.218-2.244-1.956-0.385-0.417-0.77-0.866-1.122-1.315-0.513-0.641-0.417-1.667 0.128-2.277 0.385-0.417 0.866-0.609 1.411-0.641 0.289 0 0.577-0.032 0.866-0.096 0.609-0.128 0.994-0.545 1.218-1.122 0.224-0.545 0.353-1.122 0.417-1.699 0.096-0.898 0.16-1.796 0.256-2.693 0.096-0.994 0.192-1.988 0.449-2.95 0.321-1.251 0.834-2.405 1.539-3.495 0.737-1.154 1.667-2.18 2.725-3.078 2.116-1.796 4.521-2.95 7.214-3.559 0.802-0.192 1.603-0.289 2.405-0.353 0.802-0.032 1.571-0.032 2.341 0.032 1.796 0.128 3.559 0.577 5.226 1.315 1.379 0.577 2.661 1.347 3.816 2.309 2.148 1.796 3.719 4.008 4.585 6.701 0.257 0.866 0.449 1.731 0.513 2.629 0.032 0.257 0.032 0.545 0.064 0.802 0 0.064 0 0.16 0.032 0.224-0.032 0.16-0.032 0.321-0.032 0.481zM1.892 20.97c0 0-0.032 0 0 0 0 0.032 0.032 0.064 0.032 0.064 0.77 0.962 1.635 1.828 2.661 2.533 1.154 0.834 2.437 1.411 3.784 1.892 0.096 0.032 0.16 0 0.224-0.064 0.866-0.705 1.892-0.994 2.982-0.802 1.186 0.192 2.052 0.834 2.661 1.86 0.032 0.032 0.096 0.096 0.128 0.096 0.321 0.032 0.673 0.064 0.994 0.064 1.667 0 3.303 0 4.97 0 0.096 0 0.128-0.032 0.16-0.096 0.449-0.802 1.058-1.379 1.924-1.699 1.315-0.481 2.533-0.289 3.655 0.513 0.064 0.064 0.128 0.064 0.192 0.032 1.603-0.77 3.014-1.828 4.232-3.11 0.866-0.93 1.571-1.956 2.084-3.11 0.866-1.956 1.186-4.008 0.962-6.156-0.16-1.315-0.513-2.565-1.122-3.752-1.154-2.277-2.854-4.008-5.002-5.323-1.988-1.218-4.168-1.892-6.509-2.020-1.186-0.064-2.373 0-3.527 0.224-1.443 0.289-2.822 0.737-4.104 1.411-1.924 0.994-3.591 2.341-4.874 4.136-0.705 1.026-1.25 2.116-1.539 3.335-0.256 0.962-0.321 1.988-0.417 2.982-0.096 0.898-0.16 1.828-0.289 2.725-0.096 0.802-0.321 1.603-0.705 2.309-0.481 0.93-1.25 1.539-2.277 1.796-0.385 0.064-0.834 0.096-1.283 0.16z"></path>
<path fill="#d8e0e4" class="path2 fill-color11" d="M1.892 20.97c0.449-0.064 0.898-0.096 1.347-0.224 1.026-0.256 1.764-0.866 2.277-1.796 0.385-0.737 0.609-1.507 0.705-2.309 0.128-0.898 0.192-1.828 0.289-2.725 0.096-0.994 0.16-1.988 0.417-2.982 0.321-1.186 0.834-2.309 1.539-3.335 1.251-1.796 2.918-3.142 4.874-4.136 1.315-0.673 2.661-1.154 4.104-1.411 1.154-0.224 2.341-0.289 3.527-0.224 2.341 0.16 4.489 0.834 6.509 2.020 2.148 1.315 3.88 3.046 5.002 5.323 0.609 1.186 0.962 2.437 1.122 3.752 0.224 2.148-0.096 4.168-0.962 6.156-0.513 1.154-1.218 2.18-2.084 3.11-1.218 1.315-2.629 2.341-4.232 3.11-0.096 0.032-0.128 0.032-0.192-0.032-1.122-0.834-2.341-1.026-3.655-0.513-0.834 0.321-1.475 0.898-1.924 1.699-0.032 0.064-0.096 0.096-0.16 0.096-1.667 0-3.303 0-4.97 0-0.321 0-0.673-0.032-0.994-0.064-0.064 0-0.128-0.032-0.128-0.096-0.609-1.026-1.475-1.667-2.661-1.86-1.122-0.192-2.116 0.096-2.982 0.802-0.064 0.064-0.128 0.096-0.224 0.064-1.347-0.449-2.629-1.058-3.784-1.892-0.994-0.705-1.892-1.539-2.661-2.533-0.064 0.064-0.096 0.032-0.096 0-0.032 0 0 0 0 0z"></path>
<path fill="#3d3e3d" class="path3 fill-color2" d="M19.976 20.713c-1.892-0.032-3.559-0.673-4.874-2.052-0.673-0.705-1.154-1.539-1.347-2.469-0.128-0.641 0.321-1.186 0.962-1.154 0.385 0 0.77 0.321 0.866 0.705 0.192 0.898 0.705 1.571 1.379 2.084 1.058 0.834 2.309 1.122 3.623 0.994 0.898-0.096 1.699-0.353 2.437-0.834 0.834-0.545 1.411-1.25 1.667-2.212 0.128-0.513 0.641-0.802 1.122-0.673s0.802 0.609 0.673 1.090c-0.192 0.834-0.577 1.571-1.154 2.212-1.026 1.154-2.309 1.828-3.816 2.148-0.513 0.096-1.026 0.16-1.539 0.16zM17.635 11.126c0-0.962-0.802-1.796-1.764-1.796-0.994 0-1.796 0.802-1.796 1.764 0 0.994 0.802 1.796 1.796 1.796 0.962 0.032 1.764-0.77 1.764-1.764zM26.004 11.126c0-0.994-0.802-1.796-1.796-1.796s-1.796 0.802-1.796 1.796 0.802 1.796 1.796 1.796 1.796-0.802 1.796-1.796z"></path>
<path fill="#515252" class="path4 fill-color4" d="M12.088 28.216c0 0.673-0.474 1.218-1.058 1.218s-1.058-0.546-1.058-1.218c0-0.673 0.474-1.218 1.058-1.218s1.058 0.546 1.058 1.218z"></path>
<path fill="#515252" class="path5 fill-color4" d="M24.786 28.216c0 0.673-0.474 1.218-1.058 1.218s-1.058-0.546-1.058-1.218c0-0.673 0.474-1.218 1.058-1.218s1.058 0.546 1.058 1.218z"></path>
</symbol>
<symbol id="minus" viewBox="0 0 5632 1024">
<path class="path1" d="M5120 1024h-4608c-282.624 0-512-229.376-512-512s229.376-512 512-512h4608c282.624 0 512 229.376 512 512s-229.376 512-512 512z"></path>
</symbol>
<symbol id="plus" viewBox="0 0 1024 1024">
<path class="path1" d="M930.909 605.091h-837.818c-51.386 0-93.091-41.705-93.091-93.091s41.705-93.091 93.091-93.091h837.818c51.386 0 93.091 41.705 93.091 93.091s-41.705 93.091-93.091 93.091z"></path>
<path class="path2" d="M512 1024c-51.386 0-93.091-41.705-93.091-93.091v-837.818c0-51.386 41.705-93.091 93.091-93.091s93.091 41.705 93.091 93.091v837.818c0 51.386-41.705 93.091-93.091 93.091z"></path>
</symbol>
<symbol id="close" viewBox="0 0 1024 1024">
<path class="path1" d="M901.571 1024c-31.342 0-62.684-11.937-86.558-35.872l-779.141-779.141c-47.809-47.809-47.809-125.307 0-173.115s125.368-47.809 173.176 0l779.141 779.141c47.809 47.809 47.809 125.307 0 173.115-23.935 23.935-55.277 35.872-86.619 35.872z"></path>
<path class="path2" d="M122.429 1024c-31.342 0-62.684-11.937-86.558-35.872-47.809-47.809-47.809-125.307 0-173.115l779.141-779.141c47.809-47.809 125.307-47.809 173.176 0 47.809 47.809 47.809 125.307 0 173.115l-779.202 779.141c-23.874 23.935-55.216 35.872-86.558 35.872z"></path>
</symbol>
</defs>
</svg>
