<svg style="position: absolute; width: 0; height: 0;" width="0" height="0" version="1.1" xmlns="http://www.w3.org/2000/svg" xmlns:xlink="http://www.w3.org/1999/xlink">
<defs>
<symbol id="contact" viewBox="0 0 48 32">
<path class="path1" d="M43.774 32h-39.849c-2.164 0-3.925-1.761-3.925-3.925v-24.151c0-2.164 1.761-3.925 3.925-3.925h39.849c2.164 0 3.925 1.761 3.925 3.925v24.151c0 2.164-1.761 3.925-3.925 3.925zM3.925 1.811c-1.165 0-2.113 0.948-2.113 2.113v24.151c0 1.165 0.948 2.113 2.113 2.113h39.849c1.165 0 2.113-0.948 2.113-2.113v-24.151c0-1.165-0.948-2.113-2.113-2.113h-39.849z"></path>
<path class="path2" d="M23.849 20.887l-22.809-18.677 1.147-1.401 21.661 17.737 21.662-17.737 1.147 1.401z"></path>
<path class="path3" d="M27.438 16.395l1.147-1.401 18.070 14.795-1.147 1.401-18.070-14.795z"></path>
<path class="path4" d="M1.040 29.79l17.583-14.395 1.147 1.402-17.583 14.395-1.147-1.402z"></path>
<symbol id="chat" viewBox="0 0 38 32">
<path class="path1 fill-color1" d="M22.488 24.804c-0.141 0.244-0.298 0.487-0.469 0.726-0.426 0.595-0.902 1.117-1.421 1.579-1.268 1.127-2.794 1.884-4.464 2.41-2.718 0.857-5.457 0.851-8.198 0.116-0.369-0.099-0.682-0.069-1.030 0.085-1.642 0.719-3.295 1.414-4.945 2.117-0.112 0.048-0.227 0.092-0.403 0.162 0.208-0.695 0.415-1.312 0.579-1.942 0.32-1.23 0.461-2.466-0.113-3.666-0.197-0.412-0.43-0.81-0.684-1.19-2.246-3.353-1.586-7.419 1.385-10.089 0.195-0.177 0.402-0.347 0.617-0.511 0.701-0.53 1.448-0.983 2.228-1.358 4.281-2.063 9.56-1.8 13.622 0.802 1.661 1.064 3.004 2.443 3.737 4.305 0.892 2.268 0.733 4.436-0.44 6.454z"></path>
<path class="path2 fill-color1" d="M34.635 20.92c-0.751 1.27-0.729 2.673-0.63 4.071 0.1 1.428 0.538 2.779 1.068 4.101 0.046 0.115 0.094 0.226 0.138 0.341 0.009 0.021 0.004 0.047 0.012 0.148-0.603-0.253-1.166-0.484-1.725-0.723-2.205-0.942-4.407-1.891-6.618-2.821-0.195-0.082-0.45-0.086-0.66-0.045-1.224 0.234-2.444 0.494-3.666 0.741-0.141 0.028-0.288 0.030-0.429 0.043-0.003-0.011-0.005-0.020-0.008-0.027-0.012-0.031-0.021-0.052-0.014-0.061 0.485-0.719 0.963-1.443 1.466-2.147 0.087-0.121 0.274-0.207 0.43-0.236 0.049-0.011 0.099-0.020 0.148-0.030 1.041-0.208 2.086-0.407 3.134-0.586 0.15-0.026 0.334 0.043 0.477 0.117 1.379 0.719 2.752 1.448 4.127 2.173 0.117 0.062 0.239 0.116 0.43 0.207-0.034-0.182-0.057-0.304-0.078-0.427-0.192-1.157-0.435-2.307-0.561-3.47-0.113-1.043 0.198-2.003 0.833-2.861 0.876-1.185 1.638-2.444 2.079-3.86 0.898-2.884 0.398-5.539-1.429-7.932-1.426-1.868-3.309-3.138-5.457-4.040-2.557-1.073-5.211-1.694-7.993-1.653-2.151 0.031-4.178 0.62-6.117 1.52-2.1 0.975-3.978 2.266-5.497 4.028-1.097 1.27-1.898 2.685-2.117 4.371-0.012 0.093-0.022 0.188-0.031 0.285-0.016 0.17-0.175 0.385-0.329 0.476-0.863 0.512-1.743 0.992-2.708 1.532 0.005-0.098 0.009-0.192 0.013-0.286 0.017-0.412 0.026-0.793 0.062-1.17 0.368-3.85 2.406-6.699 5.412-8.952 2.585-1.937 5.533-3.021 8.699-3.489 3.81-0.564 7.548-0.225 11.138 1.236 2.987 1.215 5.569 2.999 7.343 5.752 2.539 3.942 2.553 7.95 0.129 11.964-0.348 0.576-0.729 1.132-1.072 1.71z"></path>
<path class="path3 fill-color2" d="M7.586 21.271c0 0.932-0.756 1.688-1.688 1.688s-1.688-0.756-1.688-1.688c0-0.932 0.756-1.688 1.688-1.688s1.688 0.756 1.688 1.688z"></path>
<path class="path4 fill-color2" d="M12.817 21.271c0 0.932-0.756 1.688-1.688 1.688s-1.688-0.756-1.688-1.688c0-0.932 0.756-1.688 1.688-1.688s1.688 0.756 1.688 1.688z"></path>
<path class="path5 fill-color2" d="M17.996 21.271c0 0.932-0.756 1.688-1.688 1.688s-1.688-0.756-1.688-1.688c0-0.932 0.756-1.688 1.688-1.688s1.688 0.756 1.688 1.688z"></path>
</symbol>
<symbol id="phone" viewBox="0 0 31 32">
<path class="path1" d="M0.071 9.574c0.114 1.505 1.367 8.235 7.71 14.528 6.294 6.344 13.151 7.725 14.656 7.838 4.627 0.49 7.712-2.072 8.883-6.063 0.312-1.064-0.206-2.209-1.197-2.707l-5.125-2.578c-0.89-0.448-1.968-0.274-2.673 0.43l-3.070 3.070c0 0-2.573-0.192-7.509-5.128-5.055-5.055-5.128-7.509-5.128-7.509l3.112-3.112c0.684-0.684 0.87-1.722 0.465-2.601l-2.013-4.372c-0.49-1.065-1.72-1.638-2.825-1.244-3.762 1.342-5.77 4.884-5.287 9.449z"></path>
</symbol>
<symbol id="cart" viewBox="0 0 27 32">
<path class="path1 fill-color1" d="M6.072 9.468c0-4.104 3.233-7.432 7.221-7.432s7.222 3.328 7.222 7.432v0.127h1.978v-0.622c0-4.955-3.904-8.972-8.718-8.972h-0.963c-4.815 0-8.719 4.018-8.719 8.972v0.622h1.979v-0.127z"></path>
<path class="path2 fill-color1" d="M25.445 10.337c0-0.41-0.401-0.742-0.897-0.742h-22.737c-0.495 0-0.896 0.332-0.896 0.742 0 0-1.023 16.586-0.907 20.732 0.018 0.593 0.781 0.931 0.781 0.931h24.908c0.556 0 1.007-0.358 1.007-0.8l-1.26-20.863zM4.971 29.836h-2.813c0 0 0.322-18.365 1.366-17.28l0.977 8.127 0.993 8.269c0 0 0.402 0.884-0.522 0.884zM5.974 13.851c-0.585 0-1.059-0.474-1.059-1.058 0-0.585 0.474-1.059 1.059-1.059s1.058 0.473 1.058 1.059c0 0.584-0.474 1.058-1.058 1.058zM21.435 13.569c-0.585 0-1.059-0.474-1.059-1.058 0-0.585 0.474-1.059 1.059-1.059s1.058 0.473 1.058 1.059c0 0.584-0.474 1.058-1.058 1.058z"></path>
<path class="path3 fill-color2" d="M22.493 12.511c0 0.585-0.474 1.059-1.059 1.059s-1.059-0.474-1.059-1.059c0-0.585 0.474-1.059 1.059-1.059s1.059 0.474 1.059 1.059z"></path>
<path class="path4 fill-color2" d="M7.032 12.793c0 0.585-0.474 1.059-1.059 1.059s-1.059-0.474-1.059-1.059c0-0.585 0.474-1.059 1.059-1.059s1.059 0.474 1.059 1.059z"></path>
</symbol>
<symbol id="menu" viewBox="0 0 43 32">
<path class="path1" d="M42.667 6.4h-42.667v-6.4h42.667v6.4zM42.667 12.8h-42.667v6.4h42.667v-6.4zM42.667 25.6h-42.667v6.4h42.667v-6.4z"></path>
</symbol>
<symbol id="pintarest" viewBox="0 0 32 32">
<path class="path1" d="M32 16c0 8.853-7.147 16-16 16s-16-7.147-16-16 7.147-16 16-16 16 7.147 16 16zM24.64 10.987c-0.64-4.48-5.013-6.72-9.813-6.187-3.733 0.427-7.467 3.413-7.68 7.787-0.107 2.667 0.64 4.587 3.2 5.227 1.067-1.92-0.32-2.347-0.533-3.733-0.96-5.76 6.613-9.6 10.56-5.653 2.773 2.774 0.96 11.307-3.413 10.347-4.16-0.853 2.027-7.573-1.28-8.96-2.773-1.067-4.16 3.307-2.88 5.44-0.747 3.733-2.347 7.253-1.707 11.947 2.133-1.6 2.88-4.587 3.413-7.68 1.067 0.64 1.707 1.387 2.987 1.493 5.013 0.427 7.787-5.013 7.147-10.027z"></path>
</symbol>
<symbol id="facebook" viewBox="0 0 32 32">
<path class="path1" d="M16 0c-8.853 0-16 7.147-16 16s7.147 16 16 16 16-7.147 16-16-7.253-16-16-16zM20.244 15.68h-2.652c0 4.243 0 9.547 0 9.547h-4.031c0 0 0-5.198 0-9.547h-1.909v-3.395h1.909v-2.228c0-1.591 0.742-4.031 4.031-4.031h2.97v3.289c0 0-1.803 0-2.122 0s-0.849 0.212-0.849 0.955v2.015h3.076l-0.424 3.395z"></path>
</symbol>
<symbol id="download" viewBox="0 0 35 32">
<path class="path1" d="M3.103 25.27v-22.167h3.927v10.958h14.061v-10.958h1.25l2.928 2.852v4.588h3.103v-5.898l-4.77-4.645h-23.603v28.374h17.569l-2.849-3.103h-11.617zM28.515 21.421v-8.151h-6.755v8.151h-6.333l9.711 10.579 9.711-10.579h-6.334zM14.884 3.103h3.103v7.854h-3.103v-7.854z"></path>
</symbol>
<symbol id="login" viewBox="0 0 29 32">
<path class="path1" d="M13.951 4.883c-0.997-0.998-2.425-1.425-3.998-1.21-1.486 0.204-2.953 0.965-4.128 2.142-2.497 2.497-2.916 6.144-0.932 8.126 0.842 0.842 1.986 1.252 3.214 1.252 1.66 0 3.476-0.748 4.912-2.185 1.177-1.177 1.936-2.644 2.14-4.128 0.217-1.583-0.212-3.003-1.208-3.997zM13.295 8.623c-0.149 1.081-0.719 2.166-1.607 3.054-1.73 1.732-4.233 2.161-5.463 0.932-1.228-1.228-0.802-3.729 0.932-5.463 0.888-0.888 1.971-1.458 3.052-1.607 0.18-0.024 0.355-0.037 0.524-0.037 0.763 0 1.421 0.244 1.887 0.712 0.57 0.57 0.809 1.425 0.675 2.409z"></path>
<path class="path2" d="M28.375 23.703l-10.941-10.941c2.057-3.666 1.88-7.974-0.756-10.608-3.306-3.306-9.253-2.744-13.256 1.258-1.912 1.912-3.109 4.323-3.369 6.789-0.268 2.541 0.482 4.838 2.113 6.467 1.449 1.449 3.404 2.155 5.48 2.155 1.699 0 3.478-0.475 5.127-1.401l5.236 5.236-2.805 2.805c-0.368 0.368-0.368 0.964 0 1.331 0.886 0.886 1.598 1.638 2.317 2.398 0.745 0.785 1.495 1.578 2.449 2.532 0.184 0.184 0.425 0.276 0.666 0.276s0.482-0.092 0.666-0.276l2.958-2.958c0.343 0.183 0.725 0.275 1.112 0.275 0.64 0 1.291-0.252 1.789-0.75l1.142-1.142c0.969-0.969 1.002-2.514 0.074-3.446zM3.498 15.336c-1.221-1.221-1.778-2.973-1.572-4.937 0.215-2.039 1.219-4.047 2.828-5.656 1.887-1.887 4.27-2.872 6.442-2.872 1.589 0 3.065 0.528 4.152 1.614 1.221 1.221 1.778 2.975 1.572 4.939-0.215 2.039-1.219 4.047-2.828 5.656-3.268 3.27-8.023 3.829-10.594 1.256zM20.639 29.724c-0.438-0.447-0.834-0.86-1.217-1.263l0.818-0.817c0.368-0.368 0.368-0.964 0-1.331s-0.964-0.368-1.331 0l-0.783 0.782c-0.297-0.311-0.602-0.628-0.929-0.962l2.143-2.143 3.517 3.517-2.218 2.218zM26.97 25.818l-1.142 1.142c-0.23 0.228-0.594 0.261-0.781 0.074l-10.682-10.682c0.364-0.289 0.719-0.6 1.058-0.939s0.652-0.693 0.941-1.058l10.678 10.678c0.193 0.195 0.16 0.554-0.072 0.785z"></path>
</symbol>
<symbol id="instagram" viewBox="0 0 32 32">
<path class="path1" d="M16 0c-8.853 0-16 7.147-16 16s7.147 16 16 16 16-7.147 16-16c0-8.853-7.253-16-16-16zM26.261 22.466c0 2.121-1.719 3.84-3.84 3.84h-12.8c-2.121 0-3.84-1.719-3.84-3.84v-12.8c0-2.121 1.719-3.84 3.84-3.84h12.8c2.121 0 3.84 1.719 3.84 3.84v12.8zM22.4 7.426h-12.907c-1.28 0-2.432 0.894-2.432 2.067v3.373h3.392c1.067-1.92 3.2-3.2 5.547-3.2s4.373 1.28 5.547 3.2h3.114v-3.373c0-1.28-0.981-2.067-2.261-2.067zM23.701 10.648c0 0.341-0.277 0.618-0.618 0.618h-1.324c-0.341 0-0.618-0.277-0.618-0.618v-1.324c0-0.341 0.277-0.618 0.618-0.618h1.324c0.341 0 0.618 0.277 0.618 0.618v1.324zM16 11.147c-2.651 0-4.8 2.149-4.8 4.8s2.149 4.8 4.8 4.8 4.8-2.149 4.8-4.8-2.149-4.8-4.8-4.8zM16 18.987c-1.707 0-2.987-1.387-2.987-2.987 0-0.533 0.213-1.067 0.427-1.6 0 0.107-0.107 0.32-0.107 0.427 0 0.853 0.64 1.493 1.493 1.493s1.493-0.64 1.493-1.493c0-0.853-0.64-1.493-1.493-1.493-0.107 0-0.32 0-0.427 0.107 0.427-0.32 0.96-0.427 1.6-0.427 1.707 0 2.987 1.387 2.987 2.987s-1.387 2.987-2.987 2.987z"></path>
</symbol>
<symbol id="mail" viewBox="0 0 32 32">
<path class="path1" d="M16 0c-8.836 0-16 7.164-16 16s7.164 16 16 16c8.836 0 16-7.164 16-16s-7.164-16-16-16zM24.494 9.278l-8.6 7.676-8.6-7.676h17.201zM6.279 9.985l6.68 5.961-6.68 5.962v-11.923zM7.293 23.038l6.748-6.128 1.427 1.22c0.122 0.108 0.274 0.136 0.426 0.136s0.305-0.067 0.426-0.176l1.427-1.174 6.748 6.121h-17.201zM25.479 22.098l-6.893-6.152 6.893-6.152v12.303z"></path>
</symbol>
<symbol id="signup" viewBox="0 0 31 32">
<path class="path1" d="M23.273 23.273h-5.818v5.818h-14.545v-26.182h18.182l2.909-2.909h-24v32h18.909l7.273-7.273v-10.909l-2.909 2.909v6.546zM30.122 3.807l-1.928-1.928c-0.278-0.278-0.641-0.42-1.006-0.424s-0.731 0.127-1.016 0.395c-0.005 0.005-0.012 0.006-0.017 0.011l-1.387 1.386 3.987 3.987 1.386-1.387c0.006-0.006 0.007-0.014 0.013-0.020 0.265-0.283 0.396-0.646 0.393-1.008-0.003-0.366-0.144-0.731-0.424-1.010zM12.729 23.271l0.328-0.328-4-4-0.328 0.328v4h4zM10.216 17.786l3.999 3.998 13.383-13.394-3.988-3.988-13.394 13.383z"></path>
</symbol>
<symbol id="twitter" viewBox="0 0 20 20">
<path class="path1" d="M10 0.4c-5.302 0-9.6 4.298-9.6 9.6s4.298 9.6 9.6 9.6 9.6-4.298 9.6-9.6-4.298-9.6-9.6-9.6zM13.905 8.264c0.004 0.082 0.005 0.164 0.005 0.244 0 2.5-1.901 5.381-5.379 5.381-1.068 0-2.062-0.312-2.898-0.85 0.147 0.018 0.298 0.025 0.451 0.025 0.886 0 1.701-0.301 2.348-0.809-0.827-0.016-1.525-0.562-1.766-1.312 0.115 0.021 0.233 0.033 0.355 0.033 0.172 0 0.34-0.023 0.498-0.066-0.865-0.174-1.517-0.938-1.517-1.854v-0.023c0.255 0.141 0.547 0.227 0.857 0.237-0.508-0.34-0.841-0.918-0.841-1.575 0-0.346 0.093-0.672 0.256-0.951 0.933 1.144 2.325 1.896 3.897 1.977-0.033-0.139-0.049-0.283-0.049-0.432 0-1.043 0.846-1.891 1.891-1.891 0.543 0 1.035 0.23 1.38 0.598 0.431-0.086 0.835-0.242 1.2-0.459-0.141 0.441-0.44 0.812-0.831 1.047 0.383-0.047 0.747-0.148 1.086-0.299-0.253 0.379-0.574 0.713-0.943 0.979z"></path>
</symbol>
<symbol id="cog" viewBox="0 0 31 32">
<path class="path1" d="M28.618 19.070c-1.678-2.908-0.67-6.634 2.254-8.328l-3.144-5.446c-0.898 0.526-1.944 0.828-3.058 0.828-3.36 0-6.084-2.742-6.084-6.124h-6.29c0.008 1.044-0.252 2.102-0.812 3.070-1.678 2.908-5.412 3.896-8.34 2.212l-3.144 5.446c0.906 0.514 1.69 1.268 2.246 2.234 1.676 2.904 0.672 6.622-2.24 8.32l3.144 5.446c0.896-0.522 1.934-0.82 3.044-0.82 3.35 0 6.066 2.724 6.084 6.092h6.29c-0.002-1.034 0.258-2.080 0.812-3.038 1.676-2.904 5.4-3.894 8.326-2.22l3.144-5.446c-0.9-0.514-1.678-1.266-2.232-2.226zM15.438 22.48c-3.578 0-6.48-2.9-6.48-6.48s2.9-6.48 6.48-6.48c3.578 0 6.48 2.9 6.48 6.48s-2.9 6.48-6.48 6.48z"></path>
</symbol>
<symbol id="enter" viewBox="0 0 16 16">
<path class="path1" d="M6 8h-5v-2h5v-2l3 3-3 3zM16 0v13l-6 3v-3h-6v-4h1v3h5v-9l4-2h-9v4h-1v-5z"></path>
</symbol>
</defs>
</svg>
