<?xml version="1.0" encoding="iso-8859-1"?>
<!-- Generator: Adobe Illustrator 19.2.0, SVG Export Plug-In . SVG Version: 6.00 Build 0)  -->
<svg version="1.1" id="Layer_1" xmlns="http://www.w3.org/2000/svg" xmlns:xlink="http://www.w3.org/1999/xlink" x="0px" y="0px"
	 viewBox="0 0 473.46 48.667" style="enable-background:new 0 0 473.46 48.667;" xml:space="preserve">
<g>
	<g>
		<linearGradient id="SVGID_1_" gradientUnits="userSpaceOnUse" x1="264.2171" y1="34.7263" x2="264.2171" y2="13.9402">
			<stop  offset="0" style="stop-color:#793700"/>
			<stop  offset="0.0402" style="stop-color:#813E00"/>
			<stop  offset="0.1025" style="stop-color:#975100"/>
			<stop  offset="0.1791" style="stop-color:#BA7000"/>
			<stop  offset="0.2662" style="stop-color:#EB9B00"/>
			<stop  offset="0.2788" style="stop-color:#F3A200"/>
			<stop  offset="0.503" style="stop-color:#FFF78E"/>
			<stop  offset="0.7576" style="stop-color:#F3A200"/>
			<stop  offset="1" style="stop-color:#793700"/>
		</linearGradient>
		<path style="fill:url(#SVGID_1_);" d="M54.974,34.258v-0.542h0.717c0.806,0,1.377-0.269,1.714-0.806
			c0.206-0.322,0.31-1.045,0.31-2.168V17.91c0-1.24-0.131-2.017-0.394-2.329c-0.366-0.43-0.909-0.645-1.63-0.645h-0.717v-0.542
			h7.757c2.848,0,5.015,0.337,6.5,1.011c1.485,0.674,2.68,1.797,3.583,3.369c0.904,1.572,1.356,3.389,1.356,5.449
			c0,2.764-0.806,5.073-2.417,6.929c-1.808,2.07-4.562,3.105-8.263,3.105H54.974z M60.413,32.822c1.19,0.273,2.188,0.41,2.994,0.41
			c2.173,0,3.977-0.796,5.41-2.388c1.434-1.592,2.15-3.75,2.15-6.475c0-2.744-0.717-4.907-2.15-6.489
			c-1.433-1.582-3.274-2.373-5.523-2.373c-0.843,0-1.803,0.142-2.881,0.425V32.822z"/>
		<linearGradient id="SVGID_2_" gradientUnits="userSpaceOnUse" x1="264.2171" y1="34.7263" x2="264.2171" y2="13.9402">
			<stop  offset="0" style="stop-color:#793700"/>
			<stop  offset="0.0402" style="stop-color:#813E00"/>
			<stop  offset="0.1025" style="stop-color:#975100"/>
			<stop  offset="0.1791" style="stop-color:#BA7000"/>
			<stop  offset="0.2662" style="stop-color:#EB9B00"/>
			<stop  offset="0.2788" style="stop-color:#F3A200"/>
			<stop  offset="0.503" style="stop-color:#FFF78E"/>
			<stop  offset="0.7576" style="stop-color:#F3A200"/>
			<stop  offset="1" style="stop-color:#793700"/>
		</linearGradient>
		<path style="fill:url(#SVGID_2_);" d="M88.997,14.936v-0.542h6.745v0.542h-0.716c-0.75,0-1.326,0.327-1.729,0.981
			c-0.197,0.303-0.295,1.006-0.295,2.109v8.057c0,1.992-0.189,3.537-0.569,4.637c-0.379,1.098-1.125,2.041-2.235,2.826
			c-1.11,0.786-2.621,1.18-4.532,1.18c-2.08,0-3.659-0.376-4.736-1.128c-1.078-0.752-1.841-1.763-2.291-3.032
			c-0.3-0.869-0.45-2.5-0.45-4.893V17.91c0-1.221-0.162-2.021-0.485-2.402s-0.845-0.571-1.567-0.571h-0.716v-0.542h8.235v0.542
			h-0.731c-0.787,0-1.349,0.259-1.686,0.776c-0.234,0.352-0.352,1.084-0.352,2.197v8.657c0,0.771,0.068,1.655,0.204,2.651
			c0.136,0.996,0.381,1.772,0.738,2.329c0.356,0.557,0.869,1.016,1.539,1.377s1.492,0.542,2.466,0.542
			c1.246,0,2.361-0.283,3.345-0.85s1.656-1.291,2.017-2.176c0.36-0.883,0.541-2.38,0.541-4.489V17.91
			c0-1.24-0.131-2.017-0.394-2.329c-0.365-0.43-0.909-0.645-1.63-0.645H88.997z"/>
		<linearGradient id="SVGID_3_" gradientUnits="userSpaceOnUse" x1="264.2171" y1="34.7263" x2="264.2171" y2="13.9402">
			<stop  offset="0" style="stop-color:#793700"/>
			<stop  offset="0.0402" style="stop-color:#813E00"/>
			<stop  offset="0.1025" style="stop-color:#975100"/>
			<stop  offset="0.1791" style="stop-color:#BA7000"/>
			<stop  offset="0.2662" style="stop-color:#EB9B00"/>
			<stop  offset="0.2788" style="stop-color:#F3A200"/>
			<stop  offset="0.503" style="stop-color:#FFF78E"/>
			<stop  offset="0.7576" style="stop-color:#F3A200"/>
			<stop  offset="1" style="stop-color:#793700"/>
		</linearGradient>
		<path style="fill:url(#SVGID_3_);" d="M104.652,23.242l7.026,7.28c1.152,1.201,2.136,2.02,2.951,2.454s1.63,0.681,2.445,0.739
			v0.542h-9.064v-0.542c0.543,0,0.935-0.095,1.174-0.286c0.239-0.189,0.358-0.402,0.358-0.637s-0.044-0.444-0.133-0.63
			c-0.089-0.186-0.382-0.532-0.878-1.04l-6.577-6.782v6.401c0,1.006,0.061,1.67,0.183,1.992c0.094,0.244,0.291,0.454,0.59,0.63
			c0.403,0.234,0.829,0.352,1.279,0.352h0.646v0.542h-8.123v-0.542h0.674c0.787,0,1.358-0.239,1.714-0.718
			c0.225-0.312,0.337-1.064,0.337-2.256V17.91c0-1.006-0.061-1.675-0.183-2.007c-0.094-0.234-0.286-0.439-0.576-0.615
			c-0.413-0.234-0.843-0.352-1.293-0.352h-0.674v-0.542h8.123v0.542h-0.646c-0.44,0-0.867,0.112-1.279,0.337
			c-0.291,0.156-0.492,0.391-0.604,0.703c-0.112,0.312-0.168,0.957-0.168,1.934v6.079c0.187-0.186,0.829-0.806,1.925-1.86
			c2.782-2.656,4.464-4.429,5.045-5.317c0.253-0.391,0.379-0.732,0.379-1.025c0-0.225-0.098-0.422-0.295-0.593
			s-0.529-0.257-0.998-0.257h-0.436v-0.542h6.999v0.542c-0.413,0.01-0.787,0.068-1.125,0.176c-0.337,0.107-0.75,0.315-1.236,0.622
			c-0.487,0.309-1.087,0.804-1.799,1.487c-0.206,0.195-1.157,1.196-2.853,3.003L104.652,23.242z"/>
		<linearGradient id="SVGID_4_" gradientUnits="userSpaceOnUse" x1="264.2171" y1="34.7263" x2="264.2171" y2="13.9402">
			<stop  offset="0" style="stop-color:#793700"/>
			<stop  offset="0.0402" style="stop-color:#813E00"/>
			<stop  offset="0.1025" style="stop-color:#975100"/>
			<stop  offset="0.1791" style="stop-color:#BA7000"/>
			<stop  offset="0.2662" style="stop-color:#EB9B00"/>
			<stop  offset="0.2788" style="stop-color:#F3A200"/>
			<stop  offset="0.503" style="stop-color:#FFF78E"/>
			<stop  offset="0.7576" style="stop-color:#F3A200"/>
			<stop  offset="1" style="stop-color:#793700"/>
		</linearGradient>
		<path style="fill:url(#SVGID_4_);" d="M125.717,33.716v0.542h-8.165v-0.542h0.674c0.787,0,1.358-0.239,1.715-0.718
			c0.225-0.312,0.337-1.064,0.337-2.256V17.91c0-1.006-0.061-1.67-0.183-1.992c-0.094-0.244-0.286-0.454-0.576-0.63
			c-0.412-0.234-0.843-0.352-1.293-0.352h-0.674v-0.542h8.165v0.542h-0.688c-0.778,0-1.344,0.239-1.7,0.718
			c-0.234,0.312-0.352,1.064-0.352,2.256v12.832c0,1.006,0.061,1.67,0.183,1.992c0.094,0.244,0.291,0.454,0.59,0.63
			c0.403,0.234,0.829,0.352,1.279,0.352H125.717z"/>
		<linearGradient id="SVGID_5_" gradientUnits="userSpaceOnUse" x1="264.2171" y1="34.7263" x2="264.2171" y2="13.9402">
			<stop  offset="0" style="stop-color:#793700"/>
			<stop  offset="0.0402" style="stop-color:#813E00"/>
			<stop  offset="0.1025" style="stop-color:#975100"/>
			<stop  offset="0.1791" style="stop-color:#BA7000"/>
			<stop  offset="0.2662" style="stop-color:#EB9B00"/>
			<stop  offset="0.2788" style="stop-color:#F3A200"/>
			<stop  offset="0.503" style="stop-color:#FFF78E"/>
			<stop  offset="0.7576" style="stop-color:#F3A200"/>
			<stop  offset="1" style="stop-color:#793700"/>
		</linearGradient>
		<path style="fill:url(#SVGID_5_);" d="M146.853,14.394v0.542c-0.674,0.127-1.185,0.352-1.532,0.674
			c-0.497,0.479-0.937,1.211-1.321,2.197l-6.647,16.904h-0.52l-7.139-17.124c-0.365-0.879-0.623-1.416-0.773-1.611
			c-0.234-0.303-0.522-0.539-0.864-0.711c-0.342-0.17-0.803-0.28-1.384-0.329v-0.542h7.786v0.542
			c-0.881,0.088-1.453,0.244-1.715,0.469s-0.394,0.513-0.394,0.864c0,0.488,0.216,1.25,0.646,2.285l4.849,11.646l4.497-11.499
			c0.44-1.133,0.66-1.919,0.66-2.358c0-0.283-0.136-0.554-0.407-0.813c-0.272-0.258-0.731-0.441-1.377-0.549
			c-0.047-0.01-0.126-0.024-0.239-0.044v-0.542H146.853z"/>
		<linearGradient id="SVGID_6_" gradientUnits="userSpaceOnUse" x1="264.2171" y1="34.7263" x2="264.2171" y2="13.9402">
			<stop  offset="0" style="stop-color:#793700"/>
			<stop  offset="0.0402" style="stop-color:#813E00"/>
			<stop  offset="0.1025" style="stop-color:#975100"/>
			<stop  offset="0.1791" style="stop-color:#BA7000"/>
			<stop  offset="0.2662" style="stop-color:#EB9B00"/>
			<stop  offset="0.2788" style="stop-color:#F3A200"/>
			<stop  offset="0.503" style="stop-color:#FFF78E"/>
			<stop  offset="0.7576" style="stop-color:#F3A200"/>
			<stop  offset="1" style="stop-color:#793700"/>
		</linearGradient>
		<path style="fill:url(#SVGID_6_);" d="M153.219,15.478v7.852h4.188c1.086,0,1.812-0.171,2.178-0.513
			c0.487-0.449,0.759-1.24,0.815-2.373h0.52v6.914h-0.52c-0.131-0.967-0.262-1.587-0.394-1.86c-0.168-0.342-0.445-0.61-0.829-0.806
			s-0.975-0.293-1.771-0.293h-4.188v6.548c0,0.879,0.038,1.414,0.112,1.604c0.075,0.191,0.206,0.343,0.394,0.455
			s0.543,0.168,1.068,0.168h3.232c1.077,0,1.86-0.078,2.347-0.234c0.487-0.156,0.956-0.464,1.405-0.923
			c0.581-0.605,1.175-1.519,1.785-2.739h0.562l-1.644,4.98h-14.686v-0.542h0.674c0.45,0,0.876-0.112,1.279-0.337
			c0.3-0.156,0.503-0.391,0.611-0.703s0.162-0.952,0.162-1.919V17.851c0-1.26-0.122-2.036-0.365-2.329
			c-0.337-0.391-0.899-0.586-1.687-0.586h-0.674v-0.542h14.686l0.21,4.351h-0.548c-0.197-1.045-0.415-1.763-0.653-2.153
			c-0.239-0.391-0.593-0.688-1.061-0.894c-0.375-0.146-1.036-0.22-1.981-0.22H153.219z"/>
		<linearGradient id="SVGID_7_" gradientUnits="userSpaceOnUse" x1="264.2171" y1="34.7263" x2="264.2171" y2="13.9402">
			<stop  offset="0" style="stop-color:#793700"/>
			<stop  offset="0.0402" style="stop-color:#813E00"/>
			<stop  offset="0.1025" style="stop-color:#975100"/>
			<stop  offset="0.1791" style="stop-color:#BA7000"/>
			<stop  offset="0.2662" style="stop-color:#EB9B00"/>
			<stop  offset="0.2788" style="stop-color:#F3A200"/>
			<stop  offset="0.503" style="stop-color:#FFF78E"/>
			<stop  offset="0.7576" style="stop-color:#F3A200"/>
			<stop  offset="1" style="stop-color:#793700"/>
		</linearGradient>
		<path style="fill:url(#SVGID_7_);" d="M164.406,14.394h5.171l11.65,14.897V17.837c0-1.221-0.131-1.982-0.393-2.285
			c-0.347-0.41-0.895-0.615-1.645-0.615h-0.66v-0.542h6.633v0.542h-0.674c-0.806,0-1.377,0.254-1.715,0.762
			c-0.206,0.312-0.309,1.025-0.309,2.139V34.58h-0.506l-12.563-15.996v12.231c0,1.221,0.126,1.982,0.379,2.285
			c0.356,0.41,0.904,0.615,1.644,0.615h0.675v0.542h-6.633v-0.542h0.661c0.815,0,1.391-0.254,1.729-0.762
			c0.206-0.312,0.309-1.025,0.309-2.139V17.002c-0.553-0.674-0.972-1.118-1.258-1.333c-0.286-0.215-0.705-0.415-1.257-0.601
			c-0.272-0.088-0.684-0.132-1.237-0.132V14.394z"/>
		<linearGradient id="SVGID_8_" gradientUnits="userSpaceOnUse" x1="264.2171" y1="34.7263" x2="264.2171" y2="13.9402">
			<stop  offset="0" style="stop-color:#793700"/>
			<stop  offset="0.0402" style="stop-color:#813E00"/>
			<stop  offset="0.1025" style="stop-color:#975100"/>
			<stop  offset="0.1791" style="stop-color:#BA7000"/>
			<stop  offset="0.2662" style="stop-color:#EB9B00"/>
			<stop  offset="0.2788" style="stop-color:#F3A200"/>
			<stop  offset="0.503" style="stop-color:#FFF78E"/>
			<stop  offset="0.7576" style="stop-color:#F3A200"/>
			<stop  offset="1" style="stop-color:#793700"/>
		</linearGradient>
		<path style="fill:url(#SVGID_8_);" d="M198.737,27.607h-7.378l-1.293,3.135c-0.319,0.771-0.478,1.348-0.478,1.729
			c0,0.303,0.138,0.569,0.415,0.799s0.874,0.378,1.792,0.446v0.542h-6.001v-0.542c0.796-0.146,1.312-0.337,1.546-0.571
			c0.478-0.469,1.007-1.421,1.588-2.856l6.703-16.348h0.492l6.633,16.523c0.534,1.328,1.019,2.19,1.455,2.585
			c0.436,0.396,1.042,0.618,1.82,0.667v0.542h-7.519v-0.542c0.759-0.039,1.272-0.171,1.539-0.396
			c0.267-0.225,0.401-0.498,0.401-0.82c0-0.43-0.188-1.108-0.562-2.036L198.737,27.607z M198.344,26.523l-3.232-8.027l-3.316,8.027
			H198.344z"/>
		<linearGradient id="SVGID_9_" gradientUnits="userSpaceOnUse" x1="264.2171" y1="34.7263" x2="264.2171" y2="13.9402">
			<stop  offset="0" style="stop-color:#793700"/>
			<stop  offset="0.0402" style="stop-color:#813E00"/>
			<stop  offset="0.1025" style="stop-color:#975100"/>
			<stop  offset="0.1791" style="stop-color:#BA7000"/>
			<stop  offset="0.2662" style="stop-color:#EB9B00"/>
			<stop  offset="0.2788" style="stop-color:#F3A200"/>
			<stop  offset="0.503" style="stop-color:#FFF78E"/>
			<stop  offset="0.7576" style="stop-color:#F3A200"/>
			<stop  offset="1" style="stop-color:#793700"/>
		</linearGradient>
		<path style="fill:url(#SVGID_9_);" d="M212.256,24.956v5.786c0,1.25,0.131,2.026,0.394,2.329c0.356,0.43,0.895,0.645,1.616,0.645
			h0.73v0.542h-8.165v-0.542h0.716c0.806,0,1.382-0.273,1.729-0.82c0.188-0.303,0.281-1.021,0.281-2.153V17.91
			c0-1.25-0.126-2.026-0.379-2.329c-0.365-0.43-0.909-0.645-1.63-0.645h-0.716v-0.542h6.984c1.705,0,3.049,0.184,4.033,0.549
			c0.983,0.367,1.812,0.984,2.487,1.854c0.674,0.869,1.012,1.899,1.012,3.091c0,1.621-0.513,2.939-1.539,3.955
			c-1.026,1.016-2.476,1.523-4.35,1.523c-0.459,0-0.956-0.034-1.49-0.103S212.865,25.093,212.256,24.956z M212.256,24.121
			c0.497,0.098,0.937,0.171,1.321,0.22s0.712,0.073,0.984,0.073c0.974,0,1.815-0.393,2.522-1.18
			c0.708-0.785,1.061-1.804,1.061-3.054c0-0.859-0.168-1.657-0.506-2.396c-0.337-0.736-0.815-1.289-1.434-1.654
			c-0.618-0.367-1.321-0.55-2.108-0.55c-0.478,0-1.091,0.093-1.841,0.278V24.121z"/>
		<linearGradient id="SVGID_10_" gradientUnits="userSpaceOnUse" x1="264.2171" y1="34.7263" x2="264.2171" y2="13.9402">
			<stop  offset="0" style="stop-color:#793700"/>
			<stop  offset="0.0402" style="stop-color:#813E00"/>
			<stop  offset="0.1025" style="stop-color:#975100"/>
			<stop  offset="0.1791" style="stop-color:#BA7000"/>
			<stop  offset="0.2662" style="stop-color:#EB9B00"/>
			<stop  offset="0.2788" style="stop-color:#F3A200"/>
			<stop  offset="0.503" style="stop-color:#FFF78E"/>
			<stop  offset="0.7576" style="stop-color:#F3A200"/>
			<stop  offset="1" style="stop-color:#793700"/>
		</linearGradient>
		<path style="fill:url(#SVGID_10_);" d="M232.886,13.94c2.473,0,4.616,0.979,6.429,2.937c1.813,1.959,2.719,4.402,2.719,7.332
			c0,3.018-0.914,5.522-2.74,7.515c-1.827,1.992-4.038,2.988-6.633,2.988c-2.623,0-4.827-0.972-6.612-2.915
			s-2.677-4.458-2.677-7.544c0-3.154,1.031-5.728,3.092-7.72C228.253,14.804,230.394,13.94,232.886,13.94z M232.619,15.01
			c-1.705,0-3.073,0.659-4.104,1.978c-1.284,1.641-1.925,4.043-1.925,7.207c0,3.242,0.665,5.737,1.996,7.485
			c1.021,1.328,2.37,1.992,4.047,1.992c1.789,0,3.267-0.728,4.434-2.183s1.75-3.75,1.75-6.885c0-3.398-0.642-5.933-1.925-7.603
			C235.86,15.674,234.437,15.01,232.619,15.01z"/>
		<linearGradient id="SVGID_11_" gradientUnits="userSpaceOnUse" x1="264.2171" y1="34.7263" x2="264.2171" y2="13.9402">
			<stop  offset="0" style="stop-color:#793700"/>
			<stop  offset="0.0402" style="stop-color:#813E00"/>
			<stop  offset="0.1025" style="stop-color:#975100"/>
			<stop  offset="0.1791" style="stop-color:#BA7000"/>
			<stop  offset="0.2662" style="stop-color:#EB9B00"/>
			<stop  offset="0.2788" style="stop-color:#F3A200"/>
			<stop  offset="0.503" style="stop-color:#FFF78E"/>
			<stop  offset="0.7576" style="stop-color:#F3A200"/>
			<stop  offset="1" style="stop-color:#793700"/>
		</linearGradient>
		<path style="fill:url(#SVGID_11_);" d="M262.116,34.258l-7.363-16.714v13.271c0,1.221,0.126,1.982,0.379,2.285
			c0.347,0.41,0.895,0.615,1.645,0.615h0.674v0.542h-6.633v-0.542h0.675c0.806,0,1.378-0.254,1.714-0.762
			c0.207-0.312,0.31-1.025,0.31-2.139V17.837c0-0.879-0.094-1.514-0.28-1.904c-0.132-0.283-0.373-0.521-0.725-0.71
			c-0.352-0.191-0.916-0.286-1.693-0.286v-0.542h5.396l6.914,15.542l6.802-15.542h5.396v0.542h-0.661
			c-0.814,0-1.391,0.254-1.729,0.762c-0.205,0.312-0.309,1.025-0.309,2.139v12.979c0,1.221,0.131,1.982,0.394,2.285
			c0.347,0.41,0.895,0.615,1.644,0.615h0.661v0.542h-8.095v-0.542h0.675c0.815,0,1.386-0.254,1.714-0.762
			c0.207-0.312,0.31-1.025,0.31-2.139V17.544l-7.35,16.714H262.116z"/>
		<linearGradient id="SVGID_12_" gradientUnits="userSpaceOnUse" x1="264.2171" y1="34.7263" x2="264.2171" y2="13.9402">
			<stop  offset="0" style="stop-color:#793700"/>
			<stop  offset="0.0402" style="stop-color:#813E00"/>
			<stop  offset="0.1025" style="stop-color:#975100"/>
			<stop  offset="0.1791" style="stop-color:#BA7000"/>
			<stop  offset="0.2662" style="stop-color:#EB9B00"/>
			<stop  offset="0.2788" style="stop-color:#F3A200"/>
			<stop  offset="0.503" style="stop-color:#FFF78E"/>
			<stop  offset="0.7576" style="stop-color:#F3A200"/>
			<stop  offset="1" style="stop-color:#793700"/>
		</linearGradient>
		<path style="fill:url(#SVGID_12_);" d="M281.945,15.478v7.852h4.188c1.086,0,1.812-0.171,2.178-0.513
			c0.486-0.449,0.759-1.24,0.814-2.373h0.521v6.914h-0.521c-0.131-0.967-0.262-1.587-0.393-1.86c-0.169-0.342-0.445-0.61-0.83-0.806
			c-0.384-0.195-0.975-0.293-1.77-0.293h-4.188v6.548c0,0.879,0.038,1.414,0.112,1.604c0.075,0.191,0.206,0.343,0.394,0.455
			s0.544,0.168,1.068,0.168h3.231c1.078,0,1.86-0.078,2.348-0.234c0.486-0.156,0.955-0.464,1.405-0.923
			c0.581-0.605,1.175-1.519,1.784-2.739h0.562l-1.645,4.98h-14.686v-0.542h0.675c0.45,0,0.876-0.112,1.278-0.337
			c0.301-0.156,0.504-0.391,0.611-0.703c0.108-0.312,0.162-0.952,0.162-1.919V17.851c0-1.26-0.121-2.036-0.365-2.329
			c-0.338-0.391-0.899-0.586-1.687-0.586h-0.675v-0.542h14.686l0.211,4.351h-0.548c-0.196-1.045-0.415-1.763-0.653-2.153
			c-0.239-0.391-0.593-0.688-1.061-0.894c-0.375-0.146-1.036-0.22-1.982-0.22H281.945z"/>
		<linearGradient id="SVGID_13_" gradientUnits="userSpaceOnUse" x1="264.2171" y1="34.7263" x2="264.2171" y2="13.9402">
			<stop  offset="0" style="stop-color:#793700"/>
			<stop  offset="0.0402" style="stop-color:#813E00"/>
			<stop  offset="0.1025" style="stop-color:#975100"/>
			<stop  offset="0.1791" style="stop-color:#BA7000"/>
			<stop  offset="0.2662" style="stop-color:#EB9B00"/>
			<stop  offset="0.2788" style="stop-color:#F3A200"/>
			<stop  offset="0.503" style="stop-color:#FFF78E"/>
			<stop  offset="0.7576" style="stop-color:#F3A200"/>
			<stop  offset="1" style="stop-color:#793700"/>
		</linearGradient>
		<path style="fill:url(#SVGID_13_);" d="M305.288,34.258l-7.364-16.714v13.271c0,1.221,0.126,1.982,0.38,2.285
			c0.346,0.41,0.895,0.615,1.645,0.615h0.674v0.542h-6.633v-0.542h0.674c0.807,0,1.378-0.254,1.715-0.762
			c0.206-0.312,0.309-1.025,0.309-2.139V17.837c0-0.879-0.094-1.514-0.28-1.904c-0.132-0.283-0.372-0.521-0.724-0.71
			c-0.352-0.191-0.916-0.286-1.693-0.286v-0.542h5.396l6.914,15.542l6.801-15.542h5.396v0.542h-0.66
			c-0.814,0-1.391,0.254-1.729,0.762c-0.206,0.312-0.309,1.025-0.309,2.139v12.979c0,1.221,0.131,1.982,0.393,2.285
			c0.348,0.41,0.895,0.615,1.645,0.615h0.66v0.542h-8.094v-0.542h0.674c0.815,0,1.387-0.254,1.715-0.762
			c0.206-0.312,0.309-1.025,0.309-2.139V17.544l-7.35,16.714H305.288z"/>
		<linearGradient id="SVGID_14_" gradientUnits="userSpaceOnUse" x1="264.2171" y1="34.7263" x2="264.2171" y2="13.9402">
			<stop  offset="0" style="stop-color:#793700"/>
			<stop  offset="0.0402" style="stop-color:#813E00"/>
			<stop  offset="0.1025" style="stop-color:#975100"/>
			<stop  offset="0.1791" style="stop-color:#BA7000"/>
			<stop  offset="0.2662" style="stop-color:#EB9B00"/>
			<stop  offset="0.2788" style="stop-color:#F3A200"/>
			<stop  offset="0.503" style="stop-color:#FFF78E"/>
			<stop  offset="0.7576" style="stop-color:#F3A200"/>
			<stop  offset="1" style="stop-color:#793700"/>
		</linearGradient>
		<path style="fill:url(#SVGID_14_);" d="M332.396,24.121c1.321,0.293,2.31,0.762,2.965,1.406c0.909,0.898,1.363,1.997,1.363,3.296
			c0,0.986-0.299,1.932-0.898,2.835s-1.422,1.562-2.467,1.977c-1.045,0.416-2.64,0.623-4.785,0.623h-8.994v-0.542h0.717
			c0.797,0,1.368-0.264,1.715-0.791c0.215-0.342,0.323-1.069,0.323-2.183V17.91c0-1.23-0.136-2.007-0.407-2.329
			c-0.365-0.43-0.909-0.645-1.631-0.645h-0.717v-0.542h8.235c1.536,0,2.769,0.117,3.696,0.352c1.404,0.352,2.478,0.975,3.218,1.867
			c0.74,0.895,1.11,1.922,1.11,3.084c0,0.996-0.291,1.888-0.871,2.674C334.386,23.157,333.529,23.74,332.396,24.121z M325.032,23.33
			c0.346,0.068,0.742,0.12,1.188,0.154s0.934,0.051,1.469,0.051c1.367,0,2.396-0.154,3.084-0.461
			c0.689-0.309,1.216-0.779,1.581-1.414s0.548-1.328,0.548-2.08c0-1.162-0.454-2.153-1.363-2.974c-0.908-0.82-2.234-1.23-3.977-1.23
			c-0.938,0-1.78,0.107-2.529,0.322V23.33z M325.032,32.822c1.086,0.264,2.159,0.396,3.218,0.396c1.696,0,2.989-0.397,3.879-1.194
			c0.89-0.795,1.335-1.779,1.335-2.951c0-0.771-0.201-1.514-0.604-2.227s-1.059-1.274-1.968-1.685
			c-0.908-0.41-2.033-0.615-3.372-0.615c-0.581,0-1.077,0.01-1.489,0.029c-0.413,0.02-0.745,0.054-0.998,0.103V32.822z"/>
		<linearGradient id="SVGID_15_" gradientUnits="userSpaceOnUse" x1="264.2171" y1="34.7263" x2="264.2171" y2="13.9402">
			<stop  offset="0" style="stop-color:#793700"/>
			<stop  offset="0.0402" style="stop-color:#813E00"/>
			<stop  offset="0.1025" style="stop-color:#975100"/>
			<stop  offset="0.1791" style="stop-color:#BA7000"/>
			<stop  offset="0.2662" style="stop-color:#EB9B00"/>
			<stop  offset="0.2788" style="stop-color:#F3A200"/>
			<stop  offset="0.503" style="stop-color:#FFF78E"/>
			<stop  offset="0.7576" style="stop-color:#F3A200"/>
			<stop  offset="1" style="stop-color:#793700"/>
		</linearGradient>
		<path style="fill:url(#SVGID_15_);" d="M344.314,15.478v7.852h4.188c1.086,0,1.812-0.171,2.178-0.513
			c0.487-0.449,0.76-1.24,0.815-2.373h0.521v6.914h-0.521c-0.132-0.967-0.263-1.587-0.394-1.86c-0.168-0.342-0.445-0.61-0.829-0.806
			s-0.975-0.293-1.771-0.293h-4.188v6.548c0,0.879,0.037,1.414,0.111,1.604c0.076,0.191,0.207,0.343,0.395,0.455
			s0.543,0.168,1.068,0.168h3.231c1.077,0,1.86-0.078,2.347-0.234c0.487-0.156,0.956-0.464,1.406-0.923
			c0.58-0.605,1.175-1.519,1.784-2.739h0.562l-1.644,4.98h-14.686v-0.542h0.675c0.449,0,0.875-0.112,1.278-0.337
			c0.3-0.156,0.503-0.391,0.611-0.703s0.161-0.952,0.161-1.919V17.851c0-1.26-0.121-2.036-0.365-2.329
			c-0.337-0.391-0.898-0.586-1.686-0.586h-0.675v-0.542h14.686l0.21,4.351h-0.547c-0.197-1.045-0.415-1.763-0.654-2.153
			c-0.238-0.391-0.592-0.688-1.061-0.894c-0.375-0.146-1.035-0.22-1.981-0.22H344.314z"/>
		<linearGradient id="SVGID_16_" gradientUnits="userSpaceOnUse" x1="264.2171" y1="34.7263" x2="264.2171" y2="13.9402">
			<stop  offset="0" style="stop-color:#793700"/>
			<stop  offset="0.0402" style="stop-color:#813E00"/>
			<stop  offset="0.1025" style="stop-color:#975100"/>
			<stop  offset="0.1791" style="stop-color:#BA7000"/>
			<stop  offset="0.2662" style="stop-color:#EB9B00"/>
			<stop  offset="0.2788" style="stop-color:#F3A200"/>
			<stop  offset="0.503" style="stop-color:#FFF78E"/>
			<stop  offset="0.7576" style="stop-color:#F3A200"/>
			<stop  offset="1" style="stop-color:#793700"/>
		</linearGradient>
		<path style="fill:url(#SVGID_16_);" d="M375.327,34.258h-5.086l-6.451-9.287c-0.478,0.02-0.866,0.029-1.166,0.029
			c-0.122,0-0.253-0.002-0.394-0.008c-0.141-0.004-0.286-0.012-0.436-0.021v5.771c0,1.25,0.131,2.026,0.394,2.329
			c0.355,0.43,0.89,0.645,1.602,0.645h0.745v0.542h-8.165v-0.542h0.717c0.806,0,1.382-0.273,1.729-0.82
			c0.197-0.303,0.295-1.021,0.295-2.153V17.91c0-1.25-0.131-2.026-0.393-2.329c-0.366-0.43-0.91-0.645-1.631-0.645h-0.717v-0.542
			h6.942c2.023,0,3.516,0.154,4.476,0.461c0.961,0.309,1.775,0.875,2.445,1.699c0.67,0.826,1.005,1.81,1.005,2.952
			c0,1.221-0.382,2.28-1.146,3.179s-1.945,1.533-3.548,1.904l3.935,5.698c0.899,1.309,1.672,2.178,2.318,2.607
			s1.49,0.703,2.529,0.82V34.258z M361.795,24.048c0.178,0,0.333,0.003,0.464,0.007c0.131,0.006,0.238,0.008,0.322,0.008
			c1.818,0,3.188-0.41,4.111-1.23c0.922-0.82,1.385-1.865,1.385-3.135c0-1.24-0.373-2.248-1.117-3.025
			c-0.746-0.775-1.731-1.164-2.959-1.164c-0.543,0-1.279,0.093-2.206,0.278V24.048z"/>
		<linearGradient id="SVGID_17_" gradientUnits="userSpaceOnUse" x1="264.2171" y1="34.7263" x2="264.2171" y2="13.9402">
			<stop  offset="0" style="stop-color:#793700"/>
			<stop  offset="0.0402" style="stop-color:#813E00"/>
			<stop  offset="0.1025" style="stop-color:#975100"/>
			<stop  offset="0.1791" style="stop-color:#BA7000"/>
			<stop  offset="0.2662" style="stop-color:#EB9B00"/>
			<stop  offset="0.2788" style="stop-color:#F3A200"/>
			<stop  offset="0.503" style="stop-color:#FFF78E"/>
			<stop  offset="0.7576" style="stop-color:#F3A200"/>
			<stop  offset="1" style="stop-color:#793700"/>
		</linearGradient>
		<path style="fill:url(#SVGID_17_);" d="M388.271,13.94v6.87h-0.52c-0.168-1.318-0.471-2.368-0.906-3.149s-1.057-1.401-1.862-1.86
			c-0.806-0.459-1.64-0.688-2.501-0.688c-0.975,0-1.78,0.311-2.418,0.931c-0.637,0.62-0.955,1.325-0.955,2.116
			c0,0.605,0.201,1.157,0.604,1.655c0.581,0.732,1.962,1.709,4.146,2.93c1.779,0.996,2.996,1.761,3.646,2.293
			c0.651,0.532,1.152,1.159,1.504,1.882s0.527,1.479,0.527,2.271c0,1.504-0.561,2.801-1.68,3.889
			c-1.119,1.09-2.561,1.634-4.321,1.634c-0.553,0-1.073-0.044-1.56-0.132c-0.291-0.049-0.893-0.227-1.807-0.535
			c-0.913-0.307-1.492-0.461-1.734-0.461c-0.234,0-0.42,0.073-0.556,0.22s-0.237,0.449-0.302,0.908h-0.521V27.9h0.521
			c0.243,1.426,0.57,2.493,0.983,3.201c0.412,0.708,1.042,1.296,1.89,1.765s1.777,0.703,2.79,0.703c1.171,0,2.096-0.322,2.775-0.967
			c0.679-0.645,1.019-1.406,1.019-2.285c0-0.488-0.129-0.981-0.387-1.479s-0.658-0.962-1.201-1.392
			c-0.365-0.293-1.363-0.915-2.993-1.868c-1.63-0.951-2.79-1.711-3.478-2.277c-0.689-0.566-1.211-1.191-1.567-1.875
			s-0.534-1.436-0.534-2.256c0-1.426,0.524-2.653,1.574-3.684c1.049-1.03,2.384-1.546,4.005-1.546c1.012,0,2.085,0.259,3.218,0.776
			c0.525,0.244,0.895,0.366,1.11,0.366c0.243,0,0.442-0.075,0.597-0.228c0.155-0.15,0.279-0.456,0.373-0.915H388.271z"/>
		<linearGradient id="SVGID_18_" gradientUnits="userSpaceOnUse" x1="264.2171" y1="34.7263" x2="264.2171" y2="13.9402">
			<stop  offset="0" style="stop-color:#793700"/>
			<stop  offset="0.0402" style="stop-color:#813E00"/>
			<stop  offset="0.1025" style="stop-color:#975100"/>
			<stop  offset="0.1791" style="stop-color:#BA7000"/>
			<stop  offset="0.2662" style="stop-color:#EB9B00"/>
			<stop  offset="0.2788" style="stop-color:#F3A200"/>
			<stop  offset="0.503" style="stop-color:#FFF78E"/>
			<stop  offset="0.7576" style="stop-color:#F3A200"/>
			<stop  offset="1" style="stop-color:#793700"/>
		</linearGradient>
		<path style="fill:url(#SVGID_18_);" d="M415.605,13.94l0.436,6.753h-0.436c-0.581-2.021-1.41-3.477-2.488-4.365
			c-1.076-0.889-2.369-1.333-3.878-1.333c-1.265,0-2.407,0.335-3.429,1.003c-1.021,0.67-1.825,1.736-2.41,3.201
			c-0.586,1.465-0.879,3.286-0.879,5.464c0,1.797,0.276,3.354,0.83,4.673c0.553,1.318,1.384,2.329,2.494,3.032
			c1.109,0.703,2.377,1.055,3.801,1.055c1.236,0,2.328-0.275,3.274-0.827s1.986-1.648,3.12-3.289l0.436,0.293
			c-0.955,1.768-2.07,3.062-3.345,3.882s-2.787,1.23-4.539,1.23c-3.157,0-5.603-1.221-7.335-3.662
			c-1.293-1.816-1.939-3.955-1.939-6.416c0-1.982,0.426-3.804,1.278-5.464s2.026-2.946,3.521-3.859
			c1.494-0.913,3.127-1.37,4.896-1.37c1.378,0,2.736,0.352,4.076,1.055c0.394,0.215,0.674,0.322,0.844,0.322
			c0.252,0,0.473-0.093,0.66-0.278c0.243-0.264,0.416-0.63,0.52-1.099H415.605z"/>
		<linearGradient id="SVGID_19_" gradientUnits="userSpaceOnUse" x1="264.2171" y1="34.7263" x2="264.2171" y2="13.9402">
			<stop  offset="0" style="stop-color:#793700"/>
			<stop  offset="0.0402" style="stop-color:#813E00"/>
			<stop  offset="0.1025" style="stop-color:#975100"/>
			<stop  offset="0.1791" style="stop-color:#BA7000"/>
			<stop  offset="0.2662" style="stop-color:#EB9B00"/>
			<stop  offset="0.2788" style="stop-color:#F3A200"/>
			<stop  offset="0.503" style="stop-color:#FFF78E"/>
			<stop  offset="0.7576" style="stop-color:#F3A200"/>
			<stop  offset="1" style="stop-color:#793700"/>
		</linearGradient>
		<path style="fill:url(#SVGID_19_);" d="M433.972,28.764l0.463,0.103l-1.629,5.391H418.05v-0.542h0.717
			c0.805,0,1.381-0.273,1.729-0.82c0.196-0.312,0.295-1.035,0.295-2.168V17.91c0-1.24-0.132-2.017-0.395-2.329
			c-0.365-0.43-0.908-0.645-1.629-0.645h-0.717v-0.542h8.628v0.542c-1.012-0.01-1.722,0.088-2.129,0.293s-0.687,0.464-0.836,0.776
			c-0.15,0.312-0.226,1.06-0.226,2.241v12.48c0,0.811,0.075,1.367,0.226,1.67c0.112,0.205,0.286,0.356,0.521,0.454
			c0.233,0.098,0.964,0.146,2.191,0.146h1.392c1.462,0,2.487-0.112,3.077-0.337s1.129-0.622,1.616-1.194
			C432.997,30.896,433.484,29.995,433.972,28.764z"/>
		<linearGradient id="SVGID_20_" gradientUnits="userSpaceOnUse" x1="264.2171" y1="34.7263" x2="264.2171" y2="13.9402">
			<stop  offset="0" style="stop-color:#793700"/>
			<stop  offset="0.0402" style="stop-color:#813E00"/>
			<stop  offset="0.1025" style="stop-color:#975100"/>
			<stop  offset="0.1791" style="stop-color:#BA7000"/>
			<stop  offset="0.2662" style="stop-color:#EB9B00"/>
			<stop  offset="0.2788" style="stop-color:#F3A200"/>
			<stop  offset="0.503" style="stop-color:#FFF78E"/>
			<stop  offset="0.7576" style="stop-color:#F3A200"/>
			<stop  offset="1" style="stop-color:#793700"/>
		</linearGradient>
		<path style="fill:url(#SVGID_20_);" d="M448.784,14.936v-0.542h6.744v0.542h-0.716c-0.75,0-1.326,0.327-1.729,0.981
			c-0.196,0.303-0.296,1.006-0.296,2.109v8.057c0,1.992-0.189,3.537-0.568,4.637c-0.379,1.098-1.125,2.041-2.234,2.826
			c-1.11,0.786-2.621,1.18-4.532,1.18c-2.08,0-3.659-0.376-4.735-1.128c-1.078-0.752-1.842-1.763-2.291-3.032
			c-0.301-0.869-0.45-2.5-0.45-4.893V17.91c0-1.221-0.161-2.021-0.485-2.402c-0.322-0.381-0.845-0.571-1.566-0.571h-0.717v-0.542
			h8.235v0.542h-0.731c-0.786,0-1.348,0.259-1.686,0.776c-0.234,0.352-0.352,1.084-0.352,2.197v8.657
			c0,0.771,0.068,1.655,0.204,2.651s0.382,1.772,0.737,2.329c0.356,0.557,0.869,1.016,1.539,1.377s1.492,0.542,2.467,0.542
			c1.246,0,2.36-0.283,3.344-0.85c0.984-0.566,1.656-1.291,2.018-2.176c0.359-0.883,0.541-2.38,0.541-4.489V17.91
			c0-1.24-0.132-2.017-0.395-2.329c-0.365-0.43-0.908-0.645-1.629-0.645H448.784z"/>
		<linearGradient id="SVGID_21_" gradientUnits="userSpaceOnUse" x1="264.2171" y1="34.7263" x2="264.2171" y2="13.9402">
			<stop  offset="0" style="stop-color:#793700"/>
			<stop  offset="0.0402" style="stop-color:#813E00"/>
			<stop  offset="0.1025" style="stop-color:#975100"/>
			<stop  offset="0.1791" style="stop-color:#BA7000"/>
			<stop  offset="0.2662" style="stop-color:#EB9B00"/>
			<stop  offset="0.2788" style="stop-color:#F3A200"/>
			<stop  offset="0.503" style="stop-color:#FFF78E"/>
			<stop  offset="0.7576" style="stop-color:#F3A200"/>
			<stop  offset="1" style="stop-color:#793700"/>
		</linearGradient>
		<path style="fill:url(#SVGID_21_);" d="M469.132,24.121c1.321,0.293,2.31,0.762,2.965,1.406c0.909,0.898,1.363,1.997,1.363,3.296
			c0,0.986-0.299,1.932-0.898,2.835s-1.422,1.562-2.467,1.977c-1.045,0.416-2.64,0.623-4.785,0.623h-8.994v-0.542h0.717
			c0.797,0,1.368-0.264,1.715-0.791c0.215-0.342,0.323-1.069,0.323-2.183V17.91c0-1.23-0.136-2.007-0.407-2.329
			c-0.365-0.43-0.909-0.645-1.631-0.645h-0.717v-0.542h8.235c1.536,0,2.769,0.117,3.696,0.352c1.404,0.352,2.478,0.975,3.218,1.867
			c0.74,0.895,1.11,1.922,1.11,3.084c0,0.996-0.291,1.888-0.871,2.674C471.122,23.157,470.266,23.74,469.132,24.121z M461.769,23.33
			c0.346,0.068,0.742,0.12,1.188,0.154s0.934,0.051,1.469,0.051c1.367,0,2.396-0.154,3.084-0.461
			c0.689-0.309,1.216-0.779,1.581-1.414s0.548-1.328,0.548-2.08c0-1.162-0.454-2.153-1.363-2.974c-0.908-0.82-2.234-1.23-3.977-1.23
			c-0.938,0-1.78,0.107-2.529,0.322V23.33z M461.769,32.822c1.086,0.264,2.159,0.396,3.218,0.396c1.696,0,2.989-0.397,3.879-1.194
			c0.89-0.795,1.335-1.779,1.335-2.951c0-0.771-0.201-1.514-0.604-2.227s-1.059-1.274-1.968-1.685
			c-0.908-0.41-2.033-0.615-3.372-0.615c-0.581,0-1.077,0.01-1.489,0.029c-0.413,0.02-0.745,0.054-0.998,0.103V32.822z"/>
	</g>
</g>
<g>
	<linearGradient id="SVGID_22_" gradientUnits="userSpaceOnUse" x1="24.3325" y1="48.6665" x2="24.3325" y2="9.094947e-13">
		<stop  offset="0" style="stop-color:#793700"/>
		<stop  offset="0.0402" style="stop-color:#813E00"/>
		<stop  offset="0.1025" style="stop-color:#975100"/>
		<stop  offset="0.1791" style="stop-color:#BA7000"/>
		<stop  offset="0.2662" style="stop-color:#EB9B00"/>
		<stop  offset="0.2788" style="stop-color:#F3A200"/>
		<stop  offset="0.503" style="stop-color:#FFF78E"/>
		<stop  offset="0.7576" style="stop-color:#F3A200"/>
		<stop  offset="1" style="stop-color:#793700"/>
	</linearGradient>
	<path style="fill:url(#SVGID_22_);" d="M24.333,3.161c-11.675,0-21.173,9.498-21.173,21.173c0,11.673,9.498,21.17,21.173,21.17
		c11.674,0,21.173-9.497,21.173-21.17C45.505,12.659,36.007,3.161,24.333,3.161z M36.854,15.336
		c-3.396,1.106-6.674,2.968-8.264,6.235c0.644,0.074,1.258,0.219,1.82,0.466c5.394,2.371,7.595,7.869,5.323,13.259
		c-1.882,4.466-5.569,2.677-7.538-0.31c-1.413-2.145-1.74-5.256-1.629-7.753c0.037-0.809,0.107-1.59,0.205-2.35
		c-0.008,0.001-0.016,0.001-0.024,0.001c-0.342,2.452-1.215,4.809-2.607,6.76c-1.798,2.519-7.012,8.279-10.915,6.477
		c-1.828-0.844-2.287-2.415-2.169-4.361c0.211-3.486,2.545-6.462,5.45-8.298c2.353-1.488,6.262-3.44,9.779-3.864
		c-0.112-1.512-0.623-3.019-1.715-4.441c-2.203-2.87-6.51-5.201-10.116-3.123c-7.738,4.458,4.49,8.252,4.788,4.362
		c0.161-2.091,0.723-0.272,0.64,0.802c-0.471,6.146-8.655,4.033-8.655-1.404c0-2.083,0.319-5.104,2.357-6.278
		c3.287-1.893,7.961-1.439,10.381,1.714c1.784,2.324,2.742,5.283,2.909,8.31c0.207-0.015,0.411-0.018,0.613-0.02
		c1.333-4.325,4.191-7.517,9.365-9.201C37.058,12.252,37.54,15.114,36.854,15.336z M24.333,0C10.894,0,0,10.896,0,24.334
		c0,13.437,10.894,24.333,24.333,24.333c13.441,0,24.332-10.896,24.332-24.333C48.665,10.896,37.773,0,24.333,0z M24.333,46.571
		c-12.263,0-22.24-9.975-22.24-22.237c0-12.263,9.977-22.24,22.24-22.24c12.262,0,22.239,9.977,22.239,22.24
		C46.572,36.596,36.595,46.571,24.333,46.571z M13.225,35.103c1.516,0.089,3.234-0.089,4.615-0.8
		c3.247-1.673,6.822-5.296,8.044-9.306c-3.684,0.658-7.488,1.676-10.354,4.244C15.29,29.454,9.783,34.901,13.225,35.103z
		 M29.248,33.403c0.897,1.085,2.188,2.433,3.718,1.5c6.728-4.106-0.265-9.726-5.412-10.02
		C26.983,27.839,27.227,30.961,29.248,33.403z"/>
</g>
</svg>
