<?xml version="1.0" encoding="iso-8859-1"?>
<!-- Generator: Adobe Illustrator 19.2.0, SVG Export Plug-In . SVG Version: 6.00 Build 0)  -->
<svg version="1.1" id="Layer_1" xmlns="http://www.w3.org/2000/svg" xmlns:xlink="http://www.w3.org/1999/xlink" x="0px" y="0px"
	 viewBox="0 0 485.57 48.667" style="enable-background:new 0 0 485.57 48.667;" xml:space="preserve">
<g>
	<g>
		<linearGradient id="SVGID_1_" gradientUnits="userSpaceOnUse" x1="213.9961" y1="42.51" x2="213.9961" y2="6.6575">
			<stop  offset="0" style="stop-color:#793700"/>
			<stop  offset="0.0402" style="stop-color:#813E00"/>
			<stop  offset="0.1025" style="stop-color:#975100"/>
			<stop  offset="0.1791" style="stop-color:#BA7000"/>
			<stop  offset="0.2662" style="stop-color:#EB9B00"/>
			<stop  offset="0.2788" style="stop-color:#F3A200"/>
			<stop  offset="0.503" style="stop-color:#FFF78E"/>
			<stop  offset="0.7576" style="stop-color:#F3A200"/>
			<stop  offset="1" style="stop-color:#793700"/>
		</linearGradient>
		<path style="fill:url(#SVGID_1_);" d="M0,7.058h8.7c5.501,0,8.201,3.05,8.201,8.65v17.701c0,5.601-2.7,8.65-8.201,8.65H0V7.058z
			 M5.5,12.058V37.06h3.101c1.75,0,2.8-0.9,2.8-3.4V15.458c0-2.5-1.05-3.4-2.8-3.4H5.5z"/>
		<linearGradient id="SVGID_2_" gradientUnits="userSpaceOnUse" x1="213.9961" y1="42.51" x2="213.9961" y2="6.6575">
			<stop  offset="0" style="stop-color:#793700"/>
			<stop  offset="0.0402" style="stop-color:#813E00"/>
			<stop  offset="0.1025" style="stop-color:#975100"/>
			<stop  offset="0.1791" style="stop-color:#BA7000"/>
			<stop  offset="0.2662" style="stop-color:#EB9B00"/>
			<stop  offset="0.2788" style="stop-color:#F3A200"/>
			<stop  offset="0.503" style="stop-color:#FFF78E"/>
			<stop  offset="0.7576" style="stop-color:#F3A200"/>
			<stop  offset="1" style="stop-color:#793700"/>
		</linearGradient>
		<path style="fill:url(#SVGID_2_);" d="M25.649,7.058V34.06c0,2.5,1.101,3.4,2.851,3.4s2.851-0.9,2.851-3.4V7.058h5.2v26.651
			c0,5.601-2.801,8.801-8.201,8.801s-8.2-3.2-8.2-8.801V7.058H25.649z"/>
		<linearGradient id="SVGID_3_" gradientUnits="userSpaceOnUse" x1="213.9961" y1="42.51" x2="213.9961" y2="6.6575">
			<stop  offset="0" style="stop-color:#793700"/>
			<stop  offset="0.0402" style="stop-color:#813E00"/>
			<stop  offset="0.1025" style="stop-color:#975100"/>
			<stop  offset="0.1791" style="stop-color:#BA7000"/>
			<stop  offset="0.2662" style="stop-color:#EB9B00"/>
			<stop  offset="0.2788" style="stop-color:#F3A200"/>
			<stop  offset="0.503" style="stop-color:#FFF78E"/>
			<stop  offset="0.7576" style="stop-color:#F3A200"/>
			<stop  offset="1" style="stop-color:#793700"/>
		</linearGradient>
		<path style="fill:url(#SVGID_3_);" d="M47.499,28.11l-1.7,3.2v10.75h-5.5V7.058h5.5v15.151h0.101L53,7.058h5.5l-7.65,15.601
			L58.5,42.06h-5.65L47.499,28.11z"/>
		<linearGradient id="SVGID_4_" gradientUnits="userSpaceOnUse" x1="213.9961" y1="42.51" x2="213.9961" y2="6.6575">
			<stop  offset="0" style="stop-color:#793700"/>
			<stop  offset="0.0402" style="stop-color:#813E00"/>
			<stop  offset="0.1025" style="stop-color:#975100"/>
			<stop  offset="0.1791" style="stop-color:#BA7000"/>
			<stop  offset="0.2662" style="stop-color:#EB9B00"/>
			<stop  offset="0.2788" style="stop-color:#F3A200"/>
			<stop  offset="0.503" style="stop-color:#FFF78E"/>
			<stop  offset="0.7576" style="stop-color:#F3A200"/>
			<stop  offset="1" style="stop-color:#793700"/>
		</linearGradient>
		<path style="fill:url(#SVGID_4_);" d="M60.999,7.058h5.5V42.06h-5.5V7.058z"/>
		<linearGradient id="SVGID_5_" gradientUnits="userSpaceOnUse" x1="213.9961" y1="42.51" x2="213.9961" y2="6.6575">
			<stop  offset="0" style="stop-color:#793700"/>
			<stop  offset="0.0402" style="stop-color:#813E00"/>
			<stop  offset="0.1025" style="stop-color:#975100"/>
			<stop  offset="0.1791" style="stop-color:#BA7000"/>
			<stop  offset="0.2662" style="stop-color:#EB9B00"/>
			<stop  offset="0.2788" style="stop-color:#F3A200"/>
			<stop  offset="0.503" style="stop-color:#FFF78E"/>
			<stop  offset="0.7576" style="stop-color:#F3A200"/>
			<stop  offset="1" style="stop-color:#793700"/>
		</linearGradient>
		<path style="fill:url(#SVGID_5_);" d="M78.749,35.61h0.1l4.15-28.552h5.05l-5.4,35.002h-8.2l-5.4-35.002h5.551L78.749,35.61z"/>
		<linearGradient id="SVGID_6_" gradientUnits="userSpaceOnUse" x1="213.9961" y1="42.51" x2="213.9961" y2="6.6575">
			<stop  offset="0" style="stop-color:#793700"/>
			<stop  offset="0.0402" style="stop-color:#813E00"/>
			<stop  offset="0.1025" style="stop-color:#975100"/>
			<stop  offset="0.1791" style="stop-color:#BA7000"/>
			<stop  offset="0.2662" style="stop-color:#EB9B00"/>
			<stop  offset="0.2788" style="stop-color:#F3A200"/>
			<stop  offset="0.503" style="stop-color:#FFF78E"/>
			<stop  offset="0.7576" style="stop-color:#F3A200"/>
			<stop  offset="1" style="stop-color:#793700"/>
		</linearGradient>
		<path style="fill:url(#SVGID_6_);" d="M96.098,21.808h7.551v5h-7.551V37.06h9.501v5H90.598V7.058h15.001v5h-9.501V21.808z"/>
		<linearGradient id="SVGID_7_" gradientUnits="userSpaceOnUse" x1="213.9961" y1="42.51" x2="213.9961" y2="6.6575">
			<stop  offset="0" style="stop-color:#793700"/>
			<stop  offset="0.0402" style="stop-color:#813E00"/>
			<stop  offset="0.1025" style="stop-color:#975100"/>
			<stop  offset="0.1791" style="stop-color:#BA7000"/>
			<stop  offset="0.2662" style="stop-color:#EB9B00"/>
			<stop  offset="0.2788" style="stop-color:#F3A200"/>
			<stop  offset="0.503" style="stop-color:#FFF78E"/>
			<stop  offset="0.7576" style="stop-color:#F3A200"/>
			<stop  offset="1" style="stop-color:#793700"/>
		</linearGradient>
		<path style="fill:url(#SVGID_7_);" d="M113.997,16.708h-0.1V42.06h-4.95V7.058h6.9l5.55,20.951h0.101V7.058h4.9V42.06h-5.65
			L113.997,16.708z"/>
		<linearGradient id="SVGID_8_" gradientUnits="userSpaceOnUse" x1="213.9961" y1="42.51" x2="213.9961" y2="6.6575">
			<stop  offset="0" style="stop-color:#793700"/>
			<stop  offset="0.0402" style="stop-color:#813E00"/>
			<stop  offset="0.1025" style="stop-color:#975100"/>
			<stop  offset="0.1791" style="stop-color:#BA7000"/>
			<stop  offset="0.2662" style="stop-color:#EB9B00"/>
			<stop  offset="0.2788" style="stop-color:#F3A200"/>
			<stop  offset="0.503" style="stop-color:#FFF78E"/>
			<stop  offset="0.7576" style="stop-color:#F3A200"/>
			<stop  offset="1" style="stop-color:#793700"/>
		</linearGradient>
		<path style="fill:url(#SVGID_8_);" d="M148.147,42.06h-5.55l-0.95-6.351h-6.75l-0.95,6.351h-5.051l5.601-35.002h8.051
			L148.147,42.06z M135.597,30.959h5.301l-2.601-17.701h-0.1L135.597,30.959z"/>
		<linearGradient id="SVGID_9_" gradientUnits="userSpaceOnUse" x1="213.9961" y1="42.51" x2="213.9961" y2="6.6575">
			<stop  offset="0" style="stop-color:#793700"/>
			<stop  offset="0.0402" style="stop-color:#813E00"/>
			<stop  offset="0.1025" style="stop-color:#975100"/>
			<stop  offset="0.1791" style="stop-color:#BA7000"/>
			<stop  offset="0.2662" style="stop-color:#EB9B00"/>
			<stop  offset="0.2788" style="stop-color:#F3A200"/>
			<stop  offset="0.503" style="stop-color:#FFF78E"/>
			<stop  offset="0.7576" style="stop-color:#F3A200"/>
			<stop  offset="1" style="stop-color:#793700"/>
		</linearGradient>
		<path style="fill:url(#SVGID_9_);" d="M166.997,15.708v4.55c0,5.6-2.7,8.651-8.2,8.651h-2.601v13.15h-5.5V7.058h8.101
			C164.297,7.058,166.997,10.108,166.997,15.708z M156.196,12.058v11.851h2.601c1.75,0,2.7-0.8,2.7-3.3v-5.25
			c0-2.5-0.95-3.3-2.7-3.3H156.196z"/>
		<linearGradient id="SVGID_10_" gradientUnits="userSpaceOnUse" x1="213.9961" y1="42.51" x2="213.9961" y2="6.6575">
			<stop  offset="0" style="stop-color:#793700"/>
			<stop  offset="0.0402" style="stop-color:#813E00"/>
			<stop  offset="0.1025" style="stop-color:#975100"/>
			<stop  offset="0.1791" style="stop-color:#BA7000"/>
			<stop  offset="0.2662" style="stop-color:#EB9B00"/>
			<stop  offset="0.2788" style="stop-color:#F3A200"/>
			<stop  offset="0.503" style="stop-color:#FFF78E"/>
			<stop  offset="0.7576" style="stop-color:#F3A200"/>
			<stop  offset="1" style="stop-color:#793700"/>
		</linearGradient>
		<path style="fill:url(#SVGID_10_);" d="M169.097,15.458c0-5.601,2.95-8.801,8.351-8.801s8.351,3.2,8.351,8.801v18.201
			c0,5.601-2.95,8.801-8.351,8.801s-8.351-3.2-8.351-8.801V15.458z M174.598,34.01c0,2.5,1.1,3.45,2.85,3.45s2.851-0.95,2.851-3.45
			V15.108c0-2.5-1.101-3.45-2.851-3.45s-2.85,0.95-2.85,3.45V34.01z"/>
		<linearGradient id="SVGID_11_" gradientUnits="userSpaceOnUse" x1="213.9961" y1="42.51" x2="213.9961" y2="6.6575">
			<stop  offset="0" style="stop-color:#793700"/>
			<stop  offset="0.0402" style="stop-color:#813E00"/>
			<stop  offset="0.1025" style="stop-color:#975100"/>
			<stop  offset="0.1791" style="stop-color:#BA7000"/>
			<stop  offset="0.2662" style="stop-color:#EB9B00"/>
			<stop  offset="0.2788" style="stop-color:#F3A200"/>
			<stop  offset="0.503" style="stop-color:#FFF78E"/>
			<stop  offset="0.7576" style="stop-color:#F3A200"/>
			<stop  offset="1" style="stop-color:#793700"/>
		</linearGradient>
		<path style="fill:url(#SVGID_11_);" d="M208.697,31.909h0.101l3.7-24.852h7.65V42.06h-5.2V16.958h-0.101l-3.7,25.102h-5.2
			l-4-24.751h-0.101V42.06h-4.8V7.058h7.65L208.697,31.909z"/>
		<linearGradient id="SVGID_12_" gradientUnits="userSpaceOnUse" x1="213.9961" y1="42.51" x2="213.9961" y2="6.6575">
			<stop  offset="0" style="stop-color:#793700"/>
			<stop  offset="0.0402" style="stop-color:#813E00"/>
			<stop  offset="0.1025" style="stop-color:#975100"/>
			<stop  offset="0.1791" style="stop-color:#BA7000"/>
			<stop  offset="0.2662" style="stop-color:#EB9B00"/>
			<stop  offset="0.2788" style="stop-color:#F3A200"/>
			<stop  offset="0.503" style="stop-color:#FFF78E"/>
			<stop  offset="0.7576" style="stop-color:#F3A200"/>
			<stop  offset="1" style="stop-color:#793700"/>
		</linearGradient>
		<path style="fill:url(#SVGID_12_);" d="M229.646,21.808h7.551v5h-7.551V37.06h9.501v5h-15.001V7.058h15.001v5h-9.501V21.808z"/>
		<linearGradient id="SVGID_13_" gradientUnits="userSpaceOnUse" x1="213.9961" y1="42.51" x2="213.9961" y2="6.6575">
			<stop  offset="0" style="stop-color:#793700"/>
			<stop  offset="0.0402" style="stop-color:#813E00"/>
			<stop  offset="0.1025" style="stop-color:#975100"/>
			<stop  offset="0.1791" style="stop-color:#BA7000"/>
			<stop  offset="0.2662" style="stop-color:#EB9B00"/>
			<stop  offset="0.2788" style="stop-color:#F3A200"/>
			<stop  offset="0.503" style="stop-color:#FFF78E"/>
			<stop  offset="0.7576" style="stop-color:#F3A200"/>
			<stop  offset="1" style="stop-color:#793700"/>
		</linearGradient>
		<path style="fill:url(#SVGID_13_);" d="M254.146,31.909h0.101l3.7-24.852h7.65V42.06h-5.2V16.958h-0.101l-3.7,25.102h-5.2
			l-4-24.751h-0.101V42.06h-4.8V7.058h7.65L254.146,31.909z"/>
		<linearGradient id="SVGID_14_" gradientUnits="userSpaceOnUse" x1="213.9961" y1="42.51" x2="213.9961" y2="6.6575">
			<stop  offset="0" style="stop-color:#793700"/>
			<stop  offset="0.0402" style="stop-color:#813E00"/>
			<stop  offset="0.1025" style="stop-color:#975100"/>
			<stop  offset="0.1791" style="stop-color:#BA7000"/>
			<stop  offset="0.2662" style="stop-color:#EB9B00"/>
			<stop  offset="0.2788" style="stop-color:#F3A200"/>
			<stop  offset="0.503" style="stop-color:#FFF78E"/>
			<stop  offset="0.7576" style="stop-color:#F3A200"/>
			<stop  offset="1" style="stop-color:#793700"/>
		</linearGradient>
		<path style="fill:url(#SVGID_14_);" d="M286.046,15.108v1.25c0,3.6-1.101,5.851-3.55,7v0.1c2.95,1.15,4.1,3.75,4.1,7.451v2.851
			c0,5.399-2.85,8.3-8.351,8.3h-8.65V7.058h8.301C283.596,7.058,286.046,9.708,286.046,15.108z M275.095,12.058v9.25h2.15
			c2.051,0,3.301-0.9,3.301-3.7v-1.95c0-2.5-0.851-3.601-2.801-3.601H275.095z M275.095,26.309V37.06h3.15
			c1.851,0,2.851-0.851,2.851-3.45v-3.05c0-3.251-1.05-4.251-3.551-4.251H275.095z"/>
		<linearGradient id="SVGID_15_" gradientUnits="userSpaceOnUse" x1="213.9961" y1="42.51" x2="213.9961" y2="6.6575">
			<stop  offset="0" style="stop-color:#793700"/>
			<stop  offset="0.0402" style="stop-color:#813E00"/>
			<stop  offset="0.1025" style="stop-color:#975100"/>
			<stop  offset="0.1791" style="stop-color:#BA7000"/>
			<stop  offset="0.2662" style="stop-color:#EB9B00"/>
			<stop  offset="0.2788" style="stop-color:#F3A200"/>
			<stop  offset="0.503" style="stop-color:#FFF78E"/>
			<stop  offset="0.7576" style="stop-color:#F3A200"/>
			<stop  offset="1" style="stop-color:#793700"/>
		</linearGradient>
		<path style="fill:url(#SVGID_15_);" d="M295.395,21.808h7.551v5h-7.551V37.06h9.501v5h-15.001V7.058h15.001v5h-9.501V21.808z"/>
		<linearGradient id="SVGID_16_" gradientUnits="userSpaceOnUse" x1="213.9961" y1="42.51" x2="213.9961" y2="6.6575">
			<stop  offset="0" style="stop-color:#793700"/>
			<stop  offset="0.0402" style="stop-color:#813E00"/>
			<stop  offset="0.1025" style="stop-color:#975100"/>
			<stop  offset="0.1791" style="stop-color:#BA7000"/>
			<stop  offset="0.2662" style="stop-color:#EB9B00"/>
			<stop  offset="0.2788" style="stop-color:#F3A200"/>
			<stop  offset="0.503" style="stop-color:#FFF78E"/>
			<stop  offset="0.7576" style="stop-color:#F3A200"/>
			<stop  offset="1" style="stop-color:#793700"/>
		</linearGradient>
		<path style="fill:url(#SVGID_16_);" d="M319.795,42.06c-0.3-0.899-0.5-1.45-0.5-4.3v-5.501c0-3.25-1.101-4.45-3.601-4.45h-1.9
			V42.06h-5.5V7.058h8.301c5.7,0,8.15,2.65,8.15,8.05v2.75c0,3.601-1.15,5.9-3.601,7.051v0.1c2.751,1.15,3.65,3.75,3.65,7.401v5.4
			c0,1.7,0.05,2.95,0.601,4.25H319.795z M313.794,12.058v10.751h2.15c2.051,0,3.301-0.9,3.301-3.7v-3.45
			c0-2.5-0.851-3.601-2.801-3.601H313.794z"/>
		<linearGradient id="SVGID_17_" gradientUnits="userSpaceOnUse" x1="213.9961" y1="42.51" x2="213.9961" y2="6.6575">
			<stop  offset="0" style="stop-color:#793700"/>
			<stop  offset="0.0402" style="stop-color:#813E00"/>
			<stop  offset="0.1025" style="stop-color:#975100"/>
			<stop  offset="0.1791" style="stop-color:#BA7000"/>
			<stop  offset="0.2662" style="stop-color:#EB9B00"/>
			<stop  offset="0.2788" style="stop-color:#F3A200"/>
			<stop  offset="0.503" style="stop-color:#FFF78E"/>
			<stop  offset="0.7576" style="stop-color:#F3A200"/>
			<stop  offset="1" style="stop-color:#793700"/>
		</linearGradient>
		<path style="fill:url(#SVGID_17_);" d="M335.794,6.657c5.351,0,8.101,3.2,8.101,8.801v1.1h-5.2v-1.45c0-2.5-1-3.45-2.75-3.45
			s-2.75,0.95-2.75,3.45c0,2.55,1.1,4.45,4.7,7.601c4.6,4.05,6.05,6.951,6.05,10.951c0,5.601-2.8,8.801-8.2,8.801
			s-8.2-3.2-8.2-8.801v-2.15h5.2v2.501c0,2.5,1.1,3.399,2.85,3.399s2.851-0.899,2.851-3.399c0-2.551-1.101-4.451-4.7-7.601
			c-4.601-4.05-6.051-6.951-6.051-10.951C327.693,9.858,330.443,6.657,335.794,6.657z"/>
		<linearGradient id="SVGID_18_" gradientUnits="userSpaceOnUse" x1="213.9961" y1="42.51" x2="213.9961" y2="6.6575">
			<stop  offset="0" style="stop-color:#793700"/>
			<stop  offset="0.0402" style="stop-color:#813E00"/>
			<stop  offset="0.1025" style="stop-color:#975100"/>
			<stop  offset="0.1791" style="stop-color:#BA7000"/>
			<stop  offset="0.2662" style="stop-color:#EB9B00"/>
			<stop  offset="0.2788" style="stop-color:#F3A200"/>
			<stop  offset="0.503" style="stop-color:#FFF78E"/>
			<stop  offset="0.7576" style="stop-color:#F3A200"/>
			<stop  offset="1" style="stop-color:#793700"/>
		</linearGradient>
		<path style="fill:url(#SVGID_18_);" d="M370.794,29.009v4.65c0,5.601-2.8,8.801-8.2,8.801s-8.201-3.2-8.201-8.801V15.458
			c0-5.601,2.801-8.801,8.201-8.801s8.2,3.2,8.2,8.801v3.4h-5.2v-3.75c0-2.5-1.101-3.45-2.851-3.45s-2.85,0.95-2.85,3.45V34.01
			c0,2.5,1.1,3.399,2.85,3.399s2.851-0.899,2.851-3.399v-5.001H370.794z"/>
		<linearGradient id="SVGID_19_" gradientUnits="userSpaceOnUse" x1="213.9961" y1="42.51" x2="213.9961" y2="6.6575">
			<stop  offset="0" style="stop-color:#793700"/>
			<stop  offset="0.0402" style="stop-color:#813E00"/>
			<stop  offset="0.1025" style="stop-color:#975100"/>
			<stop  offset="0.1791" style="stop-color:#BA7000"/>
			<stop  offset="0.2662" style="stop-color:#EB9B00"/>
			<stop  offset="0.2788" style="stop-color:#F3A200"/>
			<stop  offset="0.503" style="stop-color:#FFF78E"/>
			<stop  offset="0.7576" style="stop-color:#F3A200"/>
			<stop  offset="1" style="stop-color:#793700"/>
		</linearGradient>
		<path style="fill:url(#SVGID_19_);" d="M374.143,7.058h5.5V37.06h9.051v5h-14.551V7.058z"/>
		<linearGradient id="SVGID_20_" gradientUnits="userSpaceOnUse" x1="213.9961" y1="42.51" x2="213.9961" y2="6.6575">
			<stop  offset="0" style="stop-color:#793700"/>
			<stop  offset="0.0402" style="stop-color:#813E00"/>
			<stop  offset="0.1025" style="stop-color:#975100"/>
			<stop  offset="0.1791" style="stop-color:#BA7000"/>
			<stop  offset="0.2662" style="stop-color:#EB9B00"/>
			<stop  offset="0.2788" style="stop-color:#F3A200"/>
			<stop  offset="0.503" style="stop-color:#FFF78E"/>
			<stop  offset="0.7576" style="stop-color:#F3A200"/>
			<stop  offset="1" style="stop-color:#793700"/>
		</linearGradient>
		<path style="fill:url(#SVGID_20_);" d="M396.342,7.058V34.06c0,2.5,1.101,3.4,2.851,3.4s2.851-0.9,2.851-3.4V7.058h5.2v26.651
			c0,5.601-2.801,8.801-8.201,8.801s-8.2-3.2-8.2-8.801V7.058H396.342z"/>
		<linearGradient id="SVGID_21_" gradientUnits="userSpaceOnUse" x1="213.9961" y1="42.51" x2="213.9961" y2="6.6575">
			<stop  offset="0" style="stop-color:#793700"/>
			<stop  offset="0.0402" style="stop-color:#813E00"/>
			<stop  offset="0.1025" style="stop-color:#975100"/>
			<stop  offset="0.1791" style="stop-color:#BA7000"/>
			<stop  offset="0.2662" style="stop-color:#EB9B00"/>
			<stop  offset="0.2788" style="stop-color:#F3A200"/>
			<stop  offset="0.503" style="stop-color:#FFF78E"/>
			<stop  offset="0.7576" style="stop-color:#F3A200"/>
			<stop  offset="1" style="stop-color:#793700"/>
		</linearGradient>
		<path style="fill:url(#SVGID_21_);" d="M427.442,15.108v1.25c0,3.6-1.101,5.851-3.55,7v0.1c2.95,1.15,4.1,3.75,4.1,7.451v2.851
			c0,5.399-2.85,8.3-8.351,8.3h-8.65V7.058h8.301C424.992,7.058,427.442,9.708,427.442,15.108z M416.491,12.058v9.25h2.15
			c2.051,0,3.301-0.9,3.301-3.7v-1.95c0-2.5-0.851-3.601-2.801-3.601H416.491z M416.491,26.309V37.06h3.15
			c1.851,0,2.851-0.851,2.851-3.45v-3.05c0-3.251-1.05-4.251-3.551-4.251H416.491z"/>
	</g>
</g>
<g>
	<linearGradient id="SVGID_22_" gradientUnits="userSpaceOnUse" x1="461.238" y1="48.6665" x2="461.238" y2="0">
		<stop  offset="0" style="stop-color:#793700"/>
		<stop  offset="0.0402" style="stop-color:#813E00"/>
		<stop  offset="0.1025" style="stop-color:#975100"/>
		<stop  offset="0.1791" style="stop-color:#BA7000"/>
		<stop  offset="0.2662" style="stop-color:#EB9B00"/>
		<stop  offset="0.2788" style="stop-color:#F3A200"/>
		<stop  offset="0.503" style="stop-color:#FFF78E"/>
		<stop  offset="0.7576" style="stop-color:#F3A200"/>
		<stop  offset="1" style="stop-color:#793700"/>
	</linearGradient>
	<path style="fill:url(#SVGID_22_);" d="M461.238,3.161c-11.675,0-21.173,9.498-21.173,21.173c0,11.673,9.498,21.17,21.173,21.17
		c11.674,0,21.173-9.497,21.173-21.17C482.411,12.659,472.912,3.161,461.238,3.161z M473.759,15.336
		c-3.396,1.106-6.674,2.968-8.264,6.235c0.644,0.074,1.258,0.219,1.82,0.466c5.394,2.371,7.595,7.869,5.323,13.259
		c-1.882,4.466-5.569,2.677-7.538-0.31c-1.413-2.145-1.74-5.256-1.629-7.753c0.036-0.809,0.107-1.59,0.205-2.35
		c-0.008,0.001-0.016,0.001-0.024,0.001c-0.342,2.452-1.215,4.809-2.607,6.76c-1.798,2.519-7.012,8.279-10.915,6.477
		c-1.828-0.844-2.287-2.415-2.169-4.361c0.211-3.486,2.545-6.462,5.45-8.298c2.353-1.488,6.262-3.44,9.779-3.864
		c-0.112-1.512-0.623-3.019-1.715-4.441c-2.203-2.87-6.51-5.201-10.116-3.123c-7.738,4.458,4.49,8.252,4.789,4.362
		c0.161-2.091,0.723-0.272,0.64,0.802c-0.471,6.146-8.655,4.033-8.655-1.404c0-2.083,0.319-5.104,2.357-6.278
		c3.287-1.893,7.961-1.439,10.381,1.714c1.784,2.324,2.742,5.283,2.909,8.31c0.207-0.015,0.411-0.018,0.613-0.02
		c1.333-4.325,4.191-7.517,9.365-9.201C473.964,12.252,474.446,15.114,473.759,15.336z M461.238,0
		c-13.439,0-24.333,10.896-24.333,24.334c0,13.437,10.894,24.333,24.333,24.333c13.441,0,24.332-10.896,24.332-24.333
		C485.57,10.896,474.679,0,461.238,0z M461.238,46.571c-12.263,0-22.24-9.975-22.24-22.237c0-12.263,9.977-22.24,22.24-22.24
		c12.262,0,22.24,9.977,22.24,22.24C483.478,36.596,473.501,46.571,461.238,46.571z M450.13,35.103
		c1.516,0.089,3.234-0.089,4.615-0.8c3.247-1.673,6.822-5.296,8.044-9.306c-3.684,0.658-7.488,1.676-10.354,4.244
		C452.196,29.454,446.688,34.901,450.13,35.103z M466.154,33.403c0.897,1.085,2.188,2.433,3.718,1.5
		c6.728-4.106-0.265-9.726-5.412-10.02C463.888,27.839,464.133,30.961,466.154,33.403z"/>
</g>
</svg>
