<?xml version="1.0" encoding="utf-8"?>
<!-- Generator: Adobe Illustrator 19.2.1, SVG Export Plug-In . SVG Version: 6.00 Build 0)  -->
<svg version="1.1" id="Layer_1" xmlns="http://www.w3.org/2000/svg" xmlns:xlink="http://www.w3.org/1999/xlink" x="0px" y="0px"
	 viewBox="0 0 492.5 47.9" style="enable-background:new 0 0 492.5 47.9;" xml:space="preserve">
<style type="text/css">
	.st0{fill:url(#SVGID_1_);}
	.st1{fill:url(#SVGID_2_);}
	.st2{fill:url(#SVGID_3_);}
	.st3{fill:url(#SVGID_4_);}
	.st4{fill:url(#SVGID_5_);}
	.st5{fill:url(#SVGID_6_);}
	.st6{fill:url(#SVGID_7_);}
	.st7{fill:url(#SVGID_8_);}
	.st8{fill:url(#SVGID_9_);}
	.st9{fill:url(#SVGID_10_);}
	.st10{fill:url(#SVGID_11_);}
	.st11{fill:url(#SVGID_12_);}
	.st12{fill:url(#SVGID_13_);}
	.st13{fill:url(#SVGID_14_);}
</style>
<g>
	<g>
		<linearGradient id="SVGID_1_" gradientUnits="userSpaceOnUse" x1="0" y1="47.3975" x2="492.5156" y2="47.3975">
			<stop  offset="0" style="stop-color:#793A19;stop-opacity:0"/>
			<stop  offset="0.15" style="stop-color:#793A19"/>
			<stop  offset="0.1752" style="stop-color:#81411B"/>
			<stop  offset="0.2141" style="stop-color:#98551F"/>
			<stop  offset="0.2617" style="stop-color:#C17922"/>
			<stop  offset="0.3" style="stop-color:#F2A31F"/>
			<stop  offset="0.5" style="stop-color:#FEF492"/>
			<stop  offset="0.7" style="stop-color:#F2A31F"/>
			<stop  offset="0.85" style="stop-color:#793A19"/>
			<stop  offset="1" style="stop-color:#793A19;stop-opacity:0"/>
		</linearGradient>
		<rect y="46.9" class="st0" width="492.5" height="1"/>
	</g>
	<g>
		<g>
			
				<linearGradient id="SVGID_2_" gradientUnits="userSpaceOnUse" x1="260.0077" y1="134.8942" x2="260.0077" y2="100.2506" gradientTransform="matrix(1 0 0 1 -13.5521 -100.2506)">
				<stop  offset="0" style="stop-color:#793A19"/>
				<stop  offset="4.196086e-02" style="stop-color:#81411B"/>
				<stop  offset="0.1069" style="stop-color:#98551F"/>
				<stop  offset="0.1862" style="stop-color:#C17922"/>
				<stop  offset="0.25" style="stop-color:#F2A31F"/>
				<stop  offset="0.5" style="stop-color:#FEF492"/>
				<stop  offset="0.75" style="stop-color:#F2A31F"/>
				<stop  offset="1" style="stop-color:#793A19"/>
			</linearGradient>
			<path class="st1" d="M62.4,0.8v0.9c-1.1,0.2-2,0.6-2.6,1.1c-0.8,0.8-1.6,2-2.2,3.7L46.6,34.6h-0.9L33.8,6.1
				c-0.6-1.5-1-2.4-1.3-2.7c-0.4-0.5-0.9-0.9-1.4-1.2c-0.6-0.3-1.3-0.5-2.3-0.5V0.8h13v0.9c-1.5,0.1-2.4,0.4-2.9,0.8
				c-0.4,0.4-0.7,0.9-0.7,1.4c0,0.8,0.4,2.1,1.1,3.8l8.1,19.4l7.5-19.2C55.6,6,56,4.7,56,4c0-0.5-0.2-0.9-0.7-1.4
				c-0.5-0.4-1.2-0.7-2.3-0.9c-0.1,0-0.2,0-0.4-0.1V0.8H62.4z"/>
			
				<linearGradient id="SVGID_3_" gradientUnits="userSpaceOnUse" x1="260.0077" y1="134.8942" x2="260.0077" y2="100.2506" gradientTransform="matrix(1 0 0 1 -13.5521 -100.2506)">
				<stop  offset="0" style="stop-color:#793A19"/>
				<stop  offset="4.196086e-02" style="stop-color:#81411B"/>
				<stop  offset="0.1069" style="stop-color:#98551F"/>
				<stop  offset="0.1862" style="stop-color:#C17922"/>
				<stop  offset="0.25" style="stop-color:#F2A31F"/>
				<stop  offset="0.5" style="stop-color:#FEF492"/>
				<stop  offset="0.75" style="stop-color:#F2A31F"/>
				<stop  offset="1" style="stop-color:#793A19"/>
			</linearGradient>
			<path class="st2" d="M77.8,33v0.9H64.2V33h1.1c1.3,0,2.3-0.4,2.9-1.2c0.4-0.5,0.6-1.8,0.6-3.8V6.6c0-1.7-0.1-2.8-0.3-3.3
				c-0.2-0.4-0.5-0.8-1-1c-0.7-0.4-1.4-0.6-2.2-0.6h-1.1V0.8h13.6v0.9h-1.1c-1.3,0-2.2,0.4-2.8,1.2c-0.4,0.5-0.6,1.8-0.6,3.8V28
				c0,1.7,0.1,2.8,0.3,3.3c0.2,0.4,0.5,0.8,1,1c0.7,0.4,1.4,0.6,2.1,0.6H77.8z"/>
			
				<linearGradient id="SVGID_4_" gradientUnits="userSpaceOnUse" x1="260.0077" y1="134.8942" x2="260.0077" y2="100.2506" gradientTransform="matrix(1 0 0 1 -13.5521 -100.2506)">
				<stop  offset="0" style="stop-color:#793A19"/>
				<stop  offset="4.196086e-02" style="stop-color:#81411B"/>
				<stop  offset="0.1069" style="stop-color:#98551F"/>
				<stop  offset="0.1862" style="stop-color:#C17922"/>
				<stop  offset="0.25" style="stop-color:#F2A31F"/>
				<stop  offset="0.5" style="stop-color:#FEF492"/>
				<stop  offset="0.75" style="stop-color:#F2A31F"/>
				<stop  offset="1" style="stop-color:#793A19"/>
			</linearGradient>
			<path class="st3" d="M88.8,18.4V28c0,2.1,0.2,3.4,0.7,3.9c0.6,0.7,1.5,1.1,2.7,1.1h1.2v0.9H79.8V33H81c1.3,0,2.3-0.5,2.9-1.4
				c0.3-0.5,0.5-1.7,0.5-3.6V6.6c0-2.1-0.2-3.4-0.6-3.9C83.1,2,82.2,1.7,81,1.7h-1.2V0.8h11.6c2.8,0,5.1,0.3,6.7,0.9
				c1.6,0.6,3,1.6,4.1,3.1c1.1,1.4,1.7,3.2,1.7,5.2c0,2.7-0.9,4.9-2.6,6.6c-1.7,1.7-4.1,2.5-7.2,2.5c-0.8,0-1.6-0.1-2.5-0.2
				C90.8,18.8,89.8,18.6,88.8,18.4z M88.8,17c0.8,0.2,1.6,0.3,2.2,0.4c0.6,0.1,1.2,0.1,1.6,0.1c1.6,0,3-0.7,4.2-2
				c1.2-1.3,1.8-3,1.8-5.1c0-1.4-0.3-2.8-0.8-4c-0.6-1.2-1.4-2.1-2.4-2.8c-1-0.6-2.2-0.9-3.5-0.9c-0.8,0-1.8,0.2-3.1,0.5V17z"/>
			
				<linearGradient id="SVGID_5_" gradientUnits="userSpaceOnUse" x1="260.0077" y1="134.8942" x2="260.0077" y2="100.2506" gradientTransform="matrix(1 0 0 1 -13.5521 -100.2506)">
				<stop  offset="0" style="stop-color:#793A19"/>
				<stop  offset="4.196086e-02" style="stop-color:#81411B"/>
				<stop  offset="0.1069" style="stop-color:#98551F"/>
				<stop  offset="0.1862" style="stop-color:#C17922"/>
				<stop  offset="0.25" style="stop-color:#F2A31F"/>
				<stop  offset="0.5" style="stop-color:#FEF492"/>
				<stop  offset="0.75" style="stop-color:#F2A31F"/>
				<stop  offset="1" style="stop-color:#793A19"/>
			</linearGradient>
			<path class="st4" d="M144.8,0l0.7,11.3h-0.7c-1-3.4-2.4-5.8-4.1-7.3c-1.8-1.5-4-2.2-6.5-2.2c-2.1,0-4,0.6-5.7,1.7
				c-1.7,1.1-3,2.9-4,5.3s-1.5,5.5-1.5,9.1c0,3,0.5,5.6,1.4,7.8s2.3,3.9,4.2,5.1c1.9,1.2,4,1.8,6.3,1.8c2.1,0,3.9-0.5,5.5-1.4
				c1.6-0.9,3.3-2.7,5.2-5.5l0.7,0.5c-1.6,2.9-3.5,5.1-5.6,6.5s-4.6,2.1-7.6,2.1c-5.3,0-9.3-2-12.2-6.1c-2.2-3-3.2-6.6-3.2-10.7
				c0-3.3,0.7-6.3,2.1-9.1c1.4-2.8,3.4-4.9,5.9-6.4c2.5-1.5,5.2-2.3,8.2-2.3c2.3,0,4.6,0.6,6.8,1.8c0.7,0.4,1.1,0.5,1.4,0.5
				c0.4,0,0.8-0.2,1.1-0.5c0.4-0.4,0.7-1,0.9-1.8H144.8z"/>
			
				<linearGradient id="SVGID_6_" gradientUnits="userSpaceOnUse" x1="260.0077" y1="134.8942" x2="260.0077" y2="100.2506" gradientTransform="matrix(1 0 0 1 -13.5521 -100.2506)">
				<stop  offset="0" style="stop-color:#793A19"/>
				<stop  offset="4.196086e-02" style="stop-color:#81411B"/>
				<stop  offset="0.1069" style="stop-color:#98551F"/>
				<stop  offset="0.1862" style="stop-color:#C17922"/>
				<stop  offset="0.25" style="stop-color:#F2A31F"/>
				<stop  offset="0.5" style="stop-color:#FEF492"/>
				<stop  offset="0.75" style="stop-color:#F2A31F"/>
				<stop  offset="1" style="stop-color:#793A19"/>
			</linearGradient>
			<path class="st5" d="M175.4,24.7l0.8,0.2l-2.7,9h-24.6V33h1.2c1.3,0,2.3-0.5,2.9-1.4c0.3-0.5,0.5-1.7,0.5-3.6V6.6
				c0-2.1-0.2-3.4-0.7-3.9c-0.6-0.7-1.5-1.1-2.7-1.1h-1.2V0.8h14.4v0.9c-1.7,0-2.9,0.1-3.5,0.5s-1.1,0.8-1.4,1.3
				c-0.2,0.5-0.4,1.8-0.4,3.7V28c0,1.4,0.1,2.3,0.4,2.8c0.2,0.3,0.5,0.6,0.9,0.8c0.4,0.2,1.6,0.2,3.7,0.2h2.3c2.4,0,4.1-0.2,5.1-0.6
				c1-0.4,1.9-1,2.7-2C173.7,28.3,174.6,26.8,175.4,24.7z"/>
			
				<linearGradient id="SVGID_7_" gradientUnits="userSpaceOnUse" x1="260.0077" y1="134.8942" x2="260.0077" y2="100.2506" gradientTransform="matrix(1 0 0 1 -13.5521 -100.2506)">
				<stop  offset="0" style="stop-color:#793A19"/>
				<stop  offset="4.196086e-02" style="stop-color:#81411B"/>
				<stop  offset="0.1069" style="stop-color:#98551F"/>
				<stop  offset="0.1862" style="stop-color:#C17922"/>
				<stop  offset="0.25" style="stop-color:#F2A31F"/>
				<stop  offset="0.5" style="stop-color:#FEF492"/>
				<stop  offset="0.75" style="stop-color:#F2A31F"/>
				<stop  offset="1" style="stop-color:#793A19"/>
			</linearGradient>
			<path class="st6" d="M200.1,1.7V0.8h11.2v0.9h-1.2c-1.2,0-2.2,0.5-2.9,1.6c-0.3,0.5-0.5,1.7-0.5,3.5v13.4c0,3.3-0.3,5.9-0.9,7.7
				c-0.6,1.8-1.9,3.4-3.7,4.7c-1.9,1.3-4.4,2-7.6,2c-3.5,0-6.1-0.6-7.9-1.9c-1.8-1.3-3.1-2.9-3.8-5.1c-0.5-1.4-0.7-4.2-0.7-8.2V6.6
				c0-2-0.3-3.4-0.8-4c-0.5-0.6-1.4-1-2.6-1h-1.2V0.8h13.7v0.9h-1.2c-1.3,0-2.2,0.4-2.8,1.3c-0.4,0.6-0.6,1.8-0.6,3.7V21
				c0,1.3,0.1,2.8,0.3,4.4c0.2,1.7,0.6,3,1.2,3.9c0.6,0.9,1.4,1.7,2.6,2.3c1.1,0.6,2.5,0.9,4.1,0.9c2.1,0,3.9-0.5,5.6-1.4
				c1.6-0.9,2.8-2.2,3.4-3.6c0.6-1.5,0.9-4,0.9-7.5V6.6c0-2.1-0.2-3.4-0.7-3.9c-0.6-0.7-1.5-1.1-2.7-1.1H200.1z"/>
			
				<linearGradient id="SVGID_8_" gradientUnits="userSpaceOnUse" x1="260.0077" y1="134.8942" x2="260.0077" y2="100.2506" gradientTransform="matrix(1 0 0 1 -13.5521 -100.2506)">
				<stop  offset="0" style="stop-color:#793A19"/>
				<stop  offset="4.196086e-02" style="stop-color:#81411B"/>
				<stop  offset="0.1069" style="stop-color:#98551F"/>
				<stop  offset="0.1862" style="stop-color:#C17922"/>
				<stop  offset="0.25" style="stop-color:#F2A31F"/>
				<stop  offset="0.5" style="stop-color:#FEF492"/>
				<stop  offset="0.75" style="stop-color:#F2A31F"/>
				<stop  offset="1" style="stop-color:#793A19"/>
			</linearGradient>
			<path class="st7" d="M234,17c2.2,0.5,3.8,1.3,4.9,2.3c1.5,1.5,2.3,3.3,2.3,5.5c0,1.6-0.5,3.2-1.5,4.7c-1,1.5-2.4,2.6-4.1,3.3
				c-1.7,0.7-4.4,1-8,1h-15V33h1.2c1.3,0,2.3-0.4,2.9-1.3c0.4-0.6,0.5-1.8,0.5-3.6V6.6c0-2.1-0.2-3.3-0.7-3.9
				c-0.6-0.7-1.5-1.1-2.7-1.1h-1.2V0.8h13.7c2.6,0,4.6,0.2,6.2,0.6c2.3,0.6,4.1,1.6,5.4,3.1c1.2,1.5,1.9,3.2,1.9,5.1
				c0,1.7-0.5,3.1-1.5,4.5C237.3,15.4,235.9,16.3,234,17z M221.7,15.6c0.6,0.1,1.2,0.2,2,0.3c0.7,0.1,1.6,0.1,2.4,0.1
				c2.3,0,4-0.3,5.1-0.8c1.1-0.5,2-1.3,2.6-2.4c0.6-1.1,0.9-2.2,0.9-3.5c0-1.9-0.8-3.6-2.3-5c-1.5-1.4-3.7-2.1-6.6-2.1
				c-1.6,0-3,0.2-4.2,0.5V15.6z M221.7,31.5c1.8,0.4,3.6,0.7,5.4,0.7c2.8,0,5-0.7,6.5-2c1.5-1.3,2.2-3,2.2-4.9c0-1.3-0.3-2.5-1-3.7
				c-0.7-1.2-1.8-2.1-3.3-2.8s-3.4-1-5.6-1c-1,0-1.8,0-2.5,0c-0.7,0-1.2,0.1-1.7,0.2V31.5z"/>
			
				<linearGradient id="SVGID_9_" gradientUnits="userSpaceOnUse" x1="260.0077" y1="134.8942" x2="260.0077" y2="100.2506" gradientTransform="matrix(1 0 0 1 -13.5521 -100.2506)">
				<stop  offset="0" style="stop-color:#793A19"/>
				<stop  offset="4.196086e-02" style="stop-color:#81411B"/>
				<stop  offset="0.1069" style="stop-color:#98551F"/>
				<stop  offset="0.1862" style="stop-color:#C17922"/>
				<stop  offset="0.25" style="stop-color:#F2A31F"/>
				<stop  offset="0.5" style="stop-color:#FEF492"/>
				<stop  offset="0.75" style="stop-color:#F2A31F"/>
				<stop  offset="1" style="stop-color:#793A19"/>
			</linearGradient>
			<path class="st8" d="M275.4,33.9L263.2,6v22.1c0,2,0.2,3.3,0.6,3.8c0.6,0.7,1.5,1,2.7,1h1.1v0.9h-11.1V33h1.1
				c1.3,0,2.3-0.4,2.9-1.3c0.3-0.5,0.5-1.7,0.5-3.6V6.5c0-1.5-0.2-2.5-0.5-3.2c-0.2-0.5-0.6-0.9-1.2-1.2c-0.6-0.3-1.5-0.5-2.8-0.5
				V0.8h9l11.5,25.9l11.3-25.9h9v0.9h-1.1c-1.4,0-2.3,0.4-2.9,1.3c-0.3,0.5-0.5,1.7-0.5,3.6v21.6c0,2,0.2,3.3,0.7,3.8
				c0.6,0.7,1.5,1,2.7,1h1.1v0.9H284V33h1.1c1.4,0,2.3-0.4,2.9-1.3c0.3-0.5,0.5-1.7,0.5-3.6V6l-12.2,27.9H275.4z"/>
			
				<linearGradient id="SVGID_10_" gradientUnits="userSpaceOnUse" x1="260.0077" y1="134.8942" x2="260.0077" y2="100.2506" gradientTransform="matrix(1 0 0 1 -13.5521 -100.2506)">
				<stop  offset="0" style="stop-color:#793A19"/>
				<stop  offset="4.196086e-02" style="stop-color:#81411B"/>
				<stop  offset="0.1069" style="stop-color:#98551F"/>
				<stop  offset="0.1862" style="stop-color:#C17922"/>
				<stop  offset="0.25" style="stop-color:#F2A31F"/>
				<stop  offset="0.5" style="stop-color:#FEF492"/>
				<stop  offset="0.75" style="stop-color:#F2A31F"/>
				<stop  offset="1" style="stop-color:#793A19"/>
			</linearGradient>
			<path class="st9" d="M308.5,2.6v13.1h7c1.8,0,3-0.3,3.6-0.9c0.8-0.7,1.3-2.1,1.4-4h0.9v11.5h-0.9c-0.2-1.6-0.4-2.6-0.7-3.1
				c-0.3-0.6-0.7-1-1.4-1.3c-0.6-0.3-1.6-0.5-3-0.5h-7v10.9c0,1.5,0.1,2.4,0.2,2.7c0.1,0.3,0.3,0.6,0.7,0.8c0.3,0.2,0.9,0.3,1.8,0.3
				h5.4c1.8,0,3.1-0.1,3.9-0.4c0.8-0.3,1.6-0.8,2.3-1.5c1-1,2-2.5,3-4.6h0.9l-2.7,8.3h-24.5V33h1.1c0.8,0,1.5-0.2,2.1-0.6
				c0.5-0.3,0.8-0.7,1-1.2c0.2-0.5,0.3-1.6,0.3-3.2V6.5c0-2.1-0.2-3.4-0.6-3.9c-0.6-0.7-1.5-1-2.8-1h-1.1V0.8h24.5l0.4,7.3h-0.9
				c-0.3-1.7-0.7-2.9-1.1-3.6c-0.4-0.7-1-1.1-1.8-1.5c-0.6-0.2-1.7-0.4-3.3-0.4H308.5z"/>
			
				<linearGradient id="SVGID_11_" gradientUnits="userSpaceOnUse" x1="260.0077" y1="134.8942" x2="260.0077" y2="100.2506" gradientTransform="matrix(1 0 0 1 -13.5521 -100.2506)">
				<stop  offset="0" style="stop-color:#793A19"/>
				<stop  offset="4.196086e-02" style="stop-color:#81411B"/>
				<stop  offset="0.1069" style="stop-color:#98551F"/>
				<stop  offset="0.1862" style="stop-color:#C17922"/>
				<stop  offset="0.25" style="stop-color:#F2A31F"/>
				<stop  offset="0.5" style="stop-color:#FEF492"/>
				<stop  offset="0.75" style="stop-color:#F2A31F"/>
				<stop  offset="1" style="stop-color:#793A19"/>
			</linearGradient>
			<path class="st10" d="M347.4,33.9L335.1,6v22.1c0,2,0.2,3.3,0.6,3.8c0.6,0.7,1.5,1,2.7,1h1.1v0.9h-11.1V33h1.1
				c1.3,0,2.3-0.4,2.9-1.3c0.3-0.5,0.5-1.7,0.5-3.6V6.5c0-1.5-0.2-2.5-0.5-3.2c-0.2-0.5-0.6-0.9-1.2-1.2c-0.6-0.3-1.5-0.5-2.8-0.5
				V0.8h9l11.5,25.9l11.3-25.9h9v0.9h-1.1c-1.4,0-2.3,0.4-2.9,1.3c-0.3,0.5-0.5,1.7-0.5,3.6v21.6c0,2,0.2,3.3,0.7,3.8
				c0.6,0.7,1.5,1,2.7,1h1.1v0.9h-13.5V33h1.1c1.4,0,2.3-0.4,2.9-1.3c0.3-0.5,0.5-1.7,0.5-3.6V6l-12.2,27.9H347.4z"/>
			
				<linearGradient id="SVGID_12_" gradientUnits="userSpaceOnUse" x1="260.0077" y1="134.8942" x2="260.0077" y2="100.2506" gradientTransform="matrix(1 0 0 1 -13.5521 -100.2506)">
				<stop  offset="0" style="stop-color:#793A19"/>
				<stop  offset="4.196086e-02" style="stop-color:#81411B"/>
				<stop  offset="0.1069" style="stop-color:#98551F"/>
				<stop  offset="0.1862" style="stop-color:#C17922"/>
				<stop  offset="0.25" style="stop-color:#F2A31F"/>
				<stop  offset="0.5" style="stop-color:#FEF492"/>
				<stop  offset="0.75" style="stop-color:#F2A31F"/>
				<stop  offset="1" style="stop-color:#793A19"/>
			</linearGradient>
			<path class="st11" d="M392.6,17c2.2,0.5,3.8,1.3,4.9,2.3c1.5,1.5,2.3,3.3,2.3,5.5c0,1.6-0.5,3.2-1.5,4.7c-1,1.5-2.4,2.6-4.1,3.3
				c-1.7,0.7-4.4,1-8,1h-15V33h1.2c1.3,0,2.3-0.4,2.9-1.3c0.4-0.6,0.5-1.8,0.5-3.6V6.6c0-2.1-0.2-3.3-0.7-3.9
				c-0.6-0.7-1.5-1.1-2.7-1.1h-1.2V0.8h13.7c2.6,0,4.6,0.2,6.2,0.6c2.3,0.6,4.1,1.6,5.4,3.1c1.2,1.5,1.9,3.2,1.9,5.1
				c0,1.7-0.5,3.1-1.5,4.5C395.9,15.4,394.5,16.3,392.6,17z M380.3,15.6c0.6,0.1,1.2,0.2,2,0.3c0.7,0.1,1.6,0.1,2.4,0.1
				c2.3,0,4-0.3,5.1-0.8c1.1-0.5,2-1.3,2.6-2.4c0.6-1.1,0.9-2.2,0.9-3.5c0-1.9-0.8-3.6-2.3-5c-1.5-1.4-3.7-2.1-6.6-2.1
				c-1.6,0-3,0.2-4.2,0.5V15.6z M380.3,31.5c1.8,0.4,3.6,0.7,5.4,0.7c2.8,0,5-0.7,6.5-2c1.5-1.3,2.2-3,2.2-4.9c0-1.3-0.3-2.5-1-3.7
				c-0.7-1.2-1.8-2.1-3.3-2.8s-3.4-1-5.6-1c-1,0-1.8,0-2.5,0c-0.7,0-1.2,0.1-1.7,0.2V31.5z"/>
			
				<linearGradient id="SVGID_13_" gradientUnits="userSpaceOnUse" x1="260.0077" y1="134.8942" x2="260.0077" y2="100.2506" gradientTransform="matrix(1 0 0 1 -13.5521 -100.2506)">
				<stop  offset="0" style="stop-color:#793A19"/>
				<stop  offset="4.196086e-02" style="stop-color:#81411B"/>
				<stop  offset="0.1069" style="stop-color:#98551F"/>
				<stop  offset="0.1862" style="stop-color:#C17922"/>
				<stop  offset="0.25" style="stop-color:#F2A31F"/>
				<stop  offset="0.5" style="stop-color:#FEF492"/>
				<stop  offset="0.75" style="stop-color:#F2A31F"/>
				<stop  offset="1" style="stop-color:#793A19"/>
			</linearGradient>
			<path class="st12" d="M412.4,2.6v13.1h7c1.8,0,3-0.3,3.6-0.9c0.8-0.7,1.3-2.1,1.4-4h0.9v11.5h-0.9c-0.2-1.6-0.4-2.6-0.7-3.1
				c-0.3-0.6-0.7-1-1.4-1.3c-0.6-0.3-1.6-0.5-3-0.5h-7v10.9c0,1.5,0.1,2.4,0.2,2.7c0.1,0.3,0.3,0.6,0.7,0.8c0.3,0.2,0.9,0.3,1.8,0.3
				h5.4c1.8,0,3.1-0.1,3.9-0.4c0.8-0.3,1.6-0.8,2.3-1.5c1-1,2-2.5,3-4.6h0.9l-2.7,8.3h-24.5V33h1.1c0.8,0,1.5-0.2,2.1-0.6
				c0.5-0.3,0.8-0.7,1-1.2c0.2-0.5,0.3-1.6,0.3-3.2V6.5c0-2.1-0.2-3.4-0.6-3.9c-0.6-0.7-1.5-1-2.8-1h-1.1V0.8h24.5l0.4,7.3h-0.9
				c-0.3-1.7-0.7-2.9-1.1-3.6c-0.4-0.7-1-1.1-1.8-1.5c-0.6-0.2-1.7-0.4-3.3-0.4H412.4z"/>
			
				<linearGradient id="SVGID_14_" gradientUnits="userSpaceOnUse" x1="260.0077" y1="134.8942" x2="260.0077" y2="100.2506" gradientTransform="matrix(1 0 0 1 -13.5521 -100.2506)">
				<stop  offset="0" style="stop-color:#793A19"/>
				<stop  offset="4.196086e-02" style="stop-color:#81411B"/>
				<stop  offset="0.1069" style="stop-color:#98551F"/>
				<stop  offset="0.1862" style="stop-color:#C17922"/>
				<stop  offset="0.25" style="stop-color:#F2A31F"/>
				<stop  offset="0.5" style="stop-color:#FEF492"/>
				<stop  offset="0.75" style="stop-color:#F2A31F"/>
				<stop  offset="1" style="stop-color:#793A19"/>
			</linearGradient>
			<path class="st13" d="M464.1,33.9h-8.5l-10.8-15.5c-0.8,0-1.4,0-1.9,0c-0.2,0-0.4,0-0.7,0c-0.2,0-0.5,0-0.7,0V28
				c0,2.1,0.2,3.4,0.7,3.9c0.6,0.7,1.5,1.1,2.7,1.1h1.2v0.9h-13.6V33h1.2c1.3,0,2.3-0.5,2.9-1.4c0.3-0.5,0.5-1.7,0.5-3.6V6.6
				c0-2.1-0.2-3.4-0.7-3.9c-0.6-0.7-1.5-1.1-2.7-1.1h-1.2V0.8h11.6c3.4,0,5.9,0.3,7.5,0.8c1.6,0.5,3,1.5,4.1,2.8
				c1.1,1.4,1.7,3,1.7,4.9c0,2-0.6,3.8-1.9,5.3c-1.3,1.5-3.2,2.6-5.9,3.2l6.6,9.5c1.5,2.2,2.8,3.6,3.9,4.3c1.1,0.7,2.5,1.2,4.2,1.4
				V33.9z M441.6,16.8c0.3,0,0.6,0,0.8,0c0.2,0,0.4,0,0.5,0c3,0,5.3-0.7,6.9-2.1s2.3-3.1,2.3-5.2c0-2.1-0.6-3.7-1.9-5
				c-1.2-1.3-2.9-1.9-4.9-1.9c-0.9,0-2.1,0.2-3.7,0.5V16.8z"/>
		</g>
	</g>
</g>
</svg>
