
<svg version="1.1" id="Layer_1" xmlns="http://www.w3.org/2000/svg" xmlns:xlink="http://www.w3.org/1999/xlink" x="0px" y="0px"
	 viewBox="0 0 288.3 60" enable-background="new 0 0 288.3 60" xml:space="preserve">
<g>
	<path fill="#F7C25D" d="M30,3.9C15.6,3.9,3.9,15.6,3.9,30c0,14.4,11.7,26.1,26.1,26.1c14.4,0,26.1-11.7,26.1-26.1
		C56.1,15.6,44.4,3.9,30,3.9z M45.4,18.9c-4.2,1.4-8.2,3.7-10.2,7.7c0.8,0.1,1.6,0.3,2.2,0.6c6.7,2.9,9.4,9.7,6.6,16.3
		c-2.3,5.5-6.9,3.3-9.3-0.4c-1.7-2.6-2.1-6.5-2-9.6c0-1,0.1-2,0.3-2.9c0,0,0,0,0,0c-0.4,3-1.5,5.9-3.2,8.3c-2.2,3.1-8.6,10.2-13.5,8
		c-2.3-1-2.8-3-2.7-5.4c0.3-4.3,3.1-8,6.7-10.2c2.9-1.8,7.7-4.2,12.1-4.8c-0.1-1.9-0.8-3.7-2.1-5.5c-2.7-3.5-8-6.4-12.5-3.9
		c-9.5,5.5,5.5,10.2,5.9,5.4c0.2-2.6,0.9-0.3,0.8,1c-0.6,7.6-10.7,5-10.7-1.7c0-2.6,0.4-6.3,2.9-7.7c4.1-2.3,9.8-1.8,12.8,2.1
		c2.2,2.9,3.4,6.5,3.6,10.2c0.3,0,0.5,0,0.8,0c1.6-5.3,5.2-9.3,11.5-11.3C45.7,15.1,46.3,18.6,45.4,18.9z M30,0C13.4,0,0,13.4,0,30
		c0,16.6,13.4,30,30,30c16.6,0,30-13.4,30-30C60,13.4,46.6,0,30,0z M30,57.4C14.9,57.4,2.6,45.1,2.6,30C2.6,14.9,14.9,2.6,30,2.6
		c15.1,0,27.4,12.3,27.4,27.4C57.4,45.1,45.1,57.4,30,57.4z M16.3,43.3c1.9,0.1,4-0.1,5.7-1c4-2.1,8.4-6.5,9.9-11.5
		c-4.5,0.8-9.2,2.1-12.8,5.2C18.9,36.3,12.1,43,16.3,43.3z M36.1,41.2c1.1,1.3,2.7,3,4.6,1.8c8.3-5.1-0.3-12-6.7-12.4
		C33.3,34.3,33.6,38.2,36.1,41.2z"/>
	<g>
		<path fill="#F7C25D" d="M71.5,15.5c0-5.1,0-6-0.1-7c-0.1-1.1-0.3-1.6-1.4-1.8c-0.3-0.1-0.8-0.1-1.1-0.1c-0.1,0-0.3-0.1-0.3-0.2
			c0-0.2,0.2-0.3,0.5-0.3c1.5,0,3.5,0.1,3.7,0.1c0.4,0,2.4-0.1,4.4-0.1c3.2,0,9.1-0.3,13,3.7c1.6,1.7,3.1,4.4,3.1,8.2
			c0,4.1-1.7,7.2-3.5,9.1c-1.4,1.5-4.3,3.7-9.8,3.7c-1.4,0-3.1-0.1-4.5-0.2c-1.4-0.1-2.5-0.2-2.7-0.2c-0.1,0-0.6,0-1.3,0
			c-0.6,0-1.4,0.1-1.9,0.1c-0.4,0-0.5-0.1-0.5-0.3c0-0.1,0.1-0.2,0.3-0.2c0.3,0,0.7-0.1,1-0.1c0.6-0.1,0.8-0.8,0.9-1.8
			c0.2-1.4,0.2-3.9,0.2-7V15.5z M74.2,19c0,3.4,0,6.4,0.1,7c0,0.8,0.1,2.1,0.4,2.5c0.4,0.6,1.7,1.3,5.5,1.3c3,0,5.8-1.1,7.7-3
			c1.7-1.7,2.6-4.8,2.6-7.7c0-4.1-1.8-6.8-3.1-8.2c-3-3.2-6.7-3.7-10.6-3.7c-0.6,0-1.8,0.1-2.1,0.2c-0.3,0.1-0.4,0.3-0.4,0.6
			c0,1.1,0,4.4,0,6.9V19z"/>
		<path fill="#F7C25D" d="M99.3,17.7c0-4.3,0-5.1-0.1-5.9c-0.1-0.9-0.2-1.4-1.2-1.5c-0.2,0-0.7-0.1-1-0.1c-0.1,0-0.2-0.1-0.2-0.2
			c0-0.2,0.1-0.2,0.5-0.2c1.3,0,3,0.1,3.3,0.1c0.3,0,2-0.1,2.9-0.1c0.3,0,0.5,0.1,0.5,0.2c0,0.1-0.1,0.2-0.3,0.2
			c-0.2,0-0.4,0-0.7,0.1c-0.7,0.1-0.9,0.6-1,1.5c-0.1,0.9-0.1,1.7-0.1,5.9v3.9c0,4,0.9,5.6,2.1,6.7c1.4,1.3,2.6,1.5,4.2,1.5
			c1.7,0,3.4-0.8,4.4-1.9c1.3-1.6,1.6-3.9,1.6-6.7v-3.5c0-4.3,0-5.1-0.1-5.9c0-0.9-0.2-1.4-1.1-1.5c-0.2,0-0.7-0.1-1-0.1
			c-0.1,0-0.2-0.1-0.2-0.2c0-0.2,0.1-0.2,0.5-0.2c1.3,0,2.9,0.1,3.1,0.1c0.2,0,1.6-0.1,2.4-0.1c0.3,0,0.5,0.1,0.5,0.2
			c0,0.1-0.1,0.2-0.2,0.2c-0.2,0-0.4,0-0.7,0.1c-0.8,0.2-0.9,0.6-1,1.5c-0.1,0.9,0,1.7,0,5.9v2.9c0,3-0.4,6.3-2.7,8.3
			c-2.1,1.8-4.3,2-6,2c-0.9,0-3.9-0.1-5.9-1.9c-1.4-1.3-2.5-3.2-2.5-7.2V17.7z"/>
		<path fill="#F7C25D" d="M124.7,17.7c0-4.3,0-5.1-0.1-5.9c-0.1-0.9-0.2-1.4-1.2-1.5c-0.2,0-0.7-0.1-1-0.1c-0.1,0-0.2-0.1-0.2-0.2
			c0-0.2,0.1-0.2,0.5-0.2c1.3,0,3,0.1,3.2,0.1c0.3,0,2-0.1,2.8-0.1c0.3,0,0.5,0.1,0.5,0.2c0,0.1-0.1,0.2-0.2,0.2
			c-0.2,0-0.4,0-0.7,0.1c-0.7,0.2-0.9,0.6-1,1.5c-0.1,0.9-0.1,1.7-0.1,5.9v1.7h0.1c0.5-0.5,5.5-5.5,6.6-6.6c0.8-0.8,1.6-1.5,1.6-2
			c0-0.4-0.1-0.5-0.4-0.6c-0.2,0-0.3-0.2-0.3-0.3c0-0.1,0.1-0.2,0.3-0.2c0.6,0,1.5,0.1,2.1,0.1c0.2,0,2-0.1,2.8-0.1
			c0.3,0,0.4,0.1,0.4,0.2c0,0.1-0.1,0.2-0.3,0.2c-0.4,0-1,0.2-1.6,0.4c-1.2,0.5-1.7,1.1-3,2.3c-0.7,0.6-5.6,5.3-6.2,6
			c0.7,0.8,6.7,6.7,7.8,7.8c2.4,2.1,2.7,2.5,4.1,3c0.7,0.3,1.6,0.4,1.7,0.4c0.2,0,0.4,0.1,0.4,0.2c0,0.1-0.1,0.2-0.6,0.2h-1.5
			c-0.8,0-1.3,0-2-0.1c-1.5-0.1-2.2-0.7-3.5-1.7c-1.3-1-7.3-7.3-8.7-8.9h-0.1v2.7c0,2.7,0,4.8,0.1,6c0.1,0.8,0.2,1.3,1.1,1.5
			c0.4,0.1,0.8,0.1,1.1,0.1c0.2,0,0.2,0.1,0.2,0.2c0,0.1-0.1,0.2-0.5,0.2c-1.4,0-3.1-0.1-3.3-0.1c-0.2,0-1.9,0.1-2.8,0.1
			c-0.3,0-0.5-0.1-0.5-0.2c0-0.1,0.1-0.2,0.2-0.2c0.3,0,0.6-0.1,0.9-0.1c0.6-0.1,0.6-0.6,0.7-1.5c0.2-1.1,0.2-3.3,0.2-6V17.7z"/>
		<path fill="#F7C25D" d="M149.2,22.6c0,2.7,0,4.8,0.1,6c0.1,0.8,0.2,1.3,1,1.5c0.4,0.1,1,0.1,1.3,0.1c0.2,0,0.2,0.1,0.2,0.2
			c0,0.1-0.1,0.2-0.5,0.2c-1.6,0-3.4-0.1-3.6-0.1c-0.2,0-1.9,0.1-2.8,0.1c-0.3,0-0.5-0.1-0.5-0.2c0-0.1,0.1-0.2,0.2-0.2
			c0.3,0,0.6-0.1,0.9-0.1c0.6-0.1,0.6-0.6,0.7-1.5c0.1-1.1,0.2-3.3,0.2-6v-4.9c0-4.3,0-5.1-0.1-5.9c-0.1-0.9-0.3-1.4-0.9-1.5
			c-0.3-0.1-0.7-0.1-0.9-0.1c-0.1,0-0.2-0.1-0.2-0.2c0-0.2,0.1-0.2,0.5-0.2c0.9,0,2.7,0.1,2.9,0.1c0.1,0,2-0.1,2.9-0.1
			c0.3,0,0.5,0.1,0.5,0.2c0,0.1-0.1,0.2-0.2,0.2c-0.2,0-0.4,0-0.7,0.1c-0.8,0.2-0.9,0.6-1,1.5c0,0.9,0,1.7,0,5.9V22.6z"/>
		<path fill="#F7C25D" d="M167.2,26.6c1.9-4.3,6.2-15.6,6.9-18c0.2-0.5,0.3-0.9,0.3-1.2c0-0.3-0.1-0.6-0.4-0.7
			c-0.4-0.1-0.9-0.1-1.2-0.1c-0.2,0-0.4,0-0.4-0.2c0-0.2,0.2-0.3,0.7-0.3c1.3,0,2.8,0.1,3.2,0.1c0.2,0,1.6-0.1,2.5-0.1
			c0.4,0,0.6,0.1,0.6,0.2c0,0.2-0.1,0.2-0.4,0.2c-0.2,0-0.9,0-1.6,0.4c-0.4,0.3-0.9,0.8-1.8,3c-0.4,0.9-2,4.8-3.6,8.8
			c-2,4.7-3.4,8.2-4.2,9.8c-0.9,1.9-1,2.5-1.4,2.5c-0.4,0-0.6-0.5-1.2-2l-7.9-19.9c-0.7-1.8-1.2-2.2-2.3-2.5c-0.5-0.1-1-0.1-1.2-0.1
			c-0.2,0-0.3-0.1-0.3-0.2c0-0.2,0.3-0.2,0.8-0.2c1.6,0,3.4,0.1,3.8,0.1c0.3,0,1.8-0.1,3-0.1c0.6,0,0.9,0.1,0.9,0.2
			c0,0.2-0.1,0.2-0.3,0.2c-0.4,0-0.9,0-1.2,0.2c-0.4,0.2-0.4,0.4-0.4,0.6c0,0.4,0.4,1.4,0.9,2.7L167.2,26.6z"/>
		<path fill="#F7C25D" d="M183.7,17.7c0-4.3,0-5.1-0.1-5.9c-0.1-0.9-0.2-1.4-1.2-1.5c-0.2,0-0.7-0.1-1-0.1c-0.1,0-0.2-0.1-0.2-0.2
			c0-0.2,0.1-0.2,0.5-0.2c1.3,0,3.1,0.1,3.3,0.1c0.2,0,6.2,0,6.8,0c0.5,0,1.1-0.1,1.3-0.2c0.1,0,0.3-0.1,0.4-0.1
			c0.1,0,0.1,0.1,0.1,0.3c0,0.2-0.2,0.5-0.2,1.3c0,0.3-0.1,1.5-0.2,1.8c0,0.1-0.1,0.3-0.3,0.3c-0.2,0-0.2-0.1-0.2-0.4
			c0-0.2,0-0.6-0.2-1c-0.2-0.5-0.5-0.6-2-0.8c-0.5-0.1-3.8-0.1-4.1-0.1c-0.1,0-0.2,0.1-0.2,0.3v7.5c0,0.2,0,0.3,0.2,0.3
			c0.4,0,4.1,0,4.8-0.1c0.7-0.1,1.1-0.1,1.4-0.4c0.2-0.2,0.3-0.4,0.4-0.4c0.1,0,0.2,0.1,0.2,0.2c0,0.2-0.2,0.6-0.2,1.5
			c-0.1,0.6-0.1,1.6-0.1,1.8c0,0.2-0.1,0.5-0.3,0.5c-0.1,0-0.2-0.1-0.2-0.3c0-0.3,0-0.6-0.1-0.9c-0.1-0.4-0.4-0.7-1.5-0.8
			c-0.8-0.1-3.8-0.1-4.3-0.1c-0.2,0-0.2,0.1-0.2,0.2v2.3c0,0.9,0,4.1,0,4.7c0.1,1.8,0.6,2.2,3.4,2.2c0.7,0,2.1,0,2.9-0.3
			c0.7-0.3,1.1-0.8,1.3-1.9c0.1-0.3,0.1-0.4,0.3-0.4c0.2,0,0.2,0.2,0.2,0.4c0,0.2-0.2,2.1-0.4,2.7c-0.2,0.7-0.5,0.7-1.6,0.7
			c-2.1,0-3.8-0.1-5-0.1c-1.2-0.1-1.9-0.1-2.4-0.1c-0.1,0-0.6,0-1.2,0c-0.6,0-1.2,0.1-1.7,0.1c-0.3,0-0.5-0.1-0.5-0.2
			c0-0.1,0.1-0.2,0.2-0.2c0.3,0,0.6-0.1,0.9-0.1c0.5-0.1,0.6-0.6,0.7-1.5c0.2-1.1,0.2-3.3,0.2-6V17.7z"/>
		<path fill="#F7C25D" d="M203,26.8c0.1,2.3,0.3,2.9,1.1,3.1c0.5,0.1,1.2,0.2,1.4,0.2c0.1,0,0.2,0.1,0.2,0.2c0,0.2-0.2,0.2-0.5,0.2
			c-1.6,0-2.8-0.1-3-0.1c-0.3,0-1.5,0.1-2.8,0.1c-0.3,0-0.5,0-0.5-0.2c0-0.1,0.1-0.2,0.2-0.2c0.2,0,0.7,0,1.2-0.2
			c0.7-0.2,0.8-0.9,0.8-3.4V10.8c0-1.1,0.2-1.4,0.4-1.4c0.3,0,0.8,0.6,1.1,0.8c0.5,0.5,4.6,4.9,9,9.4c2.8,2.9,5.9,6.2,6.7,7.1
			l-0.3-13.8c0-1.8-0.2-2.4-1.1-2.6c-0.5-0.1-1.2-0.1-1.4-0.1c-0.2,0-0.2-0.2-0.2-0.3c0-0.2,0.2-0.2,0.5-0.2c1.3,0,2.7,0.1,3,0.1
			c0.3,0,1.3-0.1,2.4-0.1c0.3,0,0.5,0,0.5,0.2c0,0.1-0.1,0.3-0.3,0.3c-0.1,0-0.4,0-0.7,0.1c-0.9,0.2-1,0.7-1,2.4l-0.1,16.1
			c0,1.8,0,2-0.2,2c-0.3,0-0.6-0.2-2.2-1.7c-0.3-0.3-4.4-4.3-7.4-7.5c-3.3-3.5-6.5-6.8-7.4-7.8L203,26.8z"/>
		<path fill="#F7C25D" d="M233.4,10.3c0.4-0.9,0.5-1.1,0.7-1.1c0.3,0,0.4,0.4,0.7,1c0.5,1.2,5.1,12.5,6.8,16.7c1,2.5,1.8,2.8,2.4,3
			c0.4,0.1,0.8,0.2,1.1,0.2c0.2,0,0.4,0.1,0.4,0.2c0,0.2-0.3,0.2-0.6,0.2c-0.4,0-2.5,0-4.5-0.1c-0.5,0-1,0-1-0.2
			c0-0.1,0.1-0.1,0.2-0.2c0.2-0.1,0.5-0.3,0.3-0.7l-2.6-6.3c-0.1-0.1-0.1-0.2-0.3-0.2h-6.6c-0.1,0-0.2,0.1-0.3,0.2l-1.6,4.4
			c-0.3,0.7-0.4,1.4-0.4,1.8c0,0.6,0.5,0.7,1,0.7h0.3c0.2,0,0.3,0.1,0.3,0.2c0,0.2-0.2,0.2-0.4,0.2c-0.7,0-2.2-0.1-2.6-0.1
			c-0.3,0-1.7,0.1-2.9,0.1c-0.4,0-0.6-0.1-0.6-0.2c0-0.1,0.1-0.2,0.3-0.2c0.2,0,0.6,0,0.8-0.1c1.3-0.2,1.8-1.1,2.4-2.5L233.4,10.3z
			 M236.6,21.8c0.1,0,0.1-0.1,0.1-0.2l-2.8-7.5c-0.2-0.4-0.3-0.4-0.5,0l-2.7,7.5c0,0.1,0,0.2,0.1,0.2H236.6z"/>
		<path fill="#F7C25D" d="M249.6,17.7c0-4.3,0-5.1-0.1-5.9c-0.1-0.9-0.2-1.4-1.2-1.5c-0.2,0-0.7-0.1-1-0.1c-0.1,0-0.2-0.1-0.2-0.2
			c0-0.2,0.1-0.2,0.5-0.2c1.3,0,3.1,0.1,3.3,0.1c0.6,0,2.8-0.1,4-0.1c3.7,0,5,1.1,5.4,1.6c0.6,0.6,1.4,1.8,1.4,3.3
			c0,4-3,6.6-7.4,6.6c-0.2,0-0.6,0-0.8,0c-0.1,0-0.3-0.1-0.3-0.3c0-0.2,0.2-0.3,0.7-0.3c3.1,0,5.3-1.9,5.3-4.4
			c0-0.9-0.1-2.7-1.6-4.2c-1.5-1.5-3.2-1.3-3.9-1.3c-0.5,0-1.3,0.1-1.6,0.2c-0.2,0-0.2,0.2-0.2,0.5v11.2c0,2.7,0,4.8,0.1,6
			c0.1,0.8,0.3,1.3,1.1,1.5c0.4,0.1,1,0.1,1.3,0.1c0.2,0,0.2,0.1,0.2,0.2c0,0.1-0.1,0.2-0.5,0.2c-1.6,0-3.4-0.1-3.6-0.1
			c-0.1,0-1.9,0.1-2.8,0.1c-0.3,0-0.5-0.1-0.5-0.2c0-0.1,0.1-0.2,0.2-0.2c0.3,0,0.6-0.1,0.9-0.1c0.6-0.1,0.6-0.6,0.7-1.5
			c0.2-1.1,0.2-3.3,0.2-6V17.7z"/>
		<path fill="#F7C25D" d="M276.9,9.4c6.4,0,11.3,3.9,11.3,10.3c0,6.2-4.6,11.2-11.4,11.2c-7.8,0-11.1-5.9-11.1-10.8
			C265.6,15.7,269,9.4,276.9,9.4z M277.5,29.8c2.6,0,7.7-1.4,7.7-9.3c0-6.6-4-10.1-8.5-10.1c-4.8,0-8.2,3-8.2,9
			C268.5,25.8,272.4,29.8,277.5,29.8z"/>
	</g>
	<g>
		<path fill="#F7C25D" d="M79.7,39.9l0.3,4.1h-0.3c-0.4-1.2-0.9-2.1-1.6-2.7c-0.7-0.5-1.5-0.8-2.5-0.8c-0.8,0-1.5,0.2-2.2,0.6
			c-0.6,0.4-1.2,1.1-1.5,1.9c-0.4,0.9-0.6,2-0.6,3.3c0,1.1,0.2,2,0.5,2.8c0.4,0.8,0.9,1.4,1.6,1.8s1.5,0.6,2.4,0.6
			c0.8,0,1.5-0.2,2.1-0.5c0.6-0.3,1.3-1,2-2l0.3,0.2c-0.6,1.1-1.3,1.9-2.1,2.4c-0.8,0.5-1.8,0.7-2.9,0.7c-2,0-3.5-0.7-4.6-2.2
			c-0.8-1.1-1.2-2.4-1.2-3.9c0-1.2,0.3-2.3,0.8-3.3c0.5-1,1.3-1.8,2.2-2.3c0.9-0.6,2-0.8,3.1-0.8c0.9,0,1.7,0.2,2.6,0.6
			c0.2,0.1,0.4,0.2,0.5,0.2c0.2,0,0.3-0.1,0.4-0.2c0.2-0.2,0.3-0.4,0.3-0.7H79.7z"/>
		<path fill="#F7C25D" d="M85.4,43.9c1.2,0,2.2,0.5,3,1.4c0.6,0.8,1,1.7,1,2.8c0,0.7-0.2,1.5-0.5,2.2c-0.4,0.7-0.8,1.3-1.4,1.7
			c-0.6,0.4-1.3,0.6-2.1,0.6c-1.2,0-2.2-0.5-2.9-1.5c-0.6-0.8-0.9-1.8-0.9-2.8c0-0.7,0.2-1.5,0.6-2.2c0.4-0.7,0.9-1.3,1.5-1.6
			S84.7,43.9,85.4,43.9z M85.1,44.4c-0.3,0-0.6,0.1-0.9,0.3s-0.6,0.5-0.8,1c-0.2,0.5-0.3,1.1-0.3,1.8c0,1.2,0.2,2.2,0.7,3.1
			c0.5,0.9,1.1,1.3,1.9,1.3c0.6,0,1.1-0.2,1.4-0.7s0.6-1.3,0.6-2.4c0-1.4-0.3-2.6-0.9-3.4C86.3,44.7,85.8,44.4,85.1,44.4z"/>
		<path fill="#F7C25D" d="M93.3,39.6v10.8c0,0.5,0,0.8,0.1,1c0.1,0.2,0.2,0.3,0.3,0.4c0.2,0.1,0.4,0.1,0.9,0.1v0.3h-4v-0.3
			c0.4,0,0.6,0,0.8-0.1c0.1-0.1,0.2-0.2,0.3-0.4s0.1-0.5,0.1-1V43c0-0.9,0-1.5-0.1-1.7s-0.1-0.4-0.2-0.4c-0.1-0.1-0.2-0.1-0.4-0.1
			c-0.2,0-0.3,0-0.6,0.1l-0.2-0.3l2.4-1H93.3z"/>
		<path fill="#F7C25D" d="M99.6,43.9c1.2,0,2.2,0.5,3,1.4c0.6,0.8,1,1.7,1,2.8c0,0.7-0.2,1.5-0.5,2.2c-0.4,0.7-0.8,1.3-1.4,1.7
			c-0.6,0.4-1.3,0.6-2.1,0.6c-1.2,0-2.2-0.5-2.9-1.5c-0.6-0.8-0.9-1.8-0.9-2.8c0-0.7,0.2-1.5,0.6-2.2c0.4-0.7,0.9-1.3,1.5-1.6
			S98.9,43.9,99.6,43.9z M99.3,44.4c-0.3,0-0.6,0.1-0.9,0.3s-0.6,0.5-0.8,1c-0.2,0.5-0.3,1.1-0.3,1.8c0,1.2,0.2,2.2,0.7,3.1
			c0.5,0.9,1.1,1.3,1.9,1.3c0.6,0,1.1-0.2,1.4-0.7s0.6-1.3,0.6-2.4c0-1.4-0.3-2.6-0.9-3.4C100.5,44.7,100,44.4,99.3,44.4z"/>
		<path fill="#F7C25D" d="M111.9,44.1V49c0,0.9,0,1.5,0.1,1.7c0,0.2,0.1,0.4,0.2,0.4c0.1,0.1,0.2,0.1,0.3,0.1c0.2,0,0.4-0.1,0.6-0.2
			l0.1,0.3l-2.4,1h-0.4v-1.7c-0.7,0.8-1.2,1.2-1.6,1.4c-0.4,0.2-0.8,0.3-1.2,0.3c-0.5,0-0.9-0.1-1.2-0.4c-0.3-0.3-0.6-0.6-0.7-1
			s-0.2-1-0.2-1.8v-3.6c0-0.4,0-0.7-0.1-0.8c-0.1-0.1-0.2-0.3-0.4-0.3s-0.5-0.1-0.9-0.1v-0.3h2.9v5.5c0,0.8,0.1,1.3,0.4,1.5
			c0.3,0.2,0.6,0.4,1,0.4c0.3,0,0.5-0.1,0.9-0.2c0.3-0.2,0.7-0.5,1.2-0.9v-4.6c0-0.5-0.1-0.8-0.3-0.9c-0.2-0.2-0.5-0.3-1.1-0.3v-0.3
			H111.9z"/>
		<path fill="#F7C25D" d="M116.2,43.9v1.8c0.7-1.2,1.4-1.8,2.1-1.8c0.3,0,0.6,0.1,0.8,0.3s0.3,0.4,0.3,0.7c0,0.2-0.1,0.4-0.2,0.6
			c-0.2,0.2-0.3,0.2-0.6,0.2c-0.2,0-0.4-0.1-0.7-0.3c-0.3-0.2-0.4-0.3-0.6-0.3c-0.1,0-0.2,0.1-0.3,0.2c-0.3,0.2-0.5,0.6-0.8,1.2v3.9
			c0,0.5,0.1,0.8,0.2,1c0.1,0.2,0.2,0.3,0.4,0.4s0.5,0.2,0.8,0.2v0.3h-4.2v-0.3c0.4,0,0.7-0.1,0.9-0.2c0.1-0.1,0.3-0.2,0.3-0.5
			c0-0.1,0-0.4,0-0.9v-3.2c0-0.9,0-1.5-0.1-1.7c0-0.2-0.1-0.3-0.2-0.4c-0.1-0.1-0.2-0.1-0.4-0.1c-0.2,0-0.4,0-0.6,0.1l-0.1-0.3
			l2.5-1H116.2z"/>
		<path fill="#F7C25D" d="M121.3,47.2c0,1.2,0.3,2.2,0.9,2.8c0.6,0.7,1.3,1,2.1,1c0.5,0,1-0.1,1.4-0.4c0.4-0.3,0.7-0.8,1-1.5
			l0.3,0.2c-0.1,0.8-0.5,1.6-1.1,2.2c-0.6,0.7-1.4,1-2.3,1c-1,0-1.8-0.4-2.5-1.1s-1-1.8-1-3.1c0-1.4,0.4-2.5,1.1-3.3
			c0.7-0.8,1.6-1.2,2.7-1.2c0.9,0,1.7,0.3,2.3,0.9c0.6,0.6,0.9,1.4,0.9,2.4H121.3z M121.3,46.7h3.8c0-0.5-0.1-0.9-0.2-1.1
			c-0.1-0.3-0.4-0.6-0.7-0.8c-0.3-0.2-0.6-0.3-0.9-0.3c-0.5,0-0.9,0.2-1.3,0.6C121.6,45.4,121.3,46,121.3,46.7z"/>
		<path fill="#F7C25D" d="M133.8,51.3c-0.4,0.4-0.8,0.7-1.2,0.9c-0.4,0.2-0.8,0.3-1.2,0.3c-0.9,0-1.7-0.4-2.3-1.1
			c-0.7-0.7-1-1.7-1-2.9c0-1.2,0.4-2.2,1.1-3.2c0.7-1,1.7-1.5,2.8-1.5c0.7,0,1.3,0.2,1.8,0.7V43c0-0.9,0-1.5-0.1-1.7
			c0-0.2-0.1-0.4-0.2-0.4s-0.2-0.1-0.4-0.1c-0.2,0-0.4,0-0.6,0.1l-0.1-0.3l2.4-1h0.4V49c0,1,0,1.5,0.1,1.8c0,0.2,0.1,0.4,0.2,0.4
			c0.1,0.1,0.2,0.1,0.3,0.1c0.2,0,0.4-0.1,0.6-0.2l0.1,0.3l-2.4,1h-0.4V51.3z M133.8,50.7v-4.2c0-0.4-0.1-0.8-0.3-1.1
			s-0.4-0.6-0.7-0.8c-0.3-0.2-0.6-0.3-0.9-0.3c-0.5,0-1,0.2-1.4,0.7c-0.5,0.6-0.8,1.5-0.8,2.7c0,1.2,0.3,2.1,0.8,2.8
			c0.5,0.6,1.1,1,1.7,1C132.7,51.5,133.2,51.3,133.8,50.7z"/>
		<path fill="#F7C25D" d="M141.4,52.3v-0.3h0.5c0.5,0,0.9-0.2,1.1-0.5c0.1-0.2,0.2-0.6,0.2-1.3v-7.8c0-0.8-0.1-1.2-0.2-1.4
			c-0.2-0.3-0.6-0.4-1-0.4h-0.5v-0.3h4.9c1.8,0,3.2,0.2,4.1,0.6c0.9,0.4,1.7,1.1,2.3,2c0.6,1,0.9,2.1,0.9,3.3c0,1.7-0.5,3.1-1.5,4.2
			c-1.1,1.3-2.9,1.9-5.2,1.9H141.4z M144.9,51.4c0.8,0.2,1.4,0.2,1.9,0.2c1.4,0,2.5-0.5,3.4-1.5c0.9-1,1.4-2.3,1.4-3.9
			c0-1.7-0.5-3-1.4-3.9c-0.9-1-2.1-1.4-3.5-1.4c-0.5,0-1.1,0.1-1.8,0.3V51.4z"/>
		<path fill="#F7C25D" d="M157.6,43.9v6.6c0,0.5,0,0.8,0.1,1c0.1,0.2,0.2,0.3,0.3,0.4c0.1,0.1,0.4,0.1,0.8,0.1v0.3h-4v-0.3
			c0.4,0,0.7,0,0.8-0.1c0.1-0.1,0.2-0.2,0.3-0.4s0.1-0.5,0.1-1v-3.1c0-0.9,0-1.5-0.1-1.7c0-0.2-0.1-0.3-0.2-0.4
			c-0.1-0.1-0.2-0.1-0.4-0.1c-0.2,0-0.4,0-0.6,0.1l-0.1-0.3l2.5-1H157.6z M156.9,39.6c0.2,0,0.5,0.1,0.6,0.3
			c0.2,0.2,0.3,0.4,0.3,0.6c0,0.3-0.1,0.5-0.3,0.6c-0.2,0.2-0.4,0.3-0.6,0.3s-0.5-0.1-0.6-0.3c-0.2-0.2-0.3-0.4-0.3-0.6
			c0-0.2,0.1-0.5,0.3-0.6C156.4,39.7,156.6,39.6,156.9,39.6z"/>
		<path fill="#F7C25D" d="M164.5,51.1c-0.8,0.6-1.4,1-1.6,1.1c-0.3,0.1-0.7,0.2-1,0.2c-0.6,0-1-0.2-1.4-0.6s-0.5-0.9-0.5-1.5
			c0-0.4,0.1-0.7,0.3-1c0.2-0.4,0.7-0.8,1.3-1.1c0.6-0.4,1.6-0.8,3-1.3v-0.3c0-0.8-0.1-1.4-0.4-1.7c-0.3-0.3-0.6-0.5-1.1-0.5
			c-0.4,0-0.7,0.1-0.9,0.3c-0.2,0.2-0.3,0.4-0.3,0.7l0,0.5c0,0.3-0.1,0.5-0.2,0.6c-0.1,0.1-0.3,0.2-0.5,0.2c-0.2,0-0.4-0.1-0.5-0.2
			c-0.1-0.2-0.2-0.4-0.2-0.6c0-0.5,0.3-1,0.8-1.4c0.5-0.4,1.3-0.6,2.2-0.6c0.7,0,1.3,0.1,1.8,0.4c0.4,0.2,0.6,0.5,0.8,0.9
			c0.1,0.3,0.2,0.8,0.2,1.6v2.8c0,0.8,0,1.3,0,1.4c0,0.2,0.1,0.3,0.1,0.4c0.1,0.1,0.1,0.1,0.2,0.1c0.1,0,0.2,0,0.2-0.1
			c0.1-0.1,0.4-0.3,0.7-0.6v0.5c-0.7,0.9-1.3,1.3-1.9,1.3c-0.3,0-0.5-0.1-0.7-0.3C164.6,51.9,164.5,51.6,164.5,51.1z M164.5,50.5
			v-3.1c-0.9,0.4-1.5,0.6-1.7,0.8c-0.5,0.3-0.8,0.5-1,0.8c-0.2,0.3-0.3,0.6-0.3,0.9c0,0.4,0.1,0.8,0.4,1.1c0.3,0.3,0.5,0.4,0.9,0.4
			C163.2,51.4,163.8,51.1,164.5,50.5z"/>
		<path fill="#F7C25D" d="M170.4,45.6c0.6-0.6,0.9-0.9,1.1-1c0.3-0.2,0.6-0.4,0.9-0.5s0.6-0.2,0.9-0.2c0.5,0,0.9,0.1,1.3,0.4
			c0.4,0.3,0.6,0.7,0.7,1.3c0.6-0.7,1.1-1.2,1.5-1.4c0.4-0.2,0.9-0.3,1.3-0.3c0.4,0,0.8,0.1,1.2,0.3c0.3,0.2,0.6,0.6,0.8,1.1
			c0.1,0.3,0.2,0.9,0.2,1.6v3.5c0,0.5,0,0.9,0.1,1.1c0.1,0.1,0.2,0.2,0.3,0.3s0.4,0.1,0.8,0.1v0.3h-4v-0.3h0.2
			c0.4,0,0.6-0.1,0.8-0.2c0.1-0.1,0.2-0.2,0.3-0.5c0-0.1,0-0.4,0-0.9v-3.5c0-0.7-0.1-1.1-0.2-1.4c-0.2-0.4-0.6-0.6-1.1-0.6
			c-0.3,0-0.6,0.1-0.9,0.2c-0.3,0.2-0.7,0.4-1.2,0.9l0,0.1l0,0.4v3.9c0,0.6,0,0.9,0.1,1c0.1,0.1,0.2,0.3,0.4,0.3s0.5,0.1,0.9,0.1
			v0.3h-4.1v-0.3c0.5,0,0.8-0.1,0.9-0.2c0.2-0.1,0.3-0.3,0.4-0.5c0-0.1,0-0.4,0-0.9v-3.5c0-0.7-0.1-1.1-0.3-1.4
			c-0.3-0.4-0.6-0.6-1.1-0.6c-0.3,0-0.6,0.1-1,0.3c-0.5,0.3-0.9,0.6-1.1,0.9v4.4c0,0.5,0,0.9,0.1,1s0.2,0.3,0.3,0.4s0.4,0.1,0.9,0.1
			v0.3h-4v-0.3c0.4,0,0.6,0,0.8-0.1s0.3-0.2,0.3-0.4c0.1-0.2,0.1-0.5,0.1-1v-3.1c0-0.9,0-1.5-0.1-1.7c0-0.2-0.1-0.3-0.2-0.4
			c-0.1-0.1-0.2-0.1-0.4-0.1c-0.2,0-0.4,0-0.6,0.1l-0.1-0.3l2.5-1h0.4V45.6z"/>
		<path fill="#F7C25D" d="M186.2,43.9c1.2,0,2.2,0.5,3,1.4c0.6,0.8,1,1.7,1,2.8c0,0.7-0.2,1.5-0.5,2.2c-0.3,0.7-0.8,1.3-1.4,1.7
			c-0.6,0.4-1.3,0.6-2.1,0.6c-1.2,0-2.2-0.5-2.9-1.5c-0.6-0.8-0.9-1.8-0.9-2.8c0-0.7,0.2-1.5,0.6-2.2s0.9-1.3,1.5-1.6
			S185.5,43.9,186.2,43.9z M185.9,44.4c-0.3,0-0.6,0.1-0.9,0.3s-0.6,0.5-0.8,1s-0.3,1.1-0.3,1.8c0,1.2,0.2,2.2,0.7,3.1
			c0.5,0.9,1.1,1.3,1.9,1.3c0.6,0,1.1-0.2,1.4-0.7s0.6-1.3,0.6-2.4c0-1.4-0.3-2.6-0.9-3.4C187.1,44.7,186.5,44.4,185.9,44.4z"/>
		<path fill="#F7C25D" d="M193.7,45.6c1-1.2,1.9-1.7,2.7-1.7c0.4,0,0.8,0.1,1.1,0.3c0.3,0.2,0.6,0.6,0.8,1.1
			c0.1,0.4,0.2,0.9,0.2,1.6v3.5c0,0.5,0,0.9,0.1,1.1c0.1,0.1,0.2,0.3,0.3,0.3s0.4,0.1,0.8,0.1v0.3h-4v-0.3h0.2
			c0.4,0,0.6-0.1,0.8-0.2s0.3-0.3,0.3-0.5c0-0.1,0-0.4,0-0.8v-3.3c0-0.7-0.1-1.3-0.3-1.6c-0.2-0.3-0.5-0.5-1-0.5
			c-0.7,0-1.4,0.4-2.1,1.2v4.3c0,0.6,0,0.9,0.1,1c0.1,0.2,0.2,0.3,0.3,0.4c0.1,0.1,0.4,0.1,0.9,0.1v0.3h-4v-0.3h0.2
			c0.4,0,0.7-0.1,0.8-0.3c0.1-0.2,0.2-0.6,0.2-1.2v-3c0-1,0-1.6-0.1-1.8c0-0.2-0.1-0.4-0.2-0.4c-0.1-0.1-0.2-0.1-0.4-0.1
			c-0.2,0-0.4,0-0.6,0.1l-0.1-0.3l2.5-1h0.4V45.6z"/>
		<path fill="#F7C25D" d="M206.2,51.3c-0.4,0.4-0.8,0.7-1.2,0.9c-0.4,0.2-0.8,0.3-1.2,0.3c-0.9,0-1.7-0.4-2.3-1.1
			c-0.7-0.7-1-1.7-1-2.9c0-1.2,0.4-2.2,1.1-3.2c0.7-1,1.7-1.5,2.8-1.5c0.7,0,1.3,0.2,1.8,0.7V43c0-0.9,0-1.5-0.1-1.7
			c0-0.2-0.1-0.4-0.2-0.4c-0.1-0.1-0.2-0.1-0.4-0.1c-0.2,0-0.4,0-0.6,0.1l-0.1-0.3l2.4-1h0.4V49c0,1,0,1.5,0.1,1.8
			c0,0.2,0.1,0.4,0.2,0.4c0.1,0.1,0.2,0.1,0.3,0.1c0.2,0,0.4-0.1,0.6-0.2l0.1,0.3l-2.4,1h-0.4V51.3z M206.2,50.7v-4.2
			c0-0.4-0.1-0.8-0.3-1.1s-0.4-0.6-0.7-0.8c-0.3-0.2-0.6-0.3-0.9-0.3c-0.5,0-1,0.2-1.4,0.7c-0.5,0.6-0.8,1.5-0.8,2.7
			c0,1.2,0.3,2.1,0.8,2.8c0.5,0.6,1.1,1,1.7,1C205.1,51.5,205.7,51.3,206.2,50.7z"/>
		<path fill="#F7C25D" d="M214.8,43.9v2.8h-0.3c-0.2-0.9-0.5-1.5-0.9-1.8c-0.4-0.3-0.8-0.5-1.3-0.5c-0.4,0-0.8,0.1-1,0.3
			c-0.3,0.2-0.4,0.5-0.4,0.7c0,0.3,0.1,0.6,0.3,0.9c0.2,0.2,0.6,0.5,1.1,0.8l1.3,0.6c1.2,0.6,1.8,1.4,1.8,2.3c0,0.7-0.3,1.3-0.8,1.8
			s-1.2,0.7-1.9,0.7c-0.5,0-1.1-0.1-1.7-0.3c-0.2-0.1-0.4-0.1-0.5-0.1c-0.1,0-0.2,0.1-0.3,0.2h-0.3v-2.9h0.3c0.2,0.8,0.5,1.5,1,1.9
			c0.5,0.4,1,0.6,1.6,0.6c0.4,0,0.7-0.1,1-0.4c0.3-0.2,0.4-0.5,0.4-0.9c0-0.4-0.1-0.8-0.4-1c-0.3-0.3-0.9-0.6-1.7-1.1
			c-0.9-0.4-1.4-0.8-1.7-1.2c-0.3-0.3-0.4-0.8-0.4-1.3c0-0.7,0.2-1.2,0.7-1.7s1.1-0.7,1.8-0.7c0.3,0,0.7,0.1,1.2,0.2
			c0.3,0.1,0.5,0.1,0.6,0.1c0.1,0,0.2,0,0.2-0.1c0.1,0,0.1-0.1,0.2-0.3H214.8z"/>
		<path fill="#F7C25D" d="M224,43.9v8.2c0,1.4-0.3,2.4-0.9,3.1c-0.6,0.7-1.4,1-2.3,1c-0.5,0-0.9-0.1-1.2-0.3s-0.4-0.4-0.4-0.6
			s0.1-0.4,0.2-0.5s0.3-0.2,0.5-0.2c0.2,0,0.3,0,0.5,0.1c0.1,0,0.3,0.2,0.6,0.5c0.3,0.3,0.5,0.4,0.7,0.4c0.1,0,0.3-0.1,0.4-0.2
			c0.1-0.1,0.2-0.3,0.3-0.6c0.1-0.3,0.1-0.8,0.1-1.7v-5.8c0-0.9,0-1.5-0.1-1.7c0-0.2-0.1-0.3-0.2-0.4S222,45,221.9,45
			c-0.2,0-0.4,0-0.6,0.1l-0.1-0.3l2.5-1H224z M223.2,39.6c0.3,0,0.5,0.1,0.6,0.3s0.3,0.4,0.3,0.6c0,0.2-0.1,0.5-0.3,0.6
			c-0.2,0.2-0.4,0.3-0.6,0.3c-0.2,0-0.5-0.1-0.6-0.3c-0.2-0.2-0.3-0.4-0.3-0.6c0-0.3,0.1-0.5,0.3-0.6
			C222.8,39.7,223,39.6,223.2,39.6z"/>
		<path fill="#F7C25D" d="M227.6,47.2c0,1.2,0.3,2.2,0.9,2.8c0.6,0.7,1.3,1,2.1,1c0.5,0,1-0.1,1.4-0.4c0.4-0.3,0.7-0.8,1-1.5
			l0.3,0.2c-0.1,0.8-0.5,1.6-1.1,2.2c-0.6,0.7-1.3,1-2.3,1c-1,0-1.8-0.4-2.5-1.1s-1-1.8-1-3.1c0-1.4,0.4-2.5,1.1-3.3
			s1.6-1.2,2.7-1.2c0.9,0,1.7,0.3,2.3,0.9c0.6,0.6,0.9,1.4,0.9,2.4H227.6z M227.6,46.7h3.8c0-0.5-0.1-0.9-0.2-1.1
			c-0.1-0.3-0.4-0.6-0.7-0.8c-0.3-0.2-0.6-0.3-0.9-0.3c-0.5,0-0.9,0.2-1.3,0.6S227.7,46,227.6,46.7z"/>
		<path fill="#F7C25D" d="M233.9,44.1h3.4v0.3c-0.3,0-0.5,0.1-0.6,0.2s-0.1,0.2-0.1,0.4c0,0.2,0,0.4,0.2,0.7l1.7,4.7l1.8-3.8
			l-0.5-1.2c-0.1-0.4-0.3-0.6-0.6-0.7c-0.1-0.1-0.4-0.1-0.7-0.2v-0.3h3.9v0.3c-0.4,0-0.7,0.1-0.9,0.2c-0.1,0.1-0.2,0.2-0.2,0.5
			c0,0.1,0,0.2,0.1,0.4l1.9,4.7l1.7-4.5c0.1-0.3,0.2-0.6,0.2-0.8c0-0.1-0.1-0.2-0.2-0.3c-0.1-0.1-0.3-0.1-0.7-0.2v-0.3h2.6v0.3
			c-0.5,0.1-0.9,0.4-1.1,1l-2.7,7h-0.4l-2-5.2l-2.4,5.2h-0.3l-2.6-6.9c-0.2-0.4-0.3-0.7-0.5-0.9c-0.2-0.2-0.4-0.3-0.8-0.3V44.1z"/>
		<path fill="#F7C25D" d="M248.9,47.2c0,1.2,0.3,2.2,0.9,2.8c0.6,0.7,1.3,1,2.1,1c0.5,0,1-0.1,1.4-0.4c0.4-0.3,0.7-0.8,1-1.5
			l0.3,0.2c-0.1,0.8-0.5,1.6-1.1,2.2c-0.6,0.7-1.4,1-2.3,1c-1,0-1.8-0.4-2.5-1.1s-1-1.8-1-3.1c0-1.4,0.4-2.5,1.1-3.3
			s1.6-1.2,2.7-1.2c0.9,0,1.7,0.3,2.3,0.9c0.6,0.6,0.9,1.4,0.9,2.4H248.9z M248.9,46.7h3.8c0-0.5-0.1-0.9-0.2-1.1
			c-0.1-0.3-0.4-0.6-0.7-0.8c-0.3-0.2-0.6-0.3-0.9-0.3c-0.5,0-0.9,0.2-1.3,0.6S248.9,46,248.9,46.7z"/>
		<path fill="#F7C25D" d="M258.4,39.6v10.8c0,0.5,0,0.8,0.1,1c0.1,0.2,0.2,0.3,0.3,0.4c0.2,0.1,0.4,0.1,0.9,0.1v0.3h-4v-0.3
			c0.4,0,0.6,0,0.8-0.1c0.1-0.1,0.2-0.2,0.3-0.4c0.1-0.2,0.1-0.5,0.1-1V43c0-0.9,0-1.5-0.1-1.7s-0.1-0.4-0.2-0.4s-0.2-0.1-0.4-0.1
			c-0.2,0-0.3,0-0.6,0.1l-0.2-0.3l2.4-1H258.4z"/>
		<path fill="#F7C25D" d="M263.4,39.6v10.8c0,0.5,0,0.8,0.1,1c0.1,0.2,0.2,0.3,0.3,0.4c0.2,0.1,0.4,0.1,0.9,0.1v0.3h-4v-0.3
			c0.4,0,0.6,0,0.8-0.1c0.1-0.1,0.2-0.2,0.3-0.4s0.1-0.5,0.1-1V43c0-0.9,0-1.5-0.1-1.7c0-0.2-0.1-0.4-0.2-0.4
			c-0.1-0.1-0.2-0.1-0.4-0.1c-0.2,0-0.3,0-0.6,0.1l-0.2-0.3l2.4-1H263.4z"/>
		<path fill="#F7C25D" d="M267.1,47.2c0,1.2,0.3,2.2,0.9,2.8c0.6,0.7,1.3,1,2.1,1c0.5,0,1-0.1,1.4-0.4c0.4-0.3,0.7-0.8,1-1.5
			l0.3,0.2c-0.1,0.8-0.5,1.6-1.1,2.2c-0.6,0.7-1.4,1-2.3,1c-1,0-1.8-0.4-2.5-1.1s-1-1.8-1-3.1c0-1.4,0.4-2.5,1.1-3.3
			c0.7-0.8,1.6-1.2,2.7-1.2c0.9,0,1.7,0.3,2.3,0.9c0.6,0.6,0.9,1.4,0.9,2.4H267.1z M267.1,46.7h3.8c0-0.5-0.1-0.9-0.2-1.1
			c-0.1-0.3-0.4-0.6-0.7-0.8c-0.3-0.2-0.6-0.3-0.9-0.3c-0.5,0-0.9,0.2-1.3,0.6C267.4,45.4,267.1,46,267.1,46.7z"/>
		<path fill="#F7C25D" d="M276.2,43.9v1.8c0.7-1.2,1.4-1.8,2.1-1.8c0.3,0,0.6,0.1,0.8,0.3s0.3,0.4,0.3,0.7c0,0.2-0.1,0.4-0.2,0.6
			s-0.3,0.2-0.6,0.2c-0.2,0-0.4-0.1-0.7-0.3c-0.3-0.2-0.4-0.3-0.6-0.3c-0.1,0-0.2,0.1-0.3,0.2c-0.3,0.2-0.5,0.6-0.8,1.2v3.9
			c0,0.5,0.1,0.8,0.2,1c0.1,0.2,0.2,0.3,0.4,0.4c0.2,0.1,0.5,0.2,0.8,0.2v0.3h-4.2v-0.3c0.4,0,0.7-0.1,0.9-0.2
			c0.1-0.1,0.3-0.2,0.3-0.5c0-0.1,0-0.4,0-0.9v-3.2c0-0.9,0-1.5-0.1-1.7c0-0.2-0.1-0.3-0.2-0.4c-0.1-0.1-0.2-0.1-0.4-0.1
			c-0.2,0-0.4,0-0.6,0.1l-0.1-0.3l2.5-1H276.2z"/>
		<path fill="#F7C25D" d="M279.4,44.1h3.8v0.3H283c-0.3,0-0.5,0.1-0.6,0.2c-0.1,0.1-0.2,0.3-0.2,0.4c0,0.2,0.1,0.6,0.3,1l2,4.1
			l1.8-4.5c0.1-0.2,0.2-0.5,0.2-0.7c0-0.1,0-0.2-0.1-0.2c0-0.1-0.1-0.1-0.2-0.2s-0.3-0.1-0.5-0.1v-0.3h2.7v0.3
			c-0.2,0-0.4,0.1-0.5,0.1c-0.1,0.1-0.2,0.2-0.4,0.4c-0.1,0.1-0.2,0.3-0.3,0.7l-3.3,8.1c-0.3,0.8-0.7,1.4-1.3,1.8
			c-0.5,0.4-1,0.6-1.5,0.6c-0.3,0-0.6-0.1-0.9-0.3c-0.2-0.2-0.3-0.4-0.3-0.7c0-0.2,0.1-0.5,0.2-0.6c0.2-0.2,0.4-0.2,0.7-0.2
			c0.2,0,0.5,0.1,0.8,0.2c0.2,0.1,0.4,0.1,0.4,0.1c0.2,0,0.4-0.1,0.6-0.3s0.4-0.5,0.6-1.1l0.6-1.4l-2.9-6.2
			c-0.1-0.2-0.2-0.4-0.4-0.7c-0.1-0.2-0.3-0.3-0.4-0.4c-0.1-0.1-0.4-0.2-0.7-0.2V44.1z"/>
	</g>
</g>
</svg>
