<?xml version="1.0" encoding="iso-8859-1"?>
<!-- Generator: Adobe Illustrator 19.2.1, SVG Export Plug-In . SVG Version: 6.00 Build 0)  -->
<svg version="1.1" id="Layer_1" xmlns="http://www.w3.org/2000/svg" xmlns:xlink="http://www.w3.org/1999/xlink" x="0px" y="0px"
	 viewBox="0 0 99.89 99.893" style="enable-background:new 0 0 99.89 99.893;" xml:space="preserve">
<g>
	<path style="fill:#F7C25D;" d="M49.945,6.487c-23.964,0-43.46,19.496-43.46,43.46c0,23.961,19.496,43.455,43.46,43.455
		c23.962,0,43.459-19.494,43.459-43.455C93.404,25.984,73.908,6.487,49.945,6.487z M75.646,31.479
		c-6.971,2.27-13.698,6.092-16.962,12.797c1.323,0.152,2.582,0.449,3.735,0.957C73.492,50.1,78.009,61.384,73.345,72.448
		c-3.863,9.166-11.43,5.495-15.473-0.636c-2.901-4.402-3.572-10.788-3.344-15.914c0.075-1.661,0.219-3.264,0.422-4.823
		c-0.017,0.001-0.034,0.001-0.05,0.003c-0.702,5.033-2.493,9.871-5.35,13.876c-3.691,5.17-14.393,16.994-22.404,13.295
		c-3.752-1.733-4.695-4.957-4.452-8.951c0.432-7.154,5.224-13.263,11.187-17.033c4.831-3.054,12.853-7.061,20.073-7.932
		c-0.23-3.103-1.278-6.196-3.52-9.116c-4.523-5.891-13.363-10.676-20.765-6.411c-15.883,9.151,9.216,16.937,9.829,8.953
		c0.33-4.293,1.483-0.557,1.314,1.647c-0.968,12.616-17.765,8.277-17.765-2.881c0-4.275,0.655-10.476,4.839-12.887
		c6.747-3.886,16.341-2.953,21.309,3.518c3.662,4.769,5.628,10.845,5.971,17.058c0.424-0.03,0.843-0.036,1.259-0.041
		c2.737-8.878,8.602-15.43,19.222-18.885C76.065,25.149,77.055,31.022,75.646,31.479z M49.945,0C22.361,0,0,22.365,0,49.947
		c0,27.581,22.361,49.946,49.945,49.946c27.588,0,49.944-22.364,49.944-49.946C99.89,22.365,77.534,0,49.945,0z M49.945,95.592
		c-25.171,0-45.65-20.475-45.65-45.645c0-25.171,20.479-45.65,45.65-45.65c25.17,0,45.649,20.479,45.649,45.65
		C95.594,75.117,75.115,95.592,49.945,95.592z M27.145,72.052c3.111,0.183,6.638-0.183,9.472-1.643
		c6.665-3.434,14.002-10.87,16.51-19.101c-7.562,1.35-15.369,3.44-21.253,8.711C31.385,60.458,20.08,71.639,27.145,72.052z
		 M60.035,68.563c1.841,2.227,4.492,4.994,7.631,3.079c13.809-8.428-0.544-19.964-11.108-20.568
		C55.385,57.143,55.886,63.551,60.035,68.563z"/>
</g>
</svg>
