<?xml version="1.0" encoding="iso-8859-1"?>
<!-- Generator: Adobe Illustrator 19.0.0, SVG Export Plug-In . SVG Version: 6.00 Build 0)  -->
<svg version="1.1" id="Layer_1" xmlns="http://www.w3.org/2000/svg" xmlns:xlink="http://www.w3.org/1999/xlink" x="0px" y="0px"
	 viewBox="0 0 200 1300" style="enable-background:new 0 0 200 1300;" xml:space="preserve">
<g id="XMLID_28_">
	<rect id="XMLID_210_" y="300" style="fill:none;" width="100" height="100"/>
	<g id="XMLID_207_">
		<path id="XMLID_209_" style="fill:#999999;" d="M50.052,355.746c8.553,0,14.464-10.611,14.464-21.23
			c0-10.617-1.925-19.355-14.464-19.355c-12.54,0-14.568,8.736-14.568,19.355S41.496,355.746,50.052,355.746z"/>
		<path id="XMLID_208_" style="fill:#999999;" d="M64.373,351.983c-0.818,4.039-6.448,8.4-14.261,8.4s-13.648-4.289-14.409-8.4
			C24.902,352.754,20,368.13,20,368.13v8.11c0,5.402,8.197,8.598,8.197,8.598h43.527c0,0,8.277-3.196,8.277-8.598v-8.11
			C80,368.13,75.173,352.754,64.373,351.983z"/>
	</g>
	<rect id="XMLID_206_" y="400" style="fill:none;" width="100" height="100"/>
	<path id="XMLID_203_" style="fill:#999999;" d="M77.927,446.843l-26.25-26.645c-1.056-0.527-2.298-0.527-3.354,0l-26.25,26.645
		c-1.555,0.778-2.372,2.523-1.972,4.217c0.399,1.692,1.91,2.887,3.649,2.887h5.625v22.5c0,2.071,1.679,3.75,3.75,3.75h33.75
		c2.071,0,3.75-1.679,3.75-3.75v-22.5h5.625c1.739,0,3.25-1.196,3.649-2.887C80.3,449.366,79.483,447.621,77.927,446.843z
		 M55.625,468.947h-11.25v-13.125h11.25V468.947z"/>
	<rect id="XMLID_202_" y="200" style="fill:none;" width="100" height="100"/>
	<path id="XMLID_199_" style="fill:#999999;" d="M47.943,251.383c0.038-0.456,0.062-0.917,0.062-1.382
		c0-0.01-0.001-0.019-0.001-0.028H85v-2.892l-1.57-2.523H47.082c-2.25-6.438-8.373-11.059-15.579-11.059
		C22.389,233.497,15,240.886,15,250c0,9.114,7.389,16.502,16.503,16.502c7.184,0,13.294-4.593,15.56-11.001h4.255l1.756-2.074
		l0.979-0.058l2.131,2.132h3.053l0.691-1.728h1.037l0.634-1.21l2.995,2.649l2.304-2.592l2.65,1.959l1.267,0.058l0.602,0.864h4.255
		l1.825-2.19l2.188,2.132l0.3,0.058h1.487L85,252.701v-1.318H47.943z M22.949,254.234c-2.338,0-4.234-1.895-4.234-4.234
		c0-2.338,1.895-4.234,4.234-4.234c2.338,0,4.234,1.896,4.234,4.234C27.183,252.338,25.287,254.234,22.949,254.234z"/>
	<rect id="XMLID_198_" y="500" style="fill:none;" width="100" height="100"/>
	<path id="XMLID_191_" style="fill:#999999;" d="M50,580c-16.542,0-30-13.458-30-30s13.458-30,30-30s30,13.458,30,30
		S66.542,580,50,580z M50,523.75c-14.474,0-26.25,11.776-26.25,26.25S35.526,576.25,50,576.25S76.25,564.474,76.25,550
		S64.474,523.75,50,523.75z M43.907,558.858c0.018-2.545,0.476-4.459,1.373-5.74s2.536-2.756,4.916-4.422
		c1.227-0.769,2.192-1.721,2.899-2.856c0.703-1.135,1.057-2.444,1.057-3.928c0-1.538-0.412-2.765-1.236-3.68
		s-1.996-1.373-3.516-1.373c-1.227,0-2.252,0.375-3.076,1.126s-1.254,1.868-1.291,3.351h-9.036l-0.055-0.165
		c-0.055-3.809,1.157-6.669,3.64-8.584c2.479-1.912,5.753-2.869,9.818-2.869c4.358,0,7.786,1.099,10.287,3.296
		c2.498,2.197,3.748,5.164,3.748,8.899c0,2.289-0.683,4.395-2.045,6.317c-1.366,1.923-3.1,3.433-5.206,4.532
		c-1.172,0.769-1.965,1.599-2.375,2.487c-0.414,0.888-0.619,2.091-0.619,3.611H43.907z M53.163,570.283h-9.229v-7.416h9.229V570.283
		z"/>
	<rect id="XMLID_190_" y="800" style="fill:none;" width="100" height="100"/>
	<path id="XMLID_187_" style="fill:#999999;" d="M20,821l16,58l14-11.154L66,877v-20l14-12L20,821z M60,867l-34-40l34,28V867z"/>
	<rect id="XMLID_186_" y="700" style="fill:none;" width="100" height="100"/>
	<g id="XMLID_180_">
		<path id="XMLID_183_" style="fill:#999999;" d="M76.667,725H23.333c-1.841,0-3.333,1.492-3.333,3.333v43.333
			c0,1.841,1.492,3.333,3.333,3.333h53.333c1.841,0,3.333-1.492,3.333-3.333v-43.333C80,726.492,78.507,725,76.667,725z M75,770H25
			v-40h50V770z"/>
		<polygon id="XMLID_182_" style="fill:#999999;" points="59.22,746.88 48.333,760 40.921,751.667 28.333,766.667 71.667,766.667 		
			"/>
		<circle id="XMLID_181_" style="fill:#999999;" cx="36.667" cy="741.667" r="5"/>
	</g>
	<rect id="XMLID_179_" y="600" style="fill:none;" width="100" height="100"/>
	<path id="diamond_2_" style="fill:#999999;" d="M51.273,673.779l28.277-32.477C79.829,641,80,640.598,80,640.156
		c0-0.391-0.132-0.75-0.354-1.037L70.92,626.39c-0.002-0.004-0.005-0.007-0.007-0.011l-0.003-0.004
		c-0.002-0.003-0.004-0.005-0.006-0.008c-0.034-0.049-0.071-0.096-0.11-0.142c-0.012-0.013-0.024-0.026-0.036-0.039
		c-0.031-0.033-0.063-0.065-0.097-0.097c-0.016-0.015-0.032-0.029-0.048-0.043c-0.032-0.027-0.065-0.053-0.099-0.077
		c-0.019-0.014-0.037-0.028-0.056-0.041c-0.007-0.005-0.013-0.01-0.021-0.015c-0.033-0.021-0.066-0.04-0.1-0.058
		c-0.014-0.008-0.027-0.017-0.041-0.024c-0.057-0.03-0.115-0.056-0.174-0.079c-0.009-0.003-0.017-0.006-0.025-0.009
		c-0.052-0.019-0.104-0.035-0.156-0.049c-0.017-0.005-0.033-0.008-0.05-0.012c-0.046-0.011-0.092-0.019-0.139-0.026
		c-0.019-0.003-0.037-0.005-0.056-0.007c-0.05-0.005-0.1-0.008-0.149-0.009c-0.011,0-0.022-0.002-0.033-0.002H30.48
		c-0.01,0-0.02,0.002-0.031,0.002c-0.051,0.001-0.101,0.004-0.152,0.009c-0.018,0.002-0.036,0.004-0.054,0.007
		c-0.047,0.007-0.094,0.016-0.14,0.026c-0.017,0.004-0.033,0.007-0.049,0.011c-0.053,0.014-0.105,0.03-0.157,0.05
		c-0.008,0.003-0.017,0.005-0.024,0.008c-0.059,0.023-0.117,0.049-0.175,0.079c-0.014,0.007-0.027,0.016-0.041,0.024
		c-0.034,0.019-0.067,0.037-0.101,0.059c-0.007,0.005-0.014,0.01-0.021,0.015c-0.019,0.013-0.037,0.027-0.056,0.04
		c-0.034,0.025-0.067,0.051-0.099,0.078c-0.016,0.014-0.032,0.028-0.048,0.043c-0.034,0.031-0.066,0.064-0.098,0.098
		c-0.012,0.013-0.023,0.025-0.035,0.038c-0.04,0.047-0.078,0.095-0.113,0.145c-0.001,0.002-0.003,0.003-0.004,0.005l-0.002,0.003
		c-0.003,0.004-0.006,0.009-0.009,0.013l-8.779,12.808c-0.004,0.007-0.008,0.014-0.012,0.02c-0.02,0.03-0.037,0.062-0.055,0.094
		c-0.022,0.038-0.045,0.076-0.064,0.116c-0.004,0.009-0.01,0.017-0.014,0.026c-0.011,0.023-0.017,0.047-0.026,0.071
		c-0.017,0.041-0.033,0.083-0.047,0.125c-0.011,0.034-0.019,0.069-0.027,0.104c-0.01,0.041-0.02,0.083-0.026,0.124
		c-0.006,0.036-0.01,0.072-0.014,0.108c-0.004,0.041-0.007,0.082-0.009,0.124c-0.001,0.036,0,0.073,0.001,0.109
		c0.002,0.041,0.005,0.083,0.009,0.124c0.004,0.036,0.009,0.072,0.016,0.108c0.007,0.041,0.016,0.081,0.026,0.121
		c0.009,0.036,0.019,0.071,0.031,0.107c0.013,0.039,0.027,0.077,0.043,0.115c0.015,0.035,0.029,0.07,0.046,0.104
		c0.007,0.015,0.012,0.03,0.02,0.045c0.012,0.023,0.027,0.042,0.04,0.064c0.019,0.032,0.038,0.065,0.059,0.096
		c0.025,0.037,0.052,0.071,0.079,0.105c0.015,0.019,0.027,0.039,0.043,0.057l28.307,32.512c0,0,0.001,0.001,0.001,0.001
		c0.008,0.009,0.016,0.018,0.024,0.027c0.007,0.008,0.015,0.015,0.022,0.023c0.024,0.025,0.049,0.051,0.074,0.074
		c0.004,0.004,0.008,0.008,0.013,0.012c0.011,0.01,0.023,0.02,0.034,0.03c0.026,0.022,0.052,0.044,0.079,0.064
		c0.002,0.002,0.004,0.004,0.006,0.005c0.005,0.004,0.009,0.008,0.014,0.012c0.007,0.005,0.015,0.01,0.022,0.016
		c0.04,0.028,0.08,0.056,0.122,0.08c0.008,0.005,0.017,0.009,0.025,0.014c0.037,0.021,0.074,0.041,0.112,0.059
		c0.008,0.003,0.015,0.008,0.022,0.011c0.009,0.004,0.018,0.007,0.026,0.011c0.035,0.015,0.07,0.029,0.106,0.042
		c0.008,0.003,0.016,0.007,0.023,0.01c0.003,0.001,0.006,0.001,0.008,0.002c0.005,0.002,0.01,0.003,0.015,0.005
		c0.028,0.009,0.056,0.017,0.084,0.024c0.013,0.003,0.026,0.008,0.039,0.011c0.012,0.003,0.023,0.005,0.035,0.008
		c0.008,0.002,0.017,0.003,0.025,0.005c0.013,0.003,0.025,0.005,0.038,0.008c0.012,0.002,0.023,0.005,0.035,0.007
		c0.023,0.004,0.047,0.006,0.07,0.009c0.01,0.001,0.02,0.002,0.029,0.003c0.003,0,0.005,0.001,0.008,0.001
		c0.009,0.001,0.018,0.003,0.027,0.003c0.045,0.004,0.09,0.006,0.135,0.006l0,0c0,0,0,0,0,0c0.045,0,0.09-0.002,0.135-0.006
		c0.009-0.001,0.019-0.002,0.028-0.003c0.002,0,0.004-0.001,0.007-0.001c0.01-0.001,0.02-0.002,0.03-0.003
		c0.023-0.003,0.047-0.005,0.07-0.009c0.012-0.002,0.024-0.005,0.036-0.007c0.012-0.002,0.025-0.005,0.037-0.007
		c0.009-0.002,0.017-0.003,0.025-0.005c0.012-0.003,0.023-0.005,0.035-0.008c0.013-0.003,0.027-0.008,0.04-0.011
		c0.028-0.008,0.056-0.015,0.083-0.024c0.005-0.002,0.01-0.003,0.015-0.005c0.003-0.001,0.006-0.002,0.008-0.002
		c0.008-0.003,0.016-0.007,0.024-0.01c0.035-0.013,0.07-0.027,0.105-0.042c0.009-0.004,0.018-0.007,0.026-0.011
		c0.008-0.003,0.015-0.008,0.022-0.011c0.038-0.018,0.076-0.038,0.112-0.059c0.008-0.005,0.017-0.009,0.025-0.014
		c0.042-0.025,0.083-0.052,0.122-0.081c0.007-0.005,0.015-0.01,0.022-0.015c0.005-0.004,0.01-0.008,0.015-0.012
		c0.002-0.001,0.004-0.003,0.006-0.004c0.027-0.021,0.054-0.042,0.079-0.065c0.012-0.01,0.023-0.02,0.034-0.03
		c0.004-0.004,0.008-0.008,0.012-0.012c0.026-0.024,0.051-0.049,0.075-0.075c0.007-0.007,0.015-0.015,0.022-0.022
		c0.008-0.009,0.016-0.018,0.024-0.027C51.273,673.779,51.273,673.779,51.273,673.779z M49.997,629.91l7.447,8.553H42.55
		L49.997,629.91z M54.414,665.017l7.956-23.169h12.216L54.414,665.017z M49.997,667.456l-8.794-25.608h17.588L49.997,667.456z
		 M45.58,665.017l-20.172-23.169h12.215L45.58,665.017z M75.092,638.463H64.284l5.266-8.085L75.092,638.463z M60.967,637.354
		l-7.252-8.329h12.677L60.967,637.354z M39.027,637.354l-5.425-8.329h12.677L39.027,637.354z M30.444,630.378l5.266,8.085H24.902
		L30.444,630.378z"/>
	<rect id="XMLID_169_" y="1000" style="fill:none;" width="100" height="100"/>
	<path id="XMLID_158_" style="fill-rule:evenodd;clip-rule:evenodd;fill:#999999;" d="M34.048,1023.65
		c2.5,0,4.527,2.027,4.527,4.527c0,1.089-0.385,2.088-1.025,2.869l0.681,1.742l-4.183,1.634l-4.183-1.634l0.682-1.747
		c-0.641-0.782-1.027-1.78-1.027-2.864C29.52,1025.681,31.552,1023.65,34.048,1023.65L34.048,1023.65z M65.953,1017.933
		c2.5,0,4.527,2.028,4.527,4.527c0,1.089-0.385,2.088-1.025,2.868l0.681,1.742l-4.184,1.634l-4.183-1.634l0.683-1.747
		c-0.642-0.782-1.027-1.78-1.027-2.864C61.425,1019.964,63.457,1017.933,65.953,1017.933L65.953,1017.933z M60.933,1028.838
		l5.019,1.96l5.019-1.96l1.052,2.691l-6.072,2.37l-6.07-2.37L60.933,1028.838L60.933,1028.838z M59.198,1033.541l-1.052,2.691
		l1.1,0.43c-3.672,8.678-7.051,18.003-7.322,25.378c-0.309,8.401,3.167,14.31,14.029,14.31c10.861,0,14.337-5.909,14.029-14.31
		c-0.272-7.375-3.651-16.7-7.322-25.378l1.099-0.43l-1.052-2.691l-6.755,2.638L59.198,1033.541L59.198,1033.541z M69.968,1037.712
		c3.578,8.45,6.875,17.487,7.13,24.429c0.244,6.642-2.517,11.314-11.145,11.314c-8.629,0-11.39-4.673-11.146-11.314
		c0.255-6.941,3.552-15.98,7.13-24.429l4.016,1.568L69.968,1037.712L69.968,1037.712z M65.953,1020.828
		c-0.906,0-1.633,0.727-1.633,1.633c0,0.91,0.723,1.633,1.633,1.633c0.906,0,1.633-0.727,1.633-1.633
		C67.586,1021.559,66.855,1020.828,65.953,1020.828L65.953,1020.828z M29.028,1034.555l5.019,1.959l5.019-1.959l1.051,2.691
		l-6.071,2.369l-6.071-2.369L29.028,1034.555L29.028,1034.555z M27.293,1039.258l-1.051,2.691l1.099,0.43
		c-3.671,8.678-7.051,18.002-7.322,25.378c-0.309,8.401,3.167,14.31,14.029,14.31c10.862,0,14.337-5.909,14.029-14.31
		c-0.271-7.375-3.651-16.7-7.322-25.378l1.099-0.43l-1.051-2.691l-6.755,2.637L27.293,1039.258L27.293,1039.258z M38.063,1043.429
		c3.578,8.45,6.875,17.487,7.13,24.429c0.243,6.642-2.518,11.314-11.146,11.314c-8.628,0-11.39-4.673-11.146-11.314
		c0.255-6.941,3.552-15.979,7.13-24.429l4.016,1.568L38.063,1043.429L38.063,1043.429z M34.048,1026.545
		c-0.906,0-1.632,0.727-1.632,1.632c0,0.911,0.722,1.633,1.632,1.633c0.906,0,1.633-0.727,1.633-1.633
		C35.681,1027.276,34.949,1026.545,34.048,1026.545z"/>
	<rect id="XMLID_157_" y="1100" style="fill:none;" width="100" height="100"/>
	<path id="XMLID_151_" style="fill-rule:evenodd;clip-rule:evenodd;fill:#999999;" d="M50.631,1154.157
		c-0.718,0.411-1.644,0.204-2.114-0.493c-0.368-0.546-0.354-1.237-0.019-1.757c-0.957,0.115-1.685,0.918-1.685,1.909
		c0,1.071,0.852,1.924,1.923,1.924C49.691,1155.74,50.471,1155.062,50.631,1154.157L50.631,1154.157z M51.647,1149.61
		c4.176-2.864,7.824-5.466,11.042-7.929c3.888-2.976,7.177-5.767,10.048-8.597c1.26-1.242,1.728-2.7,1.541-3.863
		c-0.128-0.798-0.572-1.444-1.371-1.675c-0.931-0.269-2.271-0.024-3.984,1.028c-0.089,0.055-0.95,0.612-0.936,0.634l-3.098,2.263
		c-10.264,7.5-17.698,12.933-29.118,20.7c-2.407,1.636-4.86,1.603-6.661,0.665c-2.578-1.341-3.59-4.367-2.231-6.979
		c0.704-1.351,1.719-2.121,2.88-2.973c3.673-2.702,9.091-6.396,14.543-10.113c6.329-4.317,12.709-8.667,16.421-11.51
		c0.993-0.76,1.354-1.561,1.28-2.202c-0.056-0.477-0.354-0.866-0.78-1.079c-0.644-0.323-1.603-0.271-2.692,0.424
		c-3.058,1.952-6.91,4.52-10.878,7.165c-5.667,3.777-11.581,7.718-16.302,10.592c-1.585,0.964-3.131,1.324-4.47,1.203
		c-2.148-0.195-3.778-1.619-4.246-3.728c-0.288-1.297-0.128-2.867,0.626-4.568c0.956-2.152,2.915-4.679,5.879-6.797
		c2.34-1.672,5.327-3.111,8.962-3.93c0.858-0.193,1.71,0.346,1.903,1.204c0.193,0.858-0.347,1.71-1.204,1.903
		c-3.181,0.716-5.784,1.968-7.814,3.419c-2.469,1.764-4.067,3.793-4.819,5.486c-0.461,1.038-0.575,1.923-0.426,2.595
		c0.166,0.749,0.665,1.175,1.426,1.243c0.689,0.062,1.555-0.165,2.522-0.754c4.667-2.839,10.558-6.766,16.204-10.528
		c3.852-2.567,7.589-5.059,10.928-7.19c2.152-1.373,4.264-1.366,5.824-0.586c1.39,0.696,2.347,2.012,2.527,3.563
		c0.193,1.667-0.506,3.559-2.516,5.098c-3.797,2.909-10.202,7.276-16.557,11.61c-5.348,3.647-10.664,7.272-14.335,9.967
		c-0.704,0.518-1.491,1.022-1.955,1.781c-0.669,1.092-0.34,2.273,0.773,2.851c0.861,0.448,2.101,0.42,3.404-0.466
		c11.217-7.628,18.694-13.092,29.018-20.637c1.354-0.988,2.797-2.141,4.235-3.022c2.594-1.586,4.837-1.886,6.553-1.39
		c1.992,0.576,3.305,2.211,3.629,4.233c0.336,2.093-0.402,4.614-2.451,6.635c-2.973,2.93-6.359,5.805-10.347,8.858
		c-3.259,2.493-6.904,5.097-11.046,7.94c0.179,0.521,0.279,1.08,0.279,1.662c0,1.125-0.367,2.167-0.988,3.015
		c1.534,0.782,2.901,1.988,4.023,3.511c1.95,2.647,3.157,6.28,3.157,10.268c0,3.987-1.207,7.62-3.157,10.268
		c-2.055,2.79-4.936,4.517-8.153,4.517c-3.217,0-6.098-1.727-8.153-4.517c-1.951-2.648-3.157-6.281-3.157-10.268
		c0-3.988,1.207-7.621,3.157-10.268c1.122-1.523,2.489-2.729,4.023-3.511c-0.621-0.848-0.988-1.89-0.988-3.015
		c0-2.818,2.302-5.119,5.119-5.119C49.816,1148.698,50.819,1149.035,51.647,1149.61L51.647,1149.61z M46.632,1166.083l-1.03,6.782
		l2.992,2.805l3.482-2.614l0.214-4.626l-2.752-3.362L46.632,1166.083L46.632,1166.083z M44.719,1164.501l-1.389,9.146l5.112,4.791
		l5.709-4.287l0.299-6.445l-4.204-5.134L44.719,1164.501L44.719,1164.501z M54.319,1162.227c-1.458-1.981-3.436-3.208-5.583-3.208
		c-2.146,0-4.124,1.227-5.583,3.208c-1.565,2.123-2.533,5.087-2.533,8.384c0,3.296,0.968,6.259,2.533,8.383
		c1.459,1.981,3.437,3.207,5.583,3.207c2.147,0,4.124-1.226,5.583-3.207c1.565-2.124,2.533-5.088,2.533-8.383
		C56.853,1167.314,55.884,1164.35,54.319,1162.227z"/>
	<rect id="XMLID_150_" y="900" style="fill:none;" width="100" height="100"/>
	<path id="XMLID_145_" style="fill-rule:evenodd;clip-rule:evenodd;fill:#999999;" d="M30.632,935.057
		c-4.896,4.279-7.925,10.18-7.925,16.686c0,8.825,5.48,16.122,13.201,19.982c0.388,0.194,0.679,0.174,0.85,0.041
		c0.17-0.132,0.263-0.354,0.275-0.566c0.016-0.315-0.157-0.665-0.591-0.904c-2.882-1.585-5.338-3.618-7.05-5.928
		c-5.019-6.771-2.46-14.272,4.308-18.738c8.95-5.905,23.649-5.905,32.598,0c6.768,4.466,9.328,11.967,4.309,18.738
		c-1.712,2.31-4.168,4.343-7.051,5.928c-0.434,0.239-0.608,0.589-0.591,0.904c0.012,0.212,0.105,0.433,0.275,0.566
		c0.171,0.132,0.462,0.152,0.85-0.041c7.721-3.86,13.202-11.156,13.202-19.982c0-6.507-3.03-12.408-7.925-16.686
		C58.705,925.74,41.294,925.74,30.632,935.057L30.632,935.057z M35.181,947.883c-1.317,0.869-2.447,1.859-3.345,2.945
		c-0.828,2.027-0.059,4.014,1.396,5.863c1.699,2.158,4.335,4.158,6.599,5.848c3.115,2.327,1.777,5.242-0.195,9.533
		c-0.98,2.131-2.533,3.264-4.933,2.065C26.075,969.823,20,961.587,20,951.743c0-7.319,3.385-13.936,8.855-18.717
		c11.674-10.202,30.615-10.202,42.289,0C76.615,937.807,80,944.424,80,951.743c0,9.844-6.075,18.08-14.703,22.394
		c-2.399,1.199-3.953,0.067-4.933-2.065c-1.973-4.292-3.311-7.206-0.195-9.533c2.264-1.691,4.9-3.69,6.599-5.848
		c1.455-1.848,2.224-3.836,1.396-5.863c-0.899-1.086-2.028-2.075-3.346-2.945C56.788,942.585,43.212,942.585,35.181,947.883
		L35.181,947.883z M60.975,969.015L60.975,969.015c-0.932-2.272-1.214-3.919,0.273-5.03c2.351-1.756,5.093-3.836,6.937-6.181
		c0.891-1.131,1.572-2.317,1.909-3.55c0.994,3.049,0.236,5.957-1.654,8.506c-1.475,1.989-3.63,3.762-6.184,5.167
		C61.71,968.227,61.287,968.6,60.975,969.015L60.975,969.015z M39.025,969.015L39.025,969.015c-0.313-0.415-0.737-0.788-1.282-1.088
		c-2.553-1.405-4.709-3.177-6.183-5.167c-1.89-2.549-2.649-5.457-1.655-8.506c0.337,1.233,1.018,2.418,1.909,3.55
		c1.845,2.344,4.586,4.424,6.937,6.181C40.239,965.095,39.957,966.743,39.025,969.015z"/>
	<rect id="XMLID_144_" y="1200" style="fill:none;" width="100" height="100"/>
	<path id="XMLID_137_" style="fill-rule:evenodd;clip-rule:evenodd;fill:#999999;" d="M50,1234.736
		c7.853,0,15.014,0.935,20.241,2.445c6.03,1.741,9.759,4.49,9.759,7.832s-3.729,6.09-9.759,7.832
		c-2.736,0.79-6.002,1.423-9.62,1.846v4.444c-3.539,2.046-7.081,4.086-10.621,6.129c-3.54-2.043-7.082-4.084-10.621-6.129v-4.444
		c-3.618-0.423-6.884-1.056-9.62-1.846c-6.029-1.741-9.759-4.49-9.759-7.832s3.729-6.091,9.759-7.832
		C34.986,1235.671,42.146,1234.736,50,1234.736L50,1234.736z M60.622,1250.144c3.159-0.388,5.992-0.944,8.365-1.63
		c4.009-1.158,6.489-2.417,6.489-3.502c0-1.085-2.481-2.345-6.489-3.502c-4.811-1.391-11.521-2.251-18.986-2.251
		c-7.466,0-14.175,0.86-18.987,2.251c-4.008,1.157-6.489,2.417-6.489,3.502c0,1.084,2.481,2.344,6.489,3.502
		c2.373,0.686,5.207,1.242,8.365,1.63v-3.266c3.54-2.044,7.082-4.084,10.621-6.13c3.54,2.044,7.081,4.086,10.621,6.13V1250.144
		L60.622,1250.144z M50.903,1244.383v7.063l6.113-3.529C54.975,1246.738,52.943,1245.562,50.903,1244.383L50.903,1244.383z
		 M50.903,1253.525v8.105l3.054-1.766l3.956-2.284v-4.573v-3.529L50.903,1253.525L50.903,1253.525z M49.098,1261.63v-7.062
		l-6.113,3.53C45.025,1259.276,47.057,1260.452,49.098,1261.63L49.098,1261.63z M49.098,1252.488v-8.105
		c-2.34,1.351-4.671,2.7-7.011,4.051v8.102L49.098,1252.488z"/>
	<rect id="XMLID_136_" x="100" y="300" style="fill:none;" width="100" height="100"/>
	<g id="XMLID_133_">
		<path id="XMLID_135_" style="fill:#212121;" d="M150.052,355.746c8.553,0,14.464-10.611,14.464-21.23
			c0-10.617-1.925-19.355-14.464-19.355c-12.54,0-14.568,8.736-14.568,19.355S141.496,355.746,150.052,355.746z"/>
		<path id="XMLID_134_" style="fill:#212121;" d="M164.373,351.983c-0.818,4.039-6.448,8.4-14.261,8.4s-13.648-4.289-14.409-8.4
			C124.902,352.754,120,368.13,120,368.13v8.11c0,5.402,8.197,8.598,8.197,8.598h43.527c0,0,8.277-3.196,8.277-8.598v-8.11
			C180,368.13,175.173,352.754,164.373,351.983z"/>
	</g>
	<rect id="XMLID_132_" x="100" y="400" style="fill:none;" width="100" height="100"/>
	<path id="XMLID_129_" style="fill:#212121;" d="M177.927,446.843l-26.25-26.645c-1.056-0.527-2.298-0.527-3.354,0l-26.25,26.645
		c-1.555,0.778-2.372,2.523-1.972,4.217c0.399,1.692,1.91,2.887,3.649,2.887h5.625v22.5c0,2.071,1.679,3.75,3.75,3.75h33.75
		c2.071,0,3.75-1.679,3.75-3.75v-22.5h5.625c1.739,0,3.25-1.196,3.649-2.887C180.3,449.366,179.483,447.621,177.927,446.843z
		 M155.625,468.947h-11.25v-13.125h11.25V468.947z"/>
	<rect id="XMLID_128_" x="100" y="200" style="fill:none;" width="100" height="100"/>
	<path id="XMLID_125_" style="fill:#212121;" d="M147.943,251.383c0.038-0.456,0.062-0.917,0.062-1.382
		c0-0.01-0.001-0.019-0.001-0.028H185v-2.892l-1.57-2.523h-36.348c-2.25-6.438-8.373-11.059-15.579-11.059
		c-9.114,0-16.503,7.389-16.503,16.503c0,9.114,7.389,16.502,16.503,16.502c7.184,0,13.294-4.593,15.56-11.001h4.255l1.756-2.074
		l0.979-0.058l2.131,2.132h3.053l0.691-1.728h1.037l0.634-1.21l2.995,2.649l2.304-2.592l2.65,1.959l1.267,0.058l0.602,0.864h4.255
		l1.825-2.19l2.188,2.132l0.3,0.058h1.487l3.527-2.801v-1.318H147.943z M122.949,254.234c-2.338,0-4.234-1.895-4.234-4.234
		c0-2.338,1.895-4.234,4.234-4.234c2.338,0,4.234,1.896,4.234,4.234C127.183,252.338,125.287,254.234,122.949,254.234z"/>
	<rect id="XMLID_124_" x="100" y="500" style="fill:none;" width="100" height="100"/>
	<path id="XMLID_117_" style="fill:#212121;" d="M150,580c-16.542,0-30-13.458-30-30s13.458-30,30-30s30,13.458,30,30
		S166.542,580,150,580z M150,523.75c-14.474,0-26.25,11.776-26.25,26.25s11.776,26.25,26.25,26.25s26.25-11.776,26.25-26.25
		S164.474,523.75,150,523.75z M143.907,558.858c0.018-2.545,0.476-4.459,1.373-5.74s2.536-2.756,4.916-4.422
		c1.227-0.769,2.192-1.721,2.899-2.856c0.703-1.135,1.057-2.444,1.057-3.928c0-1.538-0.412-2.765-1.236-3.68
		s-1.996-1.373-3.516-1.373c-1.227,0-2.252,0.375-3.076,1.126s-1.254,1.868-1.291,3.351h-9.036l-0.055-0.165
		c-0.055-3.809,1.157-6.669,3.64-8.584c2.479-1.912,5.753-2.869,9.818-2.869c4.358,0,7.786,1.099,10.287,3.296
		c2.498,2.197,3.748,5.164,3.748,8.899c0,2.289-0.683,4.395-2.045,6.317c-1.366,1.923-3.1,3.433-5.206,4.532
		c-1.172,0.769-1.965,1.599-2.375,2.487c-0.414,0.888-0.619,2.091-0.619,3.611H143.907z M153.163,570.283h-9.229v-7.416h9.229
		V570.283z"/>
	<rect id="XMLID_116_" x="100" y="800" style="fill:none;" width="100" height="100"/>
	<path id="XMLID_113_" style="fill:#212121;" d="M120,821l16,58l14-11.154L166,877v-20l14-12L120,821z M160,867l-34-40l34,28V867z"
		/>
	<rect id="XMLID_112_" x="100" y="700" style="fill:none;" width="100" height="100"/>
	<g id="XMLID_106_">
		<path id="XMLID_109_" style="fill:#212121;" d="M176.667,725h-53.333c-1.841,0-3.333,1.492-3.333,3.333v43.333
			c0,1.841,1.492,3.333,3.333,3.333h53.333c1.841,0,3.333-1.492,3.333-3.333v-43.333C180,726.492,178.507,725,176.667,725z M175,770
			h-50v-40h50V770z"/>
		<polygon id="XMLID_108_" style="fill:#212121;" points="159.22,746.88 148.333,760 140.921,751.667 128.333,766.667 
			171.667,766.667 		"/>
		<circle id="XMLID_107_" style="fill:#212121;" cx="136.667" cy="741.667" r="5"/>
	</g>
	<rect id="XMLID_105_" x="100" y="600" style="fill:none;" width="100" height="100"/>
	<path id="diamond_3_" style="fill:#212121;" d="M151.273,673.779l28.277-32.477c0.278-0.302,0.45-0.703,0.45-1.146
		c0-0.391-0.132-0.75-0.354-1.037l-8.726-12.729c-0.002-0.004-0.005-0.007-0.007-0.011l-0.003-0.004
		c-0.002-0.003-0.004-0.005-0.006-0.008c-0.034-0.049-0.071-0.096-0.11-0.142c-0.012-0.013-0.024-0.026-0.036-0.039
		c-0.031-0.033-0.063-0.065-0.097-0.097c-0.016-0.015-0.032-0.029-0.048-0.043c-0.032-0.027-0.065-0.053-0.099-0.077
		c-0.019-0.014-0.037-0.028-0.056-0.041c-0.007-0.005-0.013-0.01-0.021-0.015c-0.033-0.021-0.066-0.04-0.1-0.058
		c-0.014-0.008-0.027-0.017-0.041-0.024c-0.057-0.03-0.115-0.056-0.174-0.079c-0.009-0.003-0.017-0.006-0.025-0.009
		c-0.052-0.019-0.104-0.035-0.156-0.049c-0.017-0.005-0.033-0.008-0.05-0.012c-0.046-0.011-0.092-0.019-0.139-0.026
		c-0.019-0.003-0.037-0.005-0.056-0.007c-0.05-0.005-0.1-0.008-0.149-0.009c-0.011,0-0.022-0.002-0.033-0.002H130.48
		c-0.01,0-0.02,0.002-0.031,0.002c-0.051,0.001-0.101,0.004-0.152,0.009c-0.018,0.002-0.036,0.004-0.054,0.007
		c-0.047,0.007-0.094,0.016-0.14,0.026c-0.017,0.004-0.033,0.007-0.049,0.011c-0.053,0.014-0.105,0.03-0.157,0.05
		c-0.008,0.003-0.017,0.005-0.024,0.008c-0.059,0.023-0.117,0.049-0.175,0.079c-0.014,0.007-0.027,0.016-0.041,0.024
		c-0.034,0.019-0.067,0.037-0.101,0.059c-0.007,0.005-0.014,0.01-0.021,0.015c-0.019,0.013-0.037,0.027-0.056,0.04
		c-0.034,0.025-0.067,0.051-0.099,0.078c-0.016,0.014-0.032,0.028-0.048,0.043c-0.034,0.031-0.066,0.064-0.098,0.098
		c-0.012,0.013-0.023,0.025-0.035,0.038c-0.04,0.047-0.078,0.095-0.113,0.145c-0.001,0.002-0.003,0.003-0.004,0.005l-0.002,0.003
		c-0.003,0.004-0.006,0.009-0.009,0.013l-8.779,12.808c-0.004,0.007-0.008,0.014-0.012,0.02c-0.02,0.03-0.037,0.062-0.055,0.094
		c-0.022,0.038-0.045,0.076-0.063,0.116c-0.004,0.009-0.01,0.017-0.014,0.026c-0.011,0.023-0.017,0.047-0.026,0.071
		c-0.017,0.041-0.033,0.083-0.047,0.125c-0.011,0.034-0.019,0.069-0.027,0.104c-0.01,0.041-0.02,0.083-0.026,0.124
		c-0.006,0.036-0.01,0.072-0.014,0.108c-0.004,0.041-0.007,0.082-0.009,0.124c-0.001,0.036,0,0.073,0.001,0.109
		c0.002,0.041,0.005,0.083,0.009,0.124c0.004,0.036,0.009,0.072,0.016,0.108c0.007,0.041,0.016,0.081,0.026,0.121
		c0.009,0.036,0.019,0.071,0.031,0.107c0.013,0.039,0.027,0.077,0.043,0.115c0.015,0.035,0.029,0.07,0.046,0.104
		c0.007,0.015,0.012,0.03,0.02,0.045c0.012,0.023,0.027,0.042,0.04,0.064c0.019,0.032,0.038,0.065,0.059,0.096
		c0.025,0.037,0.052,0.071,0.079,0.105c0.015,0.019,0.027,0.039,0.043,0.057l28.307,32.512c0,0,0.001,0.001,0.001,0.001
		c0.008,0.009,0.016,0.018,0.024,0.027c0.007,0.008,0.015,0.015,0.022,0.023c0.024,0.025,0.049,0.051,0.074,0.074
		c0.004,0.004,0.008,0.008,0.013,0.012c0.011,0.01,0.023,0.02,0.034,0.03c0.026,0.022,0.052,0.044,0.079,0.064
		c0.002,0.002,0.004,0.004,0.006,0.005c0.005,0.004,0.009,0.008,0.014,0.012c0.007,0.005,0.015,0.01,0.022,0.016
		c0.04,0.028,0.08,0.056,0.122,0.08c0.008,0.005,0.017,0.009,0.025,0.014c0.037,0.021,0.074,0.041,0.112,0.059
		c0.008,0.003,0.015,0.008,0.022,0.011c0.009,0.004,0.018,0.007,0.026,0.011c0.035,0.015,0.07,0.029,0.106,0.042
		c0.008,0.003,0.016,0.007,0.023,0.01c0.003,0.001,0.006,0.001,0.008,0.002c0.005,0.002,0.01,0.003,0.015,0.005
		c0.028,0.009,0.056,0.017,0.084,0.024c0.013,0.003,0.026,0.008,0.039,0.011c0.012,0.003,0.023,0.005,0.035,0.008
		c0.008,0.002,0.017,0.003,0.025,0.005c0.013,0.003,0.025,0.005,0.038,0.008c0.012,0.002,0.023,0.005,0.035,0.007
		c0.023,0.004,0.047,0.006,0.07,0.009c0.01,0.001,0.02,0.002,0.029,0.003c0.003,0,0.005,0.001,0.008,0.001
		c0.009,0.001,0.018,0.003,0.027,0.003c0.045,0.004,0.09,0.006,0.135,0.006l0,0c0,0,0,0,0,0c0.045,0,0.09-0.002,0.135-0.006
		c0.009-0.001,0.019-0.002,0.028-0.003c0.002,0,0.004-0.001,0.007-0.001c0.01-0.001,0.02-0.002,0.03-0.003
		c0.023-0.003,0.047-0.005,0.07-0.009c0.012-0.002,0.024-0.005,0.036-0.007c0.012-0.002,0.025-0.005,0.037-0.007
		c0.009-0.002,0.017-0.003,0.025-0.005c0.012-0.003,0.023-0.005,0.035-0.008c0.013-0.003,0.027-0.008,0.04-0.011
		c0.028-0.008,0.056-0.015,0.083-0.024c0.005-0.002,0.01-0.003,0.015-0.005c0.003-0.001,0.006-0.002,0.008-0.002
		c0.008-0.003,0.016-0.007,0.024-0.01c0.035-0.013,0.07-0.027,0.105-0.042c0.009-0.004,0.018-0.007,0.026-0.011
		c0.008-0.003,0.015-0.008,0.022-0.011c0.038-0.018,0.076-0.038,0.112-0.059c0.008-0.005,0.017-0.009,0.025-0.014
		c0.042-0.025,0.083-0.052,0.122-0.081c0.007-0.005,0.015-0.01,0.021-0.015c0.005-0.004,0.01-0.008,0.015-0.012
		c0.002-0.001,0.004-0.003,0.006-0.004c0.027-0.021,0.054-0.042,0.079-0.065c0.012-0.01,0.023-0.02,0.034-0.03
		c0.004-0.004,0.008-0.008,0.012-0.012c0.026-0.024,0.051-0.049,0.075-0.075c0.007-0.007,0.015-0.015,0.021-0.022
		c0.008-0.009,0.016-0.018,0.024-0.027C151.273,673.779,151.273,673.779,151.273,673.779z M149.997,629.91l7.447,8.553H142.55
		L149.997,629.91z M154.414,665.017l7.956-23.169h12.216L154.414,665.017z M149.997,667.456l-8.794-25.608h17.588L149.997,667.456z
		 M145.58,665.017l-20.172-23.169h12.215L145.58,665.017z M175.092,638.463h-10.808l5.266-8.085L175.092,638.463z M160.967,637.354
		l-7.252-8.329h12.677L160.967,637.354z M139.027,637.354l-5.425-8.329h12.677L139.027,637.354z M130.444,630.378l5.266,8.085
		h-10.808L130.444,630.378z"/>
	<rect id="XMLID_95_" x="100" y="1000" style="fill:none;" width="100" height="100"/>
	<path id="XMLID_84_" style="fill-rule:evenodd;clip-rule:evenodd;fill:#212121;" d="M134.048,1023.65
		c2.5,0,4.527,2.027,4.527,4.527c0,1.089-0.385,2.088-1.025,2.869l0.681,1.742l-4.183,1.634l-4.183-1.634l0.682-1.747
		c-0.641-0.782-1.027-1.78-1.027-2.864C129.52,1025.681,131.552,1023.65,134.048,1023.65L134.048,1023.65z M165.953,1017.933
		c2.5,0,4.527,2.028,4.527,4.527c0,1.089-0.385,2.088-1.025,2.868l0.681,1.742l-4.184,1.634l-4.183-1.634l0.683-1.747
		c-0.642-0.782-1.027-1.78-1.027-2.864C161.425,1019.964,163.457,1017.933,165.953,1017.933L165.953,1017.933z M160.933,1028.838
		l5.019,1.96l5.019-1.96l1.052,2.691l-6.072,2.37l-6.07-2.37L160.933,1028.838L160.933,1028.838z M159.198,1033.541l-1.052,2.691
		l1.1,0.43c-3.672,8.678-7.051,18.003-7.322,25.378c-0.309,8.401,3.167,14.31,14.029,14.31c10.861,0,14.337-5.909,14.029-14.31
		c-0.272-7.375-3.651-16.7-7.322-25.378l1.099-0.43l-1.052-2.691l-6.755,2.638L159.198,1033.541L159.198,1033.541z
		 M169.968,1037.712c3.578,8.45,6.875,17.487,7.13,24.429c0.244,6.642-2.517,11.314-11.145,11.314
		c-8.629,0-11.39-4.673-11.146-11.314c0.255-6.941,3.552-15.98,7.13-24.429l4.016,1.568L169.968,1037.712L169.968,1037.712z
		 M165.953,1020.828c-0.906,0-1.633,0.727-1.633,1.633c0,0.91,0.723,1.633,1.633,1.633c0.906,0,1.633-0.727,1.633-1.633
		C167.586,1021.559,166.855,1020.828,165.953,1020.828L165.953,1020.828z M129.028,1034.555l5.019,1.959l5.019-1.959l1.051,2.691
		l-6.071,2.369l-6.071-2.369L129.028,1034.555L129.028,1034.555z M127.293,1039.258l-1.051,2.691l1.099,0.43
		c-3.671,8.678-7.051,18.002-7.322,25.378c-0.309,8.401,3.167,14.31,14.029,14.31c10.862,0,14.337-5.909,14.029-14.31
		c-0.271-7.375-3.651-16.7-7.322-25.378l1.099-0.43l-1.051-2.691l-6.755,2.637L127.293,1039.258L127.293,1039.258z
		 M138.063,1043.429c3.578,8.45,6.875,17.487,7.13,24.429c0.243,6.642-2.518,11.314-11.146,11.314
		c-8.628,0-11.39-4.673-11.146-11.314c0.255-6.941,3.552-15.979,7.13-24.429l4.016,1.568L138.063,1043.429L138.063,1043.429z
		 M134.048,1026.545c-0.906,0-1.632,0.727-1.632,1.632c0,0.911,0.722,1.633,1.632,1.633c0.906,0,1.633-0.727,1.633-1.633
		C135.681,1027.276,134.949,1026.545,134.048,1026.545z"/>
	<rect id="XMLID_83_" x="100" y="1100" style="fill:none;" width="100" height="100"/>
	<path id="XMLID_77_" style="fill-rule:evenodd;clip-rule:evenodd;fill:#212121;" d="M150.631,1154.157
		c-0.718,0.411-1.644,0.204-2.114-0.493c-0.368-0.546-0.354-1.237-0.019-1.757c-0.957,0.115-1.685,0.918-1.685,1.909
		c0,1.071,0.852,1.924,1.923,1.924C149.691,1155.74,150.471,1155.062,150.631,1154.157L150.631,1154.157z M151.647,1149.61
		c4.176-2.864,7.824-5.466,11.042-7.929c3.888-2.976,7.177-5.767,10.048-8.597c1.26-1.242,1.728-2.7,1.541-3.863
		c-0.128-0.798-0.572-1.444-1.371-1.675c-0.931-0.269-2.271-0.024-3.984,1.028c-0.089,0.055-0.95,0.612-0.936,0.634l-3.098,2.263
		c-10.264,7.5-17.698,12.933-29.118,20.7c-2.407,1.636-4.86,1.603-6.661,0.665c-2.578-1.341-3.59-4.367-2.231-6.979
		c0.704-1.351,1.719-2.121,2.88-2.973c3.673-2.702,9.091-6.396,14.543-10.113c6.329-4.317,12.709-8.667,16.421-11.51
		c0.993-0.76,1.354-1.561,1.28-2.202c-0.056-0.477-0.354-0.866-0.78-1.079c-0.644-0.323-1.603-0.271-2.692,0.424
		c-3.058,1.952-6.91,4.52-10.878,7.165c-5.667,3.777-11.581,7.718-16.302,10.592c-1.585,0.964-3.131,1.324-4.47,1.203
		c-2.148-0.195-3.778-1.619-4.246-3.728c-0.288-1.297-0.128-2.867,0.626-4.568c0.956-2.152,2.915-4.679,5.879-6.797
		c2.34-1.672,5.327-3.111,8.962-3.93c0.858-0.193,1.71,0.346,1.903,1.204c0.193,0.858-0.347,1.71-1.204,1.903
		c-3.181,0.716-5.784,1.968-7.814,3.419c-2.469,1.764-4.067,3.793-4.819,5.486c-0.461,1.038-0.575,1.923-0.426,2.595
		c0.166,0.749,0.665,1.175,1.426,1.243c0.689,0.062,1.555-0.165,2.522-0.754c4.667-2.839,10.558-6.766,16.204-10.528
		c3.852-2.567,7.589-5.059,10.928-7.19c2.152-1.373,4.264-1.366,5.824-0.586c1.39,0.696,2.347,2.012,2.527,3.563
		c0.193,1.667-0.506,3.559-2.516,5.098c-3.797,2.909-10.202,7.276-16.557,11.61c-5.348,3.647-10.664,7.272-14.335,9.967
		c-0.704,0.518-1.491,1.022-1.955,1.781c-0.669,1.092-0.34,2.273,0.773,2.851c0.861,0.448,2.101,0.42,3.404-0.466
		c11.217-7.628,18.694-13.092,29.018-20.637c1.354-0.988,2.797-2.141,4.235-3.022c2.594-1.586,4.837-1.886,6.553-1.39
		c1.992,0.576,3.305,2.211,3.629,4.233c0.336,2.093-0.402,4.614-2.451,6.635c-2.973,2.93-6.359,5.805-10.347,8.858
		c-3.259,2.493-6.904,5.097-11.046,7.94c0.179,0.521,0.279,1.08,0.279,1.662c0,1.125-0.367,2.167-0.988,3.015
		c1.534,0.782,2.901,1.988,4.023,3.511c1.95,2.647,3.157,6.28,3.157,10.268c0,3.987-1.207,7.62-3.157,10.268
		c-2.055,2.79-4.936,4.517-8.153,4.517c-3.217,0-6.098-1.727-8.153-4.517c-1.951-2.648-3.157-6.281-3.157-10.268
		c0-3.988,1.207-7.621,3.157-10.268c1.122-1.523,2.489-2.729,4.023-3.511c-0.621-0.848-0.988-1.89-0.988-3.015
		c0-2.818,2.302-5.119,5.119-5.119C149.816,1148.698,150.819,1149.035,151.647,1149.61L151.647,1149.61z M146.632,1166.083
		l-1.03,6.782l2.992,2.805l3.482-2.614l0.214-4.626l-2.752-3.362L146.632,1166.083L146.632,1166.083z M144.719,1164.501
		l-1.389,9.146l5.112,4.791l5.709-4.287l0.299-6.445l-4.204-5.134L144.719,1164.501L144.719,1164.501z M154.319,1162.227
		c-1.458-1.981-3.436-3.208-5.583-3.208c-2.146,0-4.124,1.227-5.583,3.208c-1.565,2.123-2.533,5.087-2.533,8.384
		c0,3.296,0.968,6.259,2.533,8.383c1.459,1.981,3.437,3.207,5.583,3.207c2.147,0,4.124-1.226,5.583-3.207
		c1.565-2.124,2.533-5.088,2.533-8.383C156.853,1167.314,155.884,1164.35,154.319,1162.227z"/>
	<rect id="XMLID_76_" x="100" y="900" style="fill:none;" width="100" height="100"/>
	<path id="XMLID_71_" style="fill-rule:evenodd;clip-rule:evenodd;fill:#212121;" d="M130.632,935.057
		c-4.896,4.279-7.925,10.18-7.925,16.686c0,8.825,5.48,16.122,13.201,19.982c0.388,0.194,0.679,0.174,0.85,0.041
		c0.17-0.132,0.263-0.354,0.275-0.566c0.016-0.315-0.157-0.665-0.591-0.904c-2.882-1.585-5.338-3.618-7.05-5.928
		c-5.019-6.771-2.46-14.272,4.308-18.738c8.95-5.905,23.649-5.905,32.598,0c6.768,4.466,9.328,11.967,4.309,18.738
		c-1.712,2.31-4.168,4.343-7.051,5.928c-0.434,0.239-0.608,0.589-0.591,0.904c0.012,0.212,0.105,0.433,0.275,0.566
		c0.171,0.132,0.462,0.152,0.85-0.041c7.721-3.86,13.202-11.156,13.202-19.982c0-6.507-3.03-12.408-7.925-16.686
		C158.705,925.74,141.294,925.74,130.632,935.057L130.632,935.057z M135.181,947.883c-1.317,0.869-2.447,1.859-3.345,2.945
		c-0.828,2.027-0.059,4.014,1.396,5.863c1.699,2.158,4.335,4.158,6.599,5.848c3.115,2.327,1.777,5.242-0.195,9.533
		c-0.98,2.131-2.533,3.264-4.933,2.065c-8.628-4.314-14.703-12.55-14.703-22.394c0-7.319,3.385-13.936,8.855-18.717
		c11.674-10.202,30.615-10.202,42.289,0c5.471,4.781,8.856,11.398,8.856,18.717c0,9.844-6.075,18.08-14.703,22.394
		c-2.399,1.199-3.953,0.067-4.933-2.065c-1.973-4.292-3.311-7.206-0.195-9.533c2.264-1.691,4.9-3.69,6.599-5.848
		c1.455-1.848,2.224-3.836,1.396-5.863c-0.899-1.086-2.028-2.075-3.346-2.945C156.788,942.585,143.212,942.585,135.181,947.883
		L135.181,947.883z M160.975,969.015L160.975,969.015c-0.932-2.272-1.214-3.919,0.273-5.03c2.351-1.756,5.093-3.836,6.937-6.181
		c0.891-1.131,1.572-2.317,1.909-3.55c0.994,3.049,0.236,5.957-1.654,8.506c-1.475,1.989-3.63,3.762-6.184,5.167
		C161.71,968.227,161.287,968.6,160.975,969.015L160.975,969.015z M139.025,969.015L139.025,969.015
		c-0.313-0.415-0.737-0.788-1.282-1.088c-2.553-1.405-4.709-3.177-6.183-5.167c-1.89-2.549-2.649-5.457-1.655-8.506
		c0.337,1.233,1.018,2.418,1.909,3.55c1.845,2.344,4.586,4.424,6.937,6.181C140.239,965.095,139.957,966.743,139.025,969.015z"/>
	<rect id="XMLID_70_" x="100" y="1200" style="fill:none;" width="100" height="100"/>
	<path id="XMLID_63_" style="fill-rule:evenodd;clip-rule:evenodd;fill:#212121;" d="M150,1234.736
		c7.853,0,15.014,0.935,20.241,2.445c6.03,1.741,9.759,4.49,9.759,7.832s-3.729,6.09-9.759,7.832
		c-2.736,0.79-6.002,1.423-9.62,1.846v4.444c-3.539,2.046-7.081,4.086-10.621,6.129c-3.54-2.043-7.082-4.084-10.621-6.129v-4.444
		c-3.618-0.423-6.884-1.056-9.62-1.846c-6.029-1.741-9.759-4.49-9.759-7.832s3.729-6.091,9.759-7.832
		C134.986,1235.671,142.146,1234.736,150,1234.736L150,1234.736z M160.622,1250.144c3.159-0.388,5.992-0.944,8.365-1.63
		c4.009-1.158,6.489-2.417,6.489-3.502c0-1.085-2.481-2.345-6.489-3.502c-4.811-1.391-11.521-2.251-18.986-2.251
		c-7.466,0-14.175,0.86-18.987,2.251c-4.008,1.157-6.489,2.417-6.489,3.502c0,1.084,2.481,2.344,6.489,3.502
		c2.373,0.686,5.207,1.242,8.365,1.63v-3.266c3.54-2.044,7.082-4.084,10.621-6.13c3.54,2.044,7.081,4.086,10.621,6.13V1250.144
		L160.622,1250.144z M150.903,1244.383v7.063l6.113-3.529C154.975,1246.738,152.943,1245.562,150.903,1244.383L150.903,1244.383z
		 M150.903,1253.525v8.105l3.054-1.766l3.956-2.284v-4.573v-3.529L150.903,1253.525L150.903,1253.525z M149.098,1261.63v-7.062
		l-6.113,3.53C145.025,1259.276,147.057,1260.452,149.098,1261.63L149.098,1261.63z M149.098,1252.488v-8.105
		c-2.34,1.351-4.671,2.7-7.011,4.051v8.102L149.098,1252.488z"/>
	<rect id="XMLID_62_" x="0" y="100" style="fill:none;" width="100" height="100"/>
	<rect id="XMLID_61_" x="100" y="100" style="fill:none;" width="100" height="100"/>
	<g id="XMLID_57_">
		<rect id="XMLID_60_" x="25" y="127" style="fill:#999999;" width="50" height="6"/>
		<rect id="XMLID_59_" x="25" y="167" style="fill:#999999;" width="50" height="6"/>
		<rect id="XMLID_58_" x="25" y="147" style="fill:#999999;" width="50" height="6"/>
	</g>
	<g id="XMLID_53_">
		<rect id="XMLID_56_" x="137.5" y="127" style="fill:#FFFFFF;" width="25" height="6"/>
		<rect id="XMLID_55_" x="137.5" y="167" style="fill:#FFFFFF;" width="25" height="6"/>
		<rect id="XMLID_54_" x="137.5" y="147" style="fill:#FFFFFF;" width="25" height="6"/>
	</g>
	<rect id="XMLID_52_" x="0" style="fill:none;" width="100" height="100"/>
	<rect id="XMLID_51_" x="100" style="fill:none;" width="100" height="100"/>
	<g id="XMLID_40_">
		<g id="XMLID_49_">
			<path id="XMLID_50_" style="fill:#999999;" d="M65.448,43.931h-5.887L55.861,34l-2.207,1.103l3.348,8.828H42.629l3.291-8.828
				L43.713,34l-3.644,9.931h-5.517c-1.219,0-2.207,0.988-2.207,2.207c0,1.219,0.988,2.207,2.207,2.207h0.447H65h0.448
				c1.219,0,2.207-0.988,2.207-2.207C67.655,44.919,66.667,43.931,65.448,43.931z"/>
		</g>
		<g id="XMLID_41_">
			<g id="XMLID_42_">
				<path id="XMLID_43_" style="fill:#999999;" d="M36.759,64.897L37.862,66h24.276l1.103-1.103l1.539-14.345H35.219L36.759,64.897z
					 M56.621,53.259c0-1.219,0.741-1.603,1.655-1.603c0.914,0,1.655,0.385,1.655,1.603v8.828c0,1.219-0.741,1.707-1.655,1.707
					c-0.914,0-1.655-0.488-1.655-1.707V53.259z M51.103,53.259c0-1.219,0.741-1.603,1.655-1.603c0.914,0,1.655,0.385,1.655,1.603
					v8.828c0,1.219-0.741,1.707-1.655,1.707c-0.914,0-1.655-0.488-1.655-1.707V53.259z M45.586,53.259
					c0-1.219,0.741-1.603,1.655-1.603c0.914,0,1.655,0.385,1.655,1.603v8.828c0,1.219-0.741,1.707-1.655,1.707
					c-0.914,0-1.655-0.488-1.655-1.707V53.259z M40.069,53.259c0-1.219,0.741-1.603,1.655-1.603c0.914,0,1.655,0.385,1.655,1.603
					v8.828c0,1.219-0.741,1.707-1.655,1.707c-0.914,0-1.655-0.488-1.655-1.707V53.259z"/>
			</g>
		</g>
	</g>
	<g id="XMLID_29_">
		<g id="XMLID_38_">
			<path id="XMLID_39_" style="fill:#F5C05B;" d="M165.448,43.931h-5.887l-3.7-9.931l-2.207,1.103l3.348,8.828h-14.373l3.291-8.828
				L143.713,34l-3.644,9.931h-5.517c-1.219,0-2.207,0.988-2.207,2.207s0.988,2.207,2.207,2.207h0.447H165h0.448
				c1.219,0,2.207-0.988,2.207-2.207S166.667,43.931,165.448,43.931z"/>
		</g>
		<g id="XMLID_30_">
			<g id="XMLID_31_">
				<path id="XMLID_32_" style="fill:#F5C05B;" d="M136.759,64.897L137.862,66h24.276l1.103-1.103l1.539-14.345h-29.561
					L136.759,64.897z M156.621,53.259c0-1.219,0.741-1.603,1.655-1.603c0.914,0,1.655,0.385,1.655,1.603v8.828
					c0,1.219-0.741,1.707-1.655,1.707c-0.914,0-1.655-0.488-1.655-1.707V53.259z M151.103,53.259c0-1.219,0.741-1.603,1.655-1.603
					s1.655,0.385,1.655,1.603v8.828c0,1.219-0.741,1.707-1.655,1.707s-1.655-0.488-1.655-1.707V53.259z M145.586,53.259
					c0-1.219,0.741-1.603,1.655-1.603c0.914,0,1.655,0.385,1.655,1.603v8.828c0,1.219-0.741,1.707-1.655,1.707
					c-0.914,0-1.655-0.488-1.655-1.707V53.259z M140.069,53.259c0-1.219,0.741-1.603,1.655-1.603c0.914,0,1.655,0.385,1.655,1.603
					v8.828c0,1.219-0.741,1.707-1.655,1.707c-0.914,0-1.655-0.488-1.655-1.707V53.259z"/>
			</g>
		</g>
	</g>
</g>
</svg>
