<?xml version="1.0" encoding="utf-8"?>
<!-- Generator: Adobe Illustrator 19.1.0, SVG Export Plug-In . SVG Version: 6.00 Build 0)  -->
<svg version="1.1" id="Layer_1" xmlns="http://www.w3.org/2000/svg" xmlns:xlink="http://www.w3.org/1999/xlink" x="0px" y="0px"
	 viewBox="0 0 200 1600" style="enable-background:new 0 0 200 1600;" xml:space="preserve">
<style type="text/css">
	.st0{fill:none;}
	.st1{fill:#A29F9D;}
	.st2{fill-rule:evenodd;clip-rule:evenodd;fill:#A29F9D;}
	.st3{fill:#292623;}
	.st4{fill-rule:evenodd;clip-rule:evenodd;fill:#292623;}
	.st5{fill:#FFFFFF;}
	.st6{fill:#F7C453;}
</style>
<rect id="XMLID_210_" x="0" y="300" class="st0" width="100" height="100"/>
<g id="XMLID_207_">
	<path id="XMLID_209_" class="st1" d="M50.1,355.7c8.6,0,14.5-10.6,14.5-21.2c0-10.6-1.9-19.4-14.5-19.4c-12.5,0-14.6,8.7-14.6,19.4
		S41.5,355.7,50.1,355.7z"/>
	<path id="XMLID_208_" class="st1" d="M64.4,352c-0.8,4-6.4,8.4-14.3,8.4s-13.6-4.3-14.4-8.4C24.9,352.8,20,368.1,20,368.1v8.1
		c0,5.4,8.2,8.6,8.2,8.6h43.5c0,0,8.3-3.2,8.3-8.6v-8.1C80,368.1,75.2,352.8,64.4,352z"/>
</g>
<rect id="XMLID_206_" x="0" y="400" class="st0" width="100" height="100"/>
<path id="XMLID_203_" class="st1" d="M77.9,446.8l-26.2-26.6c-1.1-0.5-2.3-0.5-3.4,0l-26.2,26.6c-1.6,0.8-2.4,2.5-2,4.2
	c0.4,1.7,1.9,2.9,3.6,2.9h5.6v22.5c0,2.1,1.7,3.7,3.7,3.7h33.7c2.1,0,3.7-1.7,3.7-3.7v-22.5h5.6c1.7,0,3.3-1.2,3.6-2.9
	C80.3,449.4,79.5,447.6,77.9,446.8z M55.6,468.9H44.4v-13.1h11.2V468.9z"/>
<rect id="XMLID_202_" x="0" y="200" class="st0" width="100" height="100"/>
<path id="XMLID_199_" class="st1" d="M47.9,251.4c0-0.5,0.1-0.9,0.1-1.4c0,0,0,0,0,0h37v-2.9l-1.6-2.5H47.1
	c-2.2-6.4-8.4-11.1-15.6-11.1c-9.1,0-16.5,7.4-16.5,16.5c0,9.1,7.4,16.5,16.5,16.5c7.2,0,13.3-4.6,15.6-11h4.3l1.8-2.1l1-0.1
	l2.1,2.1h3.1l0.7-1.7h1l0.6-1.2l3,2.6l2.3-2.6l2.7,2l1.3,0.1l0.6,0.9h4.3l1.8-2.2l2.2,2.1l0.3,0.1h1.5l3.5-2.8v-1.3H47.9z
	 M22.9,254.2c-2.3,0-4.2-1.9-4.2-4.2c0-2.3,1.9-4.2,4.2-4.2c2.3,0,4.2,1.9,4.2,4.2C27.2,252.3,25.3,254.2,22.9,254.2z"/>
<rect id="XMLID_198_" x="0" y="500" class="st0" width="100" height="100"/>
<path id="XMLID_191_" class="st1" d="M50,580c-16.5,0-30-13.5-30-30s13.5-30,30-30s30,13.5,30,30S66.5,580,50,580z M50,523.7
	c-14.5,0-26.3,11.8-26.3,26.2s11.8,26.2,26.3,26.2s26.2-11.8,26.2-26.2S64.5,523.7,50,523.7z M43.9,558c0-2,0.5-4,1.4-5.3
	s2.5-2.5,4.9-4.2c1.2-0.8,2.2-1.6,2.9-2.7c0.7-1.1,1.1-2.4,1.1-3.9c0-1.5-0.4-2.7-1.2-3.7s-2-1.4-3.5-1.4c-1.2,0-2.3,0.2-3.1,1
	S45.1,539,45,541h-9l-0.1,0c-0.1-3.8,1.2-6.6,3.6-8.5c2.5-1.9,5.8-2.8,9.8-2.8c4.4,0,7.8,1.1,10.3,3.3c2.5,2.2,3.7,5.2,3.7,8.9
	c0,2.3-0.7,4.4-2,6.3c-1.4,1.9-3.1,3.4-5.2,4.5c-1.2,0.8-2,1.2-2.4,2.1c-0.4,0.9-0.6,2.2-0.6,3.2H43.9z M53,570h-9v-8h9V570z"/>
<rect id="XMLID_190_" x="0" y="800" class="st0" width="100" height="100"/>
<path id="XMLID_187_" class="st1" d="M20,821l16,58l14-11.2l16,9.2v-20l14-12L20,821z M60,867l-34-40l34,28V867z"/>
<rect id="XMLID_186_" x="0" y="700" class="st0" width="100" height="100"/>
<g id="XMLID_180_">
	<path id="XMLID_183_" class="st1" d="M76.7,725H23.3c-1.8,0-3.3,1.5-3.3,3.3v43.3c0,1.8,1.5,3.3,3.3,3.3h53.3
		c1.8,0,3.3-1.5,3.3-3.3v-43.3C80,726.5,78.5,725,76.7,725z M75,770H25v-40h50V770z"/>
	<polygon id="XMLID_182_" class="st1" points="59.2,746.9 48.3,760 40.9,751.7 28.3,766.7 71.7,766.7 	"/>
	<circle id="XMLID_181_" class="st1" cx="36.7" cy="741.7" r="5"/>
</g>
<rect id="XMLID_179_" x="0" y="600" class="st0" width="100" height="100"/>
<path id="diamond_2_" class="st1" d="M51.3,673.8l28.3-32.5c0.3-0.3,0.4-0.7,0.4-1.1c0-0.4-0.1-0.8-0.4-1l-8.7-12.7c0,0,0,0,0,0l0,0
	c0,0,0,0,0,0c0,0-0.1-0.1-0.1-0.1c0,0,0,0,0,0c0,0-0.1-0.1-0.1-0.1c0,0,0,0,0,0c0,0-0.1-0.1-0.1-0.1c0,0,0,0-0.1,0c0,0,0,0,0,0
	c0,0-0.1,0-0.1-0.1c0,0,0,0,0,0c-0.1,0-0.1-0.1-0.2-0.1c0,0,0,0,0,0c-0.1,0-0.1,0-0.2,0c0,0,0,0-0.1,0c0,0-0.1,0-0.1,0
	c0,0,0,0-0.1,0c0,0-0.1,0-0.1,0c0,0,0,0,0,0h-39c0,0,0,0,0,0c-0.1,0-0.1,0-0.2,0c0,0,0,0-0.1,0c0,0-0.1,0-0.1,0c0,0,0,0,0,0
	c-0.1,0-0.1,0-0.2,0c0,0,0,0,0,0c-0.1,0-0.1,0-0.2,0.1c0,0,0,0,0,0c0,0-0.1,0-0.1,0.1c0,0,0,0,0,0c0,0,0,0-0.1,0
	c0,0-0.1,0.1-0.1,0.1c0,0,0,0,0,0c0,0-0.1,0.1-0.1,0.1c0,0,0,0,0,0c0,0-0.1,0.1-0.1,0.1c0,0,0,0,0,0l0,0c0,0,0,0,0,0l-8.8,12.8
	c0,0,0,0,0,0c0,0,0,0.1-0.1,0.1c0,0,0,0.1-0.1,0.1c0,0,0,0,0,0c0,0,0,0,0,0.1c0,0,0,0.1,0,0.1c0,0,0,0.1,0,0.1c0,0,0,0.1,0,0.1
	c0,0,0,0.1,0,0.1c0,0,0,0.1,0,0.1c0,0,0,0.1,0,0.1c0,0,0,0.1,0,0.1c0,0,0,0.1,0,0.1c0,0,0,0.1,0,0.1c0,0,0,0.1,0,0.1
	c0,0,0,0.1,0,0.1c0,0,0,0.1,0,0.1c0,0,0,0,0,0c0,0,0,0,0,0.1c0,0,0,0.1,0.1,0.1c0,0,0.1,0.1,0.1,0.1c0,0,0,0,0,0.1l28.3,32.5
	c0,0,0,0,0,0c0,0,0,0,0,0c0,0,0,0,0,0c0,0,0,0.1,0.1,0.1c0,0,0,0,0,0c0,0,0,0,0,0c0,0,0.1,0,0.1,0.1c0,0,0,0,0,0c0,0,0,0,0,0
	c0,0,0,0,0,0c0,0,0.1,0.1,0.1,0.1c0,0,0,0,0,0c0,0,0.1,0,0.1,0.1c0,0,0,0,0,0c0,0,0,0,0,0c0,0,0.1,0,0.1,0c0,0,0,0,0,0c0,0,0,0,0,0
	c0,0,0,0,0,0c0,0,0.1,0,0.1,0c0,0,0,0,0,0c0,0,0,0,0,0c0,0,0,0,0,0c0,0,0,0,0,0c0,0,0,0,0,0c0,0,0,0,0.1,0c0,0,0,0,0,0c0,0,0,0,0,0
	c0,0,0,0,0,0c0,0,0.1,0,0.1,0l0,0h0c0,0,0.1,0,0.1,0c0,0,0,0,0,0c0,0,0,0,0,0c0,0,0,0,0,0c0,0,0,0,0.1,0c0,0,0,0,0,0c0,0,0,0,0,0
	c0,0,0,0,0,0c0,0,0,0,0,0c0,0,0,0,0,0c0,0,0.1,0,0.1,0c0,0,0,0,0,0c0,0,0,0,0,0c0,0,0,0,0,0c0,0,0.1,0,0.1,0c0,0,0,0,0,0
	c0,0,0,0,0,0c0,0,0.1,0,0.1-0.1c0,0,0,0,0,0c0,0,0.1-0.1,0.1-0.1c0,0,0,0,0,0c0,0,0,0,0,0c0,0,0,0,0,0c0,0,0.1,0,0.1-0.1
	c0,0,0,0,0,0c0,0,0,0,0,0C51.2,673.9,51.2,673.9,51.3,673.8C51.2,673.8,51.2,673.8,51.3,673.8C51.3,673.8,51.3,673.8,51.3,673.8
	C51.3,673.8,51.3,673.8,51.3,673.8z M50,629.9l7.4,8.6H42.5L50,629.9z M54.4,665l8-23.2h12.2L54.4,665z M50,667.5l-8.8-25.6h17.6
	L50,667.5z M45.6,665l-20.2-23.2h12.2L45.6,665z M75.1,638.5H64.3l5.3-8.1L75.1,638.5z M61,637.4l-7.3-8.3h12.7L61,637.4z M39,637.4
	l-5.4-8.3h12.7L39,637.4z M30.4,630.4l5.3,8.1H24.9L30.4,630.4z"/>
<rect id="XMLID_169_" x="0" y="1000" class="st0" width="100" height="100"/>
<path id="XMLID_158_" class="st2" d="M34,1023.7c2.5,0,4.5,2,4.5,4.5c0,1.1-0.4,2.1-1,2.9l0.7,1.7l-4.2,1.6l-4.2-1.6l0.7-1.7
	c-0.6-0.8-1-1.8-1-2.9C29.5,1025.7,31.6,1023.7,34,1023.7L34,1023.7z M66,1017.9c2.5,0,4.5,2,4.5,4.5c0,1.1-0.4,2.1-1,2.9l0.7,1.7
	l-4.2,1.6l-4.2-1.6l0.7-1.7c-0.6-0.8-1-1.8-1-2.9C61.4,1020,63.5,1017.9,66,1017.9L66,1017.9z M60.9,1028.8l5,2l5-2l1.1,2.7
	l-6.1,2.4l-6.1-2.4L60.9,1028.8L60.9,1028.8z M59.2,1033.5l-1.1,2.7l1.1,0.4c-3.7,8.7-7.1,18-7.3,25.4c-0.3,8.4,3.2,14.3,14,14.3
	c10.9,0,14.3-5.9,14-14.3c-0.3-7.4-3.7-16.7-7.3-25.4l1.1-0.4l-1.1-2.7l-6.8,2.6L59.2,1033.5L59.2,1033.5z M70,1037.7
	c3.6,8.4,6.9,17.5,7.1,24.4c0.2,6.6-2.5,11.3-11.1,11.3c-8.6,0-11.4-4.7-11.1-11.3c0.3-6.9,3.6-16,7.1-24.4l4,1.6L70,1037.7
	L70,1037.7z M66,1020.8c-0.9,0-1.6,0.7-1.6,1.6c0,0.9,0.7,1.6,1.6,1.6c0.9,0,1.6-0.7,1.6-1.6C67.6,1021.6,66.9,1020.8,66,1020.8
	L66,1020.8z M29,1034.6l5,2l5-2l1.1,2.7l-6.1,2.4l-6.1-2.4L29,1034.6L29,1034.6z M27.3,1039.3l-1.1,2.7l1.1,0.4
	c-3.7,8.7-7.1,18-7.3,25.4c-0.3,8.4,3.2,14.3,14,14.3c10.9,0,14.3-5.9,14-14.3c-0.3-7.4-3.7-16.7-7.3-25.4l1.1-0.4l-1.1-2.7
	l-6.8,2.6L27.3,1039.3L27.3,1039.3z M38.1,1043.4c3.6,8.5,6.9,17.5,7.1,24.4c0.2,6.6-2.5,11.3-11.1,11.3c-8.6,0-11.4-4.7-11.1-11.3
	c0.3-6.9,3.6-16,7.1-24.4l4,1.6L38.1,1043.4L38.1,1043.4z M34,1026.5c-0.9,0-1.6,0.7-1.6,1.6c0,0.9,0.7,1.6,1.6,1.6
	c0.9,0,1.6-0.7,1.6-1.6C35.7,1027.3,34.9,1026.5,34,1026.5z"/>
<rect id="XMLID_157_" x="0" y="1100" class="st0" width="100" height="100"/>
<path id="XMLID_151_" class="st2" d="M50.6,1154.2c-0.7,0.4-1.6,0.2-2.1-0.5c-0.4-0.5-0.4-1.2,0-1.8c-1,0.1-1.7,0.9-1.7,1.9
	c0,1.1,0.9,1.9,1.9,1.9C49.7,1155.7,50.5,1155.1,50.6,1154.2L50.6,1154.2z M51.6,1149.6c4.2-2.9,7.8-5.5,11-7.9
	c3.9-3,7.2-5.8,10-8.6c1.3-1.2,1.7-2.7,1.5-3.9c-0.1-0.8-0.6-1.4-1.4-1.7c-0.9-0.3-2.3,0-4,1c-0.1,0.1-1,0.6-0.9,0.6l-3.1,2.3
	c-10.3,7.5-17.7,12.9-29.1,20.7c-2.4,1.6-4.9,1.6-6.7,0.7c-2.6-1.3-3.6-4.4-2.2-7c0.7-1.4,1.7-2.1,2.9-3c3.7-2.7,9.1-6.4,14.5-10.1
	c6.3-4.3,12.7-8.7,16.4-11.5c1-0.8,1.4-1.6,1.3-2.2c-0.1-0.5-0.4-0.9-0.8-1.1c-0.6-0.3-1.6-0.3-2.7,0.4c-3.1,2-6.9,4.5-10.9,7.2
	c-5.7,3.8-11.6,7.7-16.3,10.6c-1.6,1-3.1,1.3-4.5,1.2c-2.1-0.2-3.8-1.6-4.2-3.7c-0.3-1.3-0.1-2.9,0.6-4.6c1-2.2,2.9-4.7,5.9-6.8
	c2.3-1.7,5.3-3.1,9-3.9c0.9-0.2,1.7,0.3,1.9,1.2c0.2,0.9-0.3,1.7-1.2,1.9c-3.2,0.7-5.8,2-7.8,3.4c-2.5,1.8-4.1,3.8-4.8,5.5
	c-0.5,1-0.6,1.9-0.4,2.6c0.2,0.7,0.7,1.2,1.4,1.2c0.7,0.1,1.6-0.2,2.5-0.8c4.7-2.8,10.6-6.8,16.2-10.5c3.9-2.6,7.6-5.1,10.9-7.2
	c2.2-1.4,4.3-1.4,5.8-0.6c1.4,0.7,2.3,2,2.5,3.6c0.2,1.7-0.5,3.6-2.5,5.1c-3.8,2.9-10.2,7.3-16.6,11.6c-5.3,3.6-10.7,7.3-14.3,10
	c-0.7,0.5-1.5,1-2,1.8c-0.7,1.1-0.3,2.3,0.8,2.9c0.9,0.4,2.1,0.4,3.4-0.5c11.2-7.6,18.7-13.1,29-20.6c1.4-1,2.8-2.1,4.2-3
	c2.6-1.6,4.8-1.9,6.6-1.4c2,0.6,3.3,2.2,3.6,4.2c0.3,2.1-0.4,4.6-2.5,6.6c-3,2.9-6.4,5.8-10.3,8.9c-3.3,2.5-6.9,5.1-11,7.9
	c0.2,0.5,0.3,1.1,0.3,1.7c0,1.1-0.4,2.2-1,3c1.5,0.8,2.9,2,4,3.5c2,2.6,3.2,6.3,3.2,10.3c0,4-1.2,7.6-3.2,10.3
	c-2.1,2.8-4.9,4.5-8.2,4.5c-3.2,0-6.1-1.7-8.2-4.5c-2-2.6-3.2-6.3-3.2-10.3c0-4,1.2-7.6,3.2-10.3c1.1-1.5,2.5-2.7,4-3.5
	c-0.6-0.8-1-1.9-1-3c0-2.8,2.3-5.1,5.1-5.1C49.8,1148.7,50.8,1149,51.6,1149.6L51.6,1149.6z M46.6,1166.1l-1,6.8l3,2.8l3.5-2.6
	l0.2-4.6l-2.8-3.4L46.6,1166.1L46.6,1166.1z M44.7,1164.5l-1.4,9.1l5.1,4.8l5.7-4.3l0.3-6.4l-4.2-5.1L44.7,1164.5L44.7,1164.5z
	 M54.3,1162.2c-1.5-2-3.4-3.2-5.6-3.2c-2.1,0-4.1,1.2-5.6,3.2c-1.6,2.1-2.5,5.1-2.5,8.4c0,3.3,1,6.3,2.5,8.4c1.5,2,3.4,3.2,5.6,3.2
	c2.1,0,4.1-1.2,5.6-3.2c1.6-2.1,2.5-5.1,2.5-8.4C56.9,1167.3,55.9,1164.4,54.3,1162.2z"/>
<rect id="XMLID_150_" x="0" y="900" class="st0" width="100" height="100"/>
<path id="XMLID_145_" class="st2" d="M30.6,935.1c-4.9,4.3-7.9,10.2-7.9,16.7c0,8.8,5.5,16.1,13.2,20c0.4,0.2,0.7,0.2,0.9,0
	c0.2-0.1,0.3-0.4,0.3-0.6c0-0.3-0.2-0.7-0.6-0.9c-2.9-1.6-5.3-3.6-7-5.9c-5-6.8-2.5-14.3,4.3-18.7c8.9-5.9,23.6-5.9,32.6,0
	c6.8,4.5,9.3,12,4.3,18.7c-1.7,2.3-4.2,4.3-7.1,5.9c-0.4,0.2-0.6,0.6-0.6,0.9c0,0.2,0.1,0.4,0.3,0.6c0.2,0.1,0.5,0.2,0.9,0
	c7.7-3.9,13.2-11.2,13.2-20c0-6.5-3-12.4-7.9-16.7C58.7,925.7,41.3,925.7,30.6,935.1L30.6,935.1z M35.2,947.9
	c-1.3,0.9-2.4,1.9-3.3,2.9c-0.8,2-0.1,4,1.4,5.9c1.7,2.2,4.3,4.2,6.6,5.8c3.1,2.3,1.8,5.2-0.2,9.5c-1,2.1-2.5,3.3-4.9,2.1
	c-8.6-4.3-14.7-12.5-14.7-22.4c0-7.3,3.4-13.9,8.9-18.7c11.7-10.2,30.6-10.2,42.3,0c5.5,4.8,8.9,11.4,8.9,18.7
	c0,9.8-6.1,18.1-14.7,22.4c-2.4,1.2-4,0.1-4.9-2.1c-2-4.3-3.3-7.2-0.2-9.5c2.3-1.7,4.9-3.7,6.6-5.8c1.5-1.8,2.2-3.8,1.4-5.9
	c-0.9-1.1-2-2.1-3.3-2.9C56.8,942.6,43.2,942.6,35.2,947.9L35.2,947.9z M61,969L61,969c-0.9-2.3-1.2-3.9,0.3-5
	c2.4-1.8,5.1-3.8,6.9-6.2c0.9-1.1,1.6-2.3,1.9-3.5c1,3,0.2,6-1.7,8.5c-1.5,2-3.6,3.8-6.2,5.2C61.7,968.2,61.3,968.6,61,969L61,969z
	 M39,969L39,969c-0.3-0.4-0.7-0.8-1.3-1.1c-2.6-1.4-4.7-3.2-6.2-5.2c-1.9-2.5-2.6-5.5-1.7-8.5c0.3,1.2,1,2.4,1.9,3.5
	c1.8,2.3,4.6,4.4,6.9,6.2C40.2,965.1,40,966.7,39,969z"/>
<rect id="XMLID_144_" x="0" y="1200" class="st0" width="100" height="100"/>
<path id="XMLID_137_" class="st2" d="M50,1234.7c7.9,0,15,0.9,20.2,2.4c6,1.7,9.8,4.5,9.8,7.8s-3.7,6.1-9.8,7.8
	c-2.7,0.8-6,1.4-9.6,1.8v4.4c-3.5,2-7.1,4.1-10.6,6.1c-3.5-2-7.1-4.1-10.6-6.1v-4.4c-3.6-0.4-6.9-1.1-9.6-1.8
	c-6-1.7-9.8-4.5-9.8-7.8s3.7-6.1,9.8-7.8C35,1235.7,42.1,1234.7,50,1234.7L50,1234.7z M60.6,1250.1c3.2-0.4,6-0.9,8.4-1.6
	c4-1.2,6.5-2.4,6.5-3.5c0-1.1-2.5-2.3-6.5-3.5c-4.8-1.4-11.5-2.3-19-2.3c-7.5,0-14.2,0.9-19,2.3c-4,1.2-6.5,2.4-6.5,3.5
	c0,1.1,2.5,2.3,6.5,3.5c2.4,0.7,5.2,1.2,8.4,1.6v-3.3c3.5-2,7.1-4.1,10.6-6.1c3.5,2,7.1,4.1,10.6,6.1V1250.1L60.6,1250.1z
	 M50.9,1244.4v7.1l6.1-3.5C55,1246.7,52.9,1245.6,50.9,1244.4L50.9,1244.4z M50.9,1253.5v8.1l3.1-1.8l4-2.3v-4.6v-3.5L50.9,1253.5
	L50.9,1253.5z M49.1,1261.6v-7.1l-6.1,3.5C45,1259.3,47.1,1260.5,49.1,1261.6L49.1,1261.6z M49.1,1252.5v-8.1
	c-2.3,1.4-4.7,2.7-7,4.1v8.1L49.1,1252.5z"/>
<rect id="XMLID_136_" x="100" y="300" class="st0" width="100" height="100"/>
<g id="XMLID_133_">
	<path id="XMLID_135_" class="st3" d="M150.1,355.7c8.6,0,14.5-10.6,14.5-21.2c0-10.6-1.9-19.4-14.5-19.4
		c-12.5,0-14.6,8.7-14.6,19.4S141.5,355.7,150.1,355.7z"/>
	<path id="XMLID_134_" class="st3" d="M164.4,352c-0.8,4-6.4,8.4-14.3,8.4s-13.6-4.3-14.4-8.4c-10.8,0.8-15.7,16.1-15.7,16.1v8.1
		c0,5.4,8.2,8.6,8.2,8.6h43.5c0,0,8.3-3.2,8.3-8.6v-8.1C180,368.1,175.2,352.8,164.4,352z"/>
</g>
<rect id="XMLID_132_" x="100" y="400" class="st0" width="100" height="100"/>
<path id="XMLID_129_" class="st3" d="M177.9,446.8l-26.2-26.6c-1.1-0.5-2.3-0.5-3.4,0l-26.2,26.6c-1.6,0.8-2.4,2.5-2,4.2
	c0.4,1.7,1.9,2.9,3.6,2.9h5.6v22.5c0,2.1,1.7,3.7,3.7,3.7h33.7c2.1,0,3.7-1.7,3.7-3.7v-22.5h5.6c1.7,0,3.3-1.2,3.6-2.9
	C180.3,449.4,179.5,447.6,177.9,446.8z M155.6,468.9h-11.2v-13.1h11.2V468.9z"/>
<rect id="XMLID_128_" x="100" y="200" class="st0" width="100" height="100"/>
<path id="XMLID_125_" class="st3" d="M147.9,251.4c0-0.5,0.1-0.9,0.1-1.4c0,0,0,0,0,0h37v-2.9l-1.6-2.5h-36.3
	c-2.2-6.4-8.4-11.1-15.6-11.1c-9.1,0-16.5,7.4-16.5,16.5c0,9.1,7.4,16.5,16.5,16.5c7.2,0,13.3-4.6,15.6-11h4.3l1.8-2.1l1-0.1
	l2.1,2.1h3.1l0.7-1.7h1l0.6-1.2l3,2.6l2.3-2.6l2.7,2l1.3,0.1l0.6,0.9h4.3l1.8-2.2l2.2,2.1l0.3,0.1h1.5l3.5-2.8v-1.3H147.9z
	 M122.9,254.2c-2.3,0-4.2-1.9-4.2-4.2c0-2.3,1.9-4.2,4.2-4.2c2.3,0,4.2,1.9,4.2,4.2C127.2,252.3,125.3,254.2,122.9,254.2z"/>
<rect id="XMLID_124_" x="100" y="500" class="st0" width="100" height="100"/>
<path id="XMLID_117_" class="st3" d="M150,580c-16.5,0-30-13.5-30-30s13.5-30,30-30s30,13.5,30,30S166.5,580,150,580z M150,523.7
	c-14.5,0-26.2,11.8-26.2,26.2s11.8,26.2,26.2,26.2s26.2-11.8,26.2-26.2S164.5,523.7,150,523.7z M143.9,558c0-2,0.5-4,1.4-5.3
	s2.5-2.5,4.9-4.2c1.2-0.8,2.2-1.6,2.9-2.7c0.7-1.1,1.1-2.4,1.1-3.9c0-1.5-0.4-2.7-1.2-3.7s-2-1.4-3.5-1.4c-1.2,0-2.3,0.2-3.1,1
	s-1.3,1.2-1.3,3.2h-9l-0.1,0c-0.1-3.8,1.2-6.6,3.6-8.5c2.5-1.9,5.8-2.8,9.8-2.8c4.4,0,7.8,1.1,10.3,3.3c2.5,2.2,3.7,5.2,3.7,8.9
	c0,2.3-0.7,4.4-2,6.3c-1.4,1.9-3.1,3.4-5.2,4.5c-1.2,0.8-2,1.2-2.4,2.1c-0.4,0.9-0.6,2.2-0.6,3.2H143.9z M153,570h-9v-8h9V570z"/>
<rect id="XMLID_116_" x="100" y="800" class="st0" width="100" height="100"/>
<path id="XMLID_113_" class="st3" d="M120,821l16,58l14-11.2l16,9.2v-20l14-12L120,821z M160,867l-34-40l34,28V867z"/>
<rect id="XMLID_112_" x="100" y="700" class="st0" width="100" height="100"/>
<g id="XMLID_106_">
	<path id="XMLID_109_" class="st3" d="M176.7,725h-53.3c-1.8,0-3.3,1.5-3.3,3.3v43.3c0,1.8,1.5,3.3,3.3,3.3h53.3
		c1.8,0,3.3-1.5,3.3-3.3v-43.3C180,726.5,178.5,725,176.7,725z M175,770h-50v-40h50V770z"/>
	<polygon id="XMLID_108_" class="st3" points="159.2,746.9 148.3,760 140.9,751.7 128.3,766.7 171.7,766.7 	"/>
	<circle id="XMLID_107_" class="st3" cx="136.7" cy="741.7" r="5"/>
</g>
<rect id="XMLID_105_" x="100" y="600" class="st0" width="100" height="100"/>
<path id="diamond_3_" class="st3" d="M151.3,673.8l28.3-32.5c0.3-0.3,0.4-0.7,0.4-1.1c0-0.4-0.1-0.8-0.4-1l-8.7-12.7c0,0,0,0,0,0
	l0,0c0,0,0,0,0,0c0,0-0.1-0.1-0.1-0.1c0,0,0,0,0,0c0,0-0.1-0.1-0.1-0.1c0,0,0,0,0,0c0,0-0.1-0.1-0.1-0.1c0,0,0,0-0.1,0c0,0,0,0,0,0
	c0,0-0.1,0-0.1-0.1c0,0,0,0,0,0c-0.1,0-0.1-0.1-0.2-0.1c0,0,0,0,0,0c-0.1,0-0.1,0-0.2,0c0,0,0,0-0.1,0c0,0-0.1,0-0.1,0
	c0,0,0,0-0.1,0c0,0-0.1,0-0.1,0c0,0,0,0,0,0h-39c0,0,0,0,0,0c-0.1,0-0.1,0-0.2,0c0,0,0,0-0.1,0c0,0-0.1,0-0.1,0c0,0,0,0,0,0
	c-0.1,0-0.1,0-0.2,0c0,0,0,0,0,0c-0.1,0-0.1,0-0.2,0.1c0,0,0,0,0,0c0,0-0.1,0-0.1,0.1c0,0,0,0,0,0c0,0,0,0-0.1,0
	c0,0-0.1,0.1-0.1,0.1c0,0,0,0,0,0c0,0-0.1,0.1-0.1,0.1c0,0,0,0,0,0c0,0-0.1,0.1-0.1,0.1c0,0,0,0,0,0l0,0c0,0,0,0,0,0l-8.8,12.8
	c0,0,0,0,0,0c0,0,0,0.1-0.1,0.1c0,0,0,0.1-0.1,0.1c0,0,0,0,0,0c0,0,0,0,0,0.1c0,0,0,0.1,0,0.1c0,0,0,0.1,0,0.1c0,0,0,0.1,0,0.1
	c0,0,0,0.1,0,0.1c0,0,0,0.1,0,0.1c0,0,0,0.1,0,0.1c0,0,0,0.1,0,0.1c0,0,0,0.1,0,0.1c0,0,0,0.1,0,0.1c0,0,0,0.1,0,0.1
	c0,0,0,0.1,0,0.1c0,0,0,0.1,0,0.1c0,0,0,0,0,0c0,0,0,0,0,0.1c0,0,0,0.1,0.1,0.1c0,0,0.1,0.1,0.1,0.1c0,0,0,0,0,0.1l28.3,32.5
	c0,0,0,0,0,0c0,0,0,0,0,0c0,0,0,0,0,0c0,0,0,0.1,0.1,0.1c0,0,0,0,0,0c0,0,0,0,0,0c0,0,0.1,0,0.1,0.1c0,0,0,0,0,0c0,0,0,0,0,0
	c0,0,0,0,0,0c0,0,0.1,0.1,0.1,0.1c0,0,0,0,0,0c0,0,0.1,0,0.1,0.1c0,0,0,0,0,0c0,0,0,0,0,0c0,0,0.1,0,0.1,0c0,0,0,0,0,0c0,0,0,0,0,0
	c0,0,0,0,0,0c0,0,0.1,0,0.1,0c0,0,0,0,0,0c0,0,0,0,0,0c0,0,0,0,0,0c0,0,0,0,0,0c0,0,0,0,0,0c0,0,0,0,0.1,0c0,0,0,0,0,0c0,0,0,0,0,0
	c0,0,0,0,0,0c0,0,0.1,0,0.1,0l0,0h0c0,0,0.1,0,0.1,0c0,0,0,0,0,0c0,0,0,0,0,0c0,0,0,0,0,0c0,0,0,0,0.1,0c0,0,0,0,0,0c0,0,0,0,0,0
	c0,0,0,0,0,0c0,0,0,0,0,0c0,0,0,0,0,0c0,0,0.1,0,0.1,0c0,0,0,0,0,0c0,0,0,0,0,0c0,0,0,0,0,0c0,0,0.1,0,0.1,0c0,0,0,0,0,0
	c0,0,0,0,0,0c0,0,0.1,0,0.1-0.1c0,0,0,0,0,0c0,0,0.1-0.1,0.1-0.1c0,0,0,0,0,0c0,0,0,0,0,0c0,0,0,0,0,0c0,0,0.1,0,0.1-0.1
	c0,0,0,0,0,0c0,0,0,0,0,0C151.2,673.9,151.2,673.9,151.3,673.8C151.2,673.8,151.2,673.8,151.3,673.8
	C151.3,673.8,151.3,673.8,151.3,673.8C151.3,673.8,151.3,673.8,151.3,673.8z M150,629.9l7.4,8.6h-14.9L150,629.9z M154.4,665l8-23.2
	h12.2L154.4,665z M150,667.5l-8.8-25.6h17.6L150,667.5z M145.6,665l-20.2-23.2h12.2L145.6,665z M175.1,638.5h-10.8l5.3-8.1
	L175.1,638.5z M161,637.4l-7.3-8.3h12.7L161,637.4z M139,637.4l-5.4-8.3h12.7L139,637.4z M130.4,630.4l5.3,8.1h-10.8L130.4,630.4z"
	/>
<rect id="XMLID_95_" x="100" y="1000" class="st0" width="100" height="100"/>
<path id="XMLID_84_" class="st4" d="M134,1023.7c2.5,0,4.5,2,4.5,4.5c0,1.1-0.4,2.1-1,2.9l0.7,1.7l-4.2,1.6l-4.2-1.6l0.7-1.7
	c-0.6-0.8-1-1.8-1-2.9C129.5,1025.7,131.6,1023.7,134,1023.7L134,1023.7z M166,1017.9c2.5,0,4.5,2,4.5,4.5c0,1.1-0.4,2.1-1,2.9
	l0.7,1.7l-4.2,1.6l-4.2-1.6l0.7-1.7c-0.6-0.8-1-1.8-1-2.9C161.4,1020,163.5,1017.9,166,1017.9L166,1017.9z M160.9,1028.8l5,2l5-2
	l1.1,2.7l-6.1,2.4l-6.1-2.4L160.9,1028.8L160.9,1028.8z M159.2,1033.5l-1.1,2.7l1.1,0.4c-3.7,8.7-7.1,18-7.3,25.4
	c-0.3,8.4,3.2,14.3,14,14.3c10.9,0,14.3-5.9,14-14.3c-0.3-7.4-3.7-16.7-7.3-25.4l1.1-0.4l-1.1-2.7l-6.8,2.6L159.2,1033.5
	L159.2,1033.5z M170,1037.7c3.6,8.4,6.9,17.5,7.1,24.4c0.2,6.6-2.5,11.3-11.1,11.3c-8.6,0-11.4-4.7-11.1-11.3
	c0.3-6.9,3.6-16,7.1-24.4l4,1.6L170,1037.7L170,1037.7z M166,1020.8c-0.9,0-1.6,0.7-1.6,1.6c0,0.9,0.7,1.6,1.6,1.6
	c0.9,0,1.6-0.7,1.6-1.6C167.6,1021.6,166.9,1020.8,166,1020.8L166,1020.8z M129,1034.6l5,2l5-2l1.1,2.7l-6.1,2.4l-6.1-2.4
	L129,1034.6L129,1034.6z M127.3,1039.3l-1.1,2.7l1.1,0.4c-3.7,8.7-7.1,18-7.3,25.4c-0.3,8.4,3.2,14.3,14,14.3
	c10.9,0,14.3-5.9,14-14.3c-0.3-7.4-3.7-16.7-7.3-25.4l1.1-0.4l-1.1-2.7l-6.8,2.6L127.3,1039.3L127.3,1039.3z M138.1,1043.4
	c3.6,8.5,6.9,17.5,7.1,24.4c0.2,6.6-2.5,11.3-11.1,11.3c-8.6,0-11.4-4.7-11.1-11.3c0.3-6.9,3.6-16,7.1-24.4l4,1.6L138.1,1043.4
	L138.1,1043.4z M134,1026.5c-0.9,0-1.6,0.7-1.6,1.6c0,0.9,0.7,1.6,1.6,1.6c0.9,0,1.6-0.7,1.6-1.6
	C135.7,1027.3,134.9,1026.5,134,1026.5z"/>
<rect id="XMLID_83_" x="100" y="1100" class="st0" width="100" height="100"/>
<path id="XMLID_77_" class="st4" d="M150.6,1154.2c-0.7,0.4-1.6,0.2-2.1-0.5c-0.4-0.5-0.4-1.2,0-1.8c-1,0.1-1.7,0.9-1.7,1.9
	c0,1.1,0.9,1.9,1.9,1.9C149.7,1155.7,150.5,1155.1,150.6,1154.2L150.6,1154.2z M151.6,1149.6c4.2-2.9,7.8-5.5,11-7.9
	c3.9-3,7.2-5.8,10-8.6c1.3-1.2,1.7-2.7,1.5-3.9c-0.1-0.8-0.6-1.4-1.4-1.7c-0.9-0.3-2.3,0-4,1c-0.1,0.1-1,0.6-0.9,0.6l-3.1,2.3
	c-10.3,7.5-17.7,12.9-29.1,20.7c-2.4,1.6-4.9,1.6-6.7,0.7c-2.6-1.3-3.6-4.4-2.2-7c0.7-1.4,1.7-2.1,2.9-3c3.7-2.7,9.1-6.4,14.5-10.1
	c6.3-4.3,12.7-8.7,16.4-11.5c1-0.8,1.4-1.6,1.3-2.2c-0.1-0.5-0.4-0.9-0.8-1.1c-0.6-0.3-1.6-0.3-2.7,0.4c-3.1,2-6.9,4.5-10.9,7.2
	c-5.7,3.8-11.6,7.7-16.3,10.6c-1.6,1-3.1,1.3-4.5,1.2c-2.1-0.2-3.8-1.6-4.2-3.7c-0.3-1.3-0.1-2.9,0.6-4.6c1-2.2,2.9-4.7,5.9-6.8
	c2.3-1.7,5.3-3.1,9-3.9c0.9-0.2,1.7,0.3,1.9,1.2c0.2,0.9-0.3,1.7-1.2,1.9c-3.2,0.7-5.8,2-7.8,3.4c-2.5,1.8-4.1,3.8-4.8,5.5
	c-0.5,1-0.6,1.9-0.4,2.6c0.2,0.7,0.7,1.2,1.4,1.2c0.7,0.1,1.6-0.2,2.5-0.8c4.7-2.8,10.6-6.8,16.2-10.5c3.9-2.6,7.6-5.1,10.9-7.2
	c2.2-1.4,4.3-1.4,5.8-0.6c1.4,0.7,2.3,2,2.5,3.6c0.2,1.7-0.5,3.6-2.5,5.1c-3.8,2.9-10.2,7.3-16.6,11.6c-5.3,3.6-10.7,7.3-14.3,10
	c-0.7,0.5-1.5,1-2,1.8c-0.7,1.1-0.3,2.3,0.8,2.9c0.9,0.4,2.1,0.4,3.4-0.5c11.2-7.6,18.7-13.1,29-20.6c1.4-1,2.8-2.1,4.2-3
	c2.6-1.6,4.8-1.9,6.6-1.4c2,0.6,3.3,2.2,3.6,4.2c0.3,2.1-0.4,4.6-2.5,6.6c-3,2.9-6.4,5.8-10.3,8.9c-3.3,2.5-6.9,5.1-11,7.9
	c0.2,0.5,0.3,1.1,0.3,1.7c0,1.1-0.4,2.2-1,3c1.5,0.8,2.9,2,4,3.5c2,2.6,3.2,6.3,3.2,10.3c0,4-1.2,7.6-3.2,10.3
	c-2.1,2.8-4.9,4.5-8.2,4.5c-3.2,0-6.1-1.7-8.2-4.5c-2-2.6-3.2-6.3-3.2-10.3c0-4,1.2-7.6,3.2-10.3c1.1-1.5,2.5-2.7,4-3.5
	c-0.6-0.8-1-1.9-1-3c0-2.8,2.3-5.1,5.1-5.1C149.8,1148.7,150.8,1149,151.6,1149.6L151.6,1149.6z M146.6,1166.1l-1,6.8l3,2.8l3.5-2.6
	l0.2-4.6l-2.8-3.4L146.6,1166.1L146.6,1166.1z M144.7,1164.5l-1.4,9.1l5.1,4.8l5.7-4.3l0.3-6.4l-4.2-5.1L144.7,1164.5L144.7,1164.5z
	 M154.3,1162.2c-1.5-2-3.4-3.2-5.6-3.2c-2.1,0-4.1,1.2-5.6,3.2c-1.6,2.1-2.5,5.1-2.5,8.4c0,3.3,1,6.3,2.5,8.4c1.5,2,3.4,3.2,5.6,3.2
	c2.1,0,4.1-1.2,5.6-3.2c1.6-2.1,2.5-5.1,2.5-8.4C156.9,1167.3,155.9,1164.4,154.3,1162.2z"/>
<rect id="XMLID_76_" x="100" y="900" class="st0" width="100" height="100"/>
<path id="XMLID_71_" class="st4" d="M130.6,935.1c-4.9,4.3-7.9,10.2-7.9,16.7c0,8.8,5.5,16.1,13.2,20c0.4,0.2,0.7,0.2,0.9,0
	c0.2-0.1,0.3-0.4,0.3-0.6c0-0.3-0.2-0.7-0.6-0.9c-2.9-1.6-5.3-3.6-7-5.9c-5-6.8-2.5-14.3,4.3-18.7c8.9-5.9,23.6-5.9,32.6,0
	c6.8,4.5,9.3,12,4.3,18.7c-1.7,2.3-4.2,4.3-7.1,5.9c-0.4,0.2-0.6,0.6-0.6,0.9c0,0.2,0.1,0.4,0.3,0.6c0.2,0.1,0.5,0.2,0.9,0
	c7.7-3.9,13.2-11.2,13.2-20c0-6.5-3-12.4-7.9-16.7C158.7,925.7,141.3,925.7,130.6,935.1L130.6,935.1z M135.2,947.9
	c-1.3,0.9-2.4,1.9-3.3,2.9c-0.8,2-0.1,4,1.4,5.9c1.7,2.2,4.3,4.2,6.6,5.8c3.1,2.3,1.8,5.2-0.2,9.5c-1,2.1-2.5,3.3-4.9,2.1
	c-8.6-4.3-14.7-12.5-14.7-22.4c0-7.3,3.4-13.9,8.9-18.7c11.7-10.2,30.6-10.2,42.3,0c5.5,4.8,8.9,11.4,8.9,18.7
	c0,9.8-6.1,18.1-14.7,22.4c-2.4,1.2-4,0.1-4.9-2.1c-2-4.3-3.3-7.2-0.2-9.5c2.3-1.7,4.9-3.7,6.6-5.8c1.5-1.8,2.2-3.8,1.4-5.9
	c-0.9-1.1-2-2.1-3.3-2.9C156.8,942.6,143.2,942.6,135.2,947.9L135.2,947.9z M161,969L161,969c-0.9-2.3-1.2-3.9,0.3-5
	c2.4-1.8,5.1-3.8,6.9-6.2c0.9-1.1,1.6-2.3,1.9-3.5c1,3,0.2,6-1.7,8.5c-1.5,2-3.6,3.8-6.2,5.2C161.7,968.2,161.3,968.6,161,969
	L161,969z M139,969L139,969c-0.3-0.4-0.7-0.8-1.3-1.1c-2.6-1.4-4.7-3.2-6.2-5.2c-1.9-2.5-2.6-5.5-1.7-8.5c0.3,1.2,1,2.4,1.9,3.5
	c1.8,2.3,4.6,4.4,6.9,6.2C140.2,965.1,140,966.7,139,969z"/>
<rect id="XMLID_70_" x="100" y="1200" class="st0" width="100" height="100"/>
<path id="XMLID_63_" class="st4" d="M150,1234.7c7.9,0,15,0.9,20.2,2.4c6,1.7,9.8,4.5,9.8,7.8s-3.7,6.1-9.8,7.8
	c-2.7,0.8-6,1.4-9.6,1.8v4.4c-3.5,2-7.1,4.1-10.6,6.1c-3.5-2-7.1-4.1-10.6-6.1v-4.4c-3.6-0.4-6.9-1.1-9.6-1.8
	c-6-1.7-9.8-4.5-9.8-7.8s3.7-6.1,9.8-7.8C135,1235.7,142.1,1234.7,150,1234.7L150,1234.7z M160.6,1250.1c3.2-0.4,6-0.9,8.4-1.6
	c4-1.2,6.5-2.4,6.5-3.5c0-1.1-2.5-2.3-6.5-3.5c-4.8-1.4-11.5-2.3-19-2.3c-7.5,0-14.2,0.9-19,2.3c-4,1.2-6.5,2.4-6.5,3.5
	c0,1.1,2.5,2.3,6.5,3.5c2.4,0.7,5.2,1.2,8.4,1.6v-3.3c3.5-2,7.1-4.1,10.6-6.1c3.5,2,7.1,4.1,10.6,6.1V1250.1L160.6,1250.1z
	 M150.9,1244.4v7.1l6.1-3.5C155,1246.7,152.9,1245.6,150.9,1244.4L150.9,1244.4z M150.9,1253.5v8.1l3.1-1.8l4-2.3v-4.6v-3.5
	L150.9,1253.5L150.9,1253.5z M149.1,1261.6v-7.1l-6.1,3.5C145,1259.3,147.1,1260.5,149.1,1261.6L149.1,1261.6z M149.1,1252.5v-8.1
	c-2.3,1.4-4.7,2.7-7,4.1v8.1L149.1,1252.5z"/>
<rect id="XMLID_16_" x="0" y="1300" class="st0" width="100" height="100"/>
<rect id="XMLID_8_" x="100" y="1300" class="st0" width="100" height="100"/>
<g>
	<rect id="XMLID_2_" x="0" y="1400" class="st0" width="100" height="100"/>
	<rect id="XMLID_1_" x="100" y="1400" class="st0" width="100" height="100"/>
</g>
<rect id="XMLID_4_" x="0" y="1500" class="st0" width="100" height="100"/>
<rect id="XMLID_3_" x="100" y="1500" class="st0" width="100" height="100"/>
<rect id="XMLID_62_" x="0" y="100" class="st0" width="100" height="100"/>
<rect id="XMLID_61_" x="100" y="100" class="st0" width="100" height="100"/>
<g id="XMLID_57_">
	<rect id="XMLID_60_" x="25" y="127" class="st1" width="50" height="6"/>
	<rect id="XMLID_59_" x="25" y="167" class="st1" width="50" height="6"/>
	<rect id="XMLID_58_" x="25" y="147" class="st1" width="50" height="6"/>
</g>
<g id="XMLID_53_">
	<rect id="XMLID_56_" x="137.5" y="127" class="st5" width="25" height="6"/>
	<rect id="XMLID_55_" x="137.5" y="167" class="st5" width="25" height="6"/>
	<rect id="XMLID_54_" x="137.5" y="147" class="st5" width="25" height="6"/>
</g>
<rect id="XMLID_52_" x="0" y="0" class="st0" width="100" height="100"/>
<rect id="XMLID_51_" x="100" y="0" class="st0" width="100" height="100"/>
<g id="XMLID_40_">
	<g id="XMLID_49_">
		<path id="XMLID_50_" class="st1" d="M65.4,43.9h-5.9L55.9,34l-2.2,1.1l3.3,8.8H42.6l3.3-8.8L43.7,34l-3.6,9.9h-5.5
			c-1.2,0-2.2,1-2.2,2.2c0,1.2,1,2.2,2.2,2.2H35h30h0.4c1.2,0,2.2-1,2.2-2.2C67.7,44.9,66.7,43.9,65.4,43.9z"/>
	</g>
	<g id="XMLID_41_">
		<g id="XMLID_42_">
			<path id="XMLID_43_" class="st1" d="M36.8,64.9l1.1,1.1h24.3l1.1-1.1l1.5-14.3H35.2L36.8,64.9z M56.6,53.3c0-1.2,0.7-1.6,1.7-1.6
				c0.9,0,1.7,0.4,1.7,1.6v8.8c0,1.2-0.7,1.7-1.7,1.7c-0.9,0-1.7-0.5-1.7-1.7V53.3z M51.1,53.3c0-1.2,0.7-1.6,1.7-1.6
				c0.9,0,1.7,0.4,1.7,1.6v8.8c0,1.2-0.7,1.7-1.7,1.7c-0.9,0-1.7-0.5-1.7-1.7V53.3z M45.6,53.3c0-1.2,0.7-1.6,1.7-1.6
				c0.9,0,1.7,0.4,1.7,1.6v8.8c0,1.2-0.7,1.7-1.7,1.7c-0.9,0-1.7-0.5-1.7-1.7V53.3z M40.1,53.3c0-1.2,0.7-1.6,1.7-1.6
				c0.9,0,1.7,0.4,1.7,1.6v8.8c0,1.2-0.7,1.7-1.7,1.7c-0.9,0-1.7-0.5-1.7-1.7V53.3z"/>
		</g>
	</g>
</g>
<g id="XMLID_29_">
	<g id="XMLID_38_">
		<path id="XMLID_39_" class="st6" d="M165.4,43.9h-5.9l-3.7-9.9l-2.2,1.1l3.3,8.8h-14.4l3.3-8.8l-2.2-1.1l-3.6,9.9h-5.5
			c-1.2,0-2.2,1-2.2,2.2s1,2.2,2.2,2.2h0.4h30h0.4c1.2,0,2.2-1,2.2-2.2S166.7,43.9,165.4,43.9z"/>
	</g>
	<g id="XMLID_30_">
		<g id="XMLID_31_">
			<path id="XMLID_32_" class="st6" d="M136.8,64.9l1.1,1.1h24.3l1.1-1.1l1.5-14.3h-29.6L136.8,64.9z M156.6,53.3
				c0-1.2,0.7-1.6,1.7-1.6c0.9,0,1.7,0.4,1.7,1.6v8.8c0,1.2-0.7,1.7-1.7,1.7c-0.9,0-1.7-0.5-1.7-1.7V53.3z M151.1,53.3
				c0-1.2,0.7-1.6,1.7-1.6c0.9,0,1.7,0.4,1.7,1.6v8.8c0,1.2-0.7,1.7-1.7,1.7c-0.9,0-1.7-0.5-1.7-1.7V53.3z M145.6,53.3
				c0-1.2,0.7-1.6,1.7-1.6c0.9,0,1.7,0.4,1.7,1.6v8.8c0,1.2-0.7,1.7-1.7,1.7c-0.9,0-1.7-0.5-1.7-1.7V53.3z M140.1,53.3
				c0-1.2,0.7-1.6,1.7-1.6c0.9,0,1.7,0.4,1.7,1.6v8.8c0,1.2-0.7,1.7-1.7,1.7c-0.9,0-1.7-0.5-1.7-1.7V53.3z"/>
		</g>
	</g>
</g>
<g>
	<path id="XMLID_7_" class="st1" d="M36.9,1454.4c8.6,0,14.5-10.6,14.5-21.2c0-10.6-1.9-19.4-14.5-19.4c-12.5,0-14.6,8.7-14.6,19.4
		S28.4,1454.4,36.9,1454.4z"/>
	<path class="st1" d="M87,1455.2H62c-2.8,0-5,2.2-5,5v20c0,2.8,2.2,5,5,5h25c2.8,0,5-2.2,5-5v-20C92,1457.4,89.8,1455.2,87,1455.2z"
		/>
	<g>
		<path class="st1" d="M56,1480.2v-20c0-2.5,1.5-4.6,3.6-5.5c-2.2-2.1-5-3.8-8.3-4c-0.8,4-6.4,8.4-14.3,8.4
			c-7.8,0-13.6-4.3-14.4-8.4c-10.8,0.8-15.6,16.1-15.6,16.1v8.1c0,5.4,8.1,9.1,8.1,9.1H57C56.4,1483,56,1481.4,56,1480.2z"/>
	</g>
	<path class="st5" d="M87,1486.2H62c-3.3,0-6-2.7-6-6v-20c0-3.3,2.7-6,6-6h25c3.3,0,6,2.7,6,6v20C93,1483.5,90.3,1486.2,87,1486.2z
		 M62,1456.2c-2.2,0-4,1.8-4,4v20c0,2.2,1.8,4,4,4h25c2.2,0,4-1.8,4-4v-20c0-2.2-1.8-4-4-4H62z"/>
	<g>
		<path class="st1" d="M78,1469.7h-7c-3.9,0-7-3.1-7-7v-12c0-3.9,3.1-7,7-7h7c3.9,0,7,3.1,7,7v12C85,1466.5,81.9,1469.7,78,1469.7z
			 M71,1447.7c-1.7,0-3,1.3-3,3v12c0,1.7,1.3,3,3,3h7c1.7,0,3-1.3,3-3v-12c0-1.7-1.3-3-3-3H71z"/>
	</g>
	<circle class="st5" cx="74.6" cy="1470.2" r="5.6"/>
	<path class="st5" d="M74.5,1481L74.5,1481c-1.7,0-3-1.3-3-3v-9h6v9C77.5,1479.7,76.2,1481,74.5,1481z"/>
</g>
<g>
	<path id="XMLID_5_" d="M136.9,1454.4c8.6,0,14.5-10.6,14.5-21.2c0-10.6-1.9-19.4-14.5-19.4c-12.5,0-14.6,8.7-14.6,19.4
		S128.4,1454.4,136.9,1454.4z"/>
	<path d="M187,1455.2h-25c-2.8,0-5,2.2-5,5v20c0,2.8,2.2,5,5,5h25c2.8,0,5-2.2,5-5v-20C192,1457.4,189.8,1455.2,187,1455.2z"/>
	<g>
		<path d="M156,1480.2v-20c0-2.5,1.5-4.6,3.6-5.5c-2.2-2.1-5-3.8-8.3-4c-0.8,4-6.4,8.4-14.3,8.4c-7.8,0-13.6-4.3-14.4-8.4
			c-10.8,0.8-15.6,16.1-15.6,16.1v8.1c0,5.4,8.1,9.1,8.1,9.1H157C156.4,1483,156,1481.4,156,1480.2z"/>
	</g>
	<path class="st5" d="M187,1486.2h-25c-3.3,0-6-2.7-6-6v-20c0-3.3,2.7-6,6-6h25c3.3,0,6,2.7,6,6v20
		C193,1483.5,190.3,1486.2,187,1486.2z M162,1456.2c-2.2,0-4,1.8-4,4v20c0,2.2,1.8,4,4,4h25c2.2,0,4-1.8,4-4v-20c0-2.2-1.8-4-4-4
		H162z"/>
	<g>
		<path d="M178,1469.7h-7c-3.9,0-7-3.1-7-7v-12c0-3.9,3.1-7,7-7h7c3.9,0,7,3.1,7,7v12C185,1466.5,181.9,1469.7,178,1469.7z
			 M171,1447.7c-1.7,0-3,1.3-3,3v12c0,1.7,1.3,3,3,3h7c1.7,0,3-1.3,3-3v-12c0-1.7-1.3-3-3-3H171z"/>
	</g>
	<circle class="st5" cx="174.6" cy="1470.2" r="5.6"/>
	<path class="st5" d="M174.5,1481L174.5,1481c-1.7,0-3-1.3-3-3v-9h6v9C177.5,1479.7,176.2,1481,174.5,1481z"/>
</g>
<g>
	<path class="st3" d="M158.2,1322.3h-4.7c-0.2-4.1-3.2-7.3-7-7.3c-3.7,0-6.7,3.2-7,7.3H135c-1.1,0-2.1,0.8-2.1,1.8v6.6
		c0,1,0.9,1.8,2.1,1.8h23.2c1.1,0,2.1-0.8,2.1-1.8v-6.6C160.2,1323.1,159.3,1322.3,158.2,1322.3z M146.6,1321.8
		c-1.2,0-2.1-1-2.1-2.1s1-2.1,2.1-2.1s2.1,1,2.1,2.1S147.7,1321.8,146.6,1321.8z"/>
	<g>
		<path class="st3" d="M167.8,1335.8l0.1-0.1c0.5-0.9,1.5-1.4,2.7-1.4v-5.5c0-1.6-1.3-2.9-2.9-2.9h-5.3v2.8h5.3V1335.8z"/>
		<path class="st3" d="M167.8,1359.5v22.7h-42.4v-53.5h5.3v-2.8h-5.3c-1.6,0-2.9,1.3-2.9,2.9v53.4c0,1.6,1.3,2.9,2.9,2.9h42.3
			c1.6,0,2.9-1.3,2.9-2.9v-27.4L167.8,1359.5z"/>
	</g>
	<g>
		<path class="st3" d="M168.8,1336.2l-2.2,3.8l8.4,4.9l2.2-3.8C178.9,1338.2,170.4,1333.3,168.8,1336.2z"/>
		<path class="st3" d="M173.6,1346.1l-2.2-1.3l-3.2-1.8l-2.1-1.2l-0.5-0.3l-0.3,0.5l-0.2,0.4l-10.8,18.8c-0.1,0.1-0.1,0.2-0.1,0.3h0
			l0.4,9.1l7.9-4.4l0,0c0.1,0,0.2-0.1,0.2-0.2l10.8-18.8l0.2-0.4l0.3-0.5L173.6,1346.1z M155.9,1368.2l-0.5-5.6c0.5,0.2,1,0.2,1.5,0
			c0.1,0.6,0.6,1.2,1.2,1.6c0.6,0.3,1.4,0.5,2,0.3c0.1,0.5,0.4,1,0.8,1.3L155.9,1368.2z"/>
	</g>
</g>
<g>
	<path class="st1" d="M58.2,1322.3h-4.7c-0.2-4.1-3.2-7.3-7-7.3c-3.7,0-6.7,3.2-7,7.3H35c-1.1,0-2.1,0.8-2.1,1.8v6.6
		c0,1,0.9,1.8,2.1,1.8h23.2c1.1,0,2.1-0.8,2.1-1.8v-6.6C60.2,1323.1,59.3,1322.3,58.2,1322.3z M46.6,1321.8c-1.2,0-2.1-1-2.1-2.1
		s1-2.1,2.1-2.1c1.2,0,2.1,1,2.1,2.1S47.7,1321.8,46.6,1321.8z"/>
	<g>
		<path class="st1" d="M67.8,1335.8l0.1-0.1c0.5-0.9,1.5-1.4,2.7-1.4v-5.5c0-1.6-1.3-2.9-2.9-2.9h-5.3v2.8h5.3V1335.8z"/>
		<path class="st1" d="M67.8,1359.5v22.7H25.4v-53.5h5.3v-2.8h-5.3c-1.6,0-2.9,1.3-2.9,2.9v53.4c0,1.6,1.3,2.9,2.9,2.9h42.3
			c1.6,0,2.9-1.3,2.9-2.9v-27.4L67.8,1359.5z"/>
	</g>
	<g>
		<path class="st1" d="M68.8,1336.2l-2.2,3.8l8.4,4.9l2.2-3.8C78.9,1338.2,70.4,1333.3,68.8,1336.2z"/>
		<path class="st1" d="M73.6,1346.1l-2.2-1.3l-3.2-1.8l-2.1-1.2l-0.5-0.3l-0.3,0.5l-0.2,0.4l-10.8,18.8c-0.1,0.1-0.1,0.2-0.1,0.3h0
			l0.4,9.1l7.9-4.4l0,0c0.1,0,0.2-0.1,0.2-0.2l10.8-18.8l0.2-0.4l0.3-0.5L73.6,1346.1z M55.9,1368.2l-0.5-5.6c0.5,0.2,1,0.2,1.5,0
			c0.1,0.6,0.6,1.2,1.2,1.6c0.6,0.3,1.4,0.5,2,0.3c0.1,0.5,0.4,1,0.8,1.3L55.9,1368.2z"/>
	</g>
</g>
<g>
	<path class="st1" d="M32.4,1565.1c-1.3,0-2.5-0.4-3.7-0.8c-0.2,4.5,1.3,14.1,3.9,15.4c2.4,1.2,11-2.4,11-4.6c0-2.5-3-4.8-3.8-10
		H32.4z"/>
	<path class="st1" d="M67.6,1520c-0.3,0-1,0-1.1,0c-4.4,0-13.5,10.9-24,13.1H32.4c-6.7,0-12,7.4-12,14.5c0,7.1,5.5,14.2,12.1,14.2
		h6.4c-3.3-7-4-16.2,1.7-24.3c-2,5.1-3,16.2,2.3,24.3c10.4,2.2,19.2,13.2,23.6,13.2c0.1,0,0.2-0.1,0.3-0.1c0.3,0,0.5,0.1,0.8,0.1
		c6.7,0,12.1-12.6,12.1-27.8C79.7,1532,74.3,1520,67.6,1520z M67.6,1569.7c-2.2,0-7.6-7.9-7.6-22.5c0-14.7,5.4-22,7.6-22
		c2.2,0,7.4,7.6,7.4,22.3C75,1562.2,69.8,1569.7,67.6,1569.7z"/>
</g>
<g>
	<path class="st3" d="M132.4,1565.1c-1.3,0-2.5-0.4-3.7-0.8c-0.2,4.5,1.3,14.1,3.9,15.4c2.4,1.2,11-2.4,11-4.6c0-2.5-3-4.8-3.8-10
		H132.4z"/>
	<path class="st3" d="M167.6,1520c-0.3,0-1,0-1.1,0c-4.4,0-13.5,10.9-24,13.1h-10.1c-6.7,0-12,7.4-12,14.5c0,7.1,5.5,14.2,12.1,14.2
		h6.4c-3.3-7-4-16.2,1.7-24.3c-2,5.1-3,16.2,2.3,24.3c10.4,2.2,19.2,13.2,23.6,13.2c0.1,0,0.2-0.1,0.3-0.1c0.3,0,0.5,0.1,0.8,0.1
		c6.7,0,12.1-12.6,12.1-27.8C179.7,1532,174.3,1520,167.6,1520z M167.6,1569.7c-2.2,0-7.6-7.9-7.6-22.5c0-14.7,5.4-22,7.6-22
		c2.2,0,7.4,7.6,7.4,22.3C175,1562.2,169.8,1569.7,167.6,1569.7z"/>
</g>
</svg>
