<?xml version="1.0" encoding="utf-8"?>
<!-- Generator: Adobe Illustrator 20.0.0, SVG Export Plug-In . SVG Version: 6.00 Build 0)  -->
<svg version="1.1" id="Layer_1" xmlns="http://www.w3.org/2000/svg" xmlns:xlink="http://www.w3.org/1999/xlink" x="0px" y="0px"
	 viewBox="0 0 350 77.9" style="enable-background:new 0 0 350 77.9;" xml:space="preserve">
<style type="text/css">
	.st0{fill:#F7C25D;}
	.st1{enable-background:new    ;}
</style>
<g>
	<path class="st0" d="M4.5,15c0-8.1,0-9.5-0.1-11.2C4.3,2.1,3.9,1.2,2.2,0.9C1.8,0.8,0.9,0.7,0.4,0.7C0.2,0.7,0,0.6,0,0.4
		C0,0.1,0.3,0,0.8,0c2.3,0,5.6,0.2,5.8,0.2c0.6,0,3.9-0.2,7-0.2c5.1,0,14.6-0.5,20.7,5.9c2.6,2.7,5,7,5,13.1
		c0,6.5-2.7,11.5-5.6,14.6c-2.2,2.3-6.9,5.9-15.7,5.9c-2.2,0-5-0.2-7.2-0.3c-2.3-0.2-4-0.3-4.3-0.3c-0.1,0-1,0-2.1,0.1
		c-1,0-2.2,0.1-3,0.1c-0.6,0-0.8-0.1-0.8-0.4c0-0.2,0.1-0.3,0.4-0.3c0.5,0,1.1-0.1,1.6-0.2c1-0.2,1.3-1.3,1.5-2.8
		c0.3-2.2,0.3-6.3,0.3-11.2L4.5,15L4.5,15z M8.8,20.6c0,5.5,0.1,10.2,0.1,11.2c0.1,1.3,0.2,3.4,0.6,3.9c0.7,1,2.7,2.1,8.8,2.1
		c4.8,0,9.2-1.8,12.3-4.8c2.7-2.6,4.1-7.6,4.1-12.3c0-6.6-2.8-10.8-5-13C24.9,2.5,19,1.8,12.9,1.8c-1,0-2.9,0.2-3.4,0.4
		C9,2.3,8.9,2.6,8.9,3.2c-0.1,1.8-0.1,7-0.1,11V20.6z"/>
	<path class="st0" d="M48.8,18.6c0-6.8,0-8.1-0.1-9.5c-0.1-1.4-0.4-2.2-1.9-2.4c-0.4,0-1.1-0.1-1.5-0.1c-0.2,0-0.4-0.2-0.4-0.4
		c0-0.3,0.2-0.4,0.7-0.4c2.1,0,4.8,0.1,5.2,0.1s3.3-0.1,4.6-0.1c0.5,0,0.8,0.1,0.8,0.4c0,0.2-0.2,0.4-0.4,0.4c-0.3,0-0.6,0-1.1,0.1
		c-1.2,0.2-1.4,1-1.5,2.4C53,10.5,53,11.7,53,18.6v6.1c0,6.4,1.4,9,3.4,10.7c2.2,2,4.2,2.4,6.8,2.4c2.8,0,5.5-1.2,7-3.1
		c2.1-2.5,2.6-6.1,2.6-10.6v-5.5c0-6.8-0.1-8.1-0.1-9.5c-0.1-1.4-0.3-2.2-1.8-2.4c-0.4,0-1.1-0.1-1.6-0.1c-0.2,0-0.4-0.2-0.4-0.4
		c0-0.3,0.2-0.4,0.7-0.4c2,0,4.6,0.1,4.9,0.1c0.3,0,2.5-0.1,3.8-0.1c0.5,0,0.7,0.1,0.7,0.4c0,0.2-0.2,0.4-0.4,0.4
		c-0.3,0-0.6,0-1.1,0.1c-1.2,0.3-1.5,1-1.6,2.4c-0.1,1.4-0.1,2.6-0.1,9.5v4.7c0,4.8-0.6,10.1-4.2,13.2c-3.3,2.8-6.8,3.2-9.5,3.2
		c-1.5,0-6.3-0.1-9.5-3.1c-2.2-2.1-4-5.1-4-11.5L48.8,18.6L48.8,18.6z"/>
	<path class="st0" d="M89.3,18.6c0-6.8,0-8.1-0.1-9.5c-0.1-1.5-0.4-2.2-1.9-2.4c-0.4,0-1.1-0.1-1.5-0.1c-0.2,0-0.4-0.2-0.4-0.4
		c0-0.3,0.2-0.4,0.7-0.4c2.1,0,4.9,0.1,5.1,0.1c0.4,0,3.2-0.1,4.5-0.1c0.5,0,0.7,0.1,0.7,0.4c0,0.2-0.2,0.4-0.4,0.4
		c-0.3,0-0.6,0-1.1,0.1c-1.2,0.3-1.5,0.9-1.6,2.4c-0.1,1.4-0.1,2.6-0.1,9.5v2.6h0.2c0.7-0.8,8.8-8.8,10.5-10.6
		c1.3-1.3,2.5-2.4,2.5-3.2c0-0.6-0.2-0.8-0.6-0.9c-0.3,0-0.4-0.3-0.4-0.4c0-0.2,0.2-0.3,0.5-0.3c0.9,0,2.3,0.1,3.4,0.1
		c0.3,0,3.3-0.1,4.4-0.1c0.5,0,0.7,0.1,0.7,0.3c0,0.2-0.1,0.4-0.5,0.4c-0.7,0-1.7,0.3-2.5,0.6c-1.9,0.8-2.7,1.8-4.8,3.7
		c-1.1,1-8.9,8.5-9.9,9.6c1.2,1.3,10.6,10.7,12.5,12.5c3.8,3.4,4.3,4,6.5,4.9c1.2,0.5,2.5,0.6,2.8,0.6c0.3,0,0.6,0.2,0.6,0.4
		c0,0.2-0.2,0.4-1,0.4H116c-1.3,0-2.1,0-3.2-0.1c-2.4-0.2-3.6-1.2-5.5-2.7c-2.1-1.6-11.6-11.7-13.8-14.3h-0.2v4.3
		c0,4.2,0,7.7,0.2,9.5c0.2,1.3,0.4,2.1,1.8,2.3c0.6,0.1,1.3,0.2,1.8,0.2c0.3,0,0.4,0.2,0.4,0.4c0,0.2-0.2,0.4-0.7,0.4
		c-2.2,0-5-0.2-5.3-0.2c-0.4,0-3.1,0.2-4.5,0.2c-0.5,0-0.7-0.1-0.7-0.4c0-0.2,0.1-0.4,0.4-0.4c0.4,0,1-0.1,1.4-0.2
		c0.9-0.2,1-1,1.2-2.3c0.3-1.8,0.3-5.3,0.3-9.5L89.3,18.6L89.3,18.6z"/>
	<path class="st0" d="M128.3,26.3c0,4.2,0,7.7,0.2,9.5c0.2,1.3,0.3,2.1,1.7,2.3c0.7,0.1,1.7,0.2,2.1,0.2c0.3,0,0.4,0.2,0.4,0.4
		c0,0.2-0.2,0.4-0.7,0.4c-2.5,0-5.5-0.2-5.7-0.2c-0.3,0-3.1,0.2-4.5,0.2c-0.5,0-0.7-0.1-0.7-0.4c0-0.2,0.1-0.4,0.4-0.4
		c0.4,0,1-0.1,1.4-0.2c0.9-0.2,1-1,1.2-2.3c0.2-1.8,0.3-5.3,0.3-9.5v-7.8c0-6.8,0-8.1-0.1-9.5c-0.1-1.5-0.5-2.2-1.4-2.4
		c-0.5-0.1-1.1-0.2-1.4-0.2c-0.2,0-0.4-0.2-0.4-0.4c0-0.3,0.2-0.4,0.7-0.4c1.5,0,4.3,0.1,4.6,0.1c0.2,0,3.2-0.1,4.5-0.1
		c0.5,0,0.7,0.1,0.7,0.4c0,0.2-0.2,0.4-0.4,0.4c-0.3,0-0.6,0-1.1,0.1c-1.2,0.3-1.5,0.9-1.6,2.4c-0.1,1.4-0.1,2.6-0.1,9.5V26.3z"/>
	<path class="st0" d="M157.1,32.8c3-6.9,9.9-25,11.1-28.7c0.3-0.8,0.5-1.5,0.5-2c0-0.4-0.2-0.9-0.7-1.2c-0.6-0.2-1.4-0.2-2-0.2
		c-0.3,0-0.6-0.1-0.6-0.3c0-0.3,0.3-0.4,1.1-0.4c2.1,0,4.4,0.2,5.1,0.2c0.3,0,2.5-0.2,4-0.2c0.6,0,0.9,0.1,0.9,0.4
		c0,0.3-0.2,0.4-0.6,0.4c-0.4,0-1.5,0-2.5,0.6c-0.7,0.5-1.4,1.3-2.8,4.9c-0.6,1.4-3.2,7.6-5.8,14c-3.2,7.5-5.5,13.1-6.7,15.7
		c-1.4,3.1-1.7,3.9-2.2,3.9c-0.6,0-0.9-0.7-1.9-3.2L141.4,4.9c-1.1-2.9-1.9-3.5-3.7-4c-0.8-0.2-1.7-0.2-2-0.2
		c-0.3,0-0.4-0.2-0.4-0.4c0-0.3,0.5-0.4,1.3-0.4c2.5,0,5.4,0.2,6,0.2c0.5,0,2.8-0.2,4.8-0.2c0.9,0,1.4,0.1,1.4,0.4
		c0,0.3-0.2,0.4-0.5,0.4c-0.6,0-1.5,0.1-2,0.3c-0.6,0.3-0.7,0.7-0.7,1c0,0.7,0.6,2.3,1.4,4.3L157.1,32.8z"/>
	<path class="st0" d="M183.4,18.6c0-6.8,0-8.1-0.1-9.5c-0.1-1.5-0.4-2.2-1.9-2.4c-0.4,0-1.1-0.1-1.6-0.1c-0.2,0-0.4-0.2-0.4-0.4
		c0-0.3,0.2-0.4,0.7-0.4c2.1,0,5,0.1,5.3,0.1c0.3,0,9.8,0.1,10.9,0c0.9,0,1.7-0.2,2.1-0.3c0.2-0.1,0.4-0.2,0.6-0.2
		c0.2,0,0.2,0.2,0.2,0.4c0,0.3-0.3,0.8-0.4,2.1c-0.1,0.4-0.2,2.4-0.3,2.9c-0.1,0.2-0.2,0.5-0.4,0.5c-0.3,0-0.4-0.2-0.4-0.6
		c0-0.3-0.1-1-0.3-1.6c-0.3-0.7-0.8-1-3.3-1.3c-0.8-0.1-6-0.2-6.6-0.2c-0.2,0-0.3,0.2-0.3,0.5v11.9c0,0.3,0,0.5,0.3,0.5
		c0.6,0,6.6,0,7.6-0.1c1.1-0.1,1.8-0.2,2.2-0.6c0.3-0.3,0.5-0.6,0.7-0.6c0.2,0,0.3,0.1,0.3,0.4c0,0.3-0.3,1-0.4,2.4
		c-0.1,0.9-0.2,2.5-0.2,2.8c0,0.4-0.1,0.8-0.4,0.8c-0.2,0-0.3-0.2-0.3-0.4c0-0.4,0-0.9-0.2-1.4c-0.2-0.6-0.6-1.1-2.3-1.3
		c-1.2-0.2-6.1-0.2-6.9-0.2c-0.3,0-0.3,0.2-0.3,0.3v3.7c0,1.5,0,6.6,0,7.5c0.1,2.9,0.9,3.5,5.4,3.5c1.2,0,3.4,0,4.5-0.5
		c1.2-0.5,1.8-1.3,2.1-3c0.1-0.5,0.2-0.7,0.5-0.7c0.3,0,0.3,0.4,0.3,0.7c0,0.3-0.4,3.3-0.6,4.2c-0.3,1.1-0.8,1.1-2.5,1.1
		c-3.4,0-6-0.1-7.9-0.2c-1.9-0.1-3.1-0.1-3.8-0.1c-0.1,0-1,0-2,0.1c-0.9,0-1.9,0.1-2.6,0.1c-0.5,0-0.7-0.1-0.7-0.4
		c0-0.2,0.1-0.4,0.4-0.4c0.4,0,1-0.2,1.4-0.2c0.9-0.2,1-1,1.2-2.3c0.3-1.8,0.3-5.3,0.3-9.5L183.4,18.6L183.4,18.6z"/>
	<path class="st0" d="M214.2,33.1c0.1,3.6,0.5,4.7,1.8,5c0.8,0.2,1.9,0.3,2.3,0.3c0.2,0,0.4,0.2,0.4,0.4c0,0.3-0.3,0.4-0.8,0.4
		c-2.6,0-4.4-0.2-4.8-0.2c-0.4,0-2.3,0.2-4.4,0.2c-0.5,0-0.7-0.1-0.7-0.4c0-0.2,0.2-0.4,0.4-0.4c0.4,0,1.2-0.1,1.9-0.3
		c1.1-0.3,1.3-1.5,1.3-5.5V7.4c0-1.8,0.3-2.2,0.6-2.2c0.5,0,1.3,0.9,1.8,1.3c0.7,0.7,7.3,7.8,14.4,15c4.5,4.6,9.3,9.9,10.7,11.3
		l-0.5-22c-0.1-2.8-0.3-3.8-1.7-4.1c-0.8-0.2-1.9-0.2-2.2-0.2c-0.3,0-0.4-0.3-0.4-0.4c0-0.3,0.4-0.3,0.9-0.3c2.1,0,4.2,0.1,4.8,0.1
		c0.5,0,2-0.1,3.9-0.1c0.5,0,0.8,0.1,0.8,0.3c0,0.2-0.2,0.4-0.5,0.4c-0.2,0-0.6,0-1.1,0.1c-1.5,0.3-1.6,1.2-1.6,3.8l-0.1,25.7
		c0,2.9-0.1,3.2-0.4,3.2c-0.5,0-0.9-0.4-3.5-2.7c-0.5-0.4-7-6.9-11.8-11.9c-5.3-5.5-10.4-10.9-11.8-12.5L214.2,33.1z"/>
	<path class="st0" d="M262.7,6.7c0.6-1.4,0.8-1.7,1.1-1.7c0.5,0,0.6,0.6,1.1,1.6c0.8,1.9,8.1,20,10.9,26.7c1.7,3.9,2.9,4.5,3.9,4.8
		c0.7,0.2,1.3,0.3,1.8,0.3c0.3,0,0.6,0.1,0.6,0.4c0,0.3-0.5,0.4-1,0.4c-0.7,0-4,0-7.2-0.1c-0.9-0.1-1.6-0.1-1.6-0.3
		c0-0.2,0.1-0.2,0.3-0.3c0.3-0.1,0.7-0.5,0.4-1.2l-4.1-10.1c-0.1-0.2-0.2-0.3-0.4-0.3H258c-0.2,0-0.4,0.1-0.5,0.4l-2.6,7
		c-0.4,1.1-0.7,2.2-0.7,2.9c0,0.9,0.8,1.2,1.5,1.2h0.4c0.4,0,0.5,0.2,0.5,0.4c0,0.3-0.3,0.4-0.7,0.4c-1.1,0-3.6-0.2-4.1-0.2
		c-0.5,0-2.7,0.2-4.6,0.2c-0.6,0-0.9-0.1-0.9-0.4c0-0.2,0.2-0.4,0.4-0.4c0.3,0,1-0.1,1.3-0.1c2.1-0.3,2.9-1.8,3.8-4L262.7,6.7z
		 M267.8,25c0.2,0,0.2-0.1,0.2-0.3l-4.5-12c-0.3-0.7-0.5-0.7-0.8,0l-4.2,12c-0.1,0.2,0,0.3,0.2,0.3H267.8z"/>
	<path class="st0" d="M288.5,18.6c0-6.8,0-8.1-0.1-9.5c-0.1-1.5-0.4-2.2-1.9-2.4c-0.4,0-1.1-0.1-1.6-0.1c-0.2,0-0.4-0.2-0.4-0.4
		c0-0.3,0.2-0.4,0.7-0.4c2.1,0,4.9,0.1,5.3,0.1c1,0,4.4-0.1,6.5-0.1c5.8,0,7.9,1.8,8.7,2.5c1,0.9,2.3,2.9,2.3,5.3
		c0,6.3-4.8,10.5-11.7,10.5c-0.3,0-1,0-1.3-0.1c-0.2,0-0.5-0.2-0.5-0.4c0-0.4,0.3-0.5,1.2-0.5c4.9,0,8.4-3.1,8.4-7.1
		c0-1.4-0.2-4.3-2.6-6.7c-2.4-2.4-5.1-2.1-6.1-2.1c-0.8,0-2.1,0.2-2.5,0.3c-0.3,0.1-0.4,0.4-0.4,0.8v17.9c0,4.2,0,7.7,0.2,9.5
		c0.2,1.3,0.4,2.1,1.8,2.3c0.6,0.1,1.6,0.2,2,0.2c0.3,0,0.4,0.2,0.4,0.4c0,0.2-0.2,0.4-0.7,0.4c-2.5,0-5.5-0.2-5.7-0.2
		c-0.2,0-3.1,0.2-4.5,0.2c-0.5,0-0.7-0.1-0.7-0.4c0-0.2,0.1-0.4,0.4-0.4c0.4,0,1-0.1,1.4-0.2c0.9-0.2,1-1,1.2-2.3
		c0.3-1.8,0.3-5.3,0.3-9.5L288.5,18.6L288.5,18.6z"/>
	<path class="st0" d="M332,5.2c10.2,0,18,6.3,18,16.5c0,9.8-7.3,17.9-18.2,17.9c-12.5,0-17.8-9.3-17.8-17.3
		C314,15.3,319.5,5.2,332,5.2z M333.1,37.8c4.1,0,12.3-2.2,12.3-14.9c0-10.5-6.4-16.1-13.6-16.1c-7.6,0-13.1,4.8-13.1,14.3
		C318.7,31.4,324.8,37.8,333.1,37.8z"/>
</g>
<g class="st1">
	<path class="st0" d="M16.3,52.1l0.4,6.5h-0.4c-0.6-1.9-1.4-3.3-2.5-4.2c-1.1-0.9-2.4-1.3-3.9-1.3c-1.3,0-2.4,0.3-3.4,1
		s-1.8,1.7-2.4,3.1c-0.6,1.4-0.9,3.2-0.9,5.3c0,1.7,0.3,3.2,0.8,4.5c0.6,1.3,1.4,2.2,2.5,2.9c1.1,0.7,2.4,1,3.8,1
		c1.2,0,2.3-0.3,3.3-0.8s2-1.6,3.1-3.2l0.4,0.3c-1,1.7-2.1,2.9-3.4,3.7s-2.8,1.2-4.6,1.2c-3.2,0-5.6-1.2-7.4-3.5
		C0.6,66.9,0,64.8,0,62.4c0-1.9,0.4-3.7,1.3-5.3s2-2.8,3.5-3.7c1.5-0.9,3.1-1.3,4.9-1.3c1.4,0,2.7,0.3,4.1,1
		c0.4,0.2,0.7,0.3,0.8,0.3c0.3,0,0.5-0.1,0.7-0.3c0.2-0.3,0.4-0.6,0.5-1.1H16.3z"/>
	<path class="st0" d="M25.4,58.4c2,0,3.5,0.7,4.7,2.2c1,1.3,1.5,2.7,1.5,4.4c0,1.2-0.3,2.3-0.8,3.5c-0.6,1.2-1.3,2.1-2.3,2.7
		c-1,0.6-2.1,0.9-3.2,0.9c-1.9,0-3.5-0.8-4.6-2.3c-1-1.3-1.5-2.8-1.5-4.4c0-1.2,0.3-2.4,0.9-3.5c0.6-1.2,1.4-2,2.3-2.6
		C23.3,58.7,24.4,58.4,25.4,58.4z M25,59.3c-0.5,0-1,0.1-1.5,0.4c-0.5,0.3-0.9,0.8-1.2,1.6c-0.3,0.7-0.5,1.7-0.5,2.9
		c0,1.9,0.4,3.5,1.1,4.9c0.7,1.4,1.7,2,3,2c0.9,0,1.7-0.4,2.3-1.1c0.6-0.8,0.9-2,0.9-3.9c0-2.3-0.5-4.1-1.5-5.4
		C26.9,59.8,26,59.3,25,59.3z"/>
	<path class="st0" d="M38,51.6v17.1c0,0.8,0.1,1.3,0.2,1.6c0.1,0.3,0.3,0.5,0.5,0.6s0.7,0.2,1.4,0.2v0.5h-6.3v-0.5
		c0.6,0,1-0.1,1.2-0.2c0.2-0.1,0.4-0.3,0.5-0.6c0.1-0.3,0.2-0.8,0.2-1.6V57c0-1.5,0-2.4-0.1-2.7s-0.2-0.6-0.3-0.7
		c-0.1-0.1-0.3-0.2-0.6-0.2c-0.2,0-0.6,0.1-0.9,0.2l-0.2-0.5l3.8-1.6H38z"/>
	<path class="st0" d="M47.9,58.4c2,0,3.5,0.7,4.7,2.2c1,1.3,1.5,2.7,1.5,4.4c0,1.2-0.3,2.3-0.8,3.5c-0.6,1.2-1.3,2.1-2.3,2.7
		c-1,0.6-2.1,0.9-3.2,0.9c-1.9,0-3.5-0.8-4.6-2.3c-1-1.3-1.5-2.8-1.5-4.4c0-1.2,0.3-2.4,0.9-3.5c0.6-1.2,1.4-2,2.3-2.6
		C45.8,58.7,46.8,58.4,47.9,58.4z M47.5,59.3c-0.5,0-1,0.1-1.5,0.4c-0.5,0.3-0.9,0.8-1.2,1.6c-0.3,0.7-0.5,1.7-0.5,2.9
		c0,1.9,0.4,3.5,1.1,4.9c0.7,1.4,1.7,2,3,2c0.9,0,1.7-0.4,2.3-1.1c0.6-0.8,0.9-2,0.9-3.9c0-2.3-0.5-4.1-1.5-5.4
		C49.3,59.8,48.5,59.3,47.5,59.3z"/>
	<path class="st0" d="M67.3,58.8v7.8c0,1.5,0,2.4,0.1,2.7c0.1,0.3,0.2,0.6,0.3,0.7c0.2,0.1,0.3,0.2,0.5,0.2c0.3,0,0.6-0.1,1-0.2
		l0.2,0.5l-3.9,1.6H65v-2.7c-1.1,1.2-2,2-2.5,2.3c-0.6,0.3-1.2,0.5-1.8,0.5c-0.7,0-1.4-0.2-1.9-0.6c-0.5-0.4-0.9-1-1.1-1.6
		c-0.2-0.7-0.3-1.6-0.3-2.8v-5.8c0-0.6-0.1-1-0.2-1.3c-0.1-0.2-0.3-0.4-0.6-0.5c-0.3-0.1-0.7-0.2-1.4-0.2v-0.5h4.5v8.6
		c0,1.2,0.2,2,0.6,2.4c0.4,0.4,0.9,0.6,1.5,0.6c0.4,0,0.9-0.1,1.4-0.4c0.5-0.3,1.1-0.7,1.8-1.5v-7.3c0-0.7-0.1-1.2-0.4-1.5
		c-0.3-0.3-0.8-0.4-1.7-0.4v-0.5H67.3z"/>
	<path class="st0" d="M74.2,58.4v2.9c1.1-1.9,2.2-2.9,3.3-2.9c0.5,0,0.9,0.2,1.3,0.5s0.5,0.7,0.5,1.1c0,0.4-0.1,0.7-0.4,0.9
		c-0.2,0.3-0.5,0.4-0.9,0.4c-0.3,0-0.7-0.2-1.1-0.5c-0.4-0.3-0.7-0.5-0.9-0.5c-0.2,0-0.4,0.1-0.5,0.3c-0.4,0.4-0.9,1-1.3,1.9v6.2
		c0,0.7,0.1,1.3,0.3,1.6c0.1,0.3,0.3,0.5,0.6,0.6c0.3,0.2,0.8,0.3,1.3,0.3v0.5h-6.6v-0.5c0.7,0,1.1-0.1,1.5-0.3
		c0.2-0.2,0.4-0.4,0.5-0.7c0-0.2,0.1-0.6,0.1-1.4v-5c0-1.5,0-2.4-0.1-2.7c-0.1-0.3-0.2-0.5-0.3-0.6c-0.2-0.1-0.4-0.2-0.6-0.2
		c-0.3,0-0.6,0.1-1,0.2L69.7,60l3.9-1.6H74.2z"/>
	<path class="st0" d="M82.2,63.6c0,1.9,0.5,3.4,1.4,4.5c0.9,1.1,2,1.6,3.3,1.6c0.8,0,1.6-0.2,2.2-0.7c0.6-0.5,1.1-1.3,1.6-2.4
		l0.4,0.3c-0.2,1.3-0.8,2.5-1.7,3.5c-0.9,1.1-2.1,1.6-3.6,1.6c-1.6,0-2.9-0.6-4-1.8c-1.1-1.2-1.7-2.8-1.7-4.9c0-2.2,0.6-3.9,1.7-5.2
		c1.1-1.2,2.6-1.9,4.3-1.9c1.4,0,2.6,0.5,3.6,1.4c0.9,1,1.4,2.2,1.4,3.8H82.2z M82.2,62.8h6c0-0.8-0.1-1.4-0.3-1.7
		c-0.2-0.5-0.6-0.9-1.1-1.2c-0.5-0.3-1-0.5-1.5-0.5c-0.8,0-1.5,0.3-2.1,0.9C82.7,60.9,82.3,61.7,82.2,62.8z"/>
	<path class="st0" d="M102,70.2c-0.6,0.7-1.2,1.1-1.8,1.4c-0.6,0.3-1.2,0.4-1.9,0.4c-1.4,0-2.6-0.6-3.7-1.8s-1.6-2.7-1.6-4.5
		c0-1.9,0.6-3.5,1.7-5.1c1.2-1.5,2.7-2.3,4.5-2.3c1.1,0,2.1,0.4,2.8,1.1v-2.4c0-1.5,0-2.4-0.1-2.7c-0.1-0.3-0.2-0.6-0.3-0.7
		s-0.3-0.2-0.6-0.2c-0.2,0-0.6,0.1-1,0.2l-0.2-0.5l3.8-1.6h0.6v14.9c0,1.5,0,2.4,0.1,2.8c0.1,0.3,0.2,0.6,0.3,0.7
		c0.2,0.1,0.3,0.2,0.5,0.2c0.3,0,0.6-0.1,1-0.2l0.2,0.5l-3.8,1.6H102V70.2z M102,69.3v-6.7c-0.1-0.6-0.2-1.2-0.5-1.7
		c-0.3-0.5-0.7-0.9-1.1-1.2c-0.5-0.3-0.9-0.4-1.4-0.4c-0.8,0-1.6,0.4-2.2,1.1c-0.9,1-1.3,2.4-1.3,4.3c0,1.9,0.4,3.4,1.2,4.4
		c0.8,1,1.7,1.5,2.8,1.5C100.4,70.5,101.2,70.1,102,69.3z"/>
	<path class="st0" d="M114.1,71.7v-0.5h0.7c0.8,0,1.4-0.3,1.7-0.8c0.2-0.3,0.3-1,0.3-2.1V56c0-1.2-0.1-1.9-0.4-2.2
		c-0.4-0.4-0.9-0.6-1.6-0.6h-0.7v-0.5h7.8c2.9,0,5,0.3,6.5,1c1.5,0.6,2.7,1.7,3.6,3.2c0.9,1.5,1.4,3.3,1.4,5.2
		c0,2.7-0.8,4.9-2.4,6.7c-1.8,2-4.6,3-8.3,3H114.1z M119.6,70.3c1.2,0.3,2.2,0.4,3,0.4c2.2,0,4-0.8,5.4-2.3c1.4-1.5,2.2-3.6,2.2-6.2
		c0-2.6-0.7-4.7-2.2-6.2c-1.4-1.5-3.3-2.3-5.5-2.3c-0.8,0-1.8,0.1-2.9,0.4V70.3z"/>
	<path class="st0" d="M139.8,58.4v10.4c0,0.8,0.1,1.3,0.2,1.6c0.1,0.3,0.3,0.5,0.5,0.6c0.2,0.1,0.7,0.2,1.3,0.2v0.5h-6.3v-0.5
		c0.6,0,1.1-0.1,1.3-0.2c0.2-0.1,0.4-0.3,0.5-0.6c0.1-0.3,0.2-0.8,0.2-1.6v-5c0-1.4,0-2.3-0.1-2.7c-0.1-0.3-0.2-0.5-0.3-0.6
		c-0.1-0.1-0.3-0.2-0.6-0.2c-0.3,0-0.6,0.1-1,0.2l-0.2-0.5l3.9-1.6H139.8z M138.7,51.6c0.4,0,0.7,0.1,1,0.4c0.3,0.3,0.4,0.6,0.4,1
		c0,0.4-0.1,0.7-0.4,1c-0.3,0.3-0.6,0.4-1,0.4s-0.7-0.1-1-0.4s-0.4-0.6-0.4-1c0-0.4,0.1-0.7,0.4-1C137.9,51.8,138.3,51.6,138.7,51.6
		z"/>
	<path class="st0" d="M150.7,69.8c-1.3,1-2.2,1.6-2.5,1.8c-0.5,0.2-1,0.4-1.6,0.4c-0.9,0-1.6-0.3-2.2-0.9c-0.6-0.6-0.9-1.4-0.9-2.4
		c0-0.6,0.1-1.2,0.4-1.6c0.4-0.6,1.1-1.2,2-1.8c1-0.6,2.5-1.3,4.8-2.1v-0.5c0-1.3-0.2-2.2-0.6-2.7c-0.4-0.5-1-0.7-1.8-0.7
		c-0.6,0-1.1,0.2-1.4,0.5c-0.4,0.3-0.5,0.7-0.5,1.1l0,0.8c0,0.4-0.1,0.8-0.3,1c-0.2,0.2-0.5,0.4-0.9,0.4c-0.3,0-0.6-0.1-0.9-0.4
		c-0.2-0.2-0.3-0.6-0.3-1c0-0.8,0.4-1.6,1.2-2.2c0.8-0.7,2-1,3.5-1c1.1,0,2.1,0.2,2.8,0.6c0.6,0.3,1,0.7,1.2,1.4
		c0.2,0.4,0.3,1.2,0.3,2.5v4.4c0,1.2,0,2,0.1,2.3c0,0.3,0.1,0.5,0.2,0.6c0.1,0.1,0.2,0.1,0.4,0.1c0.2,0,0.3,0,0.4-0.1
		c0.2-0.1,0.6-0.5,1.1-1v0.8c-1.1,1.4-2.1,2.1-3,2.1c-0.5,0-0.8-0.2-1.1-0.5C150.9,71.1,150.7,70.6,150.7,69.8z M150.7,68.9V64
		c-1.4,0.6-2.3,1-2.7,1.2c-0.7,0.4-1.3,0.8-1.6,1.3s-0.5,0.9-0.5,1.5c0,0.7,0.2,1.2,0.6,1.7c0.4,0.4,0.9,0.7,1.4,0.7
		C148.6,70.3,149.6,69.9,150.7,68.9z"/>
	<path class="st0" d="M160.1,61.1c0.9-0.9,1.5-1.5,1.7-1.6c0.4-0.4,0.9-0.6,1.4-0.8c0.5-0.2,1-0.3,1.5-0.3c0.8,0,1.5,0.2,2.1,0.7
		c0.6,0.5,1,1.2,1.2,2c1-1.1,1.8-1.9,2.5-2.2c0.7-0.4,1.4-0.5,2.1-0.5c0.7,0,1.3,0.2,1.8,0.5c0.5,0.4,1,0.9,1.3,1.7
		c0.2,0.5,0.3,1.4,0.3,2.6v5.6c0,0.8,0.1,1.4,0.2,1.7c0.1,0.2,0.3,0.4,0.5,0.5c0.3,0.1,0.7,0.2,1.2,0.2v0.5h-6.4v-0.5h0.3
		c0.6,0,1-0.1,1.3-0.3c0.2-0.1,0.4-0.4,0.5-0.7c0-0.2,0.1-0.6,0.1-1.4v-5.6c0-1.1-0.1-1.8-0.4-2.2c-0.4-0.6-1-0.9-1.8-0.9
		c-0.5,0-1,0.1-1.5,0.4c-0.5,0.2-1.1,0.7-1.8,1.4l0,0.2l0,0.6v6.2c0,0.9,0,1.4,0.1,1.6c0.1,0.2,0.3,0.4,0.6,0.5
		c0.3,0.1,0.7,0.2,1.4,0.2v0.5h-6.5v-0.5c0.7,0,1.2-0.1,1.5-0.3c0.3-0.2,0.5-0.4,0.6-0.8c0-0.2,0.1-0.6,0.1-1.4v-5.6
		c0-1.1-0.2-1.8-0.5-2.3c-0.4-0.6-1-0.9-1.7-0.9c-0.5,0-1,0.1-1.5,0.4c-0.8,0.4-1.4,0.9-1.8,1.4v6.9c0,0.8,0.1,1.4,0.2,1.6
		c0.1,0.3,0.3,0.4,0.5,0.6c0.2,0.1,0.7,0.2,1.4,0.2v0.5h-6.4v-0.5c0.6,0,1-0.1,1.2-0.2c0.2-0.1,0.4-0.3,0.5-0.6
		c0.1-0.3,0.2-0.8,0.2-1.6v-4.9c0-1.4,0-2.3-0.1-2.7c-0.1-0.3-0.2-0.5-0.3-0.6c-0.1-0.1-0.3-0.2-0.6-0.2c-0.3,0-0.6,0.1-0.9,0.2
		l-0.2-0.5l3.9-1.6h0.6V61.1z"/>
	<path class="st0" d="M185,58.4c2,0,3.5,0.7,4.7,2.2c1,1.3,1.5,2.7,1.5,4.4c0,1.2-0.3,2.3-0.8,3.5c-0.6,1.2-1.3,2.1-2.3,2.7
		c-1,0.6-2.1,0.9-3.2,0.9c-1.9,0-3.5-0.8-4.6-2.3c-1-1.3-1.5-2.8-1.5-4.4c0-1.2,0.3-2.4,0.9-3.5c0.6-1.2,1.4-2,2.3-2.6
		C182.9,58.7,183.9,58.4,185,58.4z M184.6,59.3c-0.5,0-1,0.1-1.5,0.4c-0.5,0.3-0.9,0.8-1.2,1.6c-0.3,0.7-0.5,1.7-0.5,2.9
		c0,1.9,0.4,3.5,1.1,4.9c0.7,1.4,1.7,2,3,2c0.9,0,1.7-0.4,2.3-1.1c0.6-0.8,0.9-2,0.9-3.9c0-2.3-0.5-4.1-1.5-5.4
		C186.4,59.8,185.6,59.3,184.6,59.3z"/>
	<path class="st0" d="M196.9,61.1c1.5-1.8,3-2.7,4.3-2.7c0.7,0,1.3,0.2,1.8,0.5c0.5,0.4,0.9,0.9,1.2,1.7c0.2,0.6,0.3,1.4,0.3,2.6
		v5.5c0,0.8,0.1,1.4,0.2,1.7c0.1,0.2,0.3,0.4,0.5,0.5c0.2,0.1,0.7,0.2,1.3,0.2v0.5h-6.4v-0.5h0.3c0.6,0,1-0.1,1.3-0.3
		c0.2-0.2,0.4-0.5,0.5-0.8c0-0.1,0.1-0.6,0.1-1.3v-5.3c0-1.2-0.2-2-0.5-2.6c-0.3-0.5-0.8-0.8-1.5-0.8c-1.1,0-2.2,0.6-3.3,1.8v6.8
		c0,0.9,0.1,1.4,0.2,1.6c0.1,0.3,0.3,0.5,0.5,0.6c0.2,0.1,0.7,0.2,1.4,0.2v0.5h-6.4v-0.5h0.3c0.7,0,1.1-0.2,1.3-0.5
		c0.2-0.3,0.3-1,0.3-1.9V64c0-1.5,0-2.5-0.1-2.8c-0.1-0.3-0.2-0.6-0.3-0.7c-0.1-0.1-0.3-0.2-0.6-0.2c-0.3,0-0.6,0.1-0.9,0.2
		l-0.2-0.5l3.9-1.6h0.6V61.1z"/>
	<path class="st0" d="M216.7,70.2c-0.6,0.7-1.2,1.1-1.8,1.4c-0.6,0.3-1.2,0.4-1.9,0.4c-1.4,0-2.6-0.6-3.7-1.8
		c-1.1-1.2-1.6-2.7-1.6-4.5c0-1.9,0.6-3.5,1.7-5.1c1.2-1.5,2.7-2.3,4.5-2.3c1.1,0,2.1,0.4,2.8,1.1v-2.4c0-1.5,0-2.4-0.1-2.7
		c-0.1-0.3-0.2-0.6-0.3-0.7c-0.1-0.1-0.3-0.2-0.6-0.2c-0.2,0-0.6,0.1-1,0.2l-0.2-0.5l3.8-1.6h0.6v14.9c0,1.5,0,2.4,0.1,2.8
		c0.1,0.3,0.2,0.6,0.3,0.7c0.2,0.1,0.3,0.2,0.5,0.2c0.3,0,0.6-0.1,1-0.2l0.2,0.5l-3.8,1.6h-0.6V70.2z M216.7,69.3v-6.7
		c-0.1-0.6-0.2-1.2-0.5-1.7c-0.3-0.5-0.7-0.9-1.1-1.2c-0.5-0.3-0.9-0.4-1.4-0.4c-0.8,0-1.6,0.4-2.2,1.1c-0.9,1-1.3,2.4-1.3,4.3
		c0,1.9,0.4,3.4,1.2,4.4c0.8,1,1.7,1.5,2.8,1.5C215,70.5,215.9,70.1,216.7,69.3z"/>
	<path class="st0" d="M230.3,58.4v4.4h-0.5c-0.4-1.4-0.8-2.3-1.4-2.8c-0.6-0.5-1.3-0.7-2.1-0.7c-0.7,0-1.2,0.2-1.6,0.5
		c-0.4,0.3-0.6,0.7-0.6,1.2c0,0.5,0.2,1,0.5,1.4c0.3,0.4,0.9,0.8,1.8,1.2l2.1,1c1.9,0.9,2.9,2.2,2.9,3.7c0,1.2-0.4,2.1-1.3,2.8
		c-0.9,0.7-1.9,1.1-3,1.1c-0.8,0-1.7-0.1-2.7-0.4c-0.3-0.1-0.6-0.1-0.8-0.1c-0.2,0-0.4,0.1-0.5,0.4h-0.5v-4.6h0.5
		c0.3,1.3,0.8,2.3,1.5,3c0.7,0.7,1.6,1,2.5,1c0.6,0,1.2-0.2,1.6-0.6c0.4-0.4,0.6-0.8,0.6-1.4c0-0.6-0.2-1.2-0.7-1.6
		c-0.5-0.4-1.4-1-2.7-1.7c-1.4-0.7-2.3-1.3-2.7-1.8c-0.4-0.5-0.6-1.2-0.6-2c0-1.1,0.4-2,1.1-2.7c0.7-0.7,1.7-1.1,2.8-1.1
		c0.5,0,1.1,0.1,1.8,0.3c0.5,0.1,0.8,0.2,1,0.2c0.1,0,0.3,0,0.4-0.1c0.1-0.1,0.2-0.2,0.3-0.4H230.3z"/>
	<path class="st0" d="M242.4,53.1v-0.5h8.2v0.5h-0.7c-0.8,0-1.3,0.2-1.7,0.7c-0.2,0.3-0.3,1-0.3,2.2v9.3c0,1.4-0.2,2.6-0.5,3.5
		c-0.3,0.9-0.9,1.7-1.6,2.3c-0.8,0.7-1.7,1-2.8,1c-0.9,0-1.6-0.2-2.1-0.7c-0.5-0.4-0.8-0.9-0.8-1.5c0-0.5,0.1-0.8,0.4-1
		c0.3-0.3,0.7-0.4,1.1-0.4c0.3,0,0.6,0.1,0.8,0.3c0.2,0.2,0.5,0.7,0.9,1.6c0.2,0.5,0.5,0.8,0.8,0.8c0.3,0,0.5-0.2,0.7-0.5
		c0.2-0.3,0.3-0.9,0.3-1.6V56c0-1-0.1-1.6-0.2-1.9c-0.1-0.2-0.3-0.4-0.6-0.6c-0.4-0.2-0.8-0.3-1.3-0.3H242.4z"/>
	<path class="st0" d="M253.9,63.6c0,1.9,0.5,3.4,1.4,4.5c0.9,1.1,2,1.6,3.3,1.6c0.8,0,1.6-0.2,2.2-0.7c0.6-0.5,1.1-1.3,1.6-2.4
		l0.4,0.3c-0.2,1.3-0.8,2.5-1.7,3.5c-0.9,1.1-2.1,1.6-3.6,1.6c-1.6,0-2.9-0.6-4-1.8c-1.1-1.2-1.7-2.8-1.7-4.9c0-2.2,0.6-3.9,1.7-5.2
		c1.1-1.2,2.6-1.9,4.3-1.9c1.4,0,2.6,0.5,3.6,1.4c0.9,1,1.4,2.2,1.4,3.8H253.9z M253.9,62.8h6c0-0.8-0.1-1.4-0.3-1.7
		c-0.2-0.5-0.6-0.9-1.1-1.2c-0.5-0.3-1-0.5-1.5-0.5c-0.8,0-1.5,0.3-2.1,0.9C254.3,60.9,254,61.7,253.9,62.8z"/>
	<path class="st0" d="M263.8,58.8h5.4v0.5c-0.5,0-0.8,0.1-1,0.3c-0.2,0.1-0.2,0.3-0.2,0.6c0,0.3,0.1,0.6,0.2,1.1l2.8,7.4l2.8-6
		l-0.7-1.9c-0.2-0.6-0.5-1-0.9-1.2c-0.2-0.1-0.6-0.2-1.2-0.2v-0.5h6.1v0.5c-0.7,0-1.2,0.2-1.4,0.4c-0.2,0.1-0.3,0.4-0.3,0.7
		c0,0.2,0,0.4,0.1,0.6l2.9,7.4l2.7-7.1c0.2-0.5,0.3-0.9,0.3-1.2c0-0.2-0.1-0.3-0.3-0.5c-0.2-0.1-0.5-0.2-1.1-0.2v-0.5h4.1v0.5
		c-0.8,0.1-1.4,0.7-1.8,1.7l-4.3,11.1h-0.6l-3.2-8.2l-3.8,8.2H270l-4.1-10.9c-0.3-0.7-0.5-1.1-0.8-1.4c-0.3-0.2-0.7-0.4-1.2-0.5
		V58.8z"/>
	<path class="st0" d="M287.5,63.6c0,1.9,0.5,3.4,1.4,4.5c0.9,1.1,2,1.6,3.3,1.6c0.8,0,1.6-0.2,2.2-0.7c0.6-0.5,1.1-1.3,1.6-2.4
		l0.4,0.3c-0.2,1.3-0.8,2.5-1.7,3.5c-0.9,1.1-2.1,1.6-3.6,1.6c-1.6,0-2.9-0.6-4-1.8c-1.1-1.2-1.7-2.8-1.7-4.9c0-2.2,0.6-3.9,1.7-5.2
		c1.1-1.2,2.6-1.9,4.3-1.9c1.4,0,2.6,0.5,3.6,1.4s1.4,2.2,1.4,3.8H287.5z M287.5,62.8h6c0-0.8-0.1-1.4-0.3-1.7
		c-0.2-0.5-0.6-0.9-1.1-1.2c-0.5-0.3-1-0.5-1.5-0.5c-0.8,0-1.5,0.3-2.1,0.9C288,60.9,287.6,61.7,287.5,62.8z"/>
	<path class="st0" d="M302.6,51.6v17.1c0,0.8,0.1,1.3,0.2,1.6c0.1,0.3,0.3,0.5,0.5,0.6c0.2,0.1,0.7,0.2,1.4,0.2v0.5h-6.3v-0.5
		c0.6,0,1-0.1,1.2-0.2c0.2-0.1,0.4-0.3,0.5-0.6c0.1-0.3,0.2-0.8,0.2-1.6V57c0-1.5,0-2.4-0.1-2.7c-0.1-0.3-0.2-0.6-0.3-0.7
		c-0.1-0.1-0.3-0.2-0.6-0.2c-0.2,0-0.6,0.1-0.9,0.2l-0.2-0.5l3.8-1.6H302.6z"/>
	<path class="st0" d="M310.6,51.6v17.1c0,0.8,0.1,1.3,0.2,1.6c0.1,0.3,0.3,0.5,0.5,0.6c0.2,0.1,0.7,0.2,1.4,0.2v0.5h-6.3v-0.5
		c0.6,0,1-0.1,1.2-0.2c0.2-0.1,0.4-0.3,0.5-0.6c0.1-0.3,0.2-0.8,0.2-1.6V57c0-1.5,0-2.4-0.1-2.7c-0.1-0.3-0.2-0.6-0.3-0.7
		s-0.3-0.2-0.6-0.2c-0.2,0-0.6,0.1-0.9,0.2l-0.2-0.5l3.8-1.6H310.6z"/>
	<path class="st0" d="M316.4,63.6c0,1.9,0.5,3.4,1.4,4.5c0.9,1.1,2,1.6,3.3,1.6c0.8,0,1.6-0.2,2.2-0.7c0.6-0.5,1.1-1.3,1.6-2.4
		l0.4,0.3c-0.2,1.3-0.8,2.5-1.7,3.5c-0.9,1.1-2.1,1.6-3.6,1.6c-1.6,0-2.9-0.6-4-1.8c-1.1-1.2-1.7-2.8-1.7-4.9c0-2.2,0.6-3.9,1.7-5.2
		c1.1-1.2,2.6-1.9,4.3-1.9c1.4,0,2.6,0.5,3.6,1.4s1.4,2.2,1.4,3.8H316.4z M316.4,62.8h6c0-0.8-0.1-1.4-0.3-1.7
		c-0.2-0.5-0.6-0.9-1.1-1.2c-0.5-0.3-1-0.5-1.5-0.5c-0.8,0-1.5,0.3-2.1,0.9C316.8,60.9,316.5,61.7,316.4,62.8z"/>
	<path class="st0" d="M330.8,58.4v2.9c1.1-1.9,2.2-2.9,3.3-2.9c0.5,0,0.9,0.2,1.3,0.5s0.5,0.7,0.5,1.1c0,0.4-0.1,0.7-0.4,0.9
		c-0.2,0.3-0.5,0.4-0.9,0.4c-0.3,0-0.7-0.2-1.1-0.5c-0.4-0.3-0.7-0.5-0.9-0.5c-0.2,0-0.4,0.1-0.5,0.3c-0.4,0.4-0.9,1-1.3,1.9v6.2
		c0,0.7,0.1,1.3,0.3,1.6c0.1,0.3,0.3,0.5,0.6,0.6c0.3,0.2,0.8,0.3,1.3,0.3v0.5h-6.6v-0.5c0.7,0,1.1-0.1,1.5-0.3
		c0.2-0.2,0.4-0.4,0.5-0.7c0-0.2,0.1-0.6,0.1-1.4v-5c0-1.5,0-2.4-0.1-2.7c-0.1-0.3-0.2-0.5-0.3-0.6c-0.2-0.1-0.4-0.2-0.6-0.2
		c-0.3,0-0.6,0.1-1,0.2l-0.1-0.5l3.9-1.6H330.8z"/>
	<path class="st0" d="M335.9,58.8h6v0.5h-0.3c-0.4,0-0.7,0.1-1,0.3c-0.2,0.2-0.3,0.4-0.3,0.7c0,0.4,0.2,0.9,0.5,1.5l3.1,6.5l2.9-7.1
		c0.2-0.4,0.2-0.8,0.2-1.1c0-0.2,0-0.3-0.1-0.4c-0.1-0.1-0.2-0.2-0.4-0.2c-0.2-0.1-0.4-0.1-0.8-0.1v-0.5h4.2v0.5
		c-0.3,0-0.6,0.1-0.8,0.2c-0.2,0.1-0.4,0.3-0.6,0.6c-0.1,0.1-0.2,0.5-0.5,1.1l-5.3,12.9c-0.5,1.3-1.2,2.2-2,2.8
		c-0.8,0.6-1.6,1-2.4,1c-0.6,0-1-0.2-1.4-0.5c-0.4-0.3-0.5-0.7-0.5-1.1c0-0.4,0.1-0.7,0.4-1c0.3-0.2,0.6-0.4,1.1-0.4
		c0.3,0,0.7,0.1,1.3,0.3c0.4,0.1,0.6,0.2,0.7,0.2c0.3,0,0.6-0.1,0.9-0.4c0.3-0.3,0.7-0.9,1-1.7l0.9-2.2l-4.6-9.7
		c-0.1-0.3-0.4-0.7-0.7-1.1c-0.2-0.3-0.4-0.6-0.6-0.7c-0.2-0.1-0.6-0.3-1-0.4V58.8z"/>
</g>
</svg>
