<?xml version="1.0" encoding="utf-8"?>
<!-- Generator: Adobe Illustrator 18.0.0, SVG Export Plug-In . SVG Version: 6.00 Build 0)  -->
<!DOCTYPE svg PUBLIC "-//W3C//DTD SVG 1.1//EN" "http://www.w3.org/Graphics/SVG/1.1/DTD/svg11.dtd">
<svg version="1.1" id="Layer_1" xmlns="http://www.w3.org/2000/svg" xmlns:xlink="http://www.w3.org/1999/xlink" x="0px" y="0px"
	 viewBox="0 0 32 32" enable-background="new 0 0 32 32" xml:space="preserve">
<path fill="#FFFFFF" d="M16,0C7.2,0,0,7.2,0,16c0,8.8,7.2,16,16,16c8.8,0,16-7.2,16-16C32,7.2,24.8,0,16,0z M26.4,22.5
	c0,2.1-1.7,3.9-3.9,3.9H9.5c-2.1,0-3.9-1.7-3.9-3.9V9.5c0-2.1,1.7-3.9,3.9-3.9h12.9c2.1,0,3.9,1.7,3.9,3.9V22.5z M22.5,7.2H9.5
	c-1.3,0-2.3,1-2.3,2.3v3.3h3.3c1.1-1.9,3.2-3.2,5.5-3.2s4.4,1.3,5.5,3.2h3.3V9.5C24.8,8.3,23.7,7.2,22.5,7.2z M24,10.4
	c0,0.4-0.4,0.8-0.8,0.8h-1.6c-0.4,0-0.8-0.4-0.8-0.8V8.8c0-0.4,0.4-0.8,0.8-0.8h1.6C23.6,8,24,8.4,24,8.8V10.4z M20.7,15.3
	c0-0.1,0-0.2,0-0.3c0-0.1,0-0.2-0.1-0.3c0-0.1,0-0.1,0-0.2c0-0.1-0.1-0.2-0.1-0.3c0,0,0-0.1,0-0.1c0-0.1-0.1-0.2-0.1-0.3
	c0,0,0-0.1,0-0.1c-0.1-0.1-0.1-0.2-0.2-0.3c0,0,0,0,0,0c-0.1-0.1-0.1-0.2-0.2-0.3c0,0,0,0,0,0c-0.1-0.1-0.2-0.2-0.3-0.3l0,0
	c-0.9-1-2.1-1.6-3.6-1.6c-1.4,0-2.7,0.6-3.6,1.6h0c-0.1,0.1-0.2,0.2-0.3,0.3c0,0,0,0,0,0c-0.1,0.1-0.2,0.2-0.2,0.3c0,0,0,0,0,0
	c-0.1,0.1-0.1,0.2-0.2,0.3c0,0,0,0.1,0,0.1c0,0.1-0.1,0.2-0.1,0.3c0,0,0,0.1,0,0.1c0,0.1-0.1,0.2-0.1,0.3c0,0.1,0,0.1,0,0.2
	c0,0.1,0,0.2-0.1,0.2c0,0.1,0,0.2,0,0.3c0,0.1,0,0.1,0,0.2c0,0.2,0,0.3,0,0.5c0,2.6,2.1,4.8,4.8,4.8c2.6,0,4.8-2.1,4.8-4.8
	c0-0.2,0-0.3,0-0.5C20.7,15.5,20.7,15.4,20.7,15.3z M16,19c-1.7,0-3-1.4-3-3c0-0.6,0.2-1.1,0.4-1.6c0,0.1-0.1,0.3-0.1,0.4
	c0,0.8,0.7,1.5,1.5,1.5c0.9,0,1.5-0.7,1.5-1.5c0-0.9-0.7-1.5-1.5-1.5c-0.2,0-0.3,0-0.4,0.1c0.5-0.3,1-0.4,1.6-0.4c1.7,0,3,1.4,3,3
	C19,17.7,17.7,19,16,19z"/>
</svg>
