<?xml version="1.0" encoding="utf-8"?>
<!-- Generator: Adobe Illustrator 18.0.0, SVG Export Plug-In . SVG Version: 6.00 Build 0)  -->
<!DOCTYPE svg PUBLIC "-//W3C//DTD SVG 1.1//EN" "http://www.w3.org/Graphics/SVG/1.1/DTD/svg11.dtd">
<svg version="1.1" id="Layer_1" xmlns="http://www.w3.org/2000/svg" xmlns:xlink="http://www.w3.org/1999/xlink" x="0px" y="0px"
	 viewBox="0 0 32 32" enable-background="new 0 0 32 32" xml:space="preserve">
<path fill="#ECF0F1" d="M32,16c0,8.8-7.2,16-16,16S0,24.8,0,16C0,7.2,7.2,0,16,0S32,7.2,32,16z M24.7,11c-0.6-4.5-5.1-6.7-9.8-6.2
	c-3.8,0.4-7.5,3.5-7.6,7.8c-0.1,2.6,0.7,4.6,3.2,5.2c1.1-1.9-0.4-2.4-0.6-3.8c-0.9-5.7,6.6-9.6,10.5-5.6c2.7,2.8,0.9,11.3-3.5,10.4
	c-4.2-0.8,2.1-7.6-1.3-8.9c-2.7-1.1-4.2,3.3-2.9,5.5c-0.8,3.7-2.4,7.3-1.7,12c2.1-1.6,2.9-4.5,3.5-7.6c1.1,0.7,1.7,1.3,3,1.4
	C22.5,21.5,25.4,16,24.7,11z"/>
</svg>
