
<!DOCTYPE svg PUBLIC "-//W3C//DTD SVG 1.1//EN" "http://www.w3.org/Graphics/SVG/1.1/DTD/svg11.dtd">
<svg version="1.1" id="Layer_1" xmlns="http://www.w3.org/2000/svg" xmlns:xlink="http://www.w3.org/1999/xlink" x="0px" y="0px"
	 viewBox="0 0 280 30" enable-background="new 0 0 280 30" xml:space="preserve">
<path fill="#999999" d="M15,0C6.7,0,0,6.7,0,15c0,8.3,6.7,15,15,15c8.3,0,15-6.7,15-15C30,6.7,23.2,0,15,0z M19,14.8h-2.5
	c0,4,0,9,0,9h-3.8c0,0,0-4.9,0-9h-1.8v-3.2h1.8V9.5c0-1.5,0.7-3.8,3.8-3.8l2.8,0v3.1c0,0-1.7,0-2,0c-0.3,0-0.8,0.2-0.8,0.9v1.9h2.9
	L19,14.8z"/>
<g>
	<path fill="#999999" d="M211.2,12.4c-0.3-2.3-1.9-4.1-3.7-4.2c-1.7-0.1-2.9,1.7-2.6,4c0.3,2.3,1.9,4.2,3.7,4.2
		C210.4,16.5,211.5,14.7,211.2,12.4z"/>
	<path fill="#999999" d="M212.8,24.5c0-0.2,0-0.5-0.1-0.7c-0.3-1.1-1.3-1.7-2.7-2.6c-0.5-0.2-1.1-0.3-1.7-0.3
		c-2.6,0-4.9,1.6-4.9,3.5c0,0.1,0,0.2,0,0.3c1.1,1.3,2.4,2.4,3.9,3.3c0.2,0,0.4,0,0.5,0C211.6,28,212.8,26.5,212.8,24.5z"/>
	<path fill="#999999" d="M215,0c-8.3,0-15,6.7-15,15c0,2.8,0.8,5.4,2.1,7.7c1.1-1.4,3.2-2.4,5.6-2.4c0.4,0,0.8,0,1.2,0
		c-0.5-0.5-0.9-1.1-0.9-1.9c0-0.4,0.1-0.9,0.3-1.3c-0.2,0-0.4,0-0.6,0c-3.1,0-5.1-2.3-5.1-5c0-2.6,2.8-5.1,5.9-5.1
		c1.7,0,6.7,0,6.7,0l-1.5,1.4h-2.1c1.4,0.4,2.2,2.2,2.2,3.9c0,1.4-0.8,2.7-1.9,3.5c-1.1,0.8-1.3,1.2-1.3,1.9c0,0.6,1.2,1.7,1.8,2.1
		c1.8,1.3,2.4,2.4,2.4,4.4c0,2.1-1.8,4.2-5.1,4.7c1.7,0.7,3.6,1,5.5,1c8.3,0,15-6.7,15-15C230,6.7,223.2,0,215,0z M222.9,13.1v4.2
		h-2.1v-4.2h-4.2V11h4.2V6.8h2.1V11h4.2v2.1H222.9z"/>
</g>
<path fill="#999999" d="M80,15c0,8.3-6.7,15-15,15s-15-6.7-15-15c0-8.3,6.7-15,15-15S80,6.7,80,15z M75.6,8.4
	C74.8,8.8,74,9,73.1,9.1C74,8.6,74.7,7.7,75,6.7c-0.8,0.5-1.8,0.9-2.8,1.1c-0.8-0.8-1.9-1.4-3.2-1.4c-2.4,0-4.4,2-4.4,4.4
	c0,0.3,0,0.7,0.1,1c-3.6-0.2-6.8-1.9-9-4.6c-0.4,0.6-0.6,1.4-0.6,2.2c0,1.5,0.8,2.8,1.9,3.6c-0.7,0-1.4-0.2-2-0.5v0.1
	c0,2.1,1.5,3.9,3.5,4.3c-0.4,0.1-0.8,0.2-1.1,0.2c-0.3,0-0.6,0-0.8-0.1c0.6,1.7,2.2,3,4.1,3c-1.5,1.2-3.4,1.9-5.4,1.9
	c-0.4,0-0.7,0-1-0.1c1.9,1.2,4.2,2,6.7,2c8,0,12.4-6.6,12.4-12.4l0-0.6C74.3,10.1,75,9.3,75.6,8.4z"/>
<path fill="#999999" d="M165,0c-8.3,0-15,6.7-15,15c0,8.3,6.7,15,15,15c8.3,0,15-6.7,15-15C180,6.7,173.2,0,165,0z M174.7,21.1
	c0,2-1.6,3.6-3.6,3.6h-12.1c-2,0-3.6-1.6-3.6-3.6V8.9c0-2,1.6-3.6,3.6-3.6H171c2,0,3.6,1.6,3.6,3.6V21.1z M171,6.8h-12.1
	c-1.2,0-2.1,1-2.1,2.1V12h3c1-1.8,3-3,5.2-3c2.2,0,4.1,1.2,5.2,3h3V8.9C173.2,7.8,172.2,6.8,171,6.8z M172.4,9.8
	c0,0.4-0.3,0.7-0.7,0.7h-1.5c-0.4,0-0.7-0.3-0.7-0.7V8.3c0-0.4,0.3-0.7,0.7-0.7h1.5c0.4,0,0.7,0.3,0.7,0.7V9.8z M169.4,14.4
	c0-0.1,0-0.2,0-0.2c0-0.1,0-0.2-0.1-0.2c0-0.1,0-0.1,0-0.2c0-0.1-0.1-0.2-0.1-0.3c0,0,0-0.1,0-0.1c0-0.1-0.1-0.2-0.1-0.3
	c0,0,0,0,0-0.1c-0.1-0.1-0.1-0.2-0.2-0.3c0,0,0,0,0,0c-0.1-0.1-0.1-0.2-0.2-0.3c0,0,0,0,0,0c-0.1-0.1-0.2-0.2-0.2-0.3l0,0
	c-0.8-0.9-2-1.5-3.3-1.5c-1.3,0-2.5,0.6-3.3,1.5h0c-0.1,0.1-0.2,0.2-0.2,0.3c0,0,0,0,0,0c-0.1,0.1-0.1,0.2-0.2,0.3c0,0,0,0,0,0
	c-0.1,0.1-0.1,0.2-0.2,0.3c0,0,0,0.1,0,0.1c0,0.1-0.1,0.2-0.1,0.3c0,0,0,0.1,0,0.1c0,0.1-0.1,0.2-0.1,0.3c0,0.1,0,0.1,0,0.2
	c0,0.1,0,0.2-0.1,0.2c0,0.1,0,0.2,0,0.2c0,0.1,0,0.1,0,0.2c0,0.1,0,0.3,0,0.4c0,2.5,2,4.5,4.5,4.5c2.5,0,4.5-2,4.5-4.5
	c0-0.1,0-0.3,0-0.4C169.4,14.5,169.4,14.4,169.4,14.4z M165,17.8c-1.6,0-2.8-1.3-2.8-2.8c0-0.5,0.2-1,0.4-1.5c0,0.1-0.1,0.3-0.1,0.4
	c0,0.8,0.6,1.4,1.4,1.4s1.4-0.6,1.4-1.4c0-0.8-0.6-1.4-1.4-1.4c-0.1,0-0.3,0-0.4,0.1c0.4-0.3,0.9-0.4,1.5-0.4c1.6,0,2.8,1.3,2.8,2.8
	C167.8,16.6,166.5,17.8,165,17.8z"/>
<path fill="#999999" d="M130,15c0,8.3-6.7,15-15,15s-15-6.7-15-15c0-8.3,6.7-15,15-15S130,6.7,130,15z M123.1,10.3
	c-0.6-4.2-4.7-6.3-9.2-5.8c-3.5,0.4-7,3.2-7.2,7.3c-0.1,2.5,0.6,4.3,3,4.9c1-1.8-0.3-2.2-0.5-3.5c-0.9-5.4,6.2-9,9.9-5.3
	c2.6,2.6,0.9,10.6-3.2,9.7c-3.9-0.8,1.9-7.1-1.2-8.4c-2.6-1-3.9,3.1-2.7,5.1c-0.7,3.5-2.2,6.8-1.6,11.2c2-1.5,2.7-4.3,3.2-7.2
	c1,0.6,1.6,1.3,2.8,1.4C121.1,20.1,123.7,15,123.1,10.3z"/>
<g>
	<circle fill="#999999" cx="265" cy="15" r="15"/>

		<path fill="#FFFFFF" stroke="#999999" stroke-width="1.5" stroke-linecap="round" stroke-linejoin="round" stroke-miterlimit="10" d="
		M273.6,22h-17.2c-0.5,0-1-0.4-1-1V9c0-0.6,0.4-1,1-1h17.2c0.5,0,1,0.4,1,1v12C274.5,21.6,274.1,22,273.6,22z"/>

		<path fill="#FFFFFF" stroke="#999999" stroke-width="1.5" stroke-linecap="round" stroke-linejoin="round" stroke-miterlimit="10" d="
		M264.9,13.5l-9.3,8.3c0.2,0.2,0.4,0.3,0.7,0.3h17.2c0.3,0,0.5-0.1,0.7-0.3L264.9,13.5z"/>

		<path fill="#FFFFFF" stroke="#999999" stroke-width="1.5" stroke-linecap="round" stroke-linejoin="round" stroke-miterlimit="10" d="
		M264.9,16.5l9.3-8.3C274,8.1,273.8,8,273.6,8h-17.2c-0.3,0-0.5,0.1-0.7,0.3L264.9,16.5z"/>
</g>
</svg>
