<svg version="1.1" id="graphics" xmlns="http://www.w3.org/2000/svg" xmlns:xlink="http://www.w3.org/1999/xlink" x="0px" y="0px"
	 viewBox="-339 125.7 427.7 60" style="enable-background:new -339 125.7 427.7 60;" xml:space="preserve">
<style type="text/css">
	.st0{fill:#999999;}
	.st1{fill:#FFFFFF;stroke:#999999;stroke-width:1.5;stroke-linecap:round;stroke-linejoin:round;stroke-miterlimit:10;}
	.st2{fill:#F7C25D;}
	.st3{fill:#FFFFFF;stroke:#F7C25D;stroke-width:1.5;stroke-linecap:round;stroke-linejoin:round;stroke-miterlimit:10;}
	.st4{fill:#231F20;}
	.st5{fill:#FFFFFF;}
</style>
<path class="st0" d="M-324,125.7c-8.3,0-15,6.7-15,15s6.7,15,15,15c8.3,0,15-6.7,15-15S-315.8,125.7-324,125.7z M-320,140.4h-2.5
	c0,4,0,9,0,9h-3.8c0,0,0-4.9,0-9h-1.8v-3.2h1.8v-2.1c0-1.5,0.7-3.8,3.8-3.8l2.8,0v3.1c0,0-1.7,0-2,0c-0.3,0-0.8,0.2-0.8,0.9v1.9h2.9
	L-320,140.4z"/>
<g>
	<path class="st0" d="M-127.8,138.1c-0.3-2.3-1.9-4.1-3.7-4.2c-1.7-0.1-2.9,1.7-2.6,4c0.3,2.3,1.9,4.2,3.7,4.2
		C-128.6,142.2-127.5,140.4-127.8,138.1z"/>
	<path class="st0" d="M-126.2,150.2c0-0.2,0-0.5-0.1-0.7c-0.3-1.1-1.3-1.7-2.7-2.6c-0.5-0.2-1.1-0.3-1.7-0.3c-2.6,0-4.9,1.6-4.9,3.5
		c0,0.1,0,0.2,0,0.3c1.1,1.3,2.4,2.4,3.9,3.3c0.2,0,0.4,0,0.5,0C-127.4,153.7-126.2,152.1-126.2,150.2z"/>
	<path class="st0" d="M-124,125.7c-8.3,0-15,6.7-15,15c0,2.8,0.8,5.4,2.1,7.7c1.1-1.4,3.2-2.4,5.6-2.4c0.4,0,0.8,0,1.2,0
		c-0.5-0.5-0.9-1.1-0.9-1.9c0-0.4,0.1-0.9,0.3-1.3c-0.2,0-0.4,0-0.6,0c-3.1,0-5.1-2.3-5.1-5c0-2.6,2.8-5.1,5.9-5.1
		c1.7,0,6.7,0,6.7,0l-1.5,1.4h-2.1c1.4,0.4,2.2,2.2,2.2,3.9c0,1.4-0.8,2.7-1.9,3.5c-1.1,0.8-1.3,1.2-1.3,1.9c0,0.6,1.2,1.7,1.8,2.1
		c1.8,1.3,2.4,2.4,2.4,4.4c0,2.1-1.8,4.2-5.1,4.7c1.7,0.7,3.6,1,5.5,1c8.3,0,15-6.7,15-15C-109,132.4-115.8,125.7-124,125.7z
		 M-116.1,138.7v4.2h-2.1v-4.2h-4.2v-2.1h4.2v-4.2h2.1v4.2h4.2v2.1H-116.1z"/>
</g>
<path class="st0" d="M-259,140.7c0,8.3-6.7,15-15,15s-15-6.7-15-15s6.7-15,15-15S-259,132.4-259,140.7z M-263.4,134.1
	c-0.8,0.3-1.6,0.6-2.5,0.7c0.9-0.5,1.6-1.4,1.9-2.4c-0.8,0.5-1.8,0.9-2.8,1.1c-0.8-0.8-1.9-1.4-3.2-1.4c-2.4,0-4.4,2-4.4,4.4
	c0,0.3,0,0.7,0.1,1c-3.6-0.2-6.8-1.9-9-4.6c-0.4,0.6-0.6,1.4-0.6,2.2c0,1.5,0.8,2.8,1.9,3.6c-0.7,0-1.4-0.2-2-0.5v0.1
	c0,2.1,1.5,3.9,3.5,4.3c-0.4,0.1-0.8,0.2-1.1,0.2c-0.3,0-0.6,0-0.8-0.1c0.6,1.7,2.2,3,4.1,3c-1.5,1.2-3.4,1.9-5.4,1.9
	c-0.4,0-0.7,0-1-0.1c1.9,1.2,4.2,2,6.7,2c8,0,12.4-6.6,12.4-12.4l0-0.6C-264.7,135.7-264,134.9-263.4,134.1z"/>
<path class="st0" d="M-174,125.7c-8.3,0-15,6.7-15,15s6.7,15,15,15s15-6.7,15-15S-165.8,125.7-174,125.7z M-164.3,146.7
	c0,2-1.6,3.6-3.6,3.6h-12.1c-2,0-3.6-1.6-3.6-3.6v-12.1c0-2,1.6-3.6,3.6-3.6h12.1c2,0,3.6,1.6,3.6,3.6V146.7z M-168,132.5h-12.1
	c-1.2,0-2.1,1-2.1,2.1v3.1h3c1-1.8,3-3,5.2-3c2.2,0,4.1,1.2,5.2,3h3v-3.1C-165.8,133.4-166.8,132.5-168,132.5z M-166.6,135.4
	c0,0.4-0.3,0.7-0.7,0.7h-1.5c-0.4,0-0.7-0.3-0.7-0.7v-1.5c0-0.4,0.3-0.7,0.7-0.7h1.5c0.4,0,0.7,0.3,0.7,0.7V135.4z M-169.6,140
	c0-0.1,0-0.2,0-0.2s0-0.2-0.1-0.2c0-0.1,0-0.1,0-0.2c0-0.1-0.1-0.2-0.1-0.3c0,0,0-0.1,0-0.1c0-0.1-0.1-0.2-0.1-0.3c0,0,0,0,0-0.1
	c-0.1-0.1-0.1-0.2-0.2-0.3c0,0,0,0,0,0c-0.1-0.1-0.1-0.2-0.2-0.3c0,0,0,0,0,0c-0.1-0.1-0.2-0.2-0.2-0.3l0,0c-0.8-0.9-2-1.5-3.3-1.5
	s-2.5,0.6-3.3,1.5l0,0c-0.1,0.1-0.2,0.2-0.2,0.3c0,0,0,0,0,0c-0.1,0.1-0.1,0.2-0.2,0.3c0,0,0,0,0,0c-0.1,0.1-0.1,0.2-0.2,0.3
	c0,0,0,0.1,0,0.1c0,0.1-0.1,0.2-0.1,0.3c0,0,0,0.1,0,0.1c0,0.1-0.1,0.2-0.1,0.3c0,0.1,0,0.1,0,0.2c0,0.1,0,0.2-0.1,0.2
	c0,0.1,0,0.2,0,0.2c0,0.1,0,0.1,0,0.2c0,0.1,0,0.3,0,0.4c0,2.5,2,4.5,4.5,4.5c2.5,0,4.5-2,4.5-4.5c0-0.1,0-0.3,0-0.4
	C-169.6,140.2-169.6,140.1-169.6,140z M-174,143.5c-1.6,0-2.8-1.3-2.8-2.8c0-0.5,0.2-1,0.4-1.5c0,0.1-0.1,0.3-0.1,0.4
	c0,0.8,0.6,1.4,1.4,1.4s1.4-0.6,1.4-1.4c0-0.8-0.6-1.4-1.4-1.4c-0.1,0-0.3,0-0.4,0.1c0.4-0.3,0.9-0.4,1.5-0.4c1.6,0,2.8,1.3,2.8,2.8
	C-171.2,142.2-172.5,143.5-174,143.5z"/>
<path class="st0" d="M-209,140.7c0,8.3-6.7,15-15,15s-15-6.7-15-15s6.7-15,15-15S-209,132.4-209,140.7z M-215.9,136
	c-0.6-4.2-4.7-6.3-9.2-5.8c-3.5,0.4-7,3.2-7.2,7.3c-0.1,2.5,0.6,4.3,3,4.9c1-1.8-0.3-2.2-0.5-3.5c-0.9-5.4,6.2-9,9.9-5.3
	c2.6,2.6,0.9,10.6-3.2,9.7c-3.9-0.8,1.9-7.1-1.2-8.4c-2.6-1-3.9,3.1-2.7,5.1c-0.7,3.5-2.2,6.8-1.6,11.2c2-1.5,2.7-4.3,3.2-7.2
	c1,0.6,1.6,1.3,2.8,1.4C-217.9,145.8-215.3,140.7-215.9,136z"/>
<g>
	<circle class="st0" cx="-74" cy="140.7" r="15"/>
	<path class="st1" d="M-65.4,147.7h-17.2c-0.5,0-1-0.4-1-1v-12c0-0.6,0.4-1,1-1h17.2c0.5,0,1,0.4,1,1v12
		C-64.5,147.2-64.9,147.7-65.4,147.7z"/>
	<path class="st1" d="M-74.1,139.1l-9.3,8.3c0.2,0.2,0.4,0.3,0.7,0.3h17.2c0.3,0,0.5-0.1,0.7-0.3L-74.1,139.1z"/>
	<path class="st1" d="M-74.1,142.2l9.3-8.3c-0.2-0.2-0.4-0.3-0.7-0.3h-17.2c-0.3,0-0.5,0.1-0.7,0.3L-74.1,142.2z"/>
</g>
<g>
	<g>
		<path class="st2" d="M-324,155.7c-8.3,0-15,6.7-15,15s6.7,15,15,15c8.3,0,15-6.7,15-15S-315.8,155.7-324,155.7z M-320,170.4h-2.5
			c0,4,0,9,0,9h-3.8c0,0,0-4.9,0-9h-1.8v-3.2h1.8v-2.1c0-1.5,0.7-3.8,3.8-3.8l2.8,0v3.1c0,0-1.7,0-2,0c-0.3,0-0.8,0.2-0.8,0.9v1.9
			h2.9L-320,170.4z"/>
		<g>
			<path class="st2" d="M-127.8,168.1c-0.3-2.3-1.9-4.1-3.7-4.2c-1.7-0.1-2.9,1.7-2.6,4c0.3,2.3,1.9,4.2,3.7,4.2
				C-128.6,172.2-127.5,170.4-127.8,168.1z"/>
			<path class="st2" d="M-126.2,180.2c0-0.2,0-0.5-0.1-0.7c-0.3-1.1-1.3-1.7-2.7-2.6c-0.5-0.2-1.1-0.3-1.7-0.3
				c-2.6,0-4.9,1.6-4.9,3.5c0,0.1,0,0.2,0,0.3c1.1,1.3,2.4,2.4,3.9,3.3c0.2,0,0.4,0,0.5,0C-127.4,183.7-126.2,182.1-126.2,180.2z"/>
			<path class="st2" d="M-124,155.7c-8.3,0-15,6.7-15,15c0,2.8,0.8,5.4,2.1,7.7c1.1-1.4,3.2-2.4,5.6-2.4c0.4,0,0.8,0,1.2,0
				c-0.5-0.5-0.9-1.1-0.9-1.9c0-0.4,0.1-0.9,0.3-1.3c-0.2,0-0.4,0-0.6,0c-3.1,0-5.1-2.3-5.1-5c0-2.6,2.8-5.1,5.9-5.1
				c1.7,0,6.7,0,6.7,0l-1.5,1.4h-2.1c1.4,0.4,2.2,2.2,2.2,3.9c0,1.4-0.8,2.7-1.9,3.5c-1.1,0.8-1.3,1.2-1.3,1.9
				c0,0.6,1.2,1.7,1.8,2.1c1.8,1.3,2.4,2.4,2.4,4.4c0,2.1-1.8,4.2-5.1,4.7c1.7,0.7,3.6,1,5.5,1c8.3,0,15-6.7,15-15
				C-109,162.4-115.8,155.7-124,155.7z M-116.1,168.7v4.2h-2.1v-4.2h-4.2v-2.1h4.2v-4.2h2.1v4.2h4.2v2.1H-116.1z"/>
		</g>
		<path class="st2" d="M-259,170.7c0,8.3-6.7,15-15,15s-15-6.7-15-15s6.7-15,15-15S-259,162.4-259,170.7z M-263.4,164.1
			c-0.8,0.3-1.6,0.6-2.5,0.7c0.9-0.5,1.6-1.4,1.9-2.4c-0.8,0.5-1.8,0.9-2.8,1.1c-0.8-0.8-1.9-1.4-3.2-1.4c-2.4,0-4.4,2-4.4,4.4
			c0,0.3,0,0.7,0.1,1c-3.6-0.2-6.8-1.9-9-4.6c-0.4,0.6-0.6,1.4-0.6,2.2c0,1.5,0.8,2.8,1.9,3.6c-0.7,0-1.4-0.2-2-0.5v0.1
			c0,2.1,1.5,3.9,3.5,4.3c-0.4,0.1-0.8,0.2-1.1,0.2c-0.3,0-0.6,0-0.8-0.1c0.6,1.7,2.2,3,4.1,3c-1.5,1.2-3.4,1.9-5.4,1.9
			c-0.4,0-0.7,0-1-0.1c1.9,1.2,4.2,2,6.7,2c8,0,12.4-6.6,12.4-12.4l0-0.6C-264.7,165.7-264,164.9-263.4,164.1z"/>
		<path class="st2" d="M-174,155.7c-8.3,0-15,6.7-15,15s6.7,15,15,15s15-6.7,15-15S-165.8,155.7-174,155.7z M-164.3,176.7
			c0,2-1.6,3.6-3.6,3.6h-12.1c-2,0-3.6-1.6-3.6-3.6v-12.1c0-2,1.6-3.6,3.6-3.6h12.1c2,0,3.6,1.6,3.6,3.6V176.7z M-168,162.5h-12.1
			c-1.2,0-2.1,1-2.1,2.1v3.1h3c1-1.8,3-3,5.2-3c2.2,0,4.1,1.2,5.2,3h3v-3.1C-165.8,163.4-166.8,162.5-168,162.5z M-166.6,165.4
			c0,0.4-0.3,0.7-0.7,0.7h-1.5c-0.4,0-0.7-0.3-0.7-0.7v-1.5c0-0.4,0.3-0.7,0.7-0.7h1.5c0.4,0,0.7,0.3,0.7,0.7V165.4z M-169.6,170
			c0-0.1,0-0.2,0-0.2c0-0.1,0-0.2-0.1-0.2c0-0.1,0-0.1,0-0.2c0-0.1-0.1-0.2-0.1-0.3c0,0,0-0.1,0-0.1c0-0.1-0.1-0.2-0.1-0.3
			c0,0,0,0,0-0.1c-0.1-0.1-0.1-0.2-0.2-0.3c0,0,0,0,0,0c-0.1-0.1-0.1-0.2-0.2-0.3c0,0,0,0,0,0c-0.1-0.1-0.2-0.2-0.2-0.3l0,0
			c-0.8-0.9-2-1.5-3.3-1.5s-2.5,0.6-3.3,1.5l0,0c-0.1,0.1-0.2,0.2-0.2,0.3c0,0,0,0,0,0c-0.1,0.1-0.1,0.2-0.2,0.3c0,0,0,0,0,0
			c-0.1,0.1-0.1,0.2-0.2,0.3c0,0,0,0.1,0,0.1c0,0.1-0.1,0.2-0.1,0.3c0,0,0,0.1,0,0.1c0,0.1-0.1,0.2-0.1,0.3c0,0.1,0,0.1,0,0.2
			c0,0.1,0,0.2-0.1,0.2c0,0.1,0,0.2,0,0.2c0,0.1,0,0.1,0,0.2c0,0.1,0,0.3,0,0.4c0,2.5,2,4.5,4.5,4.5c2.5,0,4.5-2,4.5-4.5
			c0-0.1,0-0.3,0-0.4C-169.6,170.2-169.6,170.1-169.6,170z M-174,173.5c-1.6,0-2.8-1.3-2.8-2.8c0-0.5,0.2-1,0.4-1.5
			c0,0.1-0.1,0.3-0.1,0.4c0,0.8,0.6,1.4,1.4,1.4s1.4-0.6,1.4-1.4c0-0.8-0.6-1.4-1.4-1.4c-0.1,0-0.3,0-0.4,0.1
			c0.4-0.3,0.9-0.4,1.5-0.4c1.6,0,2.8,1.3,2.8,2.8C-171.2,172.2-172.5,173.5-174,173.5z"/>
		<path class="st2" d="M-209,170.7c0,8.3-6.7,15-15,15s-15-6.7-15-15s6.7-15,15-15S-209,162.4-209,170.7z M-215.9,166
			c-0.6-4.2-4.7-6.3-9.2-5.8c-3.5,0.4-7,3.2-7.2,7.3c-0.1,2.5,0.6,4.3,3,4.9c1-1.8-0.3-2.2-0.5-3.5c-0.9-5.4,6.2-9,9.9-5.3
			c2.6,2.6,0.9,10.6-3.2,9.7c-3.9-0.8,1.9-7.1-1.2-8.4c-2.6-1-3.9,3.1-2.7,5.1c-0.7,3.5-2.2,6.8-1.6,11.2c2-1.5,2.7-4.3,3.2-7.2
			c1,0.6,1.6,1.3,2.8,1.4C-217.9,175.8-215.3,170.7-215.9,166z"/>
	</g>
	<g>
		<circle class="st2" cx="-74" cy="170.7" r="15"/>
		<path class="st3" d="M-65.4,177.7h-17.2c-0.5,0-1-0.4-1-1v-12c0-0.6,0.4-1,1-1h17.2c0.5,0,1,0.4,1,1v12
			C-64.5,177.2-64.9,177.7-65.4,177.7z"/>
		<path class="st3" d="M-74.1,169.1l-9.3,8.3c0.2,0.2,0.4,0.3,0.7,0.3h17.2c0.3,0,0.5-0.1,0.7-0.3L-74.1,169.1z"/>
		<path class="st3" d="M-74.1,172.2l9.3-8.3c-0.2-0.2-0.4-0.3-0.7-0.3h-17.2c-0.3,0-0.5,0.1-0.7,0.3L-74.1,172.2z"/>
	</g>
</g>
<g id="Layer_1_1_">
	<g>
		<path class="st4" d="M37.6,132.4c-0.2-0.3-0.6-0.4-0.9-0.4H19.5l-0.2-1.5c-0.1-0.6-0.6-1-1.2-1h-2.8c-0.7,0-1.2,0.6-1.2,1.2
			s0.6,1.2,1.2,1.2h1.7l2.3,13.9c0,0.1,0,0.1,0.1,0.2c0,0.1,0,0.1,0.1,0.2c0,0.1,0.1,0.2,0.1,0.2c0,0,0.1,0.1,0.1,0.1
			c0.1,0.1,0.2,0.1,0.2,0.2c0,0,0.1,0.1,0.1,0.1c0.1,0.1,0.3,0.1,0.5,0.1c0,0,13.7,0,13.7,0c0.7,0,1.2-0.6,1.2-1.2s-0.6-1.2-1.2-1.2
			H21.6l-0.2-1.2h14.1c0.6,0,1.1-0.5,1.2-1.1l1.2-8.7C38,133,37.9,132.6,37.6,132.4z M35.3,134.4l-0.4,2.5h-4.4v-2.5H35.3z
			 M29.2,134.4v2.5h-3.7v-2.5H29.2z M29.2,138.2v2.5h-3.7v-2.5H29.2L29.2,138.2z M24.2,134.4v2.5h-3.7c-0.1,0-0.1,0-0.2,0l-0.4-2.5
			L24.2,134.4L24.2,134.4z M20.5,138.2h3.7v2.5h-3.3L20.5,138.2z M30.5,140.7v-2.5h4.3l-0.4,2.5H30.5z"/>
		<circle class="st4" cx="22.4" cy="150" r="1.9"/>
		<circle class="st4" cx="33.6" cy="150" r="1.9"/>
	</g>
</g>
<g>
	<rect x="-33" y="133.2" class="st4" width="18" height="3"/>
	<rect x="-33" y="139.2" class="st4" width="18" height="3"/>
	<rect x="-33" y="145.2" class="st4" width="18" height="3"/>
</g>
<path class="st4" d="M78.1,140.7h-2.6v-2.5h0.3c-0.6-1.1-1-2.4-1-3.7c0-0.9,0.2-1.7,0.4-2.5h-5.7l-0.2-1.5c-0.1-0.6-0.6-1-1.2-1
	h-2.8c-0.7,0-1.2,0.6-1.2,1.2s0.6,1.2,1.2,1.2h1.7l2.3,13.9c0,0.1,0,0.1,0.1,0.2c0,0.1,0,0.1,0.1,0.2c0,0.1,0.1,0.2,0.1,0.2
	c0,0,0.1,0.1,0.1,0.1c0.1,0.1,0.2,0.1,0.2,0.2c0,0,0.1,0.1,0.1,0.1c0.1,0.1,0.3,0.1,0.5,0.1c0,0,13.7,0,13.7,0
	c0.7,0,1.2-0.6,1.2-1.2c0-0.7-0.6-1.2-1.2-1.2H71.6l-0.2-1.2h14.1c0.6,0,1.1-0.5,1.2-1.1l0.3-1.8c-1.3,1.1-2.9,1.7-4.7,1.7
	C80.7,141.9,79.3,141.5,78.1,140.7z M70.3,137l-0.4-2.5h4.3v0v2.5h-3.7C70.4,136.9,70.4,136.9,70.3,137z M74.2,140.7h-3.3l-0.4-2.5
	h3.7V140.7z"/>
<circle class="st4" cx="72.4" cy="150" r="1.9"/>
<circle class="st4" cx="83.6" cy="150" r="1.9"/>
<path d="M82.2,127.9c-3.6,0-6.5,2.9-6.5,6.5s2.9,6.5,6.5,6.5s6.5-2.9,6.5-6.5S85.8,127.9,82.2,127.9z M76.7,134.4
	c0-3,2.5-5.5,5.5-5.5s5.5,2.5,5.5,5.5s-2.5,5.5-5.5,5.5S76.7,137.5,76.7,134.4z"/>
<polygon points="83,135.1 86.1,135.1 86.1,133.7 83,133.7 83,130.4 81.5,130.4 81.5,133.7 78.3,133.7 78.3,135.1 81.5,135.1 
	81.5,138.4 83,138.4 "/>
<g id="Layer_1_2_">
	<g>
		<path class="st5" d="M37.6,163.1c-0.2-0.3-0.6-0.4-0.9-0.4H19.5l-0.2-1.5c-0.1-0.6-0.6-1-1.2-1h-2.8c-0.7,0-1.2,0.6-1.2,1.2
			s0.6,1.2,1.2,1.2h1.7l2.3,13.9c0,0.1,0,0.1,0.1,0.2c0,0.1,0,0.1,0.1,0.2c0,0.1,0.1,0.2,0.1,0.2c0,0,0.1,0.1,0.1,0.1
			c0.1,0.1,0.2,0.1,0.2,0.2c0,0,0.1,0.1,0.1,0.1c0.1,0.1,0.3,0.1,0.5,0.1c0,0,13.7,0,13.7,0c0.7,0,1.2-0.6,1.2-1.2
			c0-0.7-0.6-1.2-1.2-1.2H21.6l-0.2-1.2h14.1c0.6,0,1.1-0.5,1.2-1.1l1.2-8.7C38,163.8,37.9,163.4,37.6,163.1z M35.3,165.2l-0.4,2.5
			h-4.4v-2.5H35.3z M29.2,165.2v2.5h-3.7v-2.5H29.2z M29.2,168.9v2.5h-3.7v-2.5H29.2L29.2,168.9z M24.2,165.2v2.5h-3.7
			c-0.1,0-0.1,0-0.2,0l-0.4-2.5L24.2,165.2L24.2,165.2z M20.5,168.9h3.7v2.5h-3.3L20.5,168.9z M30.5,171.4v-2.5h4.3l-0.4,2.5H30.5z"
			/>
		<circle class="st5" cx="22.4" cy="180.8" r="1.9"/>
		<circle class="st5" cx="33.6" cy="180.8" r="1.9"/>
	</g>
</g>
<g>
	<rect x="-33" y="163.9" class="st5" width="18" height="3"/>
	<rect x="-33" y="169.9" class="st5" width="18" height="3"/>
	<rect x="-33" y="175.9" class="st5" width="18" height="3"/>
</g>
<path class="st5" d="M78.1,171.4h-2.6v-2.5h0.3c-0.6-1.1-1-2.4-1-3.7c0-0.9,0.2-1.7,0.4-2.5h-5.7l-0.2-1.5c-0.1-0.6-0.6-1-1.2-1
	h-2.8c-0.7,0-1.2,0.6-1.2,1.2s0.6,1.2,1.2,1.2h1.7l2.3,13.9c0,0.1,0,0.1,0.1,0.2c0,0.1,0,0.1,0.1,0.2c0,0.1,0.1,0.2,0.1,0.2
	c0,0,0.1,0.1,0.1,0.1c0.1,0.1,0.2,0.1,0.2,0.2c0,0,0.1,0.1,0.1,0.1c0.1,0.1,0.3,0.1,0.5,0.1c0,0,13.7,0,13.7,0
	c0.7,0,1.2-0.6,1.2-1.2c0-0.7-0.6-1.2-1.2-1.2H71.6l-0.2-1.2h14.1c0.6,0,1.1-0.5,1.2-1.1L87,171c-1.3,1.1-2.9,1.7-4.7,1.7
	C80.7,172.7,79.3,172.2,78.1,171.4z M70.3,167.7l-0.4-2.5h4.3v0v2.5h-3.7C70.4,167.7,70.4,167.7,70.3,167.7z M74.2,171.4h-3.3
	l-0.4-2.5h3.7V171.4z"/>
<circle class="st5" cx="72.4" cy="180.8" r="1.9"/>
<circle class="st5" cx="83.6" cy="180.8" r="1.9"/>
<path class="st5" d="M82.2,158.7c-3.6,0-6.5,2.9-6.5,6.5s2.9,6.5,6.5,6.5s6.5-2.9,6.5-6.5S85.8,158.7,82.2,158.7z M76.7,165.2
	c0-3,2.5-5.5,5.5-5.5s5.5,2.5,5.5,5.5s-2.5,5.5-5.5,5.5S76.7,168.2,76.7,165.2z"/>
<polygon class="st5" points="83,165.9 86.1,165.9 86.1,164.5 83,164.5 83,161.2 81.5,161.2 81.5,164.5 78.3,164.5 78.3,165.9 
	81.5,165.9 81.5,169.2 83,169.2 "/>
</svg>
