
<svg version="1.1" id="graphics" xmlns="http://www.w3.org/2000/svg" xmlns:xlink="http://www.w3.org/1999/xlink" x="0px" y="0px"
	 viewBox="0 0 279.954 60" style="enable-background:new 0 0 279.954 60;" xml:space="preserve">
<g>
	<path style="fill:#999999;" d="M14.977,0.023C6.705,0.023,0,6.728,0,15c0,8.272,6.705,14.977,14.977,14.977
		c8.271,0,14.977-6.705,14.977-14.977C29.954,6.728,23.248,0.023,14.977,0.023z M18.96,14.752h-2.53c0,4.044,0,9.023,0,9.023h-3.751
		c0,0,0-4.931,0-9.023h-1.783v-3.187h1.783V9.501c0-1.477,0.702-3.785,3.785-3.785l2.777,0.012v3.093c0,0-1.688,0-2.016,0
		c-0.33,0-0.795,0.165-0.795,0.868v1.876h2.858L18.96,14.752z"/>
	<g>
		<path style="fill:#999999;" d="M211.227,12.448c-0.299-2.276-1.947-4.102-3.679-4.154c-1.733-0.052-2.895,1.69-2.596,3.966
			c0.299,2.276,1.946,4.162,3.679,4.214C210.364,16.527,211.526,14.724,211.227,12.448z"/>
		<path style="fill:#999999;" d="M212.848,24.491c0-0.237-0.029-0.468-0.082-0.694c-0.284-1.111-1.289-1.661-2.69-2.636
			c-0.51-0.165-1.071-0.262-1.674-0.268c-2.582-0.028-4.895,1.574-4.895,3.498c0,0.108,0.008,0.214,0.019,0.319
			c1.098,1.291,2.409,2.392,3.881,3.251c0.178,0.017,0.36,0.027,0.546,0.027C211.583,27.989,212.848,26.454,212.848,24.491z"/>
		<path style="fill:#999999;" d="M214.954,0c-8.284,0-15,6.716-15,15c0,2.797,0.768,5.414,2.101,7.655
			c1.147-1.383,3.206-2.393,5.635-2.393c0.407,0,0.78-0.017,1.166-0.017c-0.511-0.497-0.916-1.118-0.916-1.869
			c0-0.446,0.142-0.897,0.342-1.279c-0.203,0.015-0.41-0.026-0.624-0.026c-3.068,0-5.124-2.272-5.124-4.976
			c0-2.646,2.838-5.109,5.854-5.109c1.682,0,6.727,0,6.727,0L213.61,8.4h-2.133c1.415,0.353,2.168,2.209,2.168,3.901
			c0,1.422-0.787,2.659-1.9,3.528c-1.085,0.848-1.291,1.203-1.291,1.924c0,0.615,1.163,1.662,1.771,2.092
			c1.777,1.257,2.352,2.423,2.352,4.371c0,2.13-1.808,4.248-5.123,4.739c1.703,0.672,3.558,1.045,5.5,1.045c8.284,0,15-6.715,15-15
			C229.954,6.716,223.238,0,214.954,0z M222.904,13.084v4.204h-2.11v-4.204h-4.204v-2.11h4.204V6.77h2.11v4.204h4.204v2.11H222.904z
			"/>
	</g>
	<path style="fill:#999999;" d="M79.954,15c0,8.284-6.716,15-15,15s-15-6.716-15-15c0-8.284,6.716-15,15-15S79.954,6.716,79.954,15z
		 M75.581,8.409c-0.782,0.347-1.622,0.582-2.504,0.687c0.9-0.539,1.59-1.395,1.917-2.411c-0.843,0.499-1.777,0.862-2.771,1.059
		c-0.794-0.849-1.927-1.377-3.181-1.377c-2.408,0-4.36,1.952-4.36,4.359c0,0.341,0.039,0.675,0.113,0.993
		c-3.623-0.182-6.836-1.918-8.987-4.556c-0.376,0.643-0.59,1.392-0.59,2.192c0,1.513,0.77,2.848,1.939,3.629
		c-0.715-0.024-1.387-0.22-1.975-0.547v0.054c0,2.112,1.504,3.874,3.497,4.275c-0.365,0.098-0.75,0.153-1.149,0.153
		c-0.282,0-0.554-0.028-0.821-0.08c0.555,1.732,2.165,2.992,4.072,3.028c-1.492,1.169-3.372,1.865-5.415,1.865
		c-0.352,0-0.699-0.021-1.04-0.06c1.93,1.238,4.221,1.96,6.683,1.96c8.02,0,12.405-6.644,12.405-12.405l-0.015-0.564
		C74.257,10.051,74.998,9.283,75.581,8.409z"/>
	<path style="fill:#999999;" d="M164.954,0c-8.284,0-15,6.716-15,15c0,8.284,6.716,15,15,15c8.284,0,15-6.716,15-15
		C179.954,6.716,173.238,0,164.954,0z M174.66,21.066c0,2.011-1.629,3.64-3.64,3.64h-12.132c-2.011,0-3.64-1.629-3.64-3.64V8.934
		c0-2.011,1.629-3.64,3.64-3.64h12.132c2.011,0,3.64,1.629,3.64,3.64V21.066z M171.02,6.787h-12.132
		c-1.183,0-2.146,0.963-2.146,2.146v3.08h3.048c1.035-1.782,2.96-2.986,5.165-2.986c2.205,0,4.13,1.204,5.165,2.986h3.048v-3.08
		C173.167,7.75,172.204,6.787,171.02,6.787z M172.42,9.774c0,0.411-0.335,0.747-0.747,0.747h-1.493
		c-0.411,0-0.747-0.335-0.747-0.747V8.281c0-0.411,0.335-0.747,0.747-0.747h1.493c0.411,0,0.747,0.335,0.747,0.747V9.774z
		 M169.385,14.379c-0.011-0.082-0.021-0.164-0.037-0.244c-0.016-0.08-0.037-0.157-0.057-0.236c-0.014-0.057-0.027-0.114-0.044-0.169
		c-0.027-0.091-0.059-0.181-0.092-0.27c-0.014-0.038-0.027-0.077-0.042-0.115c-0.04-0.1-0.084-0.197-0.131-0.293
		c-0.011-0.024-0.022-0.047-0.034-0.071c-0.053-0.105-0.111-0.207-0.172-0.307c-0.007-0.012-0.014-0.024-0.021-0.035
		c-0.067-0.107-0.137-0.211-0.212-0.311c-0.003-0.004-0.006-0.007-0.008-0.011c-0.079-0.105-0.162-0.206-0.249-0.304l0,0
		c-0.82-0.915-2.007-1.493-3.332-1.493c-1.325,0-2.512,0.579-3.332,1.493h0c-0.087,0.097-0.169,0.198-0.248,0.302
		c-0.004,0.005-0.008,0.01-0.011,0.015c-0.074,0.099-0.144,0.201-0.209,0.306c-0.009,0.014-0.017,0.028-0.025,0.042
		c-0.06,0.098-0.116,0.199-0.169,0.301c-0.013,0.025-0.025,0.051-0.037,0.077c-0.046,0.094-0.089,0.19-0.129,0.288
		c-0.016,0.039-0.029,0.08-0.044,0.119c-0.032,0.088-0.064,0.176-0.091,0.266c-0.017,0.057-0.03,0.115-0.044,0.172
		c-0.02,0.077-0.04,0.154-0.056,0.233c-0.016,0.081-0.026,0.163-0.037,0.245c-0.008,0.06-0.02,0.118-0.026,0.179
		c-0.014,0.145-0.022,0.292-0.022,0.441c0,2.474,2.006,4.48,4.48,4.48c2.473,0,4.48-2.005,4.48-4.48
		c0-0.149-0.008-0.296-0.022-0.441C169.405,14.499,169.394,14.439,169.385,14.379z M164.955,17.847
		c-1.574,0-2.847-1.274-2.847-2.847c0-0.542,0.158-1.042,0.421-1.473c-0.041,0.134-0.07,0.273-0.07,0.422
		c0,0.797,0.646,1.443,1.443,1.443s1.443-0.647,1.443-1.443c0-0.798-0.646-1.444-1.443-1.444c-0.147,0-0.287,0.028-0.421,0.069
		c0.431-0.261,0.931-0.42,1.473-0.42c1.572,0,2.848,1.272,2.848,2.846C167.801,16.574,166.526,17.847,164.955,17.847z"/>
	<path style="fill:#999999;" d="M129.954,15c0,8.284-6.716,15-15,15s-15-6.716-15-15c0-8.284,6.716-15,15-15
		S129.954,6.716,129.954,15z M123.093,10.3c-0.577-4.185-4.749-6.316-9.198-5.817c-3.518,0.394-7.025,3.239-7.171,7.306
		c-0.089,2.483,0.615,4.346,2.978,4.869c1.023-1.811-0.33-2.206-0.541-3.518c-0.867-5.36,6.183-9.021,9.876-5.276
		c2.556,2.594,0.872,10.57-3.247,9.74c-3.945-0.791,1.932-7.14-1.216-8.386c-2.56-1.014-3.919,3.097-2.705,5.141
		c-0.712,3.514-2.245,6.823-1.624,11.229c2.012-1.46,2.691-4.255,3.247-7.171c1.011,0.615,1.553,1.253,2.842,1.353
		C121.088,20.138,123.746,15.023,123.093,10.3z"/>
	<g>
		<circle style="fill:#999999;" cx="264.954" cy="15" r="15"/>

			<path style="fill:#FFFFFF;stroke:#999999;stroke-width:1.5;stroke-linecap:round;stroke-linejoin:round;stroke-miterlimit:10;" d="
			M273.556,22h-17.222c-0.536,0-0.986-0.433-0.986-0.986V8.986c0-0.554,0.433-0.986,0.986-0.986h17.24
			c0.536,0,0.986,0.433,0.986,0.986v12.044C274.543,21.567,274.11,22,273.556,22z"/>

			<path style="fill:#FFFFFF;stroke:#999999;stroke-width:1.5;stroke-linecap:round;stroke-linejoin:round;stroke-miterlimit:10;" d="
			M264.945,13.486l-9.269,8.255c0.173,0.156,0.398,0.26,0.658,0.26h17.24c0.26,0,0.485-0.104,0.658-0.26L264.945,13.486z"/>

			<path style="fill:#FFFFFF;stroke:#999999;stroke-width:1.5;stroke-linecap:round;stroke-linejoin:round;stroke-miterlimit:10;" d="
			M264.945,16.514l9.269-8.255C274.041,8.104,273.816,8,273.556,8h-17.222c-0.26,0-0.485,0.104-0.658,0.26L264.945,16.514z"/>
	</g>
</g>
<g>
	<g>
		<path style="fill:#F7C25D;" d="M14.977,30.023C6.705,30.023,0,36.728,0,45c0,8.272,6.705,14.977,14.977,14.977
			c8.271,0,14.977-6.705,14.977-14.977C29.954,36.728,23.248,30.023,14.977,30.023z M18.96,44.752h-2.53c0,4.044,0,9.023,0,9.023
			h-3.751c0,0,0-4.931,0-9.023h-1.783v-3.187h1.783v-2.063c0-1.477,0.702-3.785,3.785-3.785l2.777,0.012v3.093c0,0-1.688,0-2.016,0
			c-0.33,0-0.795,0.165-0.795,0.868v1.876h2.858L18.96,44.752z"/>
		<g>
			<path style="fill:#F7C25D;" d="M211.227,42.448c-0.299-2.276-1.947-4.102-3.679-4.154c-1.733-0.052-2.895,1.69-2.596,3.966
				c0.299,2.276,1.946,4.162,3.679,4.214C210.364,46.527,211.526,44.724,211.227,42.448z"/>
			<path style="fill:#F7C25D;" d="M212.848,54.491c0-0.237-0.029-0.468-0.082-0.694c-0.284-1.111-1.289-1.661-2.69-2.636
				c-0.51-0.165-1.071-0.262-1.674-0.268c-2.582-0.028-4.895,1.574-4.895,3.498c0,0.108,0.008,0.214,0.019,0.319
				c1.098,1.291,2.409,2.392,3.881,3.251c0.178,0.017,0.36,0.027,0.546,0.027C211.583,57.989,212.848,56.454,212.848,54.491z"/>
			<path style="fill:#F7C25D;" d="M214.954,30c-8.284,0-15,6.716-15,15c0,2.797,0.768,5.414,2.101,7.655
				c1.147-1.383,3.206-2.393,5.635-2.393c0.407,0,0.78-0.017,1.166-0.017c-0.511-0.497-0.916-1.118-0.916-1.869
				c0-0.446,0.142-0.897,0.342-1.279c-0.203,0.015-0.41-0.026-0.624-0.026c-3.068,0-5.124-2.272-5.124-4.976
				c0-2.646,2.838-5.109,5.854-5.109c1.682,0,6.727,0,6.727,0L213.61,38.4h-2.133c1.415,0.353,2.168,2.209,2.168,3.901
				c0,1.422-0.787,2.659-1.9,3.528c-1.085,0.848-1.291,1.203-1.291,1.924c0,0.615,1.163,1.662,1.771,2.092
				c1.777,1.257,2.352,2.423,2.352,4.371c0,2.13-1.808,4.248-5.123,4.739c1.703,0.672,3.558,1.045,5.5,1.045c8.284,0,15-6.715,15-15
				C229.954,36.716,223.238,30,214.954,30z M222.904,43.084v4.204h-2.11v-4.204h-4.204v-2.11h4.204V36.77h2.11v4.204h4.204v2.11
				H222.904z"/>
		</g>
		<path style="fill:#F7C25D;" d="M79.954,45c0,8.284-6.716,15-15,15s-15-6.716-15-15c0-8.284,6.716-15,15-15
			S79.954,36.716,79.954,45z M75.581,38.409c-0.782,0.347-1.622,0.582-2.504,0.687c0.9-0.539,1.59-1.395,1.917-2.411
			c-0.843,0.499-1.777,0.862-2.771,1.059c-0.794-0.849-1.927-1.377-3.181-1.377c-2.408,0-4.36,1.952-4.36,4.359
			c0,0.341,0.039,0.675,0.113,0.993c-3.623-0.182-6.836-1.918-8.987-4.556c-0.376,0.643-0.59,1.392-0.59,2.192
			c0,1.513,0.77,2.848,1.939,3.629c-0.715-0.024-1.387-0.22-1.975-0.547v0.054c0,2.112,1.504,3.874,3.497,4.275
			c-0.365,0.098-0.75,0.153-1.149,0.153c-0.282,0-0.554-0.028-0.821-0.08c0.555,1.732,2.165,2.992,4.072,3.028
			c-1.492,1.169-3.372,1.865-5.415,1.865c-0.352,0-0.699-0.021-1.04-0.06c1.93,1.238,4.221,1.96,6.683,1.96
			c8.02,0,12.405-6.644,12.405-12.405l-0.015-0.564C74.257,40.051,74.998,39.283,75.581,38.409z"/>
		<path style="fill:#F7C25D;" d="M164.954,30c-8.284,0-15,6.716-15,15c0,8.284,6.716,15,15,15c8.284,0,15-6.716,15-15
			C179.954,36.716,173.238,30,164.954,30z M174.66,51.066c0,2.011-1.629,3.64-3.64,3.64h-12.132c-2.011,0-3.64-1.629-3.64-3.64
			V38.934c0-2.011,1.629-3.64,3.64-3.64h12.132c2.011,0,3.64,1.629,3.64,3.64V51.066z M171.02,36.787h-12.132
			c-1.183,0-2.146,0.963-2.146,2.146v3.08h3.048c1.035-1.782,2.96-2.986,5.165-2.986c2.205,0,4.13,1.204,5.165,2.986h3.048v-3.08
			C173.167,37.75,172.204,36.787,171.02,36.787z M172.42,39.774c0,0.411-0.335,0.747-0.747,0.747h-1.493
			c-0.411,0-0.747-0.335-0.747-0.747v-1.493c0-0.411,0.335-0.747,0.747-0.747h1.493c0.411,0,0.747,0.335,0.747,0.747V39.774z
			 M169.385,44.379c-0.011-0.082-0.021-0.164-0.037-0.244c-0.016-0.08-0.037-0.157-0.057-0.236
			c-0.014-0.057-0.027-0.114-0.044-0.169c-0.027-0.091-0.059-0.181-0.092-0.27c-0.014-0.038-0.027-0.077-0.042-0.115
			c-0.04-0.1-0.084-0.197-0.131-0.293c-0.011-0.024-0.022-0.047-0.034-0.071c-0.053-0.105-0.111-0.207-0.172-0.307
			c-0.007-0.012-0.014-0.024-0.021-0.035c-0.067-0.107-0.137-0.211-0.212-0.311c-0.003-0.004-0.006-0.007-0.008-0.011
			c-0.079-0.105-0.162-0.206-0.249-0.304l0,0c-0.82-0.915-2.007-1.493-3.332-1.493c-1.325,0-2.512,0.579-3.332,1.493h0
			c-0.087,0.097-0.169,0.198-0.248,0.302c-0.004,0.005-0.008,0.01-0.011,0.015c-0.074,0.099-0.144,0.201-0.209,0.306
			c-0.009,0.014-0.017,0.028-0.025,0.042c-0.06,0.098-0.116,0.199-0.169,0.301c-0.013,0.025-0.025,0.051-0.037,0.077
			c-0.046,0.094-0.089,0.19-0.129,0.288c-0.016,0.039-0.029,0.08-0.044,0.119c-0.032,0.088-0.064,0.176-0.091,0.266
			c-0.017,0.057-0.03,0.115-0.044,0.172c-0.02,0.077-0.04,0.154-0.056,0.233c-0.016,0.081-0.026,0.163-0.037,0.245
			c-0.008,0.06-0.02,0.118-0.026,0.179c-0.014,0.145-0.022,0.292-0.022,0.441c0,2.474,2.006,4.48,4.48,4.48
			c2.473,0,4.48-2.005,4.48-4.48c0-0.149-0.008-0.296-0.022-0.441C169.405,44.499,169.394,44.439,169.385,44.379z M164.955,47.847
			c-1.574,0-2.847-1.274-2.847-2.847c0-0.542,0.158-1.042,0.421-1.473c-0.041,0.134-0.07,0.273-0.07,0.422
			c0,0.797,0.646,1.443,1.443,1.443s1.443-0.647,1.443-1.443c0-0.798-0.646-1.444-1.443-1.444c-0.147,0-0.287,0.028-0.421,0.069
			c0.431-0.261,0.931-0.42,1.473-0.42c1.572,0,2.848,1.272,2.848,2.846C167.801,46.574,166.526,47.847,164.955,47.847z"/>
		<path style="fill:#F7C25D;" d="M129.954,45c0,8.284-6.716,15-15,15s-15-6.716-15-15c0-8.284,6.716-15,15-15
			S129.954,36.716,129.954,45z M123.093,40.3c-0.577-4.185-4.749-6.316-9.198-5.817c-3.518,0.394-7.025,3.239-7.171,7.306
			c-0.089,2.483,0.615,4.346,2.978,4.869c1.023-1.811-0.33-2.206-0.541-3.518c-0.867-5.36,6.183-9.021,9.876-5.276
			c2.556,2.594,0.872,10.57-3.247,9.74c-3.945-0.791,1.932-7.14-1.216-8.386c-2.56-1.014-3.919,3.097-2.705,5.141
			c-0.712,3.514-2.245,6.823-1.624,11.229c2.012-1.46,2.691-4.255,3.247-7.171c1.011,0.615,1.553,1.253,2.842,1.353
			C121.088,50.138,123.746,45.023,123.093,40.3z"/>
	</g>
	<g>
		<circle style="fill:#F7C25D;" cx="264.954" cy="45" r="15"/>

			<path style="fill:#FFFFFF;stroke:#F7C25D;stroke-width:1.5;stroke-linecap:round;stroke-linejoin:round;stroke-miterlimit:10;" d="
			M273.556,52h-17.222c-0.536,0-0.986-0.433-0.986-0.986V38.986c0-0.554,0.433-0.986,0.986-0.986h17.24
			c0.536,0,0.986,0.433,0.986,0.986v12.044C274.543,51.567,274.11,52,273.556,52z"/>

			<path style="fill:#FFFFFF;stroke:#F7C25D;stroke-width:1.5;stroke-linecap:round;stroke-linejoin:round;stroke-miterlimit:10;" d="
			M264.945,43.486l-9.269,8.255c0.173,0.156,0.398,0.26,0.658,0.26h17.24c0.26,0,0.485-0.104,0.658-0.26L264.945,43.486z"/>

			<path style="fill:#FFFFFF;stroke:#F7C25D;stroke-width:1.5;stroke-linecap:round;stroke-linejoin:round;stroke-miterlimit:10;" d="
			M264.945,46.514l9.269-8.255c-0.173-0.156-0.398-0.26-0.658-0.26h-17.222c-0.26,0-0.485,0.104-0.658,0.26L264.945,46.514z"/>
	</g>
</g>
</svg>
