
<svg version="1.1" id="Layer_1" xmlns="http://www.w3.org/2000/svg" xmlns:xlink="http://www.w3.org/1999/xlink" x="0px" y="0px"
	 viewBox="0 0 150 50" enable-background="new 0 0 150 50" xml:space="preserve">
<g id="facebook">
	<rect x="50" fill="none" width="50" height="50"/>
	<path fill="#ECF0F1" d="M75,9c-8.8,0-16,7.2-16,16c0,8.8,7.2,16,16,16c8.8,0,16-7.2,16-16C91,16.2,83.8,9,75,9z M79.3,24.7h-2.7
		c0,4.3,0,9.6,0,9.6h-4c0,0,0-5.3,0-9.6h-1.9v-3.4h1.9v-2.2c0-1.6,0.8-4,4-4l3,0v3.3c0,0-1.8,0-2.2,0c-0.4,0-0.8,0.2-0.8,0.9v2h3.1
		L79.3,24.7z"/>
</g>
<g id="pinterest">
	<rect x="0" fill="none" width="50" height="50"/>
	<path fill="#ECF0F1" d="M41,25c0,8.8-7.2,16-16,16S9,33.8,9,25c0-8.8,7.2-16,16-16S41,16.2,41,25z M33.7,20
		c-0.6-4.5-5.1-6.7-9.8-6.2c-3.8,0.4-7.5,3.5-7.6,7.8c-0.1,2.6,0.7,4.6,3.2,5.2c1.1-1.9-0.4-2.4-0.6-3.8c-0.9-5.7,6.6-9.6,10.5-5.6
		c2.7,2.8,0.9,11.3-3.5,10.4c-4.2-0.8,2.1-7.6-1.3-8.9c-2.7-1.1-4.2,3.3-2.9,5.5c-0.8,3.7-2.4,7.3-1.7,12c2.1-1.6,2.9-4.5,3.5-7.6
		c1.1,0.7,1.7,1.3,3,1.4C31.5,30.5,34.4,25,33.7,20z"/>
</g>
<g id="instagram">
	<rect x="100" fill="none" width="50" height="50"/>
	<path fill="#ECF0F1" d="M125,9c-8.8,0-16,7.2-16,16c0,8.8,7.2,16,16,16c8.8,0,16-7.2,16-16C141,16.2,133.8,9,125,9z M135.4,31.5
		c0,2.1-1.7,3.9-3.9,3.9h-12.9c-2.1,0-3.9-1.7-3.9-3.9V18.5c0-2.1,1.7-3.9,3.9-3.9h12.9c2.1,0,3.9,1.7,3.9,3.9V31.5z M131.5,16.2
		h-12.9c-1.3,0-2.3,1-2.3,2.3v3.3h3.3c1.1-1.9,3.2-3.2,5.5-3.2c2.4,0,4.4,1.3,5.5,3.2h3.3v-3.3C133.8,17.3,132.7,16.2,131.5,16.2z
		 M133,19.4c0,0.4-0.4,0.8-0.8,0.8h-1.6c-0.4,0-0.8-0.4-0.8-0.8v-1.6c0-0.4,0.4-0.8,0.8-0.8h1.6c0.4,0,0.8,0.4,0.8,0.8V19.4z
		 M129.7,24.3c0-0.1,0-0.2,0-0.3c0-0.1,0-0.2-0.1-0.3c0-0.1,0-0.1,0-0.2c0-0.1-0.1-0.2-0.1-0.3c0,0,0-0.1,0-0.1
		c0-0.1-0.1-0.2-0.1-0.3c0,0,0-0.1,0-0.1c-0.1-0.1-0.1-0.2-0.2-0.3c0,0,0,0,0,0c-0.1-0.1-0.1-0.2-0.2-0.3c0,0,0,0,0,0
		c-0.1-0.1-0.2-0.2-0.3-0.3l0,0c-0.9-1-2.1-1.6-3.6-1.6c-1.4,0-2.7,0.6-3.6,1.6h0c-0.1,0.1-0.2,0.2-0.3,0.3c0,0,0,0,0,0
		c-0.1,0.1-0.2,0.2-0.2,0.3c0,0,0,0,0,0c-0.1,0.1-0.1,0.2-0.2,0.3c0,0,0,0.1,0,0.1c0,0.1-0.1,0.2-0.1,0.3c0,0,0,0.1,0,0.1
		c0,0.1-0.1,0.2-0.1,0.3c0,0.1,0,0.1,0,0.2c0,0.1,0,0.2-0.1,0.2c0,0.1,0,0.2,0,0.3c0,0.1,0,0.1,0,0.2c0,0.2,0,0.3,0,0.5
		c0,2.6,2.1,4.8,4.8,4.8c2.6,0,4.8-2.1,4.8-4.8c0-0.2,0-0.3,0-0.5C129.7,24.5,129.7,24.4,129.7,24.3z M125,28c-1.7,0-3-1.4-3-3
		c0-0.6,0.2-1.1,0.4-1.6c0,0.1-0.1,0.3-0.1,0.4c0,0.8,0.7,1.5,1.5,1.5c0.9,0,1.5-0.7,1.5-1.5c0-0.9-0.7-1.5-1.5-1.5
		c-0.2,0-0.3,0-0.4,0.1c0.5-0.3,1-0.4,1.6-0.4c1.7,0,3,1.4,3,3C128,26.7,126.7,28,125,28z"/>
</g>
</svg>
