<?xml version="1.0" encoding="utf-8"?>
<!-- Generator: Adobe Illustrator 18.0.0, SVG Export Plug-In . SVG Version: 6.00 Build 0)  -->
<!DOCTYPE svg PUBLIC "-//W3C//DTD SVG 1.1//EN" "http://www.w3.org/Graphics/SVG/1.1/DTD/svg11.dtd">
<svg version="1.1" id="Layer_1" xmlns="http://www.w3.org/2000/svg" xmlns:xlink="http://www.w3.org/1999/xlink" x="0px" y="0px"
	 viewBox="0 0 34.6 30" enable-background="new 0 0 34.6 30" xml:space="preserve">
<g>
	<g>
		<defs>
			<rect id="SVGID_93_" x="0" y="0" width="34.6" height="30"/>
		</defs>
		<clipPath id="SVGID_1_">
			<use xlink:href="#SVGID_93_"  overflow="visible"/>
		</clipPath>
		<rect x="3.8" y="0" clip-path="url(#SVGID_1_)" fill="#FFFFFF" width="30.6" height="29.9"/>
		<g clip-path="url(#SVGID_1_)">
			<defs>
				<path id="SVGID_105_" d="M3.8,0v13.1l1-2.5h2.3c0,0,0.3,0.6,0.3,0.6v-0.6h2.7c0,0,0.4,0.9,0.6,1.3c0.2-0.4,0.6-1.3,0.6-1.3H13
					h0.2h0.7h2.6h0.2h0.7h2.1c0.1,0,0.5,0,0.9,0.1v-0.1H22h0.7V11c0.3-0.2,0.7-0.3,1.1-0.3c0,0,1.3,0,1.3,0l0,0h2.3
					c0,0,0.2,0.6,0.3,0.6v-0.6h2.4c0,0,0.3,0.6,0.4,0.6v-0.6h2.4v5.2h-2.4c0,0-0.4-0.6-0.4-0.7v0.7h-3c0,0-0.3-0.6-0.3-0.8h-0.8
					c-0.1,0.2-0.3,0.8-0.3,0.8h-2l-0.1,0c-0.2,0-0.5-0.1-0.8-0.3v0.3h-1.7v0H19v-0.7c0,0,0-0.5,0-0.6h-0.2v1.3h-1.4h-0.9h-2.6h-0.2
					h-2.2v-0.1c0,0,0,0.1,0,0.1H9.8c0,0,0-0.1,0-0.1v0.1h-3c0,0-0.3-0.6-0.3-0.8H5.6c-0.1,0.2-0.3,0.8-0.3,0.8H3.8v14.1h30.6v-8.1
					c-0.3,0.2-0.7,0.3-1.1,0.3c0,0-0.1,0-0.1,0l-2.4,0V22c-0.3,0.1-0.6,0.2-0.8,0.2c0,0-0.1,0-0.1,0l-1.4,0v0H25v0h-2.3v-0.7
					c0,0,0-0.5,0-0.6h-0.2v1.3h-2.4v-1.4c-0.4,0.2-0.8,0.2-1.3,0.2h-0.2v1.2h-2.8c0,0-0.5-0.5-0.7-0.8c-0.2,0.3-0.7,0.8-0.7,0.8H9.9
					V17h4.5c0,0,0.5,0.5,0.8,0.9C15.5,17.5,16,17,16,17h0.3l0.7,0h2.3c0.1,0,0.5,0,0.9,0.1V17h3c0.1,0,0.5,0,0.9,0.1V17h3.7h0.7v0.1
					c0.4-0.2,0.8-0.2,0.9-0.2l2.5,0v0.2c0.4-0.2,0.8-0.2,0.9-0.2l1.8,0V0H3.8z"/>
			</defs>
			<clipPath id="SVGID_2_">
				<use xlink:href="#SVGID_105_"  overflow="visible"/>
			</clipPath>
			
				<radialGradient id="SVGID_3_" cx="-296.5127" cy="-229.7866" r="0.704" gradientTransform="matrix(52.3764 0 0 -52.3764 15538.2734 -12031.1865)" gradientUnits="userSpaceOnUse">
				<stop  offset="0" style="stop-color:#858585"/>
				<stop  offset="0.427" style="stop-color:#717171"/>
				<stop  offset="0.7302" style="stop-color:#585858"/>
				<stop  offset="1" style="stop-color:#464646"/>
			</radialGradient>
			<rect x="3.8" y="0" clip-path="url(#SVGID_2_)" fill="url(#SVGID_3_)" width="30.6" height="29.9"/>
		</g>
		<g clip-path="url(#SVGID_1_)">
			<defs>
				<path id="SVGID_104_" d="M18.1,12.2h1c0.3,0,0.5,0.2,0.5,0.4c0,0.2-0.2,0.4-0.5,0.4h-1V12.2z M19.5,11.4h-2.3v3.7h1v-1.3h0.9
					c0.6,0,0.6,0.6,0.6,0.6v0.7h0.9v-0.9c0-0.6-0.5-0.8-0.5-0.8s0.5-0.2,0.5-0.9c0-1-0.8-1.1-1.1-1.1C19.5,11.3,19.5,11.4,19.5,11.4
					"/>
			</defs>
			<clipPath id="SVGID_4_">
				<use xlink:href="#SVGID_104_"  overflow="visible"/>
			</clipPath>
			
				<radialGradient id="SVGID_5_" cx="-296.5128" cy="-229.7865" r="0.704" gradientTransform="matrix(52.3765 0 0 -52.3765 15538.3203 -12031.207)" gradientUnits="userSpaceOnUse">
				<stop  offset="0" style="stop-color:#858585"/>
				<stop  offset="0.427" style="stop-color:#717171"/>
				<stop  offset="0.7302" style="stop-color:#585858"/>
				<stop  offset="1" style="stop-color:#464646"/>
			</radialGradient>
			<rect x="17.2" y="11.3" clip-path="url(#SVGID_4_)" fill="url(#SVGID_5_)" width="3.5" height="3.7"/>
		</g>
		<g clip-path="url(#SVGID_1_)">
			<defs>
				<path id="SVGID_103_" d="M26.4,12.2l0.5,1.1h-0.9L26.4,12.2z M22.4,13.3c0,1.6,1.3,1.8,1.3,1.8h0.5h0.2h0.9l0.3-0.8h1.7l0.3,0.8
					h0.9h0.2h0.8v-2.5l1.5,2.5h1.3v-3.7h-1v2.5l-1.5-2.5h-1.3v3.4L27,11.4h-1.3l-1.2,2.8c0,0-1.1,0.4-1.1-0.9c0-0.1,0-0.2,0-0.3
					c0.1-0.8,0.7-0.8,0.7-0.8l1,0v-0.8l-1.2,0C23.8,11.3,22.4,11.3,22.4,13.3"/>
			</defs>
			<clipPath id="SVGID_6_">
				<use xlink:href="#SVGID_103_"  overflow="visible"/>
			</clipPath>
			
				<radialGradient id="SVGID_7_" cx="-296.5128" cy="-229.7866" r="0.704" gradientTransform="matrix(52.3763 0 0 -52.3763 15538.2607 -12031.1631)" gradientUnits="userSpaceOnUse">
				<stop  offset="0" style="stop-color:#858585"/>
				<stop  offset="0.427" style="stop-color:#717171"/>
				<stop  offset="0.7302" style="stop-color:#585858"/>
				<stop  offset="1" style="stop-color:#464646"/>
			</radialGradient>
			<rect x="22.4" y="11.3" clip-path="url(#SVGID_6_)" fill="url(#SVGID_7_)" width="9.9" height="3.8"/>
		</g>
		<g clip-path="url(#SVGID_1_)">
			<defs>
				<path id="SVGID_102_" d="M6,12.2l0.5,1.1H5.5L6,12.2z M11.7,11.4l-1,2.3l-1-2.3H8.1v3.4l-1.4-3.4H5.3l-1.6,3.7h1l0.3-0.8h1.7
					l0.3,0.8h0.9h0.1h0.8v-2.6l1.2,2.6h0.8l1.2-2.6v2.6h1v-3.7H11.7z"/>
			</defs>
			<clipPath id="SVGID_8_">
				<use xlink:href="#SVGID_102_"  overflow="visible"/>
			</clipPath>
			
				<radialGradient id="SVGID_9_" cx="-296.5128" cy="-229.7866" r="0.704" gradientTransform="matrix(52.3763 0 0 -52.3763 15538.2607 -12031.1621)" gradientUnits="userSpaceOnUse">
				<stop  offset="0" style="stop-color:#858585"/>
				<stop  offset="0.427" style="stop-color:#717171"/>
				<stop  offset="0.7302" style="stop-color:#585858"/>
				<stop  offset="1" style="stop-color:#464646"/>
			</radialGradient>
			<rect x="3.8" y="11.4" clip-path="url(#SVGID_8_)" fill="url(#SVGID_9_)" width="9.4" height="3.7"/>
		</g>
		<g clip-path="url(#SVGID_1_)">
			<defs>
				<polygon id="SVGID_101_" points="13.7,11.4 13.7,15.1 16.7,15.1 16.7,14.3 14.7,14.3 14.7,13.7 16.7,13.7 16.7,12.8 14.7,12.8 
					14.7,12.2 16.7,12.2 16.7,11.4 				"/>
			</defs>
			<clipPath id="SVGID_10_">
				<use xlink:href="#SVGID_101_"  overflow="visible"/>
			</clipPath>
			
				<radialGradient id="SVGID_11_" cx="-296.5128" cy="-229.7866" r="0.704" gradientTransform="matrix(52.3761 0 0 -52.3761 15538.1992 -12031.1172)" gradientUnits="userSpaceOnUse">
				<stop  offset="0" style="stop-color:#858585"/>
				<stop  offset="0.427" style="stop-color:#717171"/>
				<stop  offset="0.7302" style="stop-color:#585858"/>
				<stop  offset="1" style="stop-color:#464646"/>
			</radialGradient>
			<rect x="13.7" y="11.4" clip-path="url(#SVGID_10_)" fill="url(#SVGID_11_)" width="3" height="3.7"/>
		</g>
		<g clip-path="url(#SVGID_1_)">
			<defs>
				<rect id="SVGID_100_" x="21.1" y="11.4" width="1" height="3.8"/>
			</defs>
			<clipPath id="SVGID_12_">
				<use xlink:href="#SVGID_100_"  overflow="visible"/>
			</clipPath>
			
				<radialGradient id="SVGID_13_" cx="-296.5128" cy="-229.7865" r="0.704" gradientTransform="matrix(52.3769 0 0 -52.3769 15538.4414 -12031.2969)" gradientUnits="userSpaceOnUse">
				<stop  offset="0" style="stop-color:#858585"/>
				<stop  offset="0.427" style="stop-color:#717171"/>
				<stop  offset="0.7302" style="stop-color:#585858"/>
				<stop  offset="1" style="stop-color:#464646"/>
			</radialGradient>
			<rect x="21.1" y="11.4" clip-path="url(#SVGID_12_)" fill="url(#SVGID_13_)" width="1" height="3.8"/>
		</g>
		<g clip-path="url(#SVGID_1_)">
			<defs>
				<path id="SVGID_99_" d="M21.8,18.6h1c0.3,0,0.5,0.2,0.5,0.4s-0.2,0.4-0.5,0.4h-1V18.6z M23.2,17.7h-2.3v3.7h1v-1.3h0.9
					c0.6,0,0.6,0.6,0.6,0.6v0.7h0.9v-0.9c0-0.6-0.5-0.8-0.5-0.8s0.5-0.2,0.5-0.9c0-1-0.8-1.1-1.1-1.1C23.2,17.7,23.2,17.7,23.2,17.7
					"/>
			</defs>
			<clipPath id="SVGID_14_">
				<use xlink:href="#SVGID_99_"  overflow="visible"/>
			</clipPath>
			
				<radialGradient id="SVGID_15_" cx="-296.5127" cy="-229.7866" r="0.704" gradientTransform="matrix(52.3754 0 0 -52.3754 15537.9883 -12030.96)" gradientUnits="userSpaceOnUse">
				<stop  offset="0" style="stop-color:#858585"/>
				<stop  offset="0.427" style="stop-color:#717171"/>
				<stop  offset="0.7302" style="stop-color:#585858"/>
				<stop  offset="1" style="stop-color:#464646"/>
			</radialGradient>
			<rect x="20.9" y="17.7" clip-path="url(#SVGID_14_)" fill="url(#SVGID_15_)" width="3.5" height="3.7"/>
		</g>
		<g clip-path="url(#SVGID_1_)">
			<defs>
				<path id="SVGID_98_" d="M11.6,18.6h2l0.9,1l-0.9,1h-2V20h2v-0.8h-2V18.6z M18,18.6h1c0.3,0,0.5,0.2,0.5,0.4
					c0,0.2-0.2,0.4-0.5,0.4h-1V18.6z M15.8,19.6l1.2-1.3v2.6L15.8,19.6z M19.3,17.7H17v0h-0.7l-1.1,1.2l-1.1-1.2h-0.5h-3v3.8h3h0.6
					l1-1.1l1,1.1H17H18v-1.2h0.9c1.2,0,1.6-0.3,1.6-1.4C20.5,17.8,19.7,17.7,19.3,17.7C19.4,17.7,19.3,17.7,19.3,17.7"/>
			</defs>
			<clipPath id="SVGID_16_">
				<use xlink:href="#SVGID_98_"  overflow="visible"/>
			</clipPath>
			
				<radialGradient id="SVGID_17_" cx="-296.5129" cy="-229.7864" r="0.704" gradientTransform="matrix(52.3775 0 0 -52.3775 15538.623 -12031.4326)" gradientUnits="userSpaceOnUse">
				<stop  offset="0" style="stop-color:#858585"/>
				<stop  offset="0.427" style="stop-color:#717171"/>
				<stop  offset="0.7302" style="stop-color:#585858"/>
				<stop  offset="1" style="stop-color:#464646"/>
			</radialGradient>
			<rect x="10.7" y="17.7" clip-path="url(#SVGID_16_)" fill="url(#SVGID_17_)" width="9.9" height="3.8"/>
		</g>
		<g clip-path="url(#SVGID_1_)">
			<defs>
				<path id="SVGID_97_" d="M28.1,18.8c0,1.2,1.3,1.1,1.3,1.1s0.8,0,0.8,0.3c0,0.4-0.5,0.3-0.5,0.3h-1.5v0.9h1.7c0,0,0,0,0.1,0
					c0.3,0,1.3-0.1,1.3-1.3c0-1.1-1.5-1-1.5-1s-0.7,0-0.7-0.3c0-0.4,0.5-0.3,0.5-0.3h1.5v-0.9h-1.8c0,0,0,0,0,0
					C29,17.7,28.1,17.8,28.1,18.8"/>
			</defs>
			<clipPath id="SVGID_18_">
				<use xlink:href="#SVGID_97_"  overflow="visible"/>
			</clipPath>
			
				<radialGradient id="SVGID_19_" cx="-296.5128" cy="-229.7865" r="0.704" gradientTransform="matrix(52.3767 0 0 -52.3767 15538.3809 -12031.252)" gradientUnits="userSpaceOnUse">
				<stop  offset="0" style="stop-color:#858585"/>
				<stop  offset="0.427" style="stop-color:#717171"/>
				<stop  offset="0.7302" style="stop-color:#585858"/>
				<stop  offset="1" style="stop-color:#464646"/>
			</radialGradient>
			<rect x="28.1" y="17.7" clip-path="url(#SVGID_18_)" fill="url(#SVGID_19_)" width="3.2" height="3.7"/>
		</g>
		<g clip-path="url(#SVGID_1_)">
			<defs>
				<polygon id="SVGID_96_" points="24.8,17.7 24.8,21.4 27.7,21.4 27.7,20.6 25.7,20.6 25.7,20 27.7,20 27.7,19.1 25.7,19.1 
					25.7,18.6 27.7,18.6 27.7,17.7 				"/>
			</defs>
			<clipPath id="SVGID_20_">
				<use xlink:href="#SVGID_96_"  overflow="visible"/>
			</clipPath>
			
				<radialGradient id="SVGID_21_" cx="-296.513" cy="-229.7864" r="0.704" gradientTransform="matrix(52.378 0 0 -52.378 15538.7734 -12031.5449)" gradientUnits="userSpaceOnUse">
				<stop  offset="0" style="stop-color:#858585"/>
				<stop  offset="0.427" style="stop-color:#717171"/>
				<stop  offset="0.7302" style="stop-color:#585858"/>
				<stop  offset="1" style="stop-color:#464646"/>
			</radialGradient>
			<rect x="24.8" y="17.7" clip-path="url(#SVGID_20_)" fill="url(#SVGID_21_)" width="3" height="3.7"/>
		</g>
		<g clip-path="url(#SVGID_1_)">
			<defs>
				<path id="SVGID_95_" d="M31.4,18.8c0,1.2,1.3,1.1,1.3,1.1s0.8,0,0.8,0.3c0,0.4-0.5,0.3-0.5,0.3h-1.5v0.9h1.7c0,0,0,0,0.1,0
					c0.3,0,1.3-0.1,1.3-1.3c0-1.1-1.5-1-1.5-1s-0.7,0-0.7-0.3c0-0.4,0.5-0.3,0.5-0.3h1.5v-0.9h-1.8c0,0,0,0,0,0
					C32.4,17.7,31.4,17.8,31.4,18.8"/>
			</defs>
			<clipPath id="SVGID_22_">
				<use xlink:href="#SVGID_95_"  overflow="visible"/>
			</clipPath>
			
				<radialGradient id="SVGID_23_" cx="-296.5127" cy="-229.7866" r="0.704" gradientTransform="matrix(52.3754 0 0 -52.3754 15537.9883 -12030.96)" gradientUnits="userSpaceOnUse">
				<stop  offset="0" style="stop-color:#858585"/>
				<stop  offset="0.427" style="stop-color:#717171"/>
				<stop  offset="0.7302" style="stop-color:#585858"/>
				<stop  offset="1" style="stop-color:#464646"/>
			</radialGradient>
			<rect x="31.4" y="17.7" clip-path="url(#SVGID_22_)" fill="url(#SVGID_23_)" width="3.2" height="3.7"/>
		</g>
		<g clip-path="url(#SVGID_1_)">
			<defs>
				<rect id="SVGID_94_" x="0" y="0" width="34.6" height="30"/>
			</defs>
			<clipPath id="SVGID_24_">
				<use xlink:href="#SVGID_94_"  overflow="visible"/>
			</clipPath>
			<path clip-path="url(#SVGID_24_)" fill="#757575" d="M0,28.6c0-0.8,0.6-1.4,1.4-1.4c0.8,0,1.4,0.6,1.4,1.4c0,0.8-0.6,1.4-1.4,1.4
				C0.6,30,0,29.4,0,28.6 M0.2,28.6c0,0.7,0.5,1.2,1.2,1.2c0.7,0,1.2-0.5,1.2-1.2c0-0.7-0.5-1.2-1.2-1.2C0.7,27.4,0.2,27.9,0.2,28.6
				 M1.8,29.2c0-0.1,0-0.3,0-0.3c0-0.1,0-0.2-0.2-0.2H1.1v0.5H0.9v-1.3h0.6C1.7,27.9,2,28,2,28.3c0,0.2-0.1,0.2-0.1,0.3
				c0.1,0,0.1,0.1,0.1,0.2L2,29c0,0.1,0,0.1,0.1,0.1v0.1H1.8 M1.1,28.5h0.4c0.1,0,0.2,0,0.2-0.2c0-0.2-0.1-0.2-0.2-0.2H1.1V28.5"/>
		</g>
	</g>
</g>
</svg>
