<?xml version="1.0" encoding="utf-8"?>
<!-- Generator: Adobe Illustrator 18.1.1, SVG Export Plug-In . SVG Version: 6.00 Build 0)  -->
<svg version="1.1" id="Layer_1" xmlns="http://www.w3.org/2000/svg" xmlns:xlink="http://www.w3.org/1999/xlink" x="0px" y="0px"
	 viewBox="0 0 84.7 50" enable-background="new 0 0 84.7 50" xml:space="preserve">
<g>
	<g>
		<path fill="#FFFFFF" d="M9.2,7.5H4.6v6h3.1v3.4H4.6v9.9H1.2V4.1h7.9V7.5z"/>
		<path fill="#FFFFFF" d="M16.5,26.8l-1.7-9.6h-0.9v9.6h-3.3V4.1h3.3c4,0,5.7,2.3,5.7,6.6c0,2.3-0.6,4.3-1.9,5.2l2.1,11H16.5z
			 M13.9,14.1c0.5,0,1.1-0.1,1.6-0.5c0.5-0.4,0.9-1.3,0.9-2.9c0-1.6-0.4-2.5-0.9-2.9c-0.5-0.4-1.1-0.5-1.6-0.5V14.1z"/>
		<path fill="#FFFFFF" d="M21.7,4.1h7.6v3.4H25v6h3.1v3.6H25v6.2h4.3v3.4h-7.6V4.1z"/>
		<path fill="#FFFFFF" d="M31.2,4.1h7.6v3.4h-4.3v6h3.1v3.6h-3.1v6.2h4.3v3.4h-7.6V4.1z"/>
	</g>
	<g>
		<path fill="#FFFFFF" d="M56.5,20.4c-1.9,0-3.4,1.5-3.4,3.4c0,1.9,1.5,3.4,3.4,3.4s3.4-1.5,3.4-3.4C59.9,21.9,58.4,20.4,56.5,20.4z
			 M56.5,25.4c-0.9,0-1.7-0.8-1.7-1.7c0-0.9,0.7-1.7,1.7-1.7c0.9,0,1.7,0.7,1.7,1.7C58.2,24.6,57.4,25.4,56.5,25.4z M81.8,17.9v3.6
			c0,0.9-0.7,1.6-1.6,1.6h-1.7c-0.3-2.1-2.2-3.8-4.4-3.8c-2.2,0-4.1,1.7-4.4,3.8h-8.8c-0.3-2.1-2.2-3.8-4.4-3.8
			c-2.2,0-4.1,1.7-4.4,3.8H50c-0.9,0-1.6-0.7-1.6-1.6v-3.6H81.8L81.8,17.9z M74.1,20.4c-1.9,0-3.4,1.5-3.4,3.4
			c0,1.9,1.5,3.4,3.4,3.4c1.9,0,3.4-1.5,3.4-3.4C77.4,21.9,75.9,20.4,74.1,20.4z M74.1,25.4c-0.9,0-1.7-0.8-1.7-1.7
			c0-0.9,0.7-1.7,1.7-1.7c0.9,0,1.7,0.7,1.7,1.7C75.8,24.6,75,25.4,74.1,25.4z M81.2,14.3L74.8,8c-0.4-0.4-0.9-0.6-1.5-0.6h-3.2V6.2
			c0-0.9-0.7-1.6-1.6-1.6H50c-0.9,0-1.6,0.7-1.6,1.6v0.3l-6.6,0.8l11.6,1.5L41.6,9.9l11.7,1.7l-11.7,1l6.7,1.3l0,3.2h33.5v-1.2
			C81.8,15.2,81.6,14.7,81.2,14.3z M78.4,14.5h-6.2c-0.1,0-0.3-0.1-0.3-0.3V9.5c0-0.1,0.1-0.3,0.3-0.3h1.2c0.1,0,0.1,0,0.2,0.1
			l5,4.8C78.8,14.2,78.6,14.5,78.4,14.5z"/>
	</g>
	<g>
		<path fill="#FFFFFF" d="M1.4,30.1h3.1c1.7,0,3,0.1,3.9,0.4c0.8,0.3,1.6,0.7,2.2,1.4c0.5,0.6,0.9,1.2,1.2,2
			c0.3,0.7,0.4,1.6,0.4,2.5c0,1-0.1,1.8-0.4,2.6c-0.3,0.7-0.7,1.4-1.2,2c-0.6,0.7-1.3,1.1-2.2,1.4s-2.1,0.4-3.8,0.4H1.4V30.1z
			 M4.4,32.6v7.7h1.1c1.2,0,2.1-0.3,2.7-1c0.6-0.7,0.9-1.6,0.9-2.9c0-1.3-0.3-2.2-0.9-2.9c-0.6-0.7-1.5-1-2.8-1H4.4z"/>
		<path fill="#FFFFFF" d="M14.4,30.1h7.9v2.5h-5V35H22v2.5h-4.7v2.9h5.2v2.5h-8.1V30.1z"/>
		<path fill="#FFFFFF" d="M25.1,30.1H28v10.2h5.2v2.5h-8.1V30.1z"/>
		<path fill="#FFFFFF" d="M35,30.1H38v12.7H35V30.1z"/>
		<path fill="#FFFFFF" d="M39.5,30.1h3l3,9.3l3-9.3h3l-4.2,12.7h-3.5L39.5,30.1z"/>
		<path fill="#FFFFFF" d="M52.9,30.1h7.9v2.5h-5V35h4.7v2.5h-4.7v2.9H61v2.5h-8.1V30.1z"/>
		<path fill="#FFFFFF" d="M66.6,38v4.8h-2.9V30.1h4.5c1.5,0,2.6,0.3,3.3,0.8c0.7,0.6,1,1.4,1,2.7c0,0.8-0.2,1.5-0.5,2.1
			s-0.9,0.9-1.6,1.2c0.4,0.1,0.8,0.3,1.1,0.7c0.3,0.4,0.6,0.9,1,1.6l1.6,3.6h-3.1l-1.4-3.1c-0.3-0.6-0.6-1.1-0.9-1.3
			c-0.3-0.2-0.7-0.3-1.1-0.3H66.6z M67.8,35.7c0.6,0,1.1-0.1,1.3-0.4c0.3-0.3,0.4-0.7,0.4-1.3c0-0.6-0.1-1-0.4-1.2
			c-0.3-0.2-0.7-0.4-1.3-0.4h-1.2v3.2H67.8z"/>
		<path fill="#FFFFFF" d="M73.1,30.1h3.2l2.6,4.5l2.6-4.5h3.2l-4.3,7.3v5.3h-2.9v-5.3L73.1,30.1z"/>
	</g>
</g>
</svg>
