<?xml version="1.0" encoding="utf-8"?>
<!-- Generator: Adobe Illustrator 18.0.0, SVG Export Plug-In . SVG Version: 6.00 Build 0)  -->
<!DOCTYPE svg PUBLIC "-//W3C//DTD SVG 1.1//EN" "http://www.w3.org/Graphics/SVG/1.1/DTD/svg11.dtd">
<svg version="1.1" id="Layer_1" xmlns="http://www.w3.org/2000/svg" xmlns:xlink="http://www.w3.org/1999/xlink" x="0px" y="0px"
	 viewBox="0 0 124.1 41.6" enable-background="new 0 0 124.1 41.6" xml:space="preserve">
<rect x="0" y="0" fill="#FFFFFF" width="124.1" height="41.6"/>
<g>
	<g>
		<defs>
			<rect id="SVGID_91_" x="4.2" y="5.8" width="115.8" height="30"/>
		</defs>
		<clipPath id="SVGID_1_">
			<use xlink:href="#SVGID_91_"  overflow="visible"/>
		</clipPath>
		<g clip-path="url(#SVGID_1_)">
			<defs>
				<rect id="SVGID_92_" x="4.2" y="5.8" width="115.8" height="30"/>
			</defs>
			<clipPath id="SVGID_2_">
				<use xlink:href="#SVGID_92_"  overflow="visible"/>
			</clipPath>
			<path clip-path="url(#SVGID_2_)" fill="#4A4A4A" d="M26.3,35.8c8.2,0,15.7-6.7,15.7-14.9C42,12,34.5,5.8,26.3,5.8h-7.1
				C11,5.8,4.2,12,4.2,20.9c0,8.2,6.8,14.9,15.1,14.9H26.3z"/>
			<path clip-path="url(#SVGID_2_)" fill="#FFFFFF" d="M22.4,28.9V12.6c3.3,1.3,5.6,4.4,5.6,8.1C28,24.5,25.7,27.6,22.4,28.9
				 M10.6,20.8c0-3.7,2.3-6.9,5.6-8.1v16.2C12.9,27.6,10.6,24.5,10.6,20.8 M19.3,7C11.7,7,5.6,13.2,5.6,20.8
				c0,7.6,6.1,13.7,13.7,13.7c7.6,0,13.7-6.1,13.7-13.7C33,13.2,26.9,7,19.3,7"/>
			<path clip-path="url(#SVGID_2_)" fill="#4A4A4A" d="M48.4,19.6c0,1.2,0.9,1.4,1.6,1.4c3.4,0,4.5-2.6,4.5-4.9
				c0-2.9-1.9-5.1-4.9-5.1c-0.6,0-0.9,0-1.2,0.1V19.6z M46.8,12.2c0-1.4-0.7-1.3-1.5-1.3v-0.4c0.6,0,1.2,0,1.9,0c0.7,0,1.6,0,2.7,0
				c4.1,0,6.3,2.7,6.3,5.5c0,1.6-0.9,5.5-6.5,5.5c-0.8,0-1.5,0-2.3,0c-0.7,0-1.4,0-2.1,0v-0.4c0.9-0.1,1.4-0.1,1.5-1.2V12.2z"/>
			<path clip-path="url(#SVGID_2_)" fill="#4A4A4A" d="M58.5,11.9c-0.4,0-0.8-0.4-0.8-0.8c0-0.4,0.4-0.8,0.8-0.8
				c0.4,0,0.8,0.3,0.8,0.8C59.3,11.5,59,11.9,58.5,11.9 M56.8,21.1h0.3c0.4,0,0.8,0,0.8-0.5v-4.3c0-0.7-0.2-0.8-0.8-1.1v-0.3
				c0.7-0.2,1.6-0.5,1.7-0.6c0.1-0.1,0.2-0.1,0.3-0.1c0.1,0,0.1,0.1,0.1,0.2v6.1c0,0.5,0.3,0.5,0.8,0.5h0.3v0.4c-0.5,0-1.1,0-1.7,0
				c-0.6,0-1.1,0-1.7,0V21.1z"/>
			<path clip-path="url(#SVGID_2_)" fill="#4A4A4A" d="M61.7,16.4c0-0.6-0.2-0.7-0.9-1v-0.3c0.7-0.2,1.3-0.4,2.1-0.8
				c0,0,0.1,0,0.1,0.2v1c0.9-0.6,1.7-1.2,2.7-1.2c1.3,0,1.8,1,1.8,2.2v4.1c0,0.5,0.3,0.5,0.8,0.5h0.3v0.4c-0.6,0-1.1,0-1.7,0
				c-0.6,0-1.1,0-1.7,0v-0.4h0.3c0.4,0,0.8,0,0.8-0.5v-4.1c0-0.9-0.5-1.3-1.5-1.3c-0.5,0-1.3,0.4-1.8,0.8v4.7c0,0.5,0.3,0.5,0.8,0.5
				h0.3v0.4c-0.6,0-1.1,0-1.7,0c-0.6,0-1.1,0-1.7,0v-0.4H61c0.4,0,0.8,0,0.8-0.5V16.4z"/>
			<path clip-path="url(#SVGID_2_)" fill="#4A4A4A" d="M72.6,16.6c0.4,0,0.4-0.2,0.4-0.4c0-0.8-0.5-1.5-1.4-1.5
				c-1,0-1.6,0.7-1.8,1.8H72.6z M69.8,17.2c0,0.1,0,0.4,0,0.9c0.1,1.5,1.1,2.7,2.3,2.7c0.9,0,1.5-0.5,2.1-1.1l0.2,0.2
				c-0.7,1-1.6,1.8-2.9,1.8c-2.5,0-3-2.4-3-3.4c0-3.1,2.1-4,3.2-4c1.3,0,2.7,0.8,2.7,2.5c0,0.1,0,0.2,0,0.3l-0.1,0.1H69.8z"/>
			<path clip-path="url(#SVGID_2_)" fill="#4A4A4A" d="M74.7,21.1h0.4c0.4,0,0.8,0,0.8-0.5v-4.4c0-0.5-0.6-0.6-0.8-0.7v-0.2
				c1.2-0.5,1.8-0.9,1.9-0.9c0.1,0,0.1,0,0.1,0.2v1.4h0c0.4-0.6,1.1-1.6,2-1.6c0.4,0,0.9,0.3,0.9,0.8c0,0.4-0.3,0.8-0.7,0.8
				c-0.5,0-0.5-0.4-1-0.4c-0.3,0-1.2,0.4-1.2,1.3v3.7c0,0.5,0.3,0.5,0.8,0.5h0.9v0.4c-0.9,0-1.5,0-2.2,0c-0.6,0-1.3,0-1.9,0V21.1z"
				/>
			<path clip-path="url(#SVGID_2_)" fill="#4A4A4A" d="M80.8,19.3c0.2,1,0.8,1.9,2,1.9c0.9,0,1.3-0.6,1.3-1.1c0-1.9-3.4-1.3-3.4-3.8
				c0-0.9,0.7-2,2.4-2c0.5,0,1.2,0.1,1.8,0.5l0.1,1.6h-0.4c-0.2-1-0.7-1.6-1.7-1.6c-0.6,0-1.2,0.4-1.2,1c0,1.8,3.7,1.3,3.7,3.8
				c0,1-0.8,2.1-2.7,2.1c-0.6,0-1.4-0.2-1.9-0.5l-0.2-1.8L80.8,19.3z"/>
			<path clip-path="url(#SVGID_2_)" fill="#4A4A4A" d="M99.6,13.4h-0.4c-0.3-1.8-1.6-2.6-3.4-2.6c-1.8,0-4.5,1.2-4.5,5
				c0,3.2,2.3,5.5,4.7,5.5c1.6,0,2.9-1.1,3.2-2.7l0.4,0.1l-0.4,2.3c-0.7,0.4-2.4,0.8-3.5,0.8c-3.7,0-6-2.4-6-5.9
				c0-3.2,2.9-5.6,6-5.6c1.3,0,2.5,0.4,3.7,0.8L99.6,13.4z"/>
			<path clip-path="url(#SVGID_2_)" fill="#4A4A4A" d="M100.2,21.1h0.3c0.4,0,0.8,0,0.8-0.5v-8.8c0-1-0.2-1.1-0.8-1.2v-0.3
				c0.6-0.2,1.3-0.5,1.6-0.7c0.2-0.1,0.3-0.2,0.3-0.2c0.1,0,0.1,0.1,0.1,0.2v10.9c0,0.5,0.3,0.5,0.8,0.5h0.3v0.4c-0.5,0-1.1,0-1.7,0
				c-0.6,0-1.1,0-1.7,0V21.1z"/>
			<path clip-path="url(#SVGID_2_)" fill="#4A4A4A" d="M110.3,20.6c0,0.3,0.2,0.3,0.4,0.3c0.2,0,0.4,0,0.6,0v0.3
				c-0.7,0.1-2,0.4-2.3,0.5l-0.1,0v-1.3c-0.9,0.8-1.7,1.3-2.8,1.3c-0.9,0-1.7-0.6-1.7-1.9v-4c0-0.4-0.1-0.8-0.9-0.9v-0.3
				c0.6,0,1.8-0.1,2-0.1c0.2,0,0.2,0.1,0.2,0.5v4.1c0,0.5,0,1.8,1.4,1.8c0.5,0,1.2-0.4,1.9-1v-4.2c0-0.3-0.8-0.5-1.3-0.6v-0.3
				c1.4-0.1,2.3-0.2,2.5-0.2c0.1,0,0.1,0.1,0.1,0.3V20.6z"/>
			<path clip-path="url(#SVGID_2_)" fill="#4A4A4A" d="M113.4,19.7c0,0.6,0.6,1.6,1.6,1.6c1.7,0,2.4-1.7,2.4-3.1
				c0-1.7-1.3-3.1-2.5-3.1c-0.6,0-1.1,0.4-1.5,0.7V19.7z M113.4,15.4c0.6-0.5,1.5-1.1,2.4-1.1c1.8,0,2.9,1.6,2.9,3.3
				c0,2.1-1.5,4.1-3.8,4.1c-1.2,0-1.8-0.4-2.2-0.6l-0.5,0.4l-0.3-0.2c0.1-0.9,0.2-1.8,0.2-2.8v-6.8c0-1-0.2-1.1-0.8-1.2v-0.3
				c0.6-0.2,1.3-0.5,1.6-0.7c0.2-0.1,0.3-0.2,0.3-0.2c0.1,0,0.1,0.1,0.1,0.2V15.4z"/>
			<path clip-path="url(#SVGID_2_)" fill="#4A4A4A" d="M45.4,30.7h0.1c0.3,0,0.6,0,0.6-0.5v-4.5c0-0.4-0.3-0.5-0.6-0.5h-0.1v-0.3
				c0.3,0,0.9,0,1.3,0c0.4,0,0.9,0,1.3,0v0.3h-0.1c-0.3,0-0.6,0-0.6,0.5v4.5c0,0.4,0.3,0.5,0.6,0.5H48v0.3c-0.4,0-0.9,0-1.4,0
				c-0.4,0-0.9,0-1.3,0V30.7z"/>
			<path clip-path="url(#SVGID_2_)" fill="#4A4A4A" d="M47.9,30.9l0-0.2h-0.1c-0.3,0-0.7-0.1-0.7-0.5v-4.5c0-0.5,0.4-0.5,0.7-0.5
				h0.1V25c-0.4,0-0.9,0-1.3,0c-0.4,0-0.9,0-1.2,0v0.2h0.1c0.3,0,0.7,0.1,0.7,0.5v4.5c0,0.5-0.4,0.5-0.7,0.5h-0.1v0.2
				c0.3,0,0.8,0,1.2,0C47,30.9,47.5,30.9,47.9,30.9 M48,31c-0.4,0-0.9,0-1.4,0c-0.4,0-0.9,0-1.3,0h0v0v-0.3v0h0h0.1
				c0.3,0,0.6,0,0.6-0.5v-4.5c0-0.4-0.3-0.4-0.6-0.5h-0.2v0v-0.3h0c0.3,0,0.9,0,1.3,0c0.4,0,0.9,0,1.3,0h0v0v0.3h0h-0.1
				c-0.3,0-0.6,0-0.6,0.5v4.5c0,0.4,0.3,0.4,0.6,0.5H48v0L48,31L48,31z"/>
			<path clip-path="url(#SVGID_2_)" fill="#4A4A4A" d="M53.9,29.2L53.9,29.2l0-3.2c0-0.7-0.5-0.8-0.7-0.8H53v-0.3c0.4,0,0.8,0,1.2,0
				c0.4,0,0.7,0,1.1,0v0.3h-0.1c-0.4,0-0.8,0.1-0.8,1.1v3.9c0,0.3,0,0.6,0.1,0.9h-0.3l-4.4-4.9v3.5c0,0.7,0.1,1,0.8,1h0.1v0.3
				c-0.4,0-0.7,0-1.1,0c-0.4,0-0.8,0-1.2,0v-0.3h0.1c0.6,0,0.8-0.4,0.8-1.1V26c0-0.5-0.4-0.8-0.8-0.8h-0.1v-0.3c0.3,0,0.7,0,1,0
				c0.3,0,0.5,0,0.8,0L53.9,29.2z"/>
			<path clip-path="url(#SVGID_2_)" fill="#4A4A4A" d="M53.9,29.2L53.9,29.2L53.9,29.2L53.9,29.2z M53.9,29.2L53.9,29.2L53.9,29.2z
				 M54.1,31h0.3c0-0.3,0-0.5,0-0.8v-3.9c0-1,0.4-1.1,0.8-1.1h0.1V25c-0.3,0-0.7,0-1,0c-0.4,0-0.8,0-1.2,0l0,0.2h0.2
				c0.3,0,0.8,0.1,0.8,0.8l0,3.2l0,0l0,0L50.1,25c-0.3,0-0.5,0-0.8,0c-0.3,0-0.6,0-0.9,0l0,0.2h0.1c0.4,0,0.8,0.3,0.8,0.8v3.6
				c0,0.7-0.2,1.1-0.8,1.1l-0.1,0v0.2c0.4,0,0.8,0,1.1,0c0.4,0,0.7,0,1.1,0v-0.2h-0.1c-0.7,0-0.8-0.3-0.8-1V26L54.1,31z M54.4,31.1
				l-0.4,0l-4.4-4.9v3.4c0,0.7,0.1,1,0.8,1h0.2v0V31h0c-0.4,0-0.7,0-1.1,0c-0.4,0-0.8,0-1.2,0h0v0v-0.3h0h0.1c0.6,0,0.7-0.4,0.7-1.1
				V26c0-0.5-0.4-0.7-0.7-0.7h-0.1v0v-0.3h0c0.3,0,0.7,0,1,0c0.3,0,0.5,0,0.8,0l3.8,4.2V26c0-0.7-0.5-0.8-0.7-0.8h-0.2v0v-0.3h0
				c0.4,0,0.8,0,1.2,0c0.3,0,0.7,0,1.1,0h0v0v0.3h0h-0.1c-0.4,0-0.7,0-0.7,1.1v3.9C54.4,30.5,54.4,30.8,54.4,31.1L54.4,31.1
				L54.4,31.1z"/>
			<path clip-path="url(#SVGID_2_)" fill="#4A4A4A" d="M56.5,25.4c-0.6,0-0.7,0.2-0.8,0.8h-0.3c0-0.2,0.1-0.5,0.1-0.7
				c0-0.2,0.1-0.5,0.1-0.7h0.2c0.1,0.3,0.3,0.2,0.5,0.2h4.4c0.2,0,0.4,0,0.5-0.3l0.2,0c0,0.2-0.1,0.5-0.1,0.7c0,0.2,0,0.5,0,0.7
				l-0.3,0.1c0-0.3-0.1-0.8-0.6-0.8H59v4.6c0,0.7,0.3,0.7,0.7,0.7h0.2v0.3c-0.3,0-0.9,0-1.4,0c-0.5,0-1.1,0-1.5,0v-0.3h0.2
				c0.5,0,0.7,0,0.7-0.7v-4.6H56.5z"/>
			<path clip-path="url(#SVGID_2_)" fill="#4A4A4A" d="M59.9,31c-0.3,0-0.9,0-1.4,0c-0.5,0-1.1,0-1.5,0h0v0v-0.3h0h0.2
				c0.5,0,0.7,0,0.7-0.7v-4.5h-1.4v0v0H58V30c0,0.7-0.3,0.8-0.7,0.8h-0.1v0.2c0.3,0,0.9,0,1.4,0C58.9,30.9,59.5,30.9,59.9,31l0-0.3
				h-0.1c-0.4,0-0.7-0.1-0.7-0.8v-4.6h1.4c0.6,0,0.7,0.5,0.7,0.8l0.2-0.1c0-0.2,0-0.4,0-0.7c0-0.2,0.1-0.4,0.1-0.7l-0.1,0
				c0,0.2-0.3,0.3-0.5,0.3h-4.4h0c-0.2,0-0.4,0-0.5-0.2h-0.1c0,0.2,0,0.5-0.1,0.7c0,0.2-0.1,0.5-0.1,0.7h0.2
				c0.1-0.6,0.2-0.8,0.8-0.8v0v0c-0.6,0-0.6,0.1-0.8,0.8l0,0h0h-0.3l0,0c0-0.2,0.1-0.5,0.1-0.7c0-0.2,0.1-0.5,0.1-0.7v0h0h0.2l0,0
				c0.1,0.2,0.2,0.2,0.4,0.2h0h4.4c0.2,0,0.4,0,0.4-0.2l0,0l0,0l0.2,0l0,0c0,0.2-0.1,0.5-0.1,0.7c0,0.2,0,0.5,0,0.7v0l0,0L61,26.3
				l0,0c0-0.3-0.1-0.8-0.6-0.8h-1.4v4.5c0,0.6,0.3,0.7,0.7,0.7h0.2v0L59.9,31L59.9,31z"/>
			<path clip-path="url(#SVGID_2_)" fill="#4A4A4A" d="M61.7,30.7h0.1c0.3,0,0.6,0,0.6-0.5v-4.5c0-0.4-0.3-0.5-0.6-0.5h-0.1v-0.3
				c0.5,0,1.4,0,2.1,0c0.7,0,1.6,0,2.2,0c0,0.4,0,0.9,0,1.3l-0.3,0.1c0-0.6-0.1-1-1-1h-1.2v2.2h1c0.5,0,0.6-0.3,0.7-0.8h0.3
				c0,0.3,0,0.7,0,1c0,0.3,0,0.7,0,1l-0.3,0.1c-0.1-0.5-0.1-0.8-0.7-0.8h-1v2c0,0.6,0.5,0.6,1,0.6c1,0,1.5-0.1,1.7-1l0.2,0.1
				c-0.1,0.5-0.2,0.9-0.3,1.4c-0.6,0-1.5,0-2.3,0c-0.8,0-1.8,0-2.3,0V30.7z"/>
			<path clip-path="url(#SVGID_2_)" fill="#4A4A4A" d="M66.3,30.9c0.1-0.4,0.2-0.9,0.3-1.3l-0.2,0c-0.3,1-0.8,1-1.8,1
				c-0.5,0-1.1,0-1.1-0.6v-2h1.1c0.6,0,0.7,0.4,0.7,0.8l0.2,0c0-0.3,0-0.6,0-0.9c0-0.3,0-0.6,0-1h-0.2c0,0.4-0.2,0.8-0.7,0.8h-1.1
				v-2.3h1.2c0.9,0,1,0.5,1.1,1l0.2,0c0-0.2,0-0.6,0-0.8c0-0.1,0-0.3,0-0.4c-0.6,0-1.5,0-2.2,0c-0.7,0-1.6,0-2.1,0v0.2h0.1
				c0.3,0,0.7,0.1,0.7,0.5v4.5c0,0.5-0.4,0.5-0.7,0.5h-0.1v0.2c0.5,0,1.5,0,2.2,0C64.7,30.9,65.7,30.9,66.3,30.9 M66.3,31
				c-0.6,0-1.5,0-2.3,0c-0.8,0-1.8,0-2.3,0h0v0v-0.3v0h0h0.1c0.3,0,0.6,0,0.6-0.5v-4.5c0-0.4-0.3-0.4-0.6-0.5h-0.2v0v-0.3h0
				c0.5,0,1.4,0,2.1,0c0.7,0,1.6,0,2.2,0h0l0,0c0,0.1,0,0.3,0,0.4c0,0.3,0,0.6,0,0.9l0,0l0,0l-0.3,0.1l0,0c-0.1-0.6-0.1-1-1-1h-1.2
				l0,2.2h1c0.5,0,0.6-0.3,0.6-0.7l0,0h0h0.3l0,0c0,0.3,0,0.7,0,1c0,0.3,0,0.7,0,1l0,0l0,0l-0.3,0.1l0,0c-0.1-0.5-0.1-0.8-0.6-0.8
				l-1,0v2c0,0.5,0.5,0.5,1,0.5c1,0,1.4-0.1,1.7-1l0,0l0,0l0.3,0.1l0,0C66.5,30,66.4,30.5,66.3,31L66.3,31L66.3,31z"/>
			<path clip-path="url(#SVGID_2_)" fill="#4A4A4A" d="M68.8,27.8h0.4c0.9,0,1.3-0.3,1.3-1.3c0-0.8-0.5-1.3-1.3-1.3
				c-0.3,0-0.4,0-0.5,0V27.8z M67.7,25.9c0-0.6-0.3-0.7-0.6-0.7H67v-0.3c0.3,0,0.8,0,1.3,0c0.5,0,0.9,0,1.4,0c1.1,0,2,0.3,2,1.5
				c0,0.8-0.5,1.2-1.2,1.5l1.5,2.2c0.2,0.4,0.4,0.5,0.8,0.5v0.3c-0.3,0-0.6,0-0.8,0c-0.3,0-0.5,0-0.8,0c-0.7-0.9-1.2-1.8-1.8-2.8
				h-0.6V30c0,0.7,0.3,0.7,0.7,0.7h0.2v0.3c-0.5,0-1,0-1.5,0c-0.4,0-0.8,0-1.2,0v-0.3h0.2c0.3,0,0.6-0.1,0.6-0.5V25.9z"/>
			<path clip-path="url(#SVGID_2_)" fill="#4A4A4A" d="M69.3,27.8c0.9,0,1.3-0.3,1.3-1.3c0-0.7-0.5-1.2-1.2-1.2c-0.2,0-0.3,0-0.5,0
				v2.5H69.3z M68.8,27.9L68.8,27.9l0-2.6l0,0c0.1,0,0.2,0,0.5,0c0.8,0,1.3,0.5,1.3,1.3c0,1-0.5,1.4-1.4,1.4H68.8z M68.8,28.1h0.6
				l0,0c0.6,1,1.1,1.9,1.8,2.8c0.3,0,0.5,0,0.8,0c0.3,0,0.5,0,0.8,0v-0.2c-0.4,0-0.6-0.2-0.8-0.5L70.5,28l0,0
				c0.7-0.3,1.2-0.7,1.2-1.5c0-1.2-0.9-1.5-2-1.5c-0.5,0-0.9,0-1.4,0c-0.5,0-1,0-1.3,0v0.2h0.1c0.3,0,0.6,0,0.6,0.7v4.4
				c0,0.3-0.3,0.5-0.6,0.5H67v0.2c0.4,0,0.8,0,1.2,0c0.5,0,1,0,1.4,0v-0.2h-0.1c-0.4,0-0.7,0-0.7-0.7L68.8,28.1L68.8,28.1z M72.8,31
				c-0.3,0-0.6,0-0.8,0c-0.3,0-0.5,0-0.8,0c-0.7-0.9-1.2-1.8-1.8-2.8h-0.5V30c0,0.6,0.3,0.6,0.7,0.7h0.2v0V31h0c-0.5,0-1,0-1.5,0
				c-0.4,0-0.8,0-1.2,0h0v0v-0.3h0h0.2c0.3,0,0.6-0.1,0.6-0.4v-4.4c0-0.6-0.3-0.6-0.6-0.6h-0.2v0v-0.3h0c0.3,0,0.8,0,1.3,0
				c0.5,0,0.9,0,1.4,0c1.1,0,2.1,0.3,2.1,1.5c0,0.8-0.5,1.3-1.2,1.5l1.4,2.2c0.2,0.4,0.4,0.4,0.8,0.5l0,0v0L72.8,31L72.8,31z"/>
			<path clip-path="url(#SVGID_2_)" fill="#4A4A4A" d="M78.7,29.2L78.7,29.2l0-3.2c0-0.7-0.5-0.8-0.7-0.8h-0.2v-0.3
				c0.4,0,0.8,0,1.2,0c0.4,0,0.7,0,1.1,0v0.3h-0.1c-0.4,0-0.8,0.1-0.8,1.1v3.9c0,0.3,0,0.6,0.1,0.9h-0.3l-4.4-4.9v3.5
				c0,0.7,0.1,1,0.8,1h0.1v0.3c-0.4,0-0.7,0-1.1,0c-0.4,0-0.8,0-1.2,0v-0.3h0.1c0.6,0,0.8-0.4,0.8-1.1V26c0-0.5-0.4-0.8-0.8-0.8
				h-0.1v-0.3c0.3,0,0.7,0,1,0c0.3,0,0.5,0,0.8,0L78.7,29.2z"/>
			<path clip-path="url(#SVGID_2_)" fill="#4A4A4A" d="M78.7,29.2L78.7,29.2L78.7,29.2L78.7,29.2z M78.7,29.2L78.7,29.2L78.7,29.2z
				 M78.8,31h0.3c0-0.3,0-0.5,0-0.8v-3.9c0-1,0.4-1.1,0.8-1.1H80V25c-0.3,0-0.7,0-1,0c-0.4,0-0.8,0-1.2,0v0.2h0.2
				c0.3,0,0.8,0.1,0.8,0.8l0,3.2l0,0l0,0L74.9,25c-0.3,0-0.5,0-0.8,0c-0.3,0-0.6,0-1,0v0.2h0.1c0.4,0,0.8,0.3,0.8,0.8v3.6
				c0,0.7-0.2,1.1-0.8,1.1l-0.1,0v0.2c0.4,0,0.8,0,1.1,0c0.4,0,0.7,0,1.1,0v-0.2h-0.1c-0.7,0-0.8-0.3-0.8-1V26L78.8,31z M79.2,31.1
				l-0.4,0l-4.4-4.9v3.4c0,0.7,0.1,1,0.8,1h0.2v0V31h0c-0.4,0-0.7,0-1.1,0c-0.4,0-0.8,0-1.2,0h0v0v-0.3h0h0.1c0.6,0,0.7-0.4,0.7-1.1
				V26c0-0.5-0.4-0.7-0.7-0.7h-0.2v0v-0.3h0c0.3,0,0.7,0,1,0c0.3,0,0.5,0,0.8,0l3.8,4.2V26c0-0.7-0.5-0.8-0.7-0.8h-0.2v0v-0.3h0
				c0.4,0,0.8,0,1.2,0c0.3,0,0.7,0,1.1,0h0v0v0.3h0h-0.1c-0.4,0-0.7,0-0.7,1.1v3.9C79.2,30.5,79.2,30.8,79.2,31.1L79.2,31.1
				L79.2,31.1z"/>
			<path clip-path="url(#SVGID_2_)" fill="#4A4A4A" d="M82.6,25.9L82.6,25.9l-0.8,2.4h1.6L82.6,25.9z M81.4,29.7
				c-0.1,0.3-0.2,0.5-0.2,0.7c0,0.3,0.4,0.3,0.6,0.3h0.1v0.3c-0.3,0-0.7,0-1,0c-0.3,0-0.6,0-0.9,0v-0.3H80c0.3,0,0.6-0.2,0.7-0.6
				l1.4-3.9c0.1-0.3,0.3-0.7,0.3-1.1c0.3-0.1,0.6-0.3,0.8-0.4c0,0,0,0,0.1,0c0,0,0,0,0.1,0c0,0.1,0.1,0.1,0.1,0.2l1.6,4.5
				c0.1,0.3,0.2,0.6,0.3,0.9c0.1,0.2,0.3,0.3,0.6,0.3H86v0.3c-0.4,0-0.8,0-1.2,0c-0.4,0-0.9,0-1.3,0v-0.3h0.1c0.2,0,0.5,0,0.5-0.2
				c0-0.1-0.1-0.3-0.2-0.6l-0.3-1h-1.9L81.4,29.7z"/>
			<path clip-path="url(#SVGID_2_)" fill="#4A4A4A" d="M82.6,25.9L82.6,25.9L82.6,25.9z M81.9,28.3h1.5L82.6,26L81.9,28.3z
				 M81.8,28.4l0.8-2.5h0h0v0l0,0l0,0v0h0l0.8,2.5H81.8z M83.5,30.9c0.4,0,0.8,0,1.3,0c0.4,0,0.8,0,1.1,0v-0.2h0
				c-0.3,0-0.5-0.1-0.6-0.4c-0.1-0.3-0.2-0.6-0.3-0.9L83.4,25c0-0.1-0.1-0.1-0.1-0.2c0,0,0,0,0,0h0c0,0,0,0,0,0
				c-0.2,0.1-0.5,0.3-0.8,0.3c-0.1,0.3-0.2,0.8-0.3,1.1l-1.4,3.9c-0.1,0.4-0.4,0.6-0.8,0.6h0v0.2c0.3,0,0.6,0,0.9,0c0.3,0,0.7,0,1,0
				v-0.2h-0.1c-0.3,0-0.7,0-0.7-0.3c0-0.2,0.1-0.4,0.2-0.7l0,0l0,0l0.3-0.9h2l0.3,1c0.1,0.3,0.2,0.5,0.2,0.6c0,0.3-0.4,0.3-0.6,0.3
				h-0.1V30.9z M86,31c-0.4,0-0.8,0-1.2,0c-0.4,0-0.8,0-1.3,0l0,0v0v-0.3h0h0.1c0.2,0,0.5,0,0.5-0.2c0-0.1-0.1-0.3-0.2-0.6l-0.3-1
				h-1.9l-0.3,0.9c-0.1,0.3-0.2,0.5-0.2,0.7c0,0.2,0.3,0.3,0.6,0.3H82v0V31l0,0c-0.3,0-0.7,0-1,0c-0.3,0-0.6,0-0.9,0l0,0v0v-0.3h0
				H80c0.3,0,0.6-0.2,0.7-0.5l1.4-3.9c0.1-0.3,0.3-0.7,0.3-1.1c0.3-0.1,0.6-0.3,0.8-0.4c0,0,0,0,0.1,0c0,0,0.1,0,0.1,0.1
				c0,0.1,0.1,0.1,0.1,0.2l1.6,4.5c0.1,0.3,0.2,0.6,0.3,0.9c0.1,0.2,0.3,0.3,0.5,0.3H86v0L86,31L86,31z"/>
			<path clip-path="url(#SVGID_2_)" fill="#4A4A4A" d="M86.3,25.4c-0.6,0-0.7,0.2-0.8,0.8h-0.3c0-0.2,0.1-0.5,0.1-0.7
				c0-0.2,0.1-0.5,0.1-0.7h0.2c0.1,0.3,0.3,0.2,0.5,0.2h4.4c0.2,0,0.4,0,0.5-0.3l0.2,0c0,0.2-0.1,0.5-0.1,0.7c0,0.2,0,0.5,0,0.7
				l-0.3,0.1c0-0.3-0.1-0.8-0.6-0.8h-1.4v4.6c0,0.7,0.3,0.7,0.7,0.7h0.2v0.3c-0.3,0-0.9,0-1.4,0c-0.5,0-1.1,0-1.5,0v-0.3H87
				c0.5,0,0.7,0,0.7-0.7v-4.6H86.3z"/>
			<path clip-path="url(#SVGID_2_)" fill="#4A4A4A" d="M89.7,31c-0.3,0-0.9,0-1.4,0c-0.5,0-1.1,0-1.5,0h0v0v-0.3h0H87
				c0.5,0,0.7,0,0.7-0.7l0-4.5h-1.4v0v0h1.4V30c0,0.7-0.3,0.8-0.7,0.8h-0.1v0.2c0.3,0,0.9,0,1.4,0C88.8,30.9,89.4,30.9,89.7,31
				l0-0.3h-0.1c-0.4,0-0.7-0.1-0.7-0.8v-4.6h1.4c0.6,0,0.7,0.5,0.7,0.8l0.2-0.1c0-0.2,0-0.4,0-0.7c0-0.2,0.1-0.4,0.1-0.7l-0.1,0
				c0,0.2-0.3,0.3-0.5,0.3h-4.4h0c-0.2,0-0.4,0-0.5-0.3h-0.1c0,0.2,0,0.5-0.1,0.7c0,0.2-0.1,0.5-0.1,0.7h0.2
				c0.1-0.6,0.2-0.8,0.8-0.8v0v0c-0.6,0-0.6,0.1-0.8,0.8l0,0h0h-0.3l0,0c0-0.2,0.1-0.5,0.1-0.7c0-0.2,0.1-0.5,0.1-0.7v0h0h0.2l0,0
				c0.1,0.2,0.2,0.2,0.4,0.2c0,0,0,0,0,0h4.4c0.2,0,0.4,0,0.4-0.2l0,0l0,0l0.2,0l0,0c0,0.2-0.1,0.5-0.1,0.7c0,0.2,0,0.5,0,0.7v0l0,0
				l-0.3,0.1l0,0c0-0.3-0.1-0.8-0.6-0.8h-1.4v4.5c0,0.6,0.3,0.7,0.7,0.7h0.2v0L89.7,31L89.7,31z"/>
			<path clip-path="url(#SVGID_2_)" fill="#4A4A4A" d="M91.6,30.7h0.1c0.3,0,0.6,0,0.6-0.5v-4.5c0-0.4-0.3-0.5-0.6-0.5h-0.1v-0.3
				c0.3,0,0.8,0,1.3,0c0.4,0,0.9,0,1.3,0v0.3h-0.1c-0.3,0-0.6,0-0.6,0.5v4.5c0,0.4,0.3,0.5,0.6,0.5h0.1v0.3c-0.4,0-0.9,0-1.4,0
				c-0.4,0-0.9,0-1.3,0V30.7z"/>
			<path clip-path="url(#SVGID_2_)" fill="#4A4A4A" d="M94.2,30.9v-0.2h-0.1c-0.3,0-0.7-0.1-0.7-0.5v-4.5c0-0.5,0.4-0.5,0.7-0.5h0.1
				V25c-0.4,0-0.9,0-1.3,0c-0.4,0-0.9,0-1.2,0v0.2h0.1c0.3,0,0.7,0.1,0.7,0.5v4.5c0,0.5-0.4,0.5-0.7,0.5h-0.1v0.2c0.3,0,0.8,0,1.2,0
				C93.3,30.9,93.8,30.9,94.2,30.9 M94.2,31c-0.4,0-0.9,0-1.4,0c-0.4,0-0.9,0-1.3,0h0v0v-0.3v0h0h0.1c0.3,0,0.6,0,0.6-0.5v-4.5
				c0-0.4-0.3-0.4-0.6-0.5h-0.2v0v-0.3h0c0.3,0,0.9,0,1.3,0c0.4,0,0.9,0,1.3,0h0v0v0.3h0h-0.1c-0.3,0-0.6,0-0.6,0.5v4.5
				c0,0.4,0.3,0.4,0.6,0.5h0.2v0L94.2,31L94.2,31z"/>
			<path clip-path="url(#SVGID_2_)" fill="#4A4A4A" d="M97.8,30.7c1.7,0,2-1.5,2-2.7c0-1.3-0.7-2.8-2.1-2.8c-1.5,0-1.9,1.3-1.9,2.5
				C95.7,29.2,96.4,30.7,97.8,30.7 M97.6,24.8c1.8,0,3.3,1.1,3.3,3c0,2-1.4,3.3-3.2,3.3c-1.8,0-3.2-1.2-3.2-3.1
				C94.5,26.2,95.8,24.8,97.6,24.8"/>
			<path clip-path="url(#SVGID_2_)" fill="#4A4A4A" d="M95.6,27.7c0-1.2,0.5-2.5,2-2.5c1.5,0,2.1,1.6,2.1,2.8c0,1.3-0.3,2.8-2,2.8v0
				v0c1.6,0,1.9-1.4,1.9-2.7c0-1.2-0.7-2.7-2.1-2.7C96.1,25.2,95.7,26.5,95.6,27.7c0.1,1.5,0.8,3,2.1,3v0v0
				C96.3,30.7,95.6,29.2,95.6,27.7 M94.4,28c0-1.8,1.4-3.2,3.2-3.2v0v0C95.9,24.9,94.5,26.2,94.4,28c0.1,1.8,1.4,3,3.2,3
				c1.8,0,3.2-1.3,3.2-3.3c0-1.8-1.4-2.9-3.3-2.9v0v0c1.8,0,3.3,1.1,3.3,3c0,2-1.4,3.3-3.3,3.3C95.8,31.1,94.4,29.9,94.4,28"/>
			<path clip-path="url(#SVGID_2_)" fill="#4A4A4A" d="M106.7,29.2L106.7,29.2l0-3.2c0-0.7-0.5-0.8-0.7-0.8h-0.2v-0.3
				c0.4,0,0.8,0,1.2,0c0.4,0,0.7,0,1.1,0v0.3h-0.1c-0.4,0-0.8,0.1-0.8,1.1v3.9c0,0.3,0,0.6,0.1,0.9h-0.3l-4.4-4.9v3.5
				c0,0.7,0.1,1,0.8,1h0.1v0.3c-0.4,0-0.7,0-1.1,0c-0.4,0-0.8,0-1.2,0v-0.3h0.1c0.6,0,0.8-0.4,0.8-1.1V26c0-0.5-0.4-0.8-0.8-0.8
				h-0.1v-0.3c0.3,0,0.7,0,1,0c0.3,0,0.5,0,0.8,0L106.7,29.2z"/>
			<path clip-path="url(#SVGID_2_)" fill="#4A4A4A" d="M106.7,29.2L106.7,29.2L106.7,29.2L106.7,29.2z M106.7,29.2L106.7,29.2
				L106.7,29.2z M106.9,31h0.3c0-0.3,0-0.5,0-0.8v-3.9c0-1,0.4-1.1,0.8-1.1h0.1V25c-0.3,0-0.7,0-1,0c-0.4,0-0.8,0-1.2,0v0.2h0.2
				c0.3,0,0.8,0.1,0.8,0.8l0,3.2l0,0l0,0l-3.8-4.3c-0.3,0-0.5,0-0.8,0c-0.3,0-0.6,0-1,0v0.2h0.1c0.4,0,0.8,0.3,0.8,0.8v3.6
				c0,0.7-0.2,1.1-0.8,1.1l-0.1,0v0.2c0.4,0,0.8,0,1.1,0c0.4,0,0.7,0,1.1,0v-0.2h-0.1c-0.7,0-0.8-0.3-0.8-1V26L106.9,31z
				 M107.2,31.1l-0.4,0l-4.4-4.9v3.4c0,0.7,0.1,1,0.8,1h0.2v0V31h0c-0.4,0-0.7,0-1.1,0c-0.4,0-0.8,0-1.2,0h0v0v-0.3h0h0.1
				c0.6,0,0.7-0.4,0.7-1.1V26c0-0.5-0.4-0.7-0.7-0.7h-0.1v0v-0.3h0c0.3,0,0.7,0,1,0c0.3,0,0.5,0,0.8,0l3.8,4.2V26
				c0-0.7-0.5-0.8-0.7-0.8h-0.2v0v-0.3h0c0.4,0,0.8,0,1.2,0c0.4,0,0.7,0,1.1,0h0v0v0.3h0h-0.1c-0.4,0-0.7,0-0.7,1.1v3.9
				C107.2,30.5,107.2,30.8,107.2,31.1L107.2,31.1L107.2,31.1z"/>
			<path clip-path="url(#SVGID_2_)" fill="#4A4A4A" d="M110.7,25.9L110.7,25.9l-0.8,2.4h1.6L110.7,25.9z M109.4,29.7
				c-0.1,0.3-0.2,0.5-0.2,0.7c0,0.3,0.4,0.3,0.6,0.3h0.1v0.3c-0.3,0-0.7,0-1,0c-0.3,0-0.6,0-0.9,0v-0.3h0c0.3,0,0.6-0.2,0.7-0.6
				l1.4-3.9c0.1-0.3,0.3-0.7,0.3-1.1c0.3-0.1,0.6-0.3,0.8-0.4c0,0,0,0,0.1,0c0,0,0,0,0.1,0c0,0.1,0.1,0.1,0.1,0.2l1.6,4.5
				c0.1,0.3,0.2,0.6,0.3,0.9c0.1,0.2,0.3,0.3,0.6,0.3h0.1v0.3c-0.4,0-0.8,0-1.2,0c-0.4,0-0.8,0-1.3,0v-0.3h0.1c0.2,0,0.5,0,0.5-0.2
				c0-0.1-0.1-0.3-0.2-0.6l-0.3-1h-1.9L109.4,29.7z"/>
			<path clip-path="url(#SVGID_2_)" fill="#4A4A4A" d="M110.6,25.9L110.6,25.9L110.6,25.9z M109.9,28.3h1.5l-0.7-2.3L109.9,28.3z
				 M109.8,28.4l0.8-2.5h0h0v0l0,0l0,0v0h0l0.8,2.5H109.8z M111.6,30.9c0.4,0,0.8,0,1.3,0c0.4,0,0.8,0,1.1,0l0-0.2h0
				c-0.3,0-0.5-0.1-0.6-0.4c-0.1-0.3-0.2-0.6-0.3-0.9l-1.6-4.5c0-0.1-0.1-0.1-0.1-0.2c0,0,0,0,0,0h0c0,0,0,0,0,0
				c-0.2,0.1-0.5,0.3-0.8,0.3c-0.1,0.3-0.2,0.8-0.3,1.1l-1.4,3.9c-0.1,0.4-0.4,0.6-0.8,0.6h0v0.2c0.3,0,0.6,0,0.9,0c0.3,0,0.7,0,1,0
				v-0.2h-0.1c-0.3,0-0.7,0-0.7-0.3c0-0.2,0.1-0.4,0.2-0.7l0,0l0,0l0.3-0.9h2l0.3,1c0.1,0.3,0.2,0.5,0.2,0.6c0,0.3-0.4,0.3-0.6,0.3
				h-0.1V30.9z M114,31c-0.4,0-0.8,0-1.2,0c-0.4,0-0.8,0-1.3,0l0,0v0v-0.3h0h0.1c0.2,0,0.5,0,0.5-0.2c0-0.1-0.1-0.3-0.2-0.6l-0.3-1
				h-1.9l-0.3,0.9c-0.1,0.3-0.2,0.5-0.2,0.7c0,0.2,0.3,0.3,0.6,0.3h0.1v0V31l0,0c-0.3,0-0.7,0-1,0c-0.3,0-0.6,0-0.9,0l0,0v0v-0.3h0
				h0c0.3,0,0.6-0.2,0.7-0.5l1.4-3.9c0.1-0.3,0.3-0.7,0.3-1.1c0.3-0.1,0.6-0.3,0.8-0.4c0,0,0,0,0.1,0c0,0,0.1,0,0.1,0.1
				c0,0.1,0.1,0.1,0.1,0.2l1.6,4.5c0.1,0.3,0.2,0.6,0.3,0.9c0.1,0.2,0.3,0.3,0.5,0.3h0.1v0L114,31L114,31z"/>
			<path clip-path="url(#SVGID_2_)" fill="#4A4A4A" d="M116.2,30.1c0,0.3,0.2,0.4,0.5,0.5c0.4,0,0.7,0,1.1,0c0.4,0,0.7-0.2,0.8-0.5
				c0.1-0.2,0.2-0.4,0.3-0.6h0.2c-0.1,0.5-0.2,1-0.3,1.5c-0.8,0-1.5,0-2.3,0c-0.8,0-1.5,0-2.3,0v-0.3h0.1c0.3,0,0.6,0,0.6-0.6v-4.4
				c0-0.4-0.3-0.5-0.6-0.5h-0.1v-0.3c0.5,0,0.9,0,1.4,0c0.4,0,0.9,0,1.3,0v0.3h-0.2c-0.3,0-0.6,0-0.6,0.5V30.1z"/>
			<path clip-path="url(#SVGID_2_)" fill="#4A4A4A" d="M118.8,30.9c0.1-0.5,0.2-0.9,0.3-1.4h-0.2c-0.1,0.2-0.1,0.4-0.3,0.6
				c-0.2,0.2-0.5,0.4-0.9,0.5c-0.2,0-0.4,0-0.7,0c-0.2,0-0.3,0-0.5,0c-0.3,0-0.6-0.2-0.5-0.5v-4.4c0-0.5,0.3-0.5,0.6-0.5h0.2V25
				c-0.4,0-0.8,0-1.3,0c-0.4,0-0.9,0-1.3,0v0.2h0.1c0.3,0,0.7,0.1,0.7,0.5v4.4c0,0.6-0.4,0.6-0.7,0.6h-0.1v0.2c0.7,0,1.5,0,2.2,0
				C117.3,30.9,118.1,30.9,118.8,30.9 M118.8,31c-0.8,0-1.5,0-2.3,0c-0.8,0-1.5,0-2.3,0h0v0v-0.3h0h0.1c0.3,0,0.6,0,0.6-0.5v-4.4
				c0-0.4-0.3-0.4-0.6-0.5h-0.2v0v-0.3h0c0.5,0,0.9,0,1.4,0c0.4,0,0.9,0,1.3,0h0v0v0.3h0h-0.2c-0.3,0-0.5,0-0.5,0.4v4.4
				c0,0.3,0.2,0.4,0.5,0.4c0.2,0,0.3,0,0.5,0c0.2,0,0.4,0,0.6,0c0.3,0,0.7-0.2,0.8-0.4c0.1-0.2,0.2-0.4,0.3-0.6l0,0h0h0.3l0,0
				C119.1,30,119,30.5,118.8,31L118.8,31L118.8,31z"/>
			<path clip-path="url(#SVGID_2_)" fill="#4A4A4A" d="M118.9,25.6h0.1c0.1,0,0.2-0.1,0.2-0.2c0-0.1-0.1-0.2-0.2-0.2h-0.1V25.6z
				 M118.6,26.1L118.6,26.1c0.1-0.1,0.1-0.1,0.1-0.1v-0.7c0-0.1,0-0.1-0.1-0.1v0h0.5c0.2,0,0.3,0.1,0.3,0.2c0,0.1-0.1,0.2-0.2,0.3
				l0.1,0.2c0.1,0.1,0.1,0.2,0.2,0.2v0h-0.2c-0.1,0-0.2-0.2-0.3-0.4h-0.1V26c0,0.1,0,0.1,0.1,0.1v0H118.6z M119,26.3
				c0.4,0,0.7-0.3,0.7-0.7c0-0.4-0.3-0.7-0.7-0.7c-0.4,0-0.7,0.3-0.7,0.7C118.3,26,118.6,26.3,119,26.3 M119,24.7
				c0.5,0,0.9,0.4,0.9,0.9c0,0.5-0.4,0.9-0.9,0.9c-0.5,0-0.9-0.4-0.9-0.9C118.1,25.1,118.5,24.7,119,24.7"/>
			<path clip-path="url(#SVGID_2_)" fill="#4A4A4A" d="M26.3,35.8c8.2,0,15.7-6.7,15.7-14.9C42,12,34.5,5.8,26.3,5.8h-7.1
				C11,5.8,4.2,12,4.2,20.9c0,8.2,6.8,14.9,15.1,14.9H26.3z"/>
			<path clip-path="url(#SVGID_2_)" fill="#FFFFFF" d="M22.4,28.9V12.6c3.3,1.3,5.6,4.4,5.6,8.1C28,24.5,25.7,27.6,22.4,28.9
				 M10.6,20.8c0-3.7,2.3-6.9,5.6-8.1v16.2C12.9,27.6,10.6,24.5,10.6,20.8 M19.3,7C11.7,7,5.6,13.2,5.6,20.8
				c0,7.6,6.1,13.7,13.7,13.7c7.6,0,13.7-6.1,13.7-13.7C33,13.2,26.9,7,19.3,7"/>
			<path clip-path="url(#SVGID_2_)" fill="#4A4A4A" d="M48.4,19.6c0,1.2,0.9,1.4,1.6,1.4c3.4,0,4.5-2.6,4.5-4.9
				c0-2.9-1.9-5.1-4.9-5.1c-0.6,0-0.9,0-1.2,0.1V19.6z M46.8,12.2c0-1.4-0.7-1.3-1.5-1.3v-0.4c0.6,0,1.2,0,1.9,0c0.7,0,1.6,0,2.7,0
				c4.1,0,6.3,2.7,6.3,5.5c0,1.6-0.9,5.5-6.5,5.5c-0.8,0-1.5,0-2.3,0c-0.7,0-1.4,0-2.1,0v-0.4c0.9-0.1,1.4-0.1,1.5-1.2V12.2z"/>
			<path clip-path="url(#SVGID_2_)" fill="#4A4A4A" d="M58.5,11.9c-0.4,0-0.8-0.4-0.8-0.8c0-0.4,0.4-0.8,0.8-0.8
				c0.4,0,0.8,0.3,0.8,0.8C59.3,11.5,59,11.9,58.5,11.9 M56.8,21.1h0.3c0.4,0,0.8,0,0.8-0.5v-4.3c0-0.7-0.2-0.8-0.8-1.1v-0.3
				c0.7-0.2,1.6-0.5,1.7-0.6c0.1-0.1,0.2-0.1,0.3-0.1c0.1,0,0.1,0.1,0.1,0.2v6.1c0,0.5,0.3,0.5,0.8,0.5h0.3v0.4c-0.5,0-1.1,0-1.7,0
				c-0.6,0-1.1,0-1.7,0V21.1z"/>
			<path clip-path="url(#SVGID_2_)" fill="#4A4A4A" d="M61.7,16.4c0-0.6-0.2-0.7-0.9-1v-0.3c0.7-0.2,1.3-0.4,2.1-0.8
				c0,0,0.1,0,0.1,0.2v1c0.9-0.6,1.7-1.2,2.7-1.2c1.3,0,1.8,1,1.8,2.2v4.1c0,0.5,0.3,0.5,0.8,0.5h0.3v0.4c-0.6,0-1.1,0-1.7,0
				c-0.6,0-1.1,0-1.7,0v-0.4h0.3c0.4,0,0.8,0,0.8-0.5v-4.1c0-0.9-0.5-1.3-1.5-1.3c-0.5,0-1.3,0.4-1.8,0.8v4.7c0,0.5,0.3,0.5,0.8,0.5
				h0.3v0.4c-0.6,0-1.1,0-1.7,0c-0.6,0-1.1,0-1.7,0v-0.4H61c0.4,0,0.8,0,0.8-0.5V16.4z"/>
			<path clip-path="url(#SVGID_2_)" fill="#4A4A4A" d="M72.6,16.6c0.4,0,0.4-0.2,0.4-0.4c0-0.8-0.5-1.5-1.4-1.5
				c-1,0-1.6,0.7-1.8,1.8H72.6z M69.8,17.2c0,0.1,0,0.4,0,0.9c0.1,1.5,1.1,2.7,2.3,2.7c0.9,0,1.5-0.5,2.1-1.1l0.2,0.2
				c-0.7,1-1.6,1.8-2.9,1.8c-2.5,0-3-2.4-3-3.4c0-3.1,2.1-4,3.2-4c1.3,0,2.7,0.8,2.7,2.5c0,0.1,0,0.2,0,0.3l-0.1,0.1H69.8z"/>
			<path clip-path="url(#SVGID_2_)" fill="#4A4A4A" d="M74.7,21.1h0.4c0.4,0,0.8,0,0.8-0.5v-4.4c0-0.5-0.6-0.6-0.8-0.7v-0.2
				c1.2-0.5,1.8-0.9,1.9-0.9c0.1,0,0.1,0,0.1,0.2v1.4h0c0.4-0.6,1.1-1.6,2-1.6c0.4,0,0.9,0.3,0.9,0.8c0,0.4-0.3,0.8-0.7,0.8
				c-0.5,0-0.5-0.4-1-0.4c-0.3,0-1.2,0.4-1.2,1.3v3.7c0,0.5,0.3,0.5,0.8,0.5h0.9v0.4c-0.9,0-1.5,0-2.2,0c-0.6,0-1.3,0-1.9,0V21.1z"
				/>
			<path clip-path="url(#SVGID_2_)" fill="#4A4A4A" d="M80.8,19.3c0.2,1,0.8,1.9,2,1.9c0.9,0,1.3-0.6,1.3-1.1c0-1.9-3.4-1.3-3.4-3.8
				c0-0.9,0.7-2,2.4-2c0.5,0,1.2,0.1,1.8,0.5l0.1,1.6h-0.4c-0.2-1-0.7-1.6-1.7-1.6c-0.6,0-1.2,0.4-1.2,1c0,1.8,3.7,1.3,3.7,3.8
				c0,1-0.8,2.1-2.7,2.1c-0.6,0-1.4-0.2-1.9-0.5l-0.2-1.8L80.8,19.3z"/>
			<path clip-path="url(#SVGID_2_)" fill="#4A4A4A" d="M99.6,13.4h-0.4c-0.3-1.8-1.6-2.6-3.4-2.6c-1.8,0-4.5,1.2-4.5,5
				c0,3.2,2.3,5.5,4.7,5.5c1.6,0,2.9-1.1,3.2-2.7l0.4,0.1l-0.4,2.3c-0.7,0.4-2.4,0.8-3.5,0.8c-3.7,0-6-2.4-6-5.9
				c0-3.2,2.9-5.6,6-5.6c1.3,0,2.5,0.4,3.7,0.8L99.6,13.4z"/>
			<path clip-path="url(#SVGID_2_)" fill="#4A4A4A" d="M100.2,21.1h0.3c0.4,0,0.8,0,0.8-0.5v-8.8c0-1-0.2-1.1-0.8-1.2v-0.3
				c0.6-0.2,1.3-0.5,1.6-0.7c0.2-0.1,0.3-0.2,0.3-0.2c0.1,0,0.1,0.1,0.1,0.2v10.9c0,0.5,0.3,0.5,0.8,0.5h0.3v0.4c-0.5,0-1.1,0-1.7,0
				c-0.6,0-1.1,0-1.7,0V21.1z"/>
			<path clip-path="url(#SVGID_2_)" fill="#4A4A4A" d="M110.3,20.6c0,0.3,0.2,0.3,0.4,0.3c0.2,0,0.4,0,0.6,0v0.3
				c-0.7,0.1-2,0.4-2.3,0.5l-0.1,0v-1.3c-0.9,0.8-1.7,1.3-2.8,1.3c-0.9,0-1.7-0.6-1.7-1.9v-4c0-0.4-0.1-0.8-0.9-0.9v-0.3
				c0.6,0,1.8-0.1,2-0.1c0.2,0,0.2,0.1,0.2,0.5v4.1c0,0.5,0,1.8,1.4,1.8c0.5,0,1.2-0.4,1.9-1v-4.2c0-0.3-0.8-0.5-1.3-0.6v-0.3
				c1.4-0.1,2.3-0.2,2.5-0.2c0.1,0,0.1,0.1,0.1,0.3V20.6z"/>
			<path clip-path="url(#SVGID_2_)" fill="#4A4A4A" d="M113.4,19.7c0,0.6,0.6,1.6,1.6,1.6c1.7,0,2.4-1.7,2.4-3.1
				c0-1.7-1.3-3.1-2.5-3.1c-0.6,0-1.1,0.4-1.5,0.7V19.7z M113.4,15.4c0.6-0.5,1.5-1.1,2.4-1.1c1.8,0,2.9,1.6,2.9,3.3
				c0,2.1-1.5,4.1-3.8,4.1c-1.2,0-1.8-0.4-2.2-0.6l-0.5,0.4l-0.3-0.2c0.1-0.9,0.2-1.8,0.2-2.8v-6.8c0-1-0.2-1.1-0.8-1.2v-0.3
				c0.6-0.2,1.3-0.5,1.6-0.7c0.2-0.1,0.3-0.2,0.3-0.2c0.1,0,0.1,0.1,0.1,0.2V15.4z"/>
			<path clip-path="url(#SVGID_2_)" fill="#4A4A4A" d="M45.4,30.7h0.1c0.3,0,0.6,0,0.6-0.5v-4.5c0-0.4-0.3-0.5-0.6-0.5h-0.1v-0.3
				c0.3,0,0.9,0,1.3,0c0.4,0,0.9,0,1.3,0v0.3h-0.1c-0.3,0-0.6,0-0.6,0.5v4.5c0,0.4,0.3,0.5,0.6,0.5H48v0.3c-0.4,0-0.9,0-1.4,0
				c-0.4,0-0.9,0-1.3,0V30.7z"/>
			<path clip-path="url(#SVGID_2_)" fill="#4A4A4A" d="M47.9,30.9l0-0.2h-0.1c-0.3,0-0.7-0.1-0.7-0.5v-4.5c0-0.5,0.4-0.5,0.7-0.5
				h0.1V25c-0.4,0-0.9,0-1.3,0c-0.4,0-0.9,0-1.2,0v0.2h0.1c0.3,0,0.7,0.1,0.7,0.5v4.5c0,0.5-0.4,0.5-0.7,0.5h-0.1v0.2
				c0.3,0,0.8,0,1.2,0C47,30.9,47.5,30.9,47.9,30.9 M48,31c-0.4,0-0.9,0-1.4,0c-0.4,0-0.9,0-1.3,0h0v0v-0.3v0h0h0.1
				c0.3,0,0.6,0,0.6-0.5v-4.5c0-0.4-0.3-0.4-0.6-0.5h-0.2v0v-0.3h0c0.3,0,0.9,0,1.3,0c0.4,0,0.9,0,1.3,0h0v0v0.3h0h-0.1
				c-0.3,0-0.6,0-0.6,0.5v4.5c0,0.4,0.3,0.4,0.6,0.5H48v0L48,31L48,31z"/>
			<path clip-path="url(#SVGID_2_)" fill="#4A4A4A" d="M53.9,29.2L53.9,29.2l0-3.2c0-0.7-0.5-0.8-0.7-0.8H53v-0.3c0.4,0,0.8,0,1.2,0
				c0.4,0,0.7,0,1.1,0v0.3h-0.1c-0.4,0-0.8,0.1-0.8,1.1v3.9c0,0.3,0,0.6,0.1,0.9h-0.3l-4.4-4.9v3.5c0,0.7,0.1,1,0.8,1h0.1v0.3
				c-0.4,0-0.7,0-1.1,0c-0.4,0-0.8,0-1.2,0v-0.3h0.1c0.6,0,0.8-0.4,0.8-1.1V26c0-0.5-0.4-0.8-0.8-0.8h-0.1v-0.3c0.3,0,0.7,0,1,0
				c0.3,0,0.5,0,0.8,0L53.9,29.2z"/>
			<path clip-path="url(#SVGID_2_)" fill="#4A4A4A" d="M53.9,29.2L53.9,29.2L53.9,29.2L53.9,29.2z M53.9,29.2L53.9,29.2L53.9,29.2z
				 M54.1,31h0.3c0-0.3,0-0.5,0-0.8v-3.9c0-1,0.4-1.1,0.8-1.1h0.1V25c-0.3,0-0.7,0-1,0c-0.4,0-0.8,0-1.2,0l0,0.2h0.2
				c0.3,0,0.8,0.1,0.8,0.8l0,3.2l0,0l0,0L50.1,25c-0.3,0-0.5,0-0.8,0c-0.3,0-0.6,0-0.9,0l0,0.2h0.1c0.4,0,0.8,0.3,0.8,0.8v3.6
				c0,0.7-0.2,1.1-0.8,1.1l-0.1,0v0.2c0.4,0,0.8,0,1.1,0c0.4,0,0.7,0,1.1,0v-0.2h-0.1c-0.7,0-0.8-0.3-0.8-1V26L54.1,31z M54.4,31.1
				l-0.4,0l-4.4-4.9v3.4c0,0.7,0.1,1,0.8,1h0.2v0V31h0c-0.4,0-0.7,0-1.1,0c-0.4,0-0.8,0-1.2,0h0v0v-0.3h0h0.1c0.6,0,0.7-0.4,0.7-1.1
				V26c0-0.5-0.4-0.7-0.7-0.7h-0.1v0v-0.3h0c0.3,0,0.7,0,1,0c0.3,0,0.5,0,0.8,0l3.8,4.2V26c0-0.7-0.5-0.8-0.7-0.8h-0.2v0v-0.3h0
				c0.4,0,0.8,0,1.2,0c0.3,0,0.7,0,1.1,0h0v0v0.3h0h-0.1c-0.4,0-0.7,0-0.7,1.1v3.9C54.4,30.5,54.4,30.8,54.4,31.1L54.4,31.1
				L54.4,31.1z"/>
			<path clip-path="url(#SVGID_2_)" fill="#4A4A4A" d="M56.5,25.4c-0.6,0-0.7,0.2-0.8,0.8h-0.3c0-0.2,0.1-0.5,0.1-0.7
				c0-0.2,0.1-0.5,0.1-0.7h0.2c0.1,0.3,0.3,0.2,0.5,0.2h4.4c0.2,0,0.4,0,0.5-0.3l0.2,0c0,0.2-0.1,0.5-0.1,0.7c0,0.2,0,0.5,0,0.7
				l-0.3,0.1c0-0.3-0.1-0.8-0.6-0.8H59v4.6c0,0.7,0.3,0.7,0.7,0.7h0.2v0.3c-0.3,0-0.9,0-1.4,0c-0.5,0-1.1,0-1.5,0v-0.3h0.2
				c0.5,0,0.7,0,0.7-0.7v-4.6H56.5z"/>
			<path clip-path="url(#SVGID_2_)" fill="#4A4A4A" d="M59.9,31c-0.3,0-0.9,0-1.4,0c-0.5,0-1.1,0-1.5,0h0v0v-0.3h0h0.2
				c0.5,0,0.7,0,0.7-0.7v-4.5h-1.4v0v0H58V30c0,0.7-0.3,0.8-0.7,0.8h-0.1v0.2c0.3,0,0.9,0,1.4,0C58.9,30.9,59.5,30.9,59.9,31l0-0.3
				h-0.1c-0.4,0-0.7-0.1-0.7-0.8v-4.6h1.4c0.6,0,0.7,0.5,0.7,0.8l0.2-0.1c0-0.2,0-0.4,0-0.7c0-0.2,0.1-0.4,0.1-0.7l-0.1,0
				c0,0.2-0.3,0.3-0.5,0.3h-4.4h0c-0.2,0-0.4,0-0.5-0.2h-0.1c0,0.2,0,0.5-0.1,0.7c0,0.2-0.1,0.5-0.1,0.7h0.2
				c0.1-0.6,0.2-0.8,0.8-0.8v0v0c-0.6,0-0.6,0.1-0.8,0.8l0,0h0h-0.3l0,0c0-0.2,0.1-0.5,0.1-0.7c0-0.2,0.1-0.5,0.1-0.7v0h0h0.2l0,0
				c0.1,0.2,0.2,0.2,0.4,0.2h0h4.4c0.2,0,0.4,0,0.4-0.2l0,0l0,0l0.2,0l0,0c0,0.2-0.1,0.5-0.1,0.7c0,0.2,0,0.5,0,0.7v0l0,0L61,26.3
				l0,0c0-0.3-0.1-0.8-0.6-0.8h-1.4v4.5c0,0.6,0.3,0.7,0.7,0.7h0.2v0L59.9,31L59.9,31z"/>
			<path clip-path="url(#SVGID_2_)" fill="#4A4A4A" d="M61.7,30.7h0.1c0.3,0,0.6,0,0.6-0.5v-4.5c0-0.4-0.3-0.5-0.6-0.5h-0.1v-0.3
				c0.5,0,1.4,0,2.1,0c0.7,0,1.6,0,2.2,0c0,0.4,0,0.9,0,1.3l-0.3,0.1c0-0.6-0.1-1-1-1h-1.2v2.2h1c0.5,0,0.6-0.3,0.7-0.8h0.3
				c0,0.3,0,0.7,0,1c0,0.3,0,0.7,0,1l-0.3,0.1c-0.1-0.5-0.1-0.8-0.7-0.8h-1v2c0,0.6,0.5,0.6,1,0.6c1,0,1.5-0.1,1.7-1l0.2,0.1
				c-0.1,0.5-0.2,0.9-0.3,1.4c-0.6,0-1.5,0-2.3,0c-0.8,0-1.8,0-2.3,0V30.7z"/>
			<path clip-path="url(#SVGID_2_)" fill="#4A4A4A" d="M66.3,30.9c0.1-0.4,0.2-0.9,0.3-1.3l-0.2,0c-0.3,1-0.8,1-1.8,1
				c-0.5,0-1.1,0-1.1-0.6v-2h1.1c0.6,0,0.7,0.4,0.7,0.8l0.2,0c0-0.3,0-0.6,0-0.9c0-0.3,0-0.6,0-1h-0.2c0,0.4-0.2,0.8-0.7,0.8h-1.1
				v-2.3h1.2c0.9,0,1,0.5,1.1,1l0.2,0c0-0.2,0-0.6,0-0.8c0-0.1,0-0.3,0-0.4c-0.6,0-1.5,0-2.2,0c-0.7,0-1.6,0-2.1,0v0.2h0.1
				c0.3,0,0.7,0.1,0.7,0.5v4.5c0,0.5-0.4,0.5-0.7,0.5h-0.1v0.2c0.5,0,1.5,0,2.2,0C64.7,30.9,65.7,30.9,66.3,30.9 M66.3,31
				c-0.6,0-1.5,0-2.3,0c-0.8,0-1.8,0-2.3,0h0v0v-0.3v0h0h0.1c0.3,0,0.6,0,0.6-0.5v-4.5c0-0.4-0.3-0.4-0.6-0.5h-0.2v0v-0.3h0
				c0.5,0,1.4,0,2.1,0c0.7,0,1.6,0,2.2,0h0l0,0c0,0.1,0,0.3,0,0.4c0,0.3,0,0.6,0,0.9l0,0l0,0l-0.3,0.1l0,0c-0.1-0.6-0.1-1-1-1h-1.2
				l0,2.2h1c0.5,0,0.6-0.3,0.6-0.7l0,0h0h0.3l0,0c0,0.3,0,0.7,0,1c0,0.3,0,0.7,0,1l0,0l0,0l-0.3,0.1l0,0c-0.1-0.5-0.1-0.8-0.6-0.8
				l-1,0v2c0,0.5,0.5,0.5,1,0.5c1,0,1.4-0.1,1.7-1l0,0l0,0l0.3,0.1l0,0C66.5,30,66.4,30.5,66.3,31L66.3,31L66.3,31z"/>
			<path clip-path="url(#SVGID_2_)" fill="#4A4A4A" d="M68.8,27.8h0.4c0.9,0,1.3-0.3,1.3-1.3c0-0.8-0.5-1.3-1.3-1.3
				c-0.3,0-0.4,0-0.5,0V27.8z M67.7,25.9c0-0.6-0.3-0.7-0.6-0.7H67v-0.3c0.3,0,0.8,0,1.3,0c0.5,0,0.9,0,1.4,0c1.1,0,2,0.3,2,1.5
				c0,0.8-0.5,1.2-1.2,1.5l1.5,2.2c0.2,0.4,0.4,0.5,0.8,0.5v0.3c-0.3,0-0.6,0-0.8,0c-0.3,0-0.5,0-0.8,0c-0.7-0.9-1.2-1.8-1.8-2.8
				h-0.6V30c0,0.7,0.3,0.7,0.7,0.7h0.2v0.3c-0.5,0-1,0-1.5,0c-0.4,0-0.8,0-1.2,0v-0.3h0.2c0.3,0,0.6-0.1,0.6-0.5V25.9z"/>
			<path clip-path="url(#SVGID_2_)" fill="#4A4A4A" d="M69.3,27.8c0.9,0,1.3-0.3,1.3-1.3c0-0.7-0.5-1.2-1.2-1.2c-0.2,0-0.3,0-0.5,0
				v2.5H69.3z M68.8,27.9L68.8,27.9l0-2.6l0,0c0.1,0,0.2,0,0.5,0c0.8,0,1.3,0.5,1.3,1.3c0,1-0.5,1.4-1.4,1.4H68.8z M68.8,28.1h0.6
				l0,0c0.6,1,1.1,1.9,1.8,2.8c0.3,0,0.5,0,0.8,0c0.3,0,0.5,0,0.8,0v-0.2c-0.4,0-0.6-0.2-0.8-0.5L70.5,28l0,0
				c0.7-0.3,1.2-0.7,1.2-1.5c0-1.2-0.9-1.5-2-1.5c-0.5,0-0.9,0-1.4,0c-0.5,0-1,0-1.3,0v0.2h0.1c0.3,0,0.6,0,0.6,0.7v4.4
				c0,0.3-0.3,0.5-0.6,0.5H67v0.2c0.4,0,0.8,0,1.2,0c0.5,0,1,0,1.4,0v-0.2h-0.1c-0.4,0-0.7,0-0.7-0.7L68.8,28.1L68.8,28.1z M72.8,31
				c-0.3,0-0.6,0-0.8,0c-0.3,0-0.5,0-0.8,0c-0.7-0.9-1.2-1.8-1.8-2.8h-0.5V30c0,0.6,0.3,0.6,0.7,0.7h0.2v0V31h0c-0.5,0-1,0-1.5,0
				c-0.4,0-0.8,0-1.2,0h0v0v-0.3h0h0.2c0.3,0,0.6-0.1,0.6-0.4v-4.4c0-0.6-0.3-0.6-0.6-0.6h-0.2v0v-0.3h0c0.3,0,0.8,0,1.3,0
				c0.5,0,0.9,0,1.4,0c1.1,0,2.1,0.3,2.1,1.5c0,0.8-0.5,1.3-1.2,1.5l1.4,2.2c0.2,0.4,0.4,0.4,0.8,0.5l0,0v0L72.8,31L72.8,31z"/>
			<path clip-path="url(#SVGID_2_)" fill="#4A4A4A" d="M78.7,29.2L78.7,29.2l0-3.2c0-0.7-0.5-0.8-0.7-0.8h-0.2v-0.3
				c0.4,0,0.8,0,1.2,0c0.4,0,0.7,0,1.1,0v0.3h-0.1c-0.4,0-0.8,0.1-0.8,1.1v3.9c0,0.3,0,0.6,0.1,0.9h-0.3l-4.4-4.9v3.5
				c0,0.7,0.1,1,0.8,1h0.1v0.3c-0.4,0-0.7,0-1.1,0c-0.4,0-0.8,0-1.2,0v-0.3h0.1c0.6,0,0.8-0.4,0.8-1.1V26c0-0.5-0.4-0.8-0.8-0.8
				h-0.1v-0.3c0.3,0,0.7,0,1,0c0.3,0,0.5,0,0.8,0L78.7,29.2z"/>
			<path clip-path="url(#SVGID_2_)" fill="#4A4A4A" d="M78.7,29.2L78.7,29.2L78.7,29.2L78.7,29.2z M78.7,29.2L78.7,29.2L78.7,29.2z
				 M78.8,31h0.3c0-0.3,0-0.5,0-0.8v-3.9c0-1,0.4-1.1,0.8-1.1H80V25c-0.3,0-0.7,0-1,0c-0.4,0-0.8,0-1.2,0v0.2h0.2
				c0.3,0,0.8,0.1,0.8,0.8l0,3.2l0,0l0,0L74.9,25c-0.3,0-0.5,0-0.8,0c-0.3,0-0.6,0-1,0v0.2h0.1c0.4,0,0.8,0.3,0.8,0.8v3.6
				c0,0.7-0.2,1.1-0.8,1.1l-0.1,0v0.2c0.4,0,0.8,0,1.1,0c0.4,0,0.7,0,1.1,0v-0.2h-0.1c-0.7,0-0.8-0.3-0.8-1V26L78.8,31z M79.2,31.1
				l-0.4,0l-4.4-4.9v3.4c0,0.7,0.1,1,0.8,1h0.2v0V31h0c-0.4,0-0.7,0-1.1,0c-0.4,0-0.8,0-1.2,0h0v0v-0.3h0h0.1c0.6,0,0.7-0.4,0.7-1.1
				V26c0-0.5-0.4-0.7-0.7-0.7h-0.2v0v-0.3h0c0.3,0,0.7,0,1,0c0.3,0,0.5,0,0.8,0l3.8,4.2V26c0-0.7-0.5-0.8-0.7-0.8h-0.2v0v-0.3h0
				c0.4,0,0.8,0,1.2,0c0.3,0,0.7,0,1.1,0h0v0v0.3h0h-0.1c-0.4,0-0.7,0-0.7,1.1v3.9C79.2,30.5,79.2,30.8,79.2,31.1L79.2,31.1
				L79.2,31.1z"/>
			<path clip-path="url(#SVGID_2_)" fill="#4A4A4A" d="M82.6,25.9L82.6,25.9l-0.8,2.4h1.6L82.6,25.9z M81.4,29.7
				c-0.1,0.3-0.2,0.5-0.2,0.7c0,0.3,0.4,0.3,0.6,0.3h0.1v0.3c-0.3,0-0.7,0-1,0c-0.3,0-0.6,0-0.9,0v-0.3H80c0.3,0,0.6-0.2,0.7-0.6
				l1.4-3.9c0.1-0.3,0.3-0.7,0.3-1.1c0.3-0.1,0.6-0.3,0.8-0.4c0,0,0,0,0.1,0c0,0,0,0,0.1,0c0,0.1,0.1,0.1,0.1,0.2l1.6,4.5
				c0.1,0.3,0.2,0.6,0.3,0.9c0.1,0.2,0.3,0.3,0.6,0.3H86v0.3c-0.4,0-0.8,0-1.2,0c-0.4,0-0.9,0-1.3,0v-0.3h0.1c0.2,0,0.5,0,0.5-0.2
				c0-0.1-0.1-0.3-0.2-0.6l-0.3-1h-1.9L81.4,29.7z"/>
			<path clip-path="url(#SVGID_2_)" fill="#4A4A4A" d="M82.6,25.9L82.6,25.9L82.6,25.9z M81.9,28.3h1.5L82.6,26L81.9,28.3z
				 M81.8,28.4l0.8-2.5h0h0v0l0,0l0,0v0h0l0.8,2.5H81.8z M83.5,30.9c0.4,0,0.8,0,1.3,0c0.4,0,0.8,0,1.1,0v-0.2h0
				c-0.3,0-0.5-0.1-0.6-0.4c-0.1-0.3-0.2-0.6-0.3-0.9L83.4,25c0-0.1-0.1-0.1-0.1-0.2c0,0,0,0,0,0h0c0,0,0,0,0,0
				c-0.2,0.1-0.5,0.3-0.8,0.3c-0.1,0.3-0.2,0.8-0.3,1.1l-1.4,3.9c-0.1,0.4-0.4,0.6-0.8,0.6h0v0.2c0.3,0,0.6,0,0.9,0c0.3,0,0.7,0,1,0
				v-0.2h-0.1c-0.3,0-0.7,0-0.7-0.3c0-0.2,0.1-0.4,0.2-0.7l0,0l0,0l0.3-0.9h2l0.3,1c0.1,0.3,0.2,0.5,0.2,0.6c0,0.3-0.4,0.3-0.6,0.3
				h-0.1V30.9z M86,31c-0.4,0-0.8,0-1.2,0c-0.4,0-0.8,0-1.3,0l0,0v0v-0.3h0h0.1c0.2,0,0.5,0,0.5-0.2c0-0.1-0.1-0.3-0.2-0.6l-0.3-1
				h-1.9l-0.3,0.9c-0.1,0.3-0.2,0.5-0.2,0.7c0,0.2,0.3,0.3,0.6,0.3H82v0V31l0,0c-0.3,0-0.7,0-1,0c-0.3,0-0.6,0-0.9,0l0,0v0v-0.3h0
				H80c0.3,0,0.6-0.2,0.7-0.5l1.4-3.9c0.1-0.3,0.3-0.7,0.3-1.1c0.3-0.1,0.6-0.3,0.8-0.4c0,0,0,0,0.1,0c0,0,0.1,0,0.1,0.1
				c0,0.1,0.1,0.1,0.1,0.2l1.6,4.5c0.1,0.3,0.2,0.6,0.3,0.9c0.1,0.2,0.3,0.3,0.5,0.3H86v0L86,31L86,31z"/>
			<path clip-path="url(#SVGID_2_)" fill="#4A4A4A" d="M86.3,25.4c-0.6,0-0.7,0.2-0.8,0.8h-0.3c0-0.2,0.1-0.5,0.1-0.7
				c0-0.2,0.1-0.5,0.1-0.7h0.2c0.1,0.3,0.3,0.2,0.5,0.2h4.4c0.2,0,0.4,0,0.5-0.3l0.2,0c0,0.2-0.1,0.5-0.1,0.7c0,0.2,0,0.5,0,0.7
				l-0.3,0.1c0-0.3-0.1-0.8-0.6-0.8h-1.4v4.6c0,0.7,0.3,0.7,0.7,0.7h0.2v0.3c-0.3,0-0.9,0-1.4,0c-0.5,0-1.1,0-1.5,0v-0.3H87
				c0.5,0,0.7,0,0.7-0.7v-4.6H86.3z"/>
			<path clip-path="url(#SVGID_2_)" fill="#4A4A4A" d="M89.7,31c-0.3,0-0.9,0-1.4,0c-0.5,0-1.1,0-1.5,0h0v0v-0.3h0H87
				c0.5,0,0.7,0,0.7-0.7l0-4.5h-1.4v0v0h1.4V30c0,0.7-0.3,0.8-0.7,0.8h-0.1v0.2c0.3,0,0.9,0,1.4,0C88.8,30.9,89.4,30.9,89.7,31
				l0-0.3h-0.1c-0.4,0-0.7-0.1-0.7-0.8v-4.6h1.4c0.6,0,0.7,0.5,0.7,0.8l0.2-0.1c0-0.2,0-0.4,0-0.7c0-0.2,0.1-0.4,0.1-0.7l-0.1,0
				c0,0.2-0.3,0.3-0.5,0.3h-4.4h0c-0.2,0-0.4,0-0.5-0.3h-0.1c0,0.2,0,0.5-0.1,0.7c0,0.2-0.1,0.5-0.1,0.7h0.2
				c0.1-0.6,0.2-0.8,0.8-0.8v0v0c-0.6,0-0.6,0.1-0.8,0.8l0,0h0h-0.3l0,0c0-0.2,0.1-0.5,0.1-0.7c0-0.2,0.1-0.5,0.1-0.7v0h0h0.2l0,0
				c0.1,0.2,0.2,0.2,0.4,0.2c0,0,0,0,0,0h4.4c0.2,0,0.4,0,0.4-0.2l0,0l0,0l0.2,0l0,0c0,0.2-0.1,0.5-0.1,0.7c0,0.2,0,0.5,0,0.7v0l0,0
				l-0.3,0.1l0,0c0-0.3-0.1-0.8-0.6-0.8h-1.4v4.5c0,0.6,0.3,0.7,0.7,0.7h0.2v0L89.7,31L89.7,31z"/>
			<path clip-path="url(#SVGID_2_)" fill="#4A4A4A" d="M91.6,30.7h0.1c0.3,0,0.6,0,0.6-0.5v-4.5c0-0.4-0.3-0.5-0.6-0.5h-0.1v-0.3
				c0.3,0,0.8,0,1.3,0c0.4,0,0.9,0,1.3,0v0.3h-0.1c-0.3,0-0.6,0-0.6,0.5v4.5c0,0.4,0.3,0.5,0.6,0.5h0.1v0.3c-0.4,0-0.9,0-1.4,0
				c-0.4,0-0.9,0-1.3,0V30.7z"/>
			<path clip-path="url(#SVGID_2_)" fill="#4A4A4A" d="M94.2,30.9v-0.2h-0.1c-0.3,0-0.7-0.1-0.7-0.5v-4.5c0-0.5,0.4-0.5,0.7-0.5h0.1
				V25c-0.4,0-0.9,0-1.3,0c-0.4,0-0.9,0-1.2,0v0.2h0.1c0.3,0,0.7,0.1,0.7,0.5v4.5c0,0.5-0.4,0.5-0.7,0.5h-0.1v0.2c0.3,0,0.8,0,1.2,0
				C93.3,30.9,93.8,30.9,94.2,30.9 M94.2,31c-0.4,0-0.9,0-1.4,0c-0.4,0-0.9,0-1.3,0h0v0v-0.3v0h0h0.1c0.3,0,0.6,0,0.6-0.5v-4.5
				c0-0.4-0.3-0.4-0.6-0.5h-0.2v0v-0.3h0c0.3,0,0.9,0,1.3,0c0.4,0,0.9,0,1.3,0h0v0v0.3h0h-0.1c-0.3,0-0.6,0-0.6,0.5v4.5
				c0,0.4,0.3,0.4,0.6,0.5h0.2v0L94.2,31L94.2,31z"/>
			<path clip-path="url(#SVGID_2_)" fill="#4A4A4A" d="M97.8,30.7c1.7,0,2-1.5,2-2.7c0-1.3-0.7-2.8-2.1-2.8c-1.5,0-1.9,1.3-1.9,2.5
				C95.7,29.2,96.4,30.7,97.8,30.7 M97.6,24.8c1.8,0,3.3,1.1,3.3,3c0,2-1.4,3.3-3.2,3.3c-1.8,0-3.2-1.2-3.2-3.1
				C94.5,26.2,95.8,24.8,97.6,24.8"/>
			<path clip-path="url(#SVGID_2_)" fill="#4A4A4A" d="M95.6,27.7c0-1.2,0.5-2.5,2-2.5c1.5,0,2.1,1.6,2.1,2.8c0,1.3-0.3,2.8-2,2.8v0
				v0c1.6,0,1.9-1.4,1.9-2.7c0-1.2-0.7-2.7-2.1-2.7C96.1,25.2,95.7,26.5,95.6,27.7c0.1,1.5,0.8,3,2.1,3v0v0
				C96.3,30.7,95.6,29.2,95.6,27.7 M94.4,28c0-1.8,1.4-3.2,3.2-3.2v0v0C95.9,24.9,94.5,26.2,94.4,28c0.1,1.8,1.4,3,3.2,3
				c1.8,0,3.2-1.3,3.2-3.3c0-1.8-1.4-2.9-3.3-2.9v0v0c1.8,0,3.3,1.1,3.3,3c0,2-1.4,3.3-3.3,3.3C95.8,31.1,94.4,29.9,94.4,28"/>
			<path clip-path="url(#SVGID_2_)" fill="#4A4A4A" d="M106.7,29.2L106.7,29.2l0-3.2c0-0.7-0.5-0.8-0.7-0.8h-0.2v-0.3
				c0.4,0,0.8,0,1.2,0c0.4,0,0.7,0,1.1,0v0.3h-0.1c-0.4,0-0.8,0.1-0.8,1.1v3.9c0,0.3,0,0.6,0.1,0.9h-0.3l-4.4-4.9v3.5
				c0,0.7,0.1,1,0.8,1h0.1v0.3c-0.4,0-0.7,0-1.1,0c-0.4,0-0.8,0-1.2,0v-0.3h0.1c0.6,0,0.8-0.4,0.8-1.1V26c0-0.5-0.4-0.8-0.8-0.8
				h-0.1v-0.3c0.3,0,0.7,0,1,0c0.3,0,0.5,0,0.8,0L106.7,29.2z"/>
			<path clip-path="url(#SVGID_2_)" fill="#4A4A4A" d="M106.7,29.2L106.7,29.2L106.7,29.2L106.7,29.2z M106.7,29.2L106.7,29.2
				L106.7,29.2z M106.9,31h0.3c0-0.3,0-0.5,0-0.8v-3.9c0-1,0.4-1.1,0.8-1.1h0.1V25c-0.3,0-0.7,0-1,0c-0.4,0-0.8,0-1.2,0v0.2h0.2
				c0.3,0,0.8,0.1,0.8,0.8l0,3.2l0,0l0,0l-3.8-4.3c-0.3,0-0.5,0-0.8,0c-0.3,0-0.6,0-1,0v0.2h0.1c0.4,0,0.8,0.3,0.8,0.8v3.6
				c0,0.7-0.2,1.1-0.8,1.1l-0.1,0v0.2c0.4,0,0.8,0,1.1,0c0.4,0,0.7,0,1.1,0v-0.2h-0.1c-0.7,0-0.8-0.3-0.8-1V26L106.9,31z
				 M107.2,31.1l-0.4,0l-4.4-4.9v3.4c0,0.7,0.1,1,0.8,1h0.2v0V31h0c-0.4,0-0.7,0-1.1,0c-0.4,0-0.8,0-1.2,0h0v0v-0.3h0h0.1
				c0.6,0,0.7-0.4,0.7-1.1V26c0-0.5-0.4-0.7-0.7-0.7h-0.1v0v-0.3h0c0.3,0,0.7,0,1,0c0.3,0,0.5,0,0.8,0l3.8,4.2V26
				c0-0.7-0.5-0.8-0.7-0.8h-0.2v0v-0.3h0c0.4,0,0.8,0,1.2,0c0.4,0,0.7,0,1.1,0h0v0v0.3h0h-0.1c-0.4,0-0.7,0-0.7,1.1v3.9
				C107.2,30.5,107.2,30.8,107.2,31.1L107.2,31.1L107.2,31.1z"/>
			<path clip-path="url(#SVGID_2_)" fill="#4A4A4A" d="M110.7,25.9L110.7,25.9l-0.8,2.4h1.6L110.7,25.9z M109.4,29.7
				c-0.1,0.3-0.2,0.5-0.2,0.7c0,0.3,0.4,0.3,0.6,0.3h0.1v0.3c-0.3,0-0.7,0-1,0c-0.3,0-0.6,0-0.9,0v-0.3h0c0.3,0,0.6-0.2,0.7-0.6
				l1.4-3.9c0.1-0.3,0.3-0.7,0.3-1.1c0.3-0.1,0.6-0.3,0.8-0.4c0,0,0,0,0.1,0c0,0,0,0,0.1,0c0,0.1,0.1,0.1,0.1,0.2l1.6,4.5
				c0.1,0.3,0.2,0.6,0.3,0.9c0.1,0.2,0.3,0.3,0.6,0.3h0.1v0.3c-0.4,0-0.8,0-1.2,0c-0.4,0-0.8,0-1.3,0v-0.3h0.1c0.2,0,0.5,0,0.5-0.2
				c0-0.1-0.1-0.3-0.2-0.6l-0.3-1h-1.9L109.4,29.7z"/>
			<path clip-path="url(#SVGID_2_)" fill="#4A4A4A" d="M110.6,25.9L110.6,25.9L110.6,25.9z M109.9,28.3h1.5l-0.7-2.3L109.9,28.3z
				 M109.8,28.4l0.8-2.5h0h0v0l0,0l0,0v0h0l0.8,2.5H109.8z M111.6,30.9c0.4,0,0.8,0,1.3,0c0.4,0,0.8,0,1.1,0l0-0.2h0
				c-0.3,0-0.5-0.1-0.6-0.4c-0.1-0.3-0.2-0.6-0.3-0.9l-1.6-4.5c0-0.1-0.1-0.1-0.1-0.2c0,0,0,0,0,0h0c0,0,0,0,0,0
				c-0.2,0.1-0.5,0.3-0.8,0.3c-0.1,0.3-0.2,0.8-0.3,1.1l-1.4,3.9c-0.1,0.4-0.4,0.6-0.8,0.6h0v0.2c0.3,0,0.6,0,0.9,0c0.3,0,0.7,0,1,0
				v-0.2h-0.1c-0.3,0-0.7,0-0.7-0.3c0-0.2,0.1-0.4,0.2-0.7l0,0l0,0l0.3-0.9h2l0.3,1c0.1,0.3,0.2,0.5,0.2,0.6c0,0.3-0.4,0.3-0.6,0.3
				h-0.1V30.9z M114,31c-0.4,0-0.8,0-1.2,0c-0.4,0-0.8,0-1.3,0l0,0v0v-0.3h0h0.1c0.2,0,0.5,0,0.5-0.2c0-0.1-0.1-0.3-0.2-0.6l-0.3-1
				h-1.9l-0.3,0.9c-0.1,0.3-0.2,0.5-0.2,0.7c0,0.2,0.3,0.3,0.6,0.3h0.1v0V31l0,0c-0.3,0-0.7,0-1,0c-0.3,0-0.6,0-0.9,0l0,0v0v-0.3h0
				h0c0.3,0,0.6-0.2,0.7-0.5l1.4-3.9c0.1-0.3,0.3-0.7,0.3-1.1c0.3-0.1,0.6-0.3,0.8-0.4c0,0,0,0,0.1,0c0,0,0.1,0,0.1,0.1
				c0,0.1,0.1,0.1,0.1,0.2l1.6,4.5c0.1,0.3,0.2,0.6,0.3,0.9c0.1,0.2,0.3,0.3,0.5,0.3h0.1v0L114,31L114,31z"/>
			<path clip-path="url(#SVGID_2_)" fill="#4A4A4A" d="M116.2,30.1c0,0.3,0.2,0.4,0.5,0.5c0.4,0,0.7,0,1.1,0c0.4,0,0.7-0.2,0.8-0.5
				c0.1-0.2,0.2-0.4,0.3-0.6h0.2c-0.1,0.5-0.2,1-0.3,1.5c-0.8,0-1.5,0-2.3,0c-0.8,0-1.5,0-2.3,0v-0.3h0.1c0.3,0,0.6,0,0.6-0.6v-4.4
				c0-0.4-0.3-0.5-0.6-0.5h-0.1v-0.3c0.5,0,0.9,0,1.4,0c0.4,0,0.9,0,1.3,0v0.3h-0.2c-0.3,0-0.6,0-0.6,0.5V30.1z"/>
			<path clip-path="url(#SVGID_2_)" fill="#4A4A4A" d="M118.8,30.9c0.1-0.5,0.2-0.9,0.3-1.4h-0.2c-0.1,0.2-0.1,0.4-0.3,0.6
				c-0.2,0.2-0.5,0.4-0.9,0.5c-0.2,0-0.4,0-0.7,0c-0.2,0-0.3,0-0.5,0c-0.3,0-0.6-0.2-0.5-0.5v-4.4c0-0.5,0.3-0.5,0.6-0.5h0.2V25
				c-0.4,0-0.8,0-1.3,0c-0.4,0-0.9,0-1.3,0v0.2h0.1c0.3,0,0.7,0.1,0.7,0.5v4.4c0,0.6-0.4,0.6-0.7,0.6h-0.1v0.2c0.7,0,1.5,0,2.2,0
				C117.3,30.9,118.1,30.9,118.8,30.9 M118.8,31c-0.8,0-1.5,0-2.3,0c-0.8,0-1.5,0-2.3,0h0v0v-0.3h0h0.1c0.3,0,0.6,0,0.6-0.5v-4.4
				c0-0.4-0.3-0.4-0.6-0.5h-0.2v0v-0.3h0c0.5,0,0.9,0,1.4,0c0.4,0,0.9,0,1.3,0h0v0v0.3h0h-0.2c-0.3,0-0.5,0-0.5,0.4v4.4
				c0,0.3,0.2,0.4,0.5,0.4c0.2,0,0.3,0,0.5,0c0.2,0,0.4,0,0.6,0c0.3,0,0.7-0.2,0.8-0.4c0.1-0.2,0.2-0.4,0.3-0.6l0,0h0h0.3l0,0
				C119.1,30,119,30.5,118.8,31L118.8,31L118.8,31z"/>
			<path clip-path="url(#SVGID_2_)" fill="#4A4A4A" d="M118.9,25.6h0.1c0.1,0,0.2-0.1,0.2-0.2c0-0.1-0.1-0.2-0.2-0.2h-0.1V25.6z
				 M118.6,26.1L118.6,26.1c0.1-0.1,0.1-0.1,0.1-0.1v-0.7c0-0.1,0-0.1-0.1-0.1v0h0.5c0.2,0,0.3,0.1,0.3,0.2c0,0.1-0.1,0.2-0.2,0.3
				l0.1,0.2c0.1,0.1,0.1,0.2,0.2,0.2v0h-0.2c-0.1,0-0.2-0.2-0.3-0.4h-0.1V26c0,0.1,0,0.1,0.1,0.1v0H118.6z M119,26.3
				c0.4,0,0.7-0.3,0.7-0.7c0-0.4-0.3-0.7-0.7-0.7c-0.4,0-0.7,0.3-0.7,0.7C118.3,26,118.6,26.3,119,26.3 M119,24.7
				c0.5,0,0.9,0.4,0.9,0.9c0,0.5-0.4,0.9-0.9,0.9c-0.5,0-0.9-0.4-0.9-0.9C118.1,25.1,118.5,24.7,119,24.7"/>
		</g>
	</g>
</g>
</svg>
