<?xml version="1.0" encoding="utf-8"?>
<!-- Generator: Adobe Illustrator 18.0.0, SVG Export Plug-In . SVG Version: 6.00 Build 0)  -->
<!DOCTYPE svg PUBLIC "-//W3C//DTD SVG 1.1//EN" "http://www.w3.org/Graphics/SVG/1.1/DTD/svg11.dtd">
<svg version="1.1" id="Layer_1" xmlns="http://www.w3.org/2000/svg" xmlns:xlink="http://www.w3.org/1999/xlink" x="0px" y="0px"
	 viewBox="0 0 64.6 30" enable-background="new 0 0 64.6 30" xml:space="preserve">
<g>
	<g>
		<g>
			<path fill="#FFFFFF" d="M6.2,2.6H2.6v4.6H5v2.6H2.6v7.7H0V0h6.1L6.2,2.6L6.2,2.6z"/>
			<path fill="#FFFFFF" d="M11.8,17.6l-1.3-7.4H9.8v7.4H7.3V0h2.6c3.1,0,4.4,1.8,4.4,5.1c0,1.8-0.5,3.3-1.5,4l1.6,8.5L11.8,17.6
				L11.8,17.6z M9.8,7.7c0.4,0,0.9-0.1,1.2-0.4s0.7-1,0.7-2.2c0-1.2-0.3-1.9-0.7-2.2s-0.9-0.4-1.2-0.4V7.7z"/>
			<path fill="#FFFFFF" d="M15.9,0h5.9v2.6h-3.3v4.6h2.4v2.8h-2.4v4.8h3.3v2.6h-5.9L15.9,0L15.9,0z"/>
			<path fill="#FFFFFF" d="M23.2,0h5.9v2.6h-3.3v4.6h2.4v2.8h-2.4v4.8h3.3v2.6h-5.9V0L23.2,0z"/>
		</g>
		<g>
			<path fill="#FFFFFF" d="M42.8,12.6c-1.5,0-2.6,1.2-2.6,2.6s1.2,2.6,2.6,2.6c1.5,0,2.6-1.2,2.6-2.6S44.2,12.6,42.8,12.6z
				 M42.8,16.5c-0.7,0-1.3-0.6-1.3-1.3c0-0.7,0.5-1.3,1.3-1.3c0.7,0,1.3,0.5,1.3,1.3C44.1,15.9,43.5,16.5,42.8,16.5z M62.3,10.7v2.8
				c0,0.7-0.5,1.2-1.2,1.2h-1.3c-0.2-1.6-1.7-2.9-3.4-2.9c-1.7,0-3.2,1.3-3.4,2.9h-6.8c-0.2-1.6-1.7-2.9-3.4-2.9s-3.2,1.3-3.4,2.9
				h-1.6c-0.7,0-1.2-0.5-1.2-1.2v-2.8H62.3L62.3,10.7z M56.4,12.6c-1.5,0-2.6,1.2-2.6,2.6s1.2,2.6,2.6,2.6c1.5,0,2.6-1.2,2.6-2.6
				C58.9,13.8,57.8,12.6,56.4,12.6z M56.4,16.5c-0.7,0-1.3-0.6-1.3-1.3c0-0.7,0.5-1.3,1.3-1.3c0.7,0,1.3,0.5,1.3,1.3
				C57.7,15.9,57.1,16.5,56.4,16.5z M61.9,7.9L56.9,3c-0.3-0.3-0.7-0.5-1.2-0.5h-2.5V1.6c0-0.7-0.5-1.2-1.2-1.2H37.7
				c-0.7,0-1.2,0.5-1.2,1.2v0.2l-5.1,0.6l9,1.2l-9.1,0.9l9,1.3l-9,0.8l5.2,1v2.5h25.9V9.1C62.3,8.6,62.2,8.2,61.9,7.9z M59.7,8h-4.8
				c-0.1,0-0.2-0.1-0.2-0.2V4.2c0-0.1,0.1-0.2,0.2-0.2h0.9c0.1,0,0.1,0,0.2,0.1l3.9,3.7C60,7.8,59.8,8,59.7,8z"/>
		</g>
		<g>
			<path fill="#FFFFFF" d="M0.2,20.1h2.4c1.3,0,2.3,0.1,3,0.3c0.6,0.2,1.2,0.5,1.7,1.1C7.7,22,8,22.4,8.2,23
				c0.2,0.5,0.3,1.2,0.3,1.9c0,0.8-0.1,1.4-0.3,2c-0.2,0.5-0.5,1.1-0.9,1.5c-0.5,0.5-1,0.9-1.7,1.1c-0.7,0.2-1.6,0.3-2.9,0.3H0.2
				V20.1z M2.5,22v6h0.9c0.9,0,1.6-0.2,2.1-0.8C5.9,26.7,6.1,26,6.1,25c0-1-0.2-1.7-0.7-2.2C4.9,22.2,4.3,22,3.2,22L2.5,22L2.5,22z"
				/>
			<path fill="#FFFFFF" d="M10.2,20.1h6.1V22h-3.9v1.9h3.6v1.9h-3.6v2.2h4V30h-6.3V20.1z"/>
			<path fill="#FFFFFF" d="M18.5,20.1h2.2V28h4v1.9h-6.3V20.1z"/>
			<path fill="#FFFFFF" d="M26.1,20.1h2.3v9.8h-2.3V20.1z"/>
			<path fill="#FFFFFF" d="M29.6,20.1h2.3l2.3,7.2l2.3-7.2h2.3l-3.2,9.8h-2.7L29.6,20.1z"/>
			<path fill="#FFFFFF" d="M40,20.1h6.1V22h-3.9v1.9h3.6v1.9h-3.6v2.2h4V30H40V20.1z"/>
			<path fill="#FFFFFF" d="M50.6,26.2v3.7h-2.2v-9.8h3.5c1.2,0,2,0.2,2.6,0.6c0.5,0.5,0.8,1.1,0.8,2.1c0,0.6-0.2,1.2-0.4,1.6
				c-0.2,0.5-0.7,0.7-1.2,0.9c0.3,0.1,0.6,0.2,0.9,0.5c0.2,0.3,0.5,0.7,0.8,1.2l1.2,2.8H54l-1.1-2.4c-0.2-0.5-0.5-0.9-0.7-1
				c-0.2-0.2-0.5-0.2-0.9-0.2L50.6,26.2L50.6,26.2z M51.5,24.4c0.5,0,0.9-0.1,1-0.3c0.2-0.2,0.3-0.5,0.3-1s-0.1-0.8-0.3-0.9
				c-0.2-0.2-0.5-0.3-1-0.3h-0.9v2.5L51.5,24.4L51.5,24.4z"/>
			<path fill="#FFFFFF" d="M55.6,20.1h2.5l2,3.5l2-3.5h2.5l-3.3,5.6v4.1H59v-4.1L55.6,20.1z"/>
		</g>
	</g>
</g>
</svg>
