<?xml version="1.0" encoding="utf-8"?>
<!-- Generator: Adobe Illustrator 18.0.0, SVG Export Plug-In . SVG Version: 6.00 Build 0)  -->
<!DOCTYPE svg PUBLIC "-//W3C//DTD SVG 1.1//EN" "http://www.w3.org/Graphics/SVG/1.1/DTD/svg11.dtd">
<svg version="1.1" id="Layer_1" xmlns="http://www.w3.org/2000/svg" xmlns:xlink="http://www.w3.org/1999/xlink" x="0px" y="0px"
	 viewBox="0 0 47.8 30" enable-background="new 0 0 47.8 30" xml:space="preserve">
<g>
	<g>
		<defs>
			<rect id="SVGID_60_" x="0" y="0" width="47.8" height="30"/>
		</defs>
		<clipPath id="SVGID_1_">
			<use xlink:href="#SVGID_60_"  overflow="visible"/>
		</clipPath>
		<rect x="0" y="0" clip-path="url(#SVGID_1_)" fill="#3C3C3C" width="47.8" height="30"/>
		<g clip-path="url(#SVGID_1_)">
			<defs>
				<rect id="SVGID_62_" x="0" y="0" width="47.8" height="30"/>
			</defs>
			<clipPath id="SVGID_2_">
				<use xlink:href="#SVGID_62_"  overflow="visible"/>
			</clipPath>
			<path clip-path="url(#SVGID_2_)" fill="#9B9B9B" d="M19.5,15c0-7.4,6-13.3,13.3-13.3s13.3,6,13.3,13.3c0,7.4-6,13.3-13.3,13.3
				S19.5,22.4,19.5,15"/>
			<path clip-path="url(#SVGID_2_)" fill="#5F5F5F" d="M23.9,5.1c0,0-0.7,0.6-1.2,1.2h2.4c0,0,0.8,0.9,1.1,1.5h-4.6
				c0,0-0.4,0.7-0.7,1.3h6.1c0,0,0.6,1,0.7,1.6h-7.4c0,0-0.3,0.7-0.4,1.3l8.2,0c0.2,1,0.8,4-0.4,7.3l-7.4,0c0.1,0.4,0.3,0.9,0.5,1.3
				H27c-0.3,0.5-0.6,1.2-0.8,1.5l-4.7,0c0.2,0.4,0.6,1,0.9,1.2l2.9,0c-0.5,0.7-1.5,1.5-1.5,1.5h0l0,0c-2.4,2.1-5.5,3.4-8.9,3.4
				c-7.4,0-13.3-6-13.3-13.3c0-7.4,6-13.3,13.3-13.3C18.4,1.7,21.5,3,23.9,5.1"/>
			<path clip-path="url(#SVGID_2_)" fill="#3C3C3C" d="M17.3,13.2l-0.2,1.2l-1.2,0c0,0-0.6,0.2-0.6,0.4c0,0.2,0.4,0.6,1.1,0.8
				c0.6,0.3,0.7,1,0.6,1.6c-0.1,0.5-0.2,1.6-2,1.7c-1.1,0-1.7-0.2-1.7-0.2l0.2-1.2c0,0,1.4,0.4,1.7,0.2c0.3-0.2,0.7-0.6,0.1-0.8
				c-0.6-0.2-1.5-0.6-1.5-1.6s0.4-1.5,1-1.8C15.4,13,16.5,13,17.3,13.2"/>
			<polygon clip-path="url(#SVGID_2_)" fill="#3C3C3C" points="8.1,18.6 6.7,18.6 7.5,14 5.8,18.6 4.9,18.6 4.6,13.8 3.8,18.6 
				2.5,18.6 3.7,11.5 5.3,11.5 5.9,15.6 7.7,11.5 9.3,11.5 			"/>
			<path clip-path="url(#SVGID_2_)" fill="#3C3C3C" d="M18.5,18.7c-0.4,0-0.8-0.1-0.9-0.3c-0.2-0.2-0.3-0.5-0.3-0.9
				c0-0.1,0-0.2,0-0.3c0-0.1,0-0.2,0-0.3l0.8-4.6h1.3l-0.2,0.9h1.2l-0.2,1.1H19l-0.3,1.9c0,0.1,0,0.3-0.1,0.4c0,0.1,0,0.3,0,0.3
				c0,0.2,0,0.3,0.1,0.4c0.1,0.1,0.2,0.1,0.4,0.1c0.1,0,0.1,0,0.3,0c0.1,0,0.2-0.1,0.3-0.1h0.1l-0.2,1.1c-0.1,0.1-0.3,0.1-0.5,0.1
				C18.9,18.7,18.7,18.7,18.5,18.7"/>
			<path clip-path="url(#SVGID_2_)" fill="#3C3C3C" d="M27.6,14.8c-0.3-0.2-0.9-0.2-1,0.3L26,18.6h-1.3l0.9-5.4h1.3l0,0.4
				c0.2-0.2,0.5-0.4,1.2-0.4C28.1,13.3,27.7,14.1,27.6,14.8"/>
			<path clip-path="url(#SVGID_2_)" fill="#3C3C3C" d="M30,18.8c-0.7,0-1.3-0.2-1.6-0.7c-0.4-0.5-0.6-1.2-0.6-2
				c0-0.7,0.1-1.3,0.3-1.9c0.2-0.6,0.4-1.1,0.7-1.5c0.3-0.4,0.6-0.7,1.1-0.9c0.4-0.2,0.8-0.3,1.3-0.3c0.4,0,0.7,0.1,1,0.2
				c0.2,0.1,0.4,0.2,0.4,0.2l-0.3,1.7c-0.1-0.2-0.3-0.3-0.4-0.4c-0.2-0.1-0.5-0.2-0.8-0.2c-0.5,0-1,0.3-1.3,0.9
				c-0.3,0.6-0.5,1.3-0.5,2.2c0,0.6,0.1,1,0.3,1.2c0.2,0.2,0.5,0.4,0.8,0.4c0.3,0,0.6-0.1,0.9-0.3c0.1-0.1,0.3-0.2,0.4-0.3l-0.3,1.6
				c0,0-0.2,0.1-0.2,0.1c-0.2,0.1-0.3,0.1-0.5,0.2C30.5,18.7,30.3,18.8,30,18.8"/>
			<path clip-path="url(#SVGID_2_)" fill="#3C3C3C" d="M11.2,18.4c-0.1,0-0.1,0.1-0.1,0.1c-0.1,0.1-0.3,0.1-0.4,0.2
				c-0.1,0-0.3,0.1-0.5,0.1c-0.3,0-0.6-0.1-0.8-0.4c-0.2-0.3-0.3-0.6-0.3-1c0-0.4,0.1-0.8,0.2-1.1c0.1-0.3,0.4-0.5,0.7-0.7
				c0.3-0.2,0.6-0.3,1-0.4l0.3,0c0.3-0.1,0.6-0.1,1-0.1c0,0,0-0.1,0-0.1c0,0,0-0.1,0-0.1c0-0.2-0.1-0.4-0.2-0.5
				c-0.2-0.1-0.4-0.1-0.7-0.1h-0.1c-0.2,0-0.4,0.1-0.6,0.1c-0.3,0.1-0.4,0.2-0.6,0.2H9.9l0.2-1.3c0.1-0.1,0.4-0.1,0.7-0.2
				c0.1,0,0.3-0.1,0.4-0.1c0.2,0,0.3,0,0.5,0c0.6,0,1.1,0.1,1.4,0.3c0.3,0.2,0.4,0.6,0.4,1c0,0.1,0,0.1,0,0.2c0,0.1,0,0.2,0,0.3
				l-0.6,3.7h-1.3l0.1-0.6c-0.1,0.1-0.2,0.2-0.3,0.3C11.3,18.4,11.2,18.4,11.2,18.4 M11.2,16.2c-0.1,0-0.3,0.1-0.3,0.1
				c-0.1,0.1-0.3,0.2-0.3,0.3c-0.1,0.1-0.1,0.3-0.1,0.5c0,0.2,0.1,0.3,0.1,0.4c0.1,0.1,0.2,0.1,0.4,0.1c0.1,0,0.1,0,0.2,0
				c0.1,0,0.1,0,0.2-0.1c0.1-0.1,0.3-0.2,0.4-0.3l0.2-1.1c-0.2,0-0.4,0.1-0.6,0.1C11.3,16.2,11.2,16.2,11.2,16.2"/>
			<path clip-path="url(#SVGID_2_)" fill="#3C3C3C" d="M22.2,14.2c-0.2,0-0.3,0.1-0.5,0.3c-0.2,0.2-0.3,0.5-0.4,0.8h0.9H23
				c0-0.1,0-0.1,0-0.2c0,0,0-0.1,0-0.1c0-0.3-0.1-0.4-0.2-0.6c-0.1-0.1-0.3-0.2-0.5-0.2C22.3,14.2,22.3,14.2,22.2,14.2 M22.2,17.6
				h0.2c0.3,0,0.5-0.1,0.8-0.2c0.2-0.1,0.5-0.3,0.6-0.4H24l-0.2,1.4c-0.2,0.1-0.5,0.3-0.8,0.3c-0.2,0.1-0.5,0.1-0.7,0.1h-0.1
				c-0.7,0-1.2-0.2-1.6-0.6c-0.4-0.4-0.5-1-0.5-1.7c0-0.5,0.1-0.9,0.2-1.3c0.1-0.4,0.3-0.8,0.5-1.1c0.2-0.3,0.5-0.5,0.8-0.7
				c0.2-0.1,0.5-0.2,0.7-0.2c0.1,0,0.2,0,0.3,0c0.6,0,1,0.2,1.3,0.5c0.3,0.3,0.4,0.8,0.4,1.4c0,0.2,0,0.4,0,0.6
				c0,0.2-0.1,0.4-0.1,0.6h-2h-1v0.1v0.1c0,0.4,0.1,0.7,0.3,0.9C21.7,17.4,21.9,17.5,22.2,17.6"/>
			<path clip-path="url(#SVGID_2_)" fill="#3C3C3C" d="M34.1,18.4c-0.1,0-0.1,0.1-0.2,0.1c-0.1,0.1-0.3,0.1-0.4,0.2
				c-0.1,0-0.3,0.1-0.5,0.1c-0.3,0-0.6-0.1-0.8-0.4c-0.2-0.3-0.3-0.6-0.3-1c0-0.4,0.1-0.8,0.2-1.1c0.1-0.3,0.4-0.5,0.7-0.7
				c0.3-0.2,0.6-0.3,1-0.4c0.1,0,0.2,0,0.3,0c0.3-0.1,0.6-0.1,1-0.1c0,0,0-0.1,0-0.1c0,0,0-0.1,0-0.1c0-0.2-0.1-0.4-0.2-0.5
				c-0.2-0.1-0.4-0.1-0.7-0.1h-0.1c-0.2,0-0.4,0.1-0.6,0.1c-0.3,0.1-0.4,0.2-0.6,0.2h-0.1l0.2-1.3c0.1-0.1,0.4-0.1,0.7-0.2
				c0.1,0,0.3-0.1,0.4-0.1c0.2,0,0.3,0,0.5,0c0.6,0,1.1,0.1,1.4,0.3c0.3,0.2,0.4,0.6,0.4,1c0,0.1,0,0.1,0,0.2c0,0.1,0,0.2,0,0.3
				l-0.6,3.7h-1.3l0.1-0.6c-0.1,0.1-0.2,0.2-0.3,0.3L34.1,18.4z M34.1,16.2c-0.1,0-0.3,0.1-0.4,0.1c-0.1,0.1-0.3,0.2-0.3,0.3
				c-0.1,0.1-0.1,0.3-0.1,0.5c0,0.2,0.1,0.3,0.2,0.4c0.1,0.1,0.2,0.1,0.4,0.1c0.1,0,0.1,0,0.2,0c0.1,0,0.1,0,0.2-0.1
				c0.1-0.1,0.3-0.2,0.4-0.3l0.2-1.1c-0.2,0-0.4,0.1-0.6,0.1C34.2,16.2,34.2,16.2,34.1,16.2"/>
			<path clip-path="url(#SVGID_2_)" fill="#3C3C3C" d="M39.5,14.8c-0.3-0.2-0.9-0.2-1,0.3l-0.6,3.6h-1.3l0.9-5.4h1.3l0,0.4
				c0.2-0.2,0.5-0.4,1.2-0.4C40,13.3,39.5,14.1,39.5,14.8"/>
			<path clip-path="url(#SVGID_2_)" fill-rule="evenodd" clip-rule="evenodd" fill="#3C3C3C" d="M42,14.4c-0.1,0-0.1,0.1-0.2,0.1
				c-0.2,0.1-0.3,0.3-0.4,0.5c-0.1,0.2-0.2,0.4-0.2,0.7c-0.1,0.3-0.1,0.6-0.1,0.8c0,0.3,0.1,0.6,0.2,0.7c0.1,0.2,0.3,0.2,0.5,0.2
				c0.1,0,0.2,0,0.3-0.1c0,0,0.1,0,0.1-0.1c0.1-0.1,0.2-0.1,0.4-0.2l0.5-2.6c-0.1,0-0.2-0.1-0.3-0.1c-0.1,0-0.2-0.1-0.3-0.1
				C42.2,14.3,42.1,14.4,42,14.4 M42,18.3c-0.1,0.1-0.2,0.2-0.3,0.2c-0.1,0.1-0.2,0.1-0.3,0.1c-0.1,0-0.2,0-0.4,0
				c-0.4,0-0.7-0.2-0.9-0.5c-0.2-0.3-0.3-0.8-0.3-1.4c0-0.5,0.1-1,0.2-1.4c0.1-0.4,0.3-0.8,0.5-1.2c0.2-0.3,0.5-0.6,0.7-0.8
				c0.3-0.2,0.5-0.3,0.8-0.3h0c0.2,0,0.4,0,0.6,0.1c0.2,0.1,0.3,0.2,0.5,0.3l0.3-1.9h1.3l-1.2,7h-1.3l0.1-0.6
				C42.2,18.2,42.1,18.3,42,18.3"/>
			<path clip-path="url(#SVGID_2_)" fill="#FFFFFF" d="M17.5,13l-0.2,1.2l-1.2,0c0,0-0.6,0.2-0.6,0.4c0,0.2,0.4,0.6,1.1,0.8
				c0.6,0.3,0.7,1,0.6,1.6c-0.1,0.5-0.2,1.6-2,1.7c-1.1,0-1.7-0.2-1.7-0.2l0.2-1.2c0,0,1.4,0.4,1.7,0.2c0.3-0.2,0.7-0.6,0.1-0.8
				s-1.5-0.6-1.5-1.6c0-1,0.4-1.5,1-1.8C15.7,12.8,16.8,12.8,17.5,13"/>
			<polygon clip-path="url(#SVGID_2_)" fill="#FFFFFF" points="8.3,18.4 7,18.4 7.7,13.8 6.1,18.4 5.1,18.4 4.9,13.6 4.1,18.4 
				2.8,18.4 4,11.3 5.6,11.3 6.1,15.4 7.9,11.3 9.5,11.3 			"/>
			<path clip-path="url(#SVGID_2_)" fill="#FFFFFF" d="M18.8,18.5c-0.4,0-0.8-0.1-0.9-0.3c-0.2-0.2-0.3-0.5-0.3-0.9
				c0-0.1,0-0.2,0-0.3c0-0.1,0-0.2,0-0.3l0.8-4.6h1.3l-0.2,0.9h1.2l-0.2,1.1h-1.2L19,16.1c0,0.1,0,0.3-0.1,0.4c0,0.1,0,0.3,0,0.3
				c0,0.2,0,0.3,0.1,0.4c0.1,0.1,0.2,0.1,0.4,0.1c0.1,0,0.1,0,0.3,0c0.1,0,0.2-0.1,0.3-0.1H20l-0.2,1.1c-0.1,0.1-0.3,0.1-0.5,0.1
				C19.2,18.5,19,18.5,18.8,18.5"/>
			<path clip-path="url(#SVGID_2_)" fill="#FFFFFF" d="M27.9,14.6c-0.3-0.2-0.9-0.2-1,0.3l-0.6,3.6H25l0.9-5.4h1.3l0,0.4
				c0.2-0.2,0.5-0.4,1.2-0.4C28.4,13.1,27.9,13.9,27.9,14.6"/>
			<path clip-path="url(#SVGID_2_)" fill="#FFFFFF" d="M30.3,18.6c-0.7,0-1.3-0.2-1.6-0.7c-0.4-0.5-0.6-1.2-0.6-2
				c0-0.7,0.1-1.3,0.3-1.9c0.2-0.6,0.4-1.1,0.7-1.5c0.3-0.4,0.6-0.7,1.1-0.9c0.4-0.2,0.8-0.3,1.3-0.3c0.4,0,0.7,0.1,1,0.2
				c0.2,0.1,0.4,0.2,0.4,0.2l-0.3,1.7c-0.1-0.2-0.3-0.3-0.4-0.4c-0.2-0.1-0.5-0.2-0.8-0.2c-0.5,0-1,0.3-1.3,0.9
				c-0.3,0.6-0.5,1.3-0.5,2.2c0,0.6,0.1,1,0.3,1.2c0.2,0.2,0.5,0.4,0.8,0.4c0.3,0,0.6-0.1,0.9-0.3c0.1-0.1,0.3-0.2,0.4-0.3l-0.3,1.6
				c0,0-0.2,0.1-0.2,0.1c-0.2,0.1-0.3,0.1-0.5,0.2C30.8,18.6,30.6,18.6,30.3,18.6"/>
			<path clip-path="url(#SVGID_2_)" fill="#FFFFFF" d="M11.4,18.3c-0.1,0-0.1,0.1-0.1,0.1c-0.1,0.1-0.3,0.1-0.4,0.2
				c-0.1,0-0.3,0.1-0.5,0.1c-0.3,0-0.6-0.1-0.8-0.4c-0.2-0.3-0.3-0.6-0.3-1c0-0.4,0.1-0.8,0.2-1.1c0.1-0.3,0.4-0.5,0.7-0.7
				c0.3-0.2,0.6-0.3,1-0.4l0.3,0c0.3-0.1,0.6-0.1,1-0.1c0,0,0-0.1,0-0.1c0,0,0-0.1,0-0.1c0-0.2-0.1-0.4-0.2-0.5
				c-0.2-0.1-0.4-0.1-0.7-0.1h-0.1c-0.2,0-0.4,0.1-0.6,0.1c-0.3,0.1-0.4,0.2-0.6,0.2h-0.1l0.2-1.3c0.1-0.1,0.4-0.1,0.7-0.2
				c0.1,0,0.3-0.1,0.4-0.1c0.2,0,0.3,0,0.5,0c0.6,0,1.1,0.1,1.4,0.3c0.3,0.2,0.4,0.6,0.4,1c0,0.1,0,0.1,0,0.2c0,0.1,0,0.2,0,0.3
				l-0.6,3.7h-1.3l0.1-0.6c-0.1,0.1-0.2,0.2-0.3,0.3C11.5,18.2,11.5,18.2,11.4,18.3 M11.4,16c-0.1,0-0.3,0.1-0.3,0.1
				c-0.1,0.1-0.3,0.2-0.3,0.3c-0.1,0.1-0.1,0.3-0.1,0.5c0,0.2,0.1,0.3,0.1,0.4c0.1,0.1,0.2,0.1,0.4,0.1c0.1,0,0.1,0,0.2,0
				c0.1,0,0.1,0,0.2-0.1c0.1-0.1,0.3-0.2,0.4-0.3l0.2-1.1c-0.2,0-0.4,0.1-0.6,0.1C11.5,16,11.5,16,11.4,16"/>
			<path clip-path="url(#SVGID_2_)" fill="#FFFFFF" d="M22.5,14c-0.2,0-0.3,0.1-0.5,0.3c-0.2,0.2-0.3,0.5-0.4,0.8h0.9h0.9
				c0-0.1,0-0.1,0-0.2c0,0,0-0.1,0-0.1c0-0.3-0.1-0.4-0.2-0.6C23,14,22.9,14,22.7,14C22.6,14,22.5,14,22.5,14 M22.5,17.4h0.2
				c0.3,0,0.5-0.1,0.8-0.2c0.2-0.1,0.5-0.3,0.6-0.4h0.1L24,18.1c-0.2,0.1-0.5,0.3-0.8,0.3c-0.2,0.1-0.5,0.1-0.7,0.1h-0.1
				c-0.7,0-1.2-0.2-1.6-0.6c-0.4-0.4-0.5-1-0.5-1.7c0-0.5,0.1-0.9,0.2-1.3c0.1-0.4,0.3-0.8,0.5-1.1c0.2-0.3,0.5-0.5,0.8-0.7
				c0.2-0.1,0.5-0.2,0.7-0.2c0.1,0,0.2,0,0.3,0c0.6,0,1,0.2,1.3,0.5c0.3,0.3,0.4,0.8,0.4,1.4c0,0.2,0,0.4,0,0.6
				c0,0.2-0.1,0.4-0.1,0.6h-2h-1v0.1v0.1c0,0.4,0.1,0.7,0.3,0.9C21.9,17.2,22.1,17.3,22.5,17.4"/>
			<path clip-path="url(#SVGID_2_)" fill="#FFFFFF" d="M34.4,18.3c-0.1,0-0.1,0.1-0.2,0.1c-0.1,0.1-0.3,0.1-0.4,0.2
				c-0.1,0-0.3,0.1-0.5,0.1c-0.3,0-0.6-0.1-0.8-0.4c-0.2-0.3-0.3-0.6-0.3-1c0-0.4,0.1-0.8,0.2-1.1c0.1-0.3,0.4-0.5,0.7-0.7
				c0.3-0.2,0.6-0.3,1-0.4c0.1,0,0.2,0,0.3,0c0.3-0.1,0.6-0.1,1-0.1c0,0,0-0.1,0-0.1c0,0,0-0.1,0-0.1c0-0.2-0.1-0.4-0.2-0.5
				c-0.2-0.1-0.4-0.1-0.7-0.1h-0.1c-0.2,0-0.4,0.1-0.6,0.1c-0.3,0.1-0.4,0.2-0.6,0.2h-0.1l0.2-1.3c0.1-0.1,0.4-0.1,0.7-0.2
				c0.1,0,0.3-0.1,0.4-0.1c0.2,0,0.3,0,0.5,0c0.6,0,1.1,0.1,1.4,0.3c0.3,0.2,0.4,0.6,0.4,1c0,0.1,0,0.1,0,0.2c0,0.1,0,0.2,0,0.3
				L36,18.4h-1.3l0.1-0.6c-0.1,0.1-0.2,0.2-0.3,0.3L34.4,18.3z M34.4,16c-0.1,0-0.3,0.1-0.4,0.1c-0.1,0.1-0.3,0.2-0.3,0.3
				c-0.1,0.1-0.1,0.3-0.1,0.5c0,0.2,0.1,0.3,0.2,0.4c0.1,0.1,0.2,0.1,0.4,0.1c0.1,0,0.1,0,0.2,0c0.1,0,0.1,0,0.2-0.1
				c0.1-0.1,0.3-0.2,0.4-0.3l0.2-1.1c-0.2,0-0.4,0.1-0.6,0.1C34.5,16,34.4,16,34.4,16"/>
			<path clip-path="url(#SVGID_2_)" fill="#FFFFFF" d="M39.8,14.6c-0.3-0.2-0.9-0.2-1,0.3l-0.6,3.6h-1.3l0.9-5.4H39l0,0.4
				c0.2-0.2,0.5-0.4,1.2-0.4C40.2,13.1,39.8,13.9,39.8,14.6"/>
			<path clip-path="url(#SVGID_2_)" fill-rule="evenodd" clip-rule="evenodd" fill="#FFFFFF" d="M42.3,14.2c-0.1,0-0.1,0.1-0.2,0.1
				c-0.2,0.1-0.3,0.3-0.4,0.5c-0.1,0.2-0.2,0.4-0.2,0.7c-0.1,0.3-0.1,0.6-0.1,0.8c0,0.3,0.1,0.6,0.2,0.7c0.1,0.2,0.3,0.2,0.5,0.2
				c0.1,0,0.2,0,0.3-0.1c0,0,0.1,0,0.1-0.1c0.1-0.1,0.2-0.1,0.4-0.2l0.5-2.6c-0.1,0-0.2-0.1-0.3-0.1c-0.1,0-0.2-0.1-0.3-0.1
				C42.5,14.1,42.4,14.2,42.3,14.2 M42.3,18.2c-0.1,0.1-0.2,0.2-0.3,0.2c-0.1,0.1-0.2,0.1-0.3,0.1c-0.1,0-0.2,0-0.4,0
				c-0.4,0-0.7-0.2-0.9-0.5c-0.2-0.3-0.3-0.8-0.3-1.4c0-0.5,0.1-1,0.2-1.4c0.1-0.4,0.3-0.8,0.5-1.2c0.2-0.3,0.5-0.6,0.7-0.8
				c0.3-0.2,0.5-0.3,0.8-0.3h0c0.2,0,0.4,0,0.6,0.1c0.2,0.1,0.3,0.2,0.5,0.3l0.3-1.9h1.3l-1.2,7h-1.3l0.1-0.6
				C42.5,18,42.3,18.1,42.3,18.2"/>
		</g>
	</g>
</g>
</svg>
