<?xml version="1.0" encoding="utf-8"?>
<!-- Generator: Adobe Illustrator 18.0.0, SVG Export Plug-In . SVG Version: 6.00 Build 0)  -->
<!DOCTYPE svg PUBLIC "-//W3C//DTD SVG 1.1//EN" "http://www.w3.org/Graphics/SVG/1.1/DTD/svg11.dtd">
<svg version="1.1" id="Layer_1" xmlns="http://www.w3.org/2000/svg" xmlns:xlink="http://www.w3.org/1999/xlink" x="0px" y="0px"
	 viewBox="0 0 60 60" enable-background="new 0 0 60 60" xml:space="preserve">
<g>
	<linearGradient id="SVGID_1_" gradientUnits="userSpaceOnUse" x1="8.7868" y1="8.7868" x2="51.2132" y2="51.2132">
		<stop  offset="0" style="stop-color:#D59700"/>
		<stop  offset="0.25" style="stop-color:#FDFFCB"/>
		<stop  offset="0.81" style="stop-color:#C89A20"/>
		<stop  offset="1" style="stop-color:#9C6400"/>
	</linearGradient>
	<polygon fill="url(#SVGID_1_)" points="30,0 31.6,1.8 33.4,0.2 34.7,2.2 36.7,0.8 37.8,2.9 39.9,1.7 40.8,3.9 43,3 43.6,5.3 
		46,4.6 46.3,7 48.7,6.5 48.8,9 51.2,8.8 51,11.2 53.5,11.3 53,13.7 55.4,14 54.7,16.4 57,17 56.1,19.2 58.3,20.1 57.1,22.2 
		59.2,23.3 57.8,25.3 59.8,26.6 58.2,28.4 60,30 58.2,31.6 59.8,33.4 57.8,34.7 59.2,36.7 57.1,37.8 58.3,39.9 56.1,40.8 57,43 
		54.7,43.6 55.4,46 53,46.3 53.5,48.7 51,48.8 51.2,51.2 48.8,51 48.7,53.5 46.3,53 46,55.4 43.6,54.7 43,57 40.8,56.1 39.9,58.3 
		37.8,57.1 36.7,59.2 34.7,57.8 33.4,59.8 31.6,58.2 30,60 28.4,58.2 26.6,59.8 25.3,57.8 23.3,59.2 22.2,57.1 20.1,58.3 19.2,56.1 
		17,57 16.4,54.7 14,55.4 13.7,53 11.3,53.5 11.2,51 8.8,51.2 9,48.8 6.5,48.7 7,46.3 4.6,46 5.3,43.6 3,43 3.9,40.8 1.7,39.9 
		2.9,37.8 0.8,36.7 2.2,34.7 0.2,33.4 1.8,31.6 0,30 1.8,28.4 0.2,26.6 2.2,25.3 0.8,23.3 2.9,22.2 1.7,20.1 3.9,19.2 3,17 
		5.3,16.4 4.6,14 7,13.7 6.5,11.3 9,11.2 8.8,8.8 11.2,9 11.3,6.5 13.7,7 14,4.6 16.4,5.3 17,3 19.2,3.9 20.1,1.7 22.2,2.9 
		23.3,0.8 25.3,2.2 26.6,0.2 28.4,1.8 	"/>
	<linearGradient id="SVGID_2_" gradientUnits="userSpaceOnUse" x1="10.9474" y1="10.9474" x2="49.0526" y2="49.0526">
		<stop  offset="0" style="stop-color:#623620"/>
		<stop  offset="0.12" style="stop-color:#CC9E20"/>
		<stop  offset="0.24" style="stop-color:#FFFFFF"/>
		<stop  offset="0.52" style="stop-color:#CF9A30"/>
		<stop  offset="1" style="stop-color:#662D29"/>
	</linearGradient>
	<circle fill="url(#SVGID_2_)" cx="30" cy="30" r="26.9"/>
	<linearGradient id="SVGID_3_" gradientUnits="userSpaceOnUse" x1="11.3402" y1="11.3402" x2="48.6598" y2="48.6598">
		<stop  offset="0" style="stop-color:#D59700"/>
		<stop  offset="0.12" style="stop-color:#FDFFCB"/>
		<stop  offset="0.25" style="stop-color:#FFFFFF"/>
		<stop  offset="0.41" style="stop-color:#FDFFCB"/>
		<stop  offset="0.81" style="stop-color:#C89A20"/>
		<stop  offset="1" style="stop-color:#9C6400"/>
	</linearGradient>
	<circle fill="url(#SVGID_3_)" cx="30" cy="30" r="26.4"/>
	<linearGradient id="SVGID_4_" gradientUnits="userSpaceOnUse" x1="12.3223" y1="12.3223" x2="47.6777" y2="47.6777">
		<stop  offset="0" style="stop-color:#CBA036"/>
		<stop  offset="0.12" style="stop-color:#FDFFCB"/>
		<stop  offset="0.25" style="stop-color:#FFFFFF"/>
		<stop  offset="0.41" style="stop-color:#FDFFCB"/>
		<stop  offset="1" style="stop-color:#C89A20"/>
	</linearGradient>
	<circle fill="url(#SVGID_4_)" cx="30" cy="30" r="25"/>
	<path d="M30,6.4C17,6.4,6.4,17,6.4,30C6.4,43,17,53.6,30,53.6C43,53.6,53.6,43,53.6,30C53.6,17,43,6.4,30,6.4z M30,45.3
		c-8.4,0-15.3-6.8-15.3-15.3c0-8.4,6.8-15.3,15.3-15.3c8.4,0,15.3,6.8,15.3,15.3C45.3,38.4,38.4,45.3,30,45.3z M39.7,30.5
		c-0.3,0.3-0.4,0.8-0.4,1.5c0,0.7,0.1,1.2,0.4,1.5c0.3,0.3,0.7,0.5,1.2,0.5c0.5,0,0.9-0.2,1.2-0.5c0.3-0.3,0.4-0.8,0.4-1.5
		c0-0.7-0.1-1.1-0.4-1.5c-0.3-0.3-0.7-0.5-1.2-0.5C40.4,30,40,30.2,39.7,30.5z M40.5,31c0.1-0.1,0.2-0.2,0.3-0.2
		c0.2,0,0.3,0.1,0.4,0.2c0.1,0.2,0.2,0.5,0.2,1c0,0.5-0.1,0.8-0.2,1c-0.1,0.1-0.2,0.2-0.3,0.2c-0.1,0-0.3-0.1-0.3-0.2
		c-0.1-0.2-0.2-0.5-0.2-1C40.4,31.5,40.4,31.1,40.5,31z M18.7,27.4c-0.4,0.3-0.8,0.6-1.2,0.7v1.3c0.7-0.2,1.3-0.6,1.8-1.1v5.3h1.4
		v-7.4h-1.1C19.4,26.7,19.1,27,18.7,27.4z M25.2,26.2c-0.7,0-1.3,0.3-1.7,0.8c-0.5,0.6-0.7,1.6-0.7,3c0,1.4,0.2,2.4,0.7,2.9
		c0.4,0.6,1,0.8,1.7,0.8c0.7,0,1.3-0.3,1.7-0.8c0.5-0.6,0.7-1.6,0.7-3c0-1.4-0.2-2.4-0.7-3C26.5,26.5,25.9,26.2,25.2,26.2z M26,31.8
		c-0.1,0.3-0.2,0.5-0.3,0.6c-0.1,0.1-0.3,0.2-0.5,0.2c-0.2,0-0.3-0.1-0.5-0.2c-0.1-0.1-0.2-0.3-0.3-0.6c-0.1-0.3-0.1-0.9-0.1-1.8
		c0-0.9,0-1.5,0.1-1.8c0.1-0.3,0.2-0.5,0.3-0.6c0.1-0.1,0.3-0.2,0.5-0.2c0.2,0,0.3,0.1,0.5,0.2c0.1,0.1,0.2,0.3,0.3,0.6
		c0.1,0.3,0.1,0.9,0.1,1.8C26.1,30.8,26.1,31.4,26,31.8z M35.9,33.9h1l3.9-7.8h-1L35.9,33.9z M37.1,29.5c0.3-0.3,0.4-0.8,0.4-1.5
		c0-0.7-0.1-1.2-0.4-1.5c-0.3-0.3-0.7-0.5-1.2-0.5c-0.5,0-0.9,0.2-1.2,0.5c-0.3,0.3-0.4,0.8-0.4,1.5c0,0.7,0.1,1.2,0.4,1.5
		c0.3,0.3,0.7,0.5,1.2,0.5C36.4,30,36.8,29.8,37.1,29.5z M36.2,29c-0.1,0.1-0.2,0.2-0.4,0.2c-0.1,0-0.3-0.1-0.3-0.2
		c-0.1-0.2-0.2-0.5-0.2-1c0-0.5,0.1-0.8,0.2-1c0.1-0.1,0.2-0.2,0.3-0.2c0.2,0,0.3,0.1,0.4,0.2c0.1,0.2,0.2,0.5,0.2,1
		C36.4,28.5,36.4,28.8,36.2,29z M30.9,26.2c-0.7,0-1.3,0.3-1.7,0.8c-0.5,0.6-0.7,1.6-0.7,3c0,1.4,0.2,2.4,0.7,2.9
		c0.4,0.6,1,0.8,1.7,0.8c0.7,0,1.3-0.3,1.7-0.8c0.5-0.6,0.7-1.6,0.7-3c0-1.4-0.2-2.4-0.7-3C32.2,26.5,31.7,26.2,30.9,26.2z
		 M31.7,31.8c-0.1,0.3-0.2,0.5-0.3,0.6c-0.1,0.1-0.3,0.2-0.5,0.2s-0.3-0.1-0.5-0.2c-0.1-0.1-0.2-0.3-0.3-0.6
		C30.1,31.4,30,30.8,30,30c0-0.9,0-1.5,0.1-1.8c0.1-0.3,0.2-0.5,0.3-0.6c0.1-0.1,0.3-0.2,0.5-0.2s0.3,0.1,0.5,0.2
		c0.1,0.1,0.2,0.3,0.3,0.6c0.1,0.3,0.1,0.9,0.1,1.8C31.9,30.8,31.8,31.4,31.7,31.8z"/>
	<linearGradient id="SVGID_5_" gradientUnits="userSpaceOnUse" x1="14.285" y1="14.5327" x2="45.6419" y2="45.8896">
		<stop  offset="0" style="stop-color:#CBA036"/>
		<stop  offset="0.12" style="stop-color:#FDFFCB"/>
		<stop  offset="0.25" style="stop-color:#FFFFFF"/>
		<stop  offset="0.41" style="stop-color:#FDFFCB"/>
		<stop  offset="1" style="stop-color:#C89A20"/>
	</linearGradient>
	<path fill="url(#SVGID_5_)" d="M43.4,18.9c-0.1,0.7,0,1.3,0.4,1.9c0.3,0.5,0.7,0.8,1.2,0.9c0.4,0.1,1,0.1,1.5-0.1l-0.3-1.1
		c-0.4,0.1-0.7,0.2-1,0.1c-0.3-0.1-0.5-0.2-0.6-0.5c-0.2-0.3-0.3-0.7-0.2-1c0.1-0.4,0.4-0.7,1-1.1c0.5-0.4,1-0.5,1.4-0.5
		c0.4,0,0.7,0.2,0.9,0.6c0.2,0.2,0.2,0.5,0.2,0.7s-0.1,0.5-0.3,0.7l0.8,0.7c0.3-0.3,0.5-0.7,0.5-1c0.1-0.6-0.1-1.1-0.4-1.7
		c-0.4-0.6-1-1-1.6-1.1c-0.7-0.1-1.4,0.1-2.1,0.6C43.9,17.7,43.5,18.2,43.4,18.9z M12.2,19.2c0.2,0.4,0.5,0.7,0.9,1
		c0.7,0.5,1.3,0.8,2,0.7c0.7-0.1,1.3-0.4,1.7-1.1c0.5-0.6,0.7-1.3,0.6-1.9c-0.1-0.7-0.5-1.3-1.2-1.8c-0.7-0.5-1.4-0.8-2.1-0.7
		c-0.7,0.1-1.3,0.4-1.7,1c-0.3,0.3-0.4,0.7-0.5,1c-0.1,0.3-0.1,0.5,0,0.8C12,18.6,12.1,18.9,12.2,19.2z M13.3,17
		c0.3-0.4,0.6-0.5,1-0.6c0.4,0,0.8,0.1,1.3,0.5c0.5,0.4,0.8,0.8,0.9,1.2c0.1,0.4,0,0.8-0.3,1.1c-0.3,0.3-0.6,0.5-1,0.6
		c-0.4,0-0.9-0.1-1.3-0.5c-0.5-0.4-0.8-0.8-0.8-1.2C12.9,17.7,13,17.3,13.3,17z M27,13.5l-0.3-0.9l-2.9,0.9l-0.4-1.4l2.6-0.8
		l-0.3-0.9l-2.6,0.8l-0.4-1.1l2.8-0.9l-0.3-0.9l-3.8,1.2l1.6,5.1L27,13.5z M39.2,16l1.1-0.7l1.7,1.3l-0.4,1.2l0.9,0.7l1.7-5.5
		l-0.9-0.7l-5,2.9L39.2,16z M42.9,13.7l-0.7,2l-1.1-0.9L42.9,13.7z M13.7,26.2l-4-1.3l4.3,0.3l0.3-1l-3.7-2.4l4,1.3l0.3-1l-5.1-1.7
		l-0.5,1.5l3.2,2.1l-3.8-0.2l-0.5,1.5l5.1,1.7L13.7,26.2z M29,13.4l1.1,0L30,11.1l1.9-3.2l-1.2,0l-1.2,2.2L28.1,8l-1.3,0l2.1,3.1
		L29,13.4z M37,14.8c0.3,0.1,0.5,0.1,0.8,0c0.2-0.1,0.4-0.2,0.6-0.3c0.2-0.2,0.3-0.4,0.4-0.6c0.1-0.3,0.1-0.6,0-0.8
		c-0.1-0.3-0.3-0.5-0.5-0.7c0.3,0,0.5-0.1,0.7-0.2c0.2-0.1,0.3-0.3,0.4-0.6c0.1-0.2,0.1-0.4,0.1-0.6c0-0.2-0.1-0.4-0.2-0.6
		c-0.1-0.2-0.3-0.3-0.4-0.4c-0.2-0.1-0.5-0.2-0.9-0.4l-2-0.8l-1.9,5l1.7,0.7C36.4,14.6,36.8,14.7,37,14.8z M36.6,9.9l0.6,0.2
		c0.5,0.2,0.8,0.3,0.9,0.4c0.2,0.1,0.3,0.2,0.3,0.3c0,0.1,0,0.3,0,0.4c-0.1,0.2-0.2,0.3-0.3,0.3c-0.1,0.1-0.3,0.1-0.5,0
		c-0.1,0-0.3-0.1-0.7-0.3l-0.7-0.3L36.6,9.9z M35.9,11.9l0.8,0.3c0.5,0.2,0.7,0.3,0.9,0.4c0.1,0.1,0.2,0.2,0.2,0.4
		c0,0.1,0,0.3,0,0.4c-0.1,0.2-0.2,0.3-0.3,0.4c-0.1,0.1-0.3,0.1-0.4,0.1c-0.1,0-0.3-0.1-0.7-0.2l-0.9-0.4L35.9,11.9z M45.6,24.1
		l1.6-0.5l1.1,0.6l-2,2.1l0.4,1.3l2.5-3l2.6,1.3l-0.4-1.4l-2.9-1.4l2.3-0.7l-0.3-1l-5.1,1.6L45.6,24.1z M41.6,43.6l-0.5-0.8
		l-3.5,2.4l0.5,0.8l1.3-0.9l2.5,3.7l0.9-0.6l-2.5-3.7L41.6,43.6z M36.4,45.6l1.1,3.4l-3.2-2.7l-1,0.3l1.7,5.1l1-0.3l-1.1-3.3
		l3.2,2.6l1-0.3l-1.7-5.1L36.4,45.6z M48.7,40.3l-1.3-0.7l1.2-2.4l-0.8-0.4l-1.2,2.4l-1.1-0.5l1.3-2.6L46,35.8l-1.8,3.6l4.8,2.4
		l1.8-3.6L50,37.7L48.7,40.3z M45.3,44.9l-1.1-1l1.8-2l-0.7-0.6l-1.8,2l-0.9-0.8l1.9-2.2l-0.7-0.6l-2.7,3l4,3.6l2.7-3l-0.7-0.6
		L45.3,44.9z M30,46.9l-1.9,5.4l1.1,0l0.4-1.2l2.1-0.1l0.5,1.2l1.2,0l-2.3-5.3L30,46.9z M30,50.1l0.7-2l0.8,2L30,50.1z M19.1,43
		l-0.7-0.8l-2.2,2c-0.3,0.3-0.5,0.5-0.7,0.6C15.3,44.9,15.2,45,15,45c-0.2,0-0.4-0.2-0.6-0.4c-0.2-0.2-0.3-0.4-0.3-0.7
		c0-0.2,0-0.4,0.2-0.6c0.1-0.1,0.3-0.3,0.6-0.6l2.1-2l-0.7-0.8l-2.1,2c-0.4,0.4-0.7,0.7-0.9,1C13,43,13,43.2,12.9,43.5
		c0,0.2,0,0.5,0.1,0.8c0.1,0.3,0.3,0.6,0.7,1c0.3,0.3,0.6,0.5,0.8,0.6C14.8,46,15,46,15.3,46c0.2,0,0.5-0.1,0.7-0.2
		c0.2-0.1,0.6-0.4,1.1-0.9L19.1,43z M16.3,47.7l1,0.6l1-0.8l1.8,1.1L20,49.9l1,0.6l0.9-5.7l-1-0.6L16.3,47.7z M20.3,47.6l-1.3-0.7
		l1.6-1.3L20.3,47.6z M12.7,38.6L11.8,39l0.5,1.1l-0.6,0.3c-0.2-0.1-0.4-0.2-0.5-0.4c-0.2-0.2-0.3-0.4-0.4-0.6
		c-0.2-0.4-0.2-0.8-0.1-1.2c0.2-0.4,0.5-0.7,1.1-1c0.5-0.3,1-0.3,1.4-0.2c0.4,0.1,0.7,0.4,0.9,0.8c0.1,0.3,0.2,0.5,0.1,0.8
		c0,0.3-0.2,0.5-0.4,0.7l0.7,0.9c0.4-0.3,0.6-0.7,0.7-1.2c0.1-0.5,0-1-0.3-1.6c-0.2-0.5-0.5-0.8-0.8-1c-0.4-0.3-0.9-0.5-1.3-0.5
		c-0.5,0-1,0.1-1.5,0.3c-0.5,0.2-0.8,0.5-1.1,0.9c-0.3,0.4-0.5,0.8-0.5,1.3c0,0.5,0.1,1,0.3,1.5c0.2,0.4,0.5,0.8,0.8,1.1
		c0.3,0.3,0.7,0.5,1,0.6l1.9-0.9L12.7,38.6z M18.5,11.2l2,3l-3.8-1.7L15.8,13l3,4.4l0.8-0.6l-2-2.9l3.8,1.7l0.9-0.6l-3-4.4
		L18.5,11.2z M27.1,46.8c-0.2-0.2-0.6-0.3-1.2-0.4l-2.2-0.6L22.4,51l1.1,0.3l0.5-2.2l0.2,0.1c0.2,0.1,0.4,0.1,0.5,0.2
		c0.1,0.1,0.2,0.2,0.3,0.3c0.1,0.1,0.2,0.4,0.4,0.9l0.5,1.3l1.3,0.3L26.7,51c-0.1-0.5-0.3-0.8-0.4-1c-0.1-0.2-0.3-0.4-0.5-0.6
		c0.5,0,0.9,0,1.2-0.2c0.3-0.2,0.5-0.5,0.6-0.9c0.1-0.3,0.1-0.6,0-0.9C27.5,47.2,27.4,47,27.1,46.8z M26.5,48.1
		c0,0.2-0.1,0.3-0.2,0.4c-0.1,0.1-0.2,0.1-0.4,0.1c-0.1,0-0.5,0-1-0.2l-0.8-0.2l0.3-1.3l0.8,0.2c0.4,0.1,0.7,0.2,0.8,0.2
		c0.2,0.1,0.3,0.2,0.3,0.3C26.6,47.8,26.6,48,26.5,48.1z M10.6,33.3l1.6,0.9l-0.3-1.8l1.3-1.3l-1.8-0.3l-0.8-1.7l-0.8,1.7l-1.8,0.3
		l1.3,1.3l-0.3,1.8L10.6,33.3z M52.1,31.1l-1.8-0.3l-0.8-1.7l-0.8,1.7l-1.8,0.3l1.3,1.3l-0.3,1.8l1.6-0.9l1.6,0.9l-0.3-1.8
		L52.1,31.1z"/>
	<linearGradient id="SVGID_6_" gradientUnits="userSpaceOnUse" x1="10.9358" y1="11.1024" x2="48.9131" y2="49.0798">
		<stop  offset="0" style="stop-color:#623620"/>
		<stop  offset="0.12" style="stop-color:#CC9E20"/>
		<stop  offset="0.23" style="stop-color:#EAD2A3"/>
		<stop  offset="0.52" style="stop-color:#CF9A30"/>
		<stop  offset="1" style="stop-color:#662D29"/>
	</linearGradient>
	<path fill="url(#SVGID_6_)" d="M23.2,20.1l-0.4,0.8L21.9,21l0.7,0.6l-0.2,0.9l0.8-0.4l0.8,0.4l-0.2-0.9l0.7-0.6l-0.9-0.1L23.2,20.1
		z M35.6,22.6l0.8-0.4l0.8,0.4l-0.2-0.9l0.7-0.6l-0.9-0.1l-0.4-0.8L36,20.9L35.1,21l0.7,0.6L35.6,22.6z M30,16.3L29.2,18l-1.8,0.3
		l1.3,1.3l-0.3,1.8l1.6-0.9l1.6,0.9l-0.3-1.8l1.3-1.3L30.8,18L30,16.3z M37.3,37.4l-0.8,0.4l-0.8-0.4l0.2,0.9L35.1,39l0.9,0.1
		l0.4,0.8l0.4-0.8l0.9-0.1l-0.7-0.6L37.3,37.4z M31.6,38.7L30,39.5l-1.6-0.9l0.3,1.8l-1.3,1.3l1.8,0.3l0.8,1.7l0.8-1.7l1.8-0.3
		l-1.3-1.3L31.6,38.7z M24,37.4l-0.8,0.4l-0.8-0.4l0.2,0.9L21.9,39l0.9,0.1l0.4,0.8l0.4-0.8l0.9-0.1l-0.7-0.6L24,37.4z"/>
</g>
</svg>
