<?xml version="1.0" encoding="utf-8"?>
<!-- Generator: Adobe Illustrator 18.0.0, SVG Export Plug-In . SVG Version: 6.00 Build 0)  -->
<!DOCTYPE svg PUBLIC "-//W3C//DTD SVG 1.1//EN" "http://www.w3.org/Graphics/SVG/1.1/DTD/svg11.dtd">
<svg version="1.1" id="Layer_1" xmlns="http://www.w3.org/2000/svg" xmlns:xlink="http://www.w3.org/1999/xlink" x="0px" y="0px"
	 viewBox="0 0 47.9 30" enable-background="new 0 0 47.9 30" xml:space="preserve">
<g>
	<g>
		<defs>
			<rect id="SVGID_56_" x="0" y="0" width="47.9" height="30"/>
		</defs>
		<clipPath id="SVGID_1_">
			<use xlink:href="#SVGID_56_"  overflow="visible"/>
		</clipPath>
		<rect x="0" y="0" clip-path="url(#SVGID_1_)" fill="#5C5C5C" width="47.9" height="30"/>
		<rect x="0.6" y="0.6" clip-path="url(#SVGID_1_)" fill="#FFFFFF" width="46.8" height="28.9"/>
		
			<rect x="2" y="2" clip-path="url(#SVGID_1_)" fill-rule="evenodd" clip-rule="evenodd" fill="#5C5C5C" width="43.9" height="6.3"/>
		
			<rect x="2" y="21.7" clip-path="url(#SVGID_1_)" fill-rule="evenodd" clip-rule="evenodd" fill="#C2C2C2" width="43.9" height="6.3"/>
		<polygon clip-path="url(#SVGID_1_)" fill-rule="evenodd" clip-rule="evenodd" fill="#5C5C5C" points="17,19.9 20,10 22.7,10 
			19.7,19.9 		"/>
		<g clip-path="url(#SVGID_1_)">
			<defs>
				<rect id="SVGID_58_" x="0" y="0" width="47.9" height="30"/>
			</defs>
			<clipPath id="SVGID_2_">
				<use xlink:href="#SVGID_58_"  overflow="visible"/>
			</clipPath>
			<path clip-path="url(#SVGID_2_)" fill-rule="evenodd" clip-rule="evenodd" fill="#5C5C5C" d="M15.8,10l-2.4,4.2
				c-0.6,1.1-1,1.7-1.1,2.4h0c0-0.9-0.1-2-0.1-2.6l-0.3-4H7.3l0,0.3c1.2,0,1.8,0.6,2,1.8l0.9,7.9H13l5.6-9.9H15.8z"/>
			<path clip-path="url(#SVGID_2_)" fill-rule="evenodd" clip-rule="evenodd" fill="#5C5C5C" d="M36.6,19.9l-0.1-1.5l-3.3,0
				l-0.7,1.5h-2.9l5.3-9.9h3.6l0.9,9.9H36.6z M36.3,14.1c0-0.7-0.1-1.7,0-2.3h0c-0.2,0.5-0.9,2-1.2,2.7l-1,2.2h2.3L36.3,14.1z"/>
			<path clip-path="url(#SVGID_2_)" fill-rule="evenodd" clip-rule="evenodd" fill="#5C5C5C" d="M25.5,20.2c-1.9,0-3.1-0.6-4-1.1
				l1.3-2c0.8,0.5,1.4,1,2.9,1c0.5,0,0.9-0.1,1.2-0.6c0.4-0.6-0.1-1-1.1-1.6l-0.5-0.3c-1.6-1.1-2.2-2.1-1.5-3.8c0.5-1.1,1.7-2,3.7-2
				c1.4,0,2.7,0.6,3.5,1.2l-1.5,1.7c-0.7-0.6-1.4-0.9-2.1-0.9c-0.6,0-1,0.2-1.1,0.5c-0.3,0.6,0.1,0.9,0.9,1.4l0.6,0.4
				c1.9,1.2,2.3,2.4,1.9,3.6C28.7,19.8,27.2,20.2,25.5,20.2"/>
		</g>
	</g>
</g>
</svg>
